<?xml version="1.0" encoding="UTF-8" standalone="no"?>
<!-- Created with Inkscape (http://www.inkscape.org/) -->

<svg
   width="37.764996"
   height="40.764969"
   viewBox="0 0 9.9919884 10.785731"
   version="1.1"
   id="svg1"
   xml:space="preserve"
   xmlns:xlink="http://www.w3.org/1999/xlink"
   xmlns="http://www.w3.org/2000/svg"
   xmlns:svg="http://www.w3.org/2000/svg"><defs
     id="defs1"><linearGradient
       id="linearGradient1"><stop
         style="stop-color:#434a5f;stop-opacity:1;"
         offset="1"
         id="stop111" /><stop
         style="stop-color:#434a5f;stop-opacity:1;"
         offset="1"
         id="stop112" /></linearGradient><linearGradient
       id="linearGradient103"><stop
         style="stop-color:#434a5f;stop-opacity:1;"
         offset="1"
         id="stop103" /><stop
         style="stop-color:#434a5f;stop-opacity:1;"
         offset="1"
         id="stop104" /></linearGradient><linearGradient
       id="linearGradient7"><stop
         style="stop-color:#b8b8b8;stop-opacity:1;"
         offset="0.16548869"
         id="stop14" /><stop
         style="stop-color:#ffffff;stop-opacity:1;"
         offset="0.16548869"
         id="stop16" /><stop
         style="stop-color:#ffffff;stop-opacity:1;"
         offset="0.2089889"
         id="stop15" /><stop
         style="stop-color:#e5e5e5;stop-opacity:1;"
         offset="0.2089889"
         id="stop7" /></linearGradient><radialGradient
       xlink:href="#linearGradient7"
       id="radialGradient184"
       gradientUnits="userSpaceOnUse"
       gradientTransform="matrix(7.5298137,0,0,1.8808423,-2785.3412,-184.19637)"
       cx="452.62515"
       cy="196.25169"
       fx="452.62515"
       fy="196.25169"
       r="4.2087579" /><linearGradient
       xlink:href="#linearGradient1"
       id="linearGradient222"
       x1="618.63318"
       y1="180.88049"
       x2="627.05072"
       y2="180.88049"
       gradientUnits="userSpaceOnUse" /><linearGradient
       xlink:href="#linearGradient103"
       id="linearGradient795"
       x1="620.88928"
       y1="179.96053"
       x2="624.73584"
       y2="179.96053"
       gradientUnits="userSpaceOnUse" /></defs><g
     id="layer2"
     transform="translate(-165.10007,5.4832906e-5)"
     style="display:inline"><g
       id="g224"
       style="display:inline;paint-order:fill markers stroke"
       transform="matrix(1.1870466,0,0,1.1870466,-569.24636,-209.32076)"><path
         id="rect184"
         style="opacity:1;fill:url(#radialGradient184);stroke:url(#linearGradient222);stroke-width:1.00301;stroke-linecap:round;stroke-linejoin:round;stroke-miterlimit:0"
         d="m 620.24917,176.8389 h 5.18558 c 0.61741,0 1.11446,0.49705 1.11446,1.11446 v 5.85426 c 0,0.61741 -0.49705,1.11446 -1.11446,1.11446 h -5.18558 c -0.61742,0 -1.11447,-0.49705 -1.11447,-1.11446 v -5.85426 c 0,-0.61741 0.49705,-1.11446 1.11447,-1.11446 z" /><path
         d="m 624.03069,179.65317 -0.12656,0.59212 h 0.5424 v 0.69608 h -0.69157 l -0.14916,0.69156 h -0.7232 l 0.14916,-0.69156 h -0.75032 l -0.14916,0.69156 h -0.72321 l 0.14916,-0.69156 h -0.66896 v -0.69608 h 0.81813 l 0.12656,-0.59212 h -0.65541 v -0.69609 h 0.80005 l 0.14464,-0.66896 h 0.7232 l -0.14464,0.66896 h 0.75032 l 0.14464,-0.66896 h 0.72321 l -0.14464,0.66896 h 0.56048 v 0.69609 z m -0.72321,0 h -0.75032 l -0.12656,0.59212 h 0.75032 z"
         id="text184"
         style="font-weight:bold;font-size:4.52002px;font-family:Poppins;-inkscape-font-specification:'Poppins Bold';text-align:center;letter-spacing:0.100131px;text-anchor:middle;fill:url(#linearGradient795);stroke-width:1.99061;stroke-linecap:round;stroke-linejoin:round;stroke-dasharray:3.98122, 1.99061"
         aria-label="#" /></g></g></svg>
