<?xml version="1.0" encoding="UTF-8" standalone="no"?>
<!-- Created with Inkscape (http://www.inkscape.org/) -->

<svg
   width="37.764977"
   height="40.764977"
   viewBox="0 0 9.9919834 10.785733"
   version="1.1"
   id="svg1"
   xml:space="preserve"
   xmlns:xlink="http://www.w3.org/1999/xlink"
   xmlns="http://www.w3.org/2000/svg"
   xmlns:svg="http://www.w3.org/2000/svg"><defs
     id="defs1"><linearGradient
       id="linearGradient89"><stop
         style="stop-color:#434a5f;stop-opacity:1;"
         offset="1"
         id="stop89" /><stop
         style="stop-color:#434a5f;stop-opacity:1;"
         offset="1"
         id="stop90" /></linearGradient><linearGradient
       id="linearGradient1-1"><stop
         style="stop-color:#434a5f;stop-opacity:1;"
         offset="0.47322804"
         id="stop3" /><stop
         style="stop-color:#434a5f;stop-opacity:1;"
         offset="1"
         id="stop4" /></linearGradient><linearGradient
       id="linearGradient568"><stop
         style="stop-color:#6d7592;stop-opacity:1;"
         offset="0.18130387"
         id="stop565" /><stop
         style="stop-color:#a7adbe;stop-opacity:1;"
         offset="0.18130387"
         id="stop566" /><stop
         style="stop-color:#a8acbd;stop-opacity:1;"
         offset="0.2008221"
         id="stop567" /><stop
         style="stop-color:#8a90a8;stop-opacity:1;"
         offset="0.2008221"
         id="stop568" /></linearGradient><radialGradient
       xlink:href="#linearGradient568"
       id="radialGradient547"
       gradientUnits="userSpaceOnUse"
       gradientTransform="matrix(7.5298137,0,0,1.8808423,-2870.9318,-152.09993)"
       cx="452.62515"
       cy="196.25169"
       fx="452.62515"
       fy="196.25169"
       r="4.2087579" /><linearGradient
       xlink:href="#linearGradient1-1"
       id="linearGradient345"
       x1="533.04266"
       y1="212.97694"
       x2="541.46021"
       y2="212.97694"
       gradientUnits="userSpaceOnUse" /><linearGradient
       xlink:href="#linearGradient89"
       id="linearGradient998"
       x1="535.9632"
       y1="212.13609"
       x2="538.4447"
       y2="212.13609"
       gradientUnits="userSpaceOnUse" /></defs><g
     id="g456"
     transform="translate(-177.80009,-12.699943)"
     style="display:inline"><g
       id="g433"
       style="display:inline;paint-order:fill markers stroke"
       transform="matrix(1.1870466,0,0,1.1870466,-454.94642,-234.72076)"><rect
         style="opacity:1;fill:url(#radialGradient547);fill-opacity:1;stroke:url(#linearGradient345);stroke-width:1.00301;stroke-linecap:round;stroke-linejoin:round;stroke-miterlimit:0;stroke-dasharray:none;stroke-opacity:1;paint-order:fill markers stroke"
         id="rect432"
         width="7.414506"
         height="8.0831823"
         x="533.54419"
         y="208.93536"
         rx="1.1144606"
         ry="1.1144606" /><path
         d="m 538.44469,212.80732 q 0,0.2486 -0.13108,0.46104 -0.12656,0.20792 -0.37969,0.34352 -0.2486,0.13108 -0.59212,0.14464 v 0.36612 h -0.28928 V 213.752 q -0.47912,-0.0407 -0.77292,-0.28476 -0.2938,-0.2486 -0.31188,-0.67348 h 0.82264 q 0.0271,0.2712 0.26216,0.34804 v -0.71417 q -0.35256,-0.0904 -0.565,-0.17628 -0.20792,-0.0859 -0.36612,-0.27572 -0.1582,-0.18984 -0.1582,-0.5198 0,-0.41132 0.30284,-0.65992 0.30736,-0.2486 0.78648,-0.28024 v -0.36613 h 0.28928 v 0.36613 q 0.4746,0.0362 0.75033,0.27572 0.27572,0.23956 0.30736,0.66444 h -0.82717 q -0.0271,-0.24408 -0.23052,-0.3164 v 0.7006 q 0.37516,0.10396 0.57856,0.18532 0.20341,0.0814 0.36161,0.2712 0.16272,0.18533 0.16272,0.51077 z m -1.66337,-1.38765 q 0,0.113 0.0678,0.18984 0.0723,0.0768 0.2034,0.1356 v -0.62828 q -0.12656,0.0226 -0.19888,0.0994 -0.0723,0.0723 -0.0723,0.2034 z m 0.56048,1.73569 q 0.1356,-0.0226 0.21244,-0.10848 0.0814,-0.0859 0.0814,-0.21244 0,-0.11752 -0.0768,-0.18984 -0.0723,-0.0768 -0.21696,-0.13108 z"
         id="text432"
         style="font-weight:bold;font-size:4.52002px;font-family:Poppins;-inkscape-font-specification:'Poppins Bold';text-align:center;letter-spacing:0.100131px;text-anchor:middle;fill:url(#linearGradient998);stroke-width:1.99061;stroke-linecap:round;stroke-linejoin:round;stroke-dasharray:3.98122, 1.99061"
         aria-label="$" /></g></g></svg>
