<?xml version="1.0" encoding="UTF-8" standalone="no"?>
<!-- Created with Inkscape (http://www.inkscape.org/) -->

<svg
   width="37.764996"
   height="40.765011"
   viewBox="0 0 9.9919884 10.785742"
   version="1.1"
   id="svg1"
   xml:space="preserve"
   xmlns:xlink="http://www.w3.org/1999/xlink"
   xmlns="http://www.w3.org/2000/svg"
   xmlns:svg="http://www.w3.org/2000/svg"><defs
     id="defs1"><linearGradient
       id="linearGradient89"><stop
         style="stop-color:#434a5f;stop-opacity:1;"
         offset="1"
         id="stop89" /><stop
         style="stop-color:#434a5f;stop-opacity:1;"
         offset="1"
         id="stop90" /></linearGradient><linearGradient
       id="linearGradient1-1"><stop
         style="stop-color:#434a5f;stop-opacity:1;"
         offset="1"
         id="stop3" /><stop
         style="stop-color:#434a5f;stop-opacity:1;"
         offset="1"
         id="stop4" /></linearGradient><linearGradient
       id="linearGradient568"><stop
         style="stop-color:#6d7592;stop-opacity:1;"
         offset="0.18130387"
         id="stop565" /><stop
         style="stop-color:#a7adbe;stop-opacity:1;"
         offset="0.18130387"
         id="stop566" /><stop
         style="stop-color:#a8acbd;stop-opacity:1;"
         offset="0.2008221"
         id="stop567" /><stop
         style="stop-color:#8a90a8;stop-opacity:1;"
         offset="0.2008221"
         id="stop568" /></linearGradient><radialGradient
       xlink:href="#linearGradient568"
       id="radialGradient548"
       gradientUnits="userSpaceOnUse"
       gradientTransform="matrix(7.5298137,0,0,1.8808423,-2860.233,-152.09992)"
       cx="452.62515"
       cy="196.25169"
       fx="452.62515"
       fy="196.25169"
       r="4.2087579" /><linearGradient
       xlink:href="#linearGradient1-1"
       id="linearGradient344"
       x1="543.74146"
       y1="212.97694"
       x2="552.159"
       y2="212.97694"
       gradientUnits="userSpaceOnUse" /><linearGradient
       xlink:href="#linearGradient89"
       id="linearGradient999"
       x1="546.12408"
       y1="212.13835"
       x2="549.77631"
       y2="212.13835"
       gradientUnits="userSpaceOnUse" /></defs><g
     id="g456"
     transform="translate(-190.50007,-12.699949)"
     style="display:inline"><g
       id="g434"
       style="display:inline;paint-order:fill markers stroke"
       transform="matrix(1.1870466,0,0,1.1870466,-454.9464,-234.72075)"><path
         id="rect433"
         style="opacity:1;fill:url(#radialGradient548);stroke:url(#linearGradient344);stroke-width:1.00301;stroke-linecap:round;stroke-linejoin:round;stroke-miterlimit:0"
         d="m 545.35744,208.93536 h 5.18559 c 0.61741,0 1.11446,0.49705 1.11446,1.11446 v 5.85427 c 0,0.61741 -0.49705,1.11446 -1.11446,1.11446 h -5.18559 c -0.61741,0 -1.11446,-0.49705 -1.11446,-1.11446 v -5.85427 c 0,-0.61741 0.49705,-1.11446 1.11446,-1.11446 z" /><path
         d="m 546.12411,211.26147 q 0,-0.36612 0.20792,-0.565 0.21244,-0.19888 0.54692,-0.19888 0.33448,0 0.5424,0.19888 0.20792,0.19888 0.20792,0.565 0,0.36612 -0.20792,0.565 -0.20792,0.19888 -0.5424,0.19888 -0.33448,0 -0.54692,-0.19888 -0.20792,-0.19888 -0.20792,-0.565 z m 3.06909,-0.71416 -1.74021,3.18209 h -0.7458 l 1.74021,-3.18209 z m -2.31877,0.40228 q -0.21696,0 -0.21696,0.31188 0,0.30736 0.21696,0.30736 0.10396,0 0.16272,-0.0768 0.0588,-0.0768 0.0588,-0.23052 0,-0.31188 -0.22148,-0.31188 z m 1.4012,2.06565 q 0,-0.36612 0.20793,-0.56501 0.20792,-0.19888 0.5424,-0.19888 0.33448,0 0.5424,0.19888 0.20792,0.19889 0.20792,0.56501 0,0.36612 -0.20792,0.565 -0.20792,0.19888 -0.5424,0.19888 -0.33448,0 -0.5424,-0.19888 -0.20793,-0.19888 -0.20793,-0.565 z m 0.74581,-0.31188 q -0.10396,0 -0.16272,0.0768 -0.0542,0.0768 -0.0542,0.23504 0,0.30736 0.21696,0.30736 0.10396,0 0.16272,-0.0768 0.0588,-0.0768 0.0588,-0.23052 0,-0.15368 -0.0588,-0.23052 -0.0588,-0.0814 -0.16272,-0.0814 z"
         id="text433"
         style="font-weight:bold;font-size:4.52002px;font-family:Poppins;-inkscape-font-specification:'Poppins Bold';text-align:center;letter-spacing:0.100131px;text-anchor:middle;fill:url(#linearGradient999);stroke-width:1.99061;stroke-linecap:round;stroke-linejoin:round;stroke-dasharray:3.98122, 1.99061"
         aria-label="%" /></g></g></svg>
