<?xml version="1.0" encoding="UTF-8" standalone="no"?>
<!-- Created with Inkscape (http://www.inkscape.org/) -->

<svg
   width="37.764996"
   height="40.764969"
   viewBox="0 0 9.9919884 10.785731"
   version="1.1"
   id="svg1"
   xml:space="preserve"
   xmlns:xlink="http://www.w3.org/1999/xlink"
   xmlns="http://www.w3.org/2000/svg"
   xmlns:svg="http://www.w3.org/2000/svg"><defs
     id="defs1"><linearGradient
       id="linearGradient89"><stop
         style="stop-color:#434a5f;stop-opacity:1;"
         offset="1"
         id="stop89" /><stop
         style="stop-color:#434a5f;stop-opacity:1;"
         offset="1"
         id="stop90" /></linearGradient><linearGradient
       id="linearGradient1-1"><stop
         style="stop-color:#434a5f;stop-opacity:1;"
         offset="1"
         id="stop3" /><stop
         style="stop-color:#434a5f;stop-opacity:1;"
         offset="1"
         id="stop4" /></linearGradient><linearGradient
       id="linearGradient568"><stop
         style="stop-color:#6d7592;stop-opacity:1;"
         offset="0.18130387"
         id="stop565" /><stop
         style="stop-color:#a7adbe;stop-opacity:1;"
         offset="0.18130387"
         id="stop566" /><stop
         style="stop-color:#a8acbd;stop-opacity:1;"
         offset="0.2008221"
         id="stop567" /><stop
         style="stop-color:#8a90a8;stop-opacity:1;"
         offset="0.2008221"
         id="stop568" /></linearGradient><radialGradient
       xlink:href="#linearGradient568"
       id="radialGradient495"
       gradientUnits="userSpaceOnUse"
       gradientTransform="matrix(7.5298137,0,0,1.8808423,-2860.233,-173.49756)"
       cx="452.62515"
       cy="196.25169"
       fx="452.62515"
       fy="196.25169"
       r="4.2087579" /><linearGradient
       xlink:href="#linearGradient1-1"
       id="linearGradient332"
       x1="543.74146"
       y1="191.57932"
       x2="552.159"
       y2="191.57932"
       gradientUnits="userSpaceOnUse" /><linearGradient
       xlink:href="#linearGradient89"
       id="linearGradient852"
       x1="546.68005"
       y1="190.64127"
       x2="549.22034"
       y2="190.64127"
       gradientUnits="userSpaceOnUse" /></defs><g
     id="g456"
     transform="translate(-241.30005,-25.399943)"
     style="display:inline"><g
       id="g374"
       style="display:inline;paint-order:fill markers stroke"
       transform="matrix(1.1870466,0,0,1.1870466,-404.14642,-196.62076)"><path
         id="rect374"
         style="opacity:1;fill:url(#radialGradient495);stroke:url(#linearGradient332);stroke-width:1.00301;stroke-linecap:round;stroke-linejoin:round;stroke-miterlimit:0"
         d="m 545.35744,187.53772 h 5.18559 c 0.61741,0 1.11446,0.49705 1.11446,1.11446 v 5.85426 c 0,0.61741 -0.49705,1.11446 -1.11446,1.11446 h -5.18559 c -0.61741,0 -1.11446,-0.49705 -1.11446,-1.11446 v -5.85426 c 0,-0.61741 0.49705,-1.11446 1.11446,-1.11446 z" /><path
         d="m 546.68007,190.63675 q 0,-0.77744 0.29832,-1.22493 0.30284,-0.44748 0.9718,-0.44748 0.66897,0 0.96729,0.44748 0.30284,0.44749 0.30284,1.22493 0,0.78648 -0.30284,1.23396 -0.29832,0.44749 -0.96729,0.44749 -0.66896,0 -0.9718,-0.44749 -0.29832,-0.44748 -0.29832,-1.23396 z m 1.78089,0 q 0,-0.45652 -0.0994,-0.7006 -0.0994,-0.24861 -0.41133,-0.24861 -0.31188,0 -0.41132,0.24861 -0.0994,0.24408 -0.0994,0.7006 0,0.30736 0.0362,0.51076 0.0362,0.19888 0.14464,0.32544 0.113,0.12204 0.32996,0.12204 0.21697,0 0.32545,-0.12204 0.113,-0.12656 0.14916,-0.32544 0.0362,-0.2034 0.0362,-0.51076 z"
         id="text374"
         style="font-weight:bold;font-size:4.52002px;font-family:Poppins;-inkscape-font-specification:'Poppins Bold';text-align:center;letter-spacing:0.100131px;text-anchor:middle;fill:url(#linearGradient852);stroke-width:1.99061;stroke-linecap:round;stroke-linejoin:round;stroke-dasharray:3.98122, 1.99061"
         aria-label="0" /></g></g></svg>
