<?xml version="1.0" encoding="UTF-8" standalone="no"?>
<!-- Created with Inkscape (http://www.inkscape.org/) -->

<svg
   width="37.76495"
   height="40.764969"
   viewBox="0 0 9.9919763 10.785731"
   version="1.1"
   id="svg1"
   xml:space="preserve"
   xmlns:xlink="http://www.w3.org/1999/xlink"
   xmlns="http://www.w3.org/2000/svg"
   xmlns:svg="http://www.w3.org/2000/svg"><defs
     id="defs1"><linearGradient
       id="linearGradient89"><stop
         style="stop-color:#434a5f;stop-opacity:1;"
         offset="1"
         id="stop89" /><stop
         style="stop-color:#434a5f;stop-opacity:1;"
         offset="1"
         id="stop90" /></linearGradient><linearGradient
       id="linearGradient1-1"><stop
         style="stop-color:#434a5f;stop-opacity:1;"
         offset="1"
         id="stop3" /><stop
         style="stop-color:#434a5f;stop-opacity:1;"
         offset="1"
         id="stop4" /></linearGradient><linearGradient
       id="linearGradient568"><stop
         style="stop-color:#6d7592;stop-opacity:1;"
         offset="0.18130387"
         id="stop565" /><stop
         style="stop-color:#a7adbe;stop-opacity:1;"
         offset="0.18130387"
         id="stop566" /><stop
         style="stop-color:#a8acbd;stop-opacity:1;"
         offset="0.2008221"
         id="stop567" /><stop
         style="stop-color:#8a90a8;stop-opacity:1;"
         offset="0.2008221"
         id="stop568" /></linearGradient><radialGradient
       xlink:href="#linearGradient568"
       id="radialGradient487"
       gradientUnits="userSpaceOnUse"
       gradientTransform="matrix(7.5298137,0,0,1.8808423,-2945.8235,-173.49759)"
       cx="452.62515"
       cy="196.25169"
       fx="452.62515"
       fy="196.25169"
       r="4.2087579" /><linearGradient
       xlink:href="#linearGradient1-1"
       id="linearGradient322"
       x1="458.15094"
       y1="191.57932"
       x2="466.56845"
       y2="191.57932"
       gradientUnits="userSpaceOnUse" /><linearGradient
       xlink:href="#linearGradient89"
       id="linearGradient671"
       x1="461.23645"
       y1="190.62318"
       x2="463.51456"
       y2="190.62318"
       gradientUnits="userSpaceOnUse" /></defs><g
     id="g456"
     transform="translate(-139.70009,-25.399943)"
     style="display:inline"><g
       id="g366"
       style="display:inline;paint-order:fill markers stroke"
       transform="matrix(1.1870466,0,0,1.1870466,-404.14642,-196.62076)"><path
         id="rect366"
         style="opacity:1;fill:url(#radialGradient487);stroke:url(#linearGradient322);stroke-width:1.00301;stroke-linecap:round;stroke-linejoin:round;stroke-miterlimit:0"
         d="m 459.7669,187.53772 h 5.18558 c 0.61741,0 1.11446,0.49705 1.11446,1.11446 v 5.85426 c 0,0.61741 -0.49705,1.11446 -1.11446,1.11446 h -5.18558 c -0.61742,0 -1.11446,-0.49705 -1.11446,-1.11446 v -5.85426 c 0,-0.61741 0.49704,-1.11446 1.11446,-1.11446 z" /><path
         d="m 461.2455,191.71251 q 0.15368,-0.12204 0.14012,-0.113 0.44296,-0.36612 0.69608,-0.60116 0.25764,-0.23504 0.43392,-0.49268 0.17628,-0.25764 0.17628,-0.50172 0,-0.18532 -0.0859,-0.28928 -0.0859,-0.10397 -0.25764,-0.10397 -0.17176,0 -0.2712,0.13109 -0.0949,0.12656 -0.0949,0.3616 h -0.7458 q 0.009,-0.3842 0.16272,-0.64185 0.1582,-0.25764 0.41132,-0.37968 0.25764,-0.12204 0.56952,-0.12204 0.53788,0 0.80909,0.27572 0.27572,0.27572 0.27572,0.71869 0,0.48364 -0.32996,0.89948 -0.32997,0.41132 -0.84073,0.80456 h 1.22041 v 0.62829 h -2.26905 z"
         id="text366"
         style="font-weight:bold;font-size:4.52002px;font-family:Poppins;-inkscape-font-specification:'Poppins Bold';text-align:center;letter-spacing:0.100131px;text-anchor:middle;fill:url(#linearGradient671);stroke-width:1.99061;stroke-linecap:round;stroke-linejoin:round;stroke-dasharray:3.98122, 1.99061"
         aria-label="2" /></g></g></svg>
