<?xml version="1.0" encoding="UTF-8" standalone="no"?>
<!-- Created with Inkscape (http://www.inkscape.org/) -->

<svg
   width="37.764977"
   height="40.764977"
   viewBox="0 0 9.9919834 10.785733"
   version="1.1"
   id="svg1"
   xml:space="preserve"
   xmlns:xlink="http://www.w3.org/1999/xlink"
   xmlns="http://www.w3.org/2000/svg"
   xmlns:svg="http://www.w3.org/2000/svg"><defs
     id="defs1"><linearGradient
       id="linearGradient89"><stop
         style="stop-color:#434a5f;stop-opacity:1;"
         offset="1"
         id="stop89" /><stop
         style="stop-color:#434a5f;stop-opacity:1;"
         offset="1"
         id="stop90" /></linearGradient><linearGradient
       id="linearGradient1-1"><stop
         style="stop-color:#434a5f;stop-opacity:1;"
         offset="0.47322804"
         id="stop3" /><stop
         style="stop-color:#434a5f;stop-opacity:1;"
         offset="1"
         id="stop4" /></linearGradient><linearGradient
       id="linearGradient568"><stop
         style="stop-color:#6d7592;stop-opacity:1;"
         offset="0.18130387"
         id="stop565" /><stop
         style="stop-color:#a7adbe;stop-opacity:1;"
         offset="0.18130387"
         id="stop566" /><stop
         style="stop-color:#a8acbd;stop-opacity:1;"
         offset="0.2008221"
         id="stop567" /><stop
         style="stop-color:#8a90a8;stop-opacity:1;"
         offset="0.2008221"
         id="stop568" /></linearGradient><radialGradient
       xlink:href="#linearGradient568"
       id="radialGradient490"
       gradientUnits="userSpaceOnUse"
       gradientTransform="matrix(7.5298137,0,0,1.8808423,-2913.7271,-173.49756)"
       cx="452.62515"
       cy="196.25169"
       fx="452.62515"
       fy="196.25169"
       r="4.2087579" /><linearGradient
       xlink:href="#linearGradient1-1"
       id="linearGradient325"
       x1="490.24738"
       y1="191.57932"
       x2="498.66489"
       y2="191.57932"
       gradientUnits="userSpaceOnUse" /><linearGradient
       xlink:href="#linearGradient89"
       id="linearGradient677"
       x1="493.36679"
       y1="190.67969"
       x2="495.70364"
       y2="190.67969"
       gradientUnits="userSpaceOnUse" /></defs><g
     id="g456"
     transform="translate(-177.80005,-25.399943)"
     style="display:inline"><g
       id="g369"
       style="display:inline;paint-order:fill markers stroke"
       transform="matrix(1.1870466,0,0,1.1870466,-404.14642,-196.62076)"><rect
         style="opacity:1;fill:url(#radialGradient490);fill-opacity:1;stroke:url(#linearGradient325);stroke-width:1.00301;stroke-linecap:round;stroke-linejoin:round;stroke-miterlimit:0;stroke-dasharray:none;stroke-opacity:1;paint-order:fill markers stroke"
         id="rect369"
         width="7.414506"
         height="8.0831823"
         x="490.74887"
         y="187.53772"
         rx="1.1144606"
         ry="1.1144606" /><path
         d="m 495.5138,189.70562 h -1.41024 v 0.62377 q 0.0904,-0.0994 0.25312,-0.16272 0.16272,-0.0633 0.35256,-0.0633 0.339,0 0.56048,0.15368 0.226,0.15368 0.32996,0.39776 0.10396,0.24408 0.10396,0.52884 0,0.52884 -0.29832,0.84073 -0.29832,0.30736 -0.84072,0.30736 -0.3616,0 -0.62829,-0.12204 -0.26668,-0.12656 -0.41132,-0.34805 -0.14464,-0.22148 -0.1582,-0.51076 h 0.75485 q 0.0271,0.14012 0.13108,0.23504 0.10396,0.0904 0.28476,0.0904 0.21244,0 0.3164,-0.1356 0.10396,-0.1356 0.10396,-0.3616 0,-0.22148 -0.10848,-0.339 -0.10848,-0.11752 -0.3164,-0.11752 -0.15368,0 -0.25312,0.0768 -0.0994,0.0723 -0.13108,0.19436 h -0.74581 v -1.96621 h 2.11085 z"
         id="text369"
         style="font-weight:bold;font-size:4.52002px;font-family:Poppins;-inkscape-font-specification:'Poppins Bold';text-align:center;letter-spacing:0.100131px;text-anchor:middle;fill:url(#linearGradient677);stroke-width:1.99061;stroke-linecap:round;stroke-linejoin:round;stroke-dasharray:3.98122, 1.99061"
         aria-label="5" /></g></g></svg>
