<?xml version="1.0" encoding="UTF-8" standalone="no"?>
<!-- Created with Inkscape (http://www.inkscape.org/) -->

<svg
   width="37.764977"
   height="40.764977"
   viewBox="0 0 9.9919834 10.785733"
   version="1.1"
   id="svg1"
   xml:space="preserve"
   xmlns:xlink="http://www.w3.org/1999/xlink"
   xmlns="http://www.w3.org/2000/svg"
   xmlns:svg="http://www.w3.org/2000/svg"><defs
     id="defs1"><linearGradient
       id="linearGradient89"><stop
         style="stop-color:#434a5f;stop-opacity:1;"
         offset="1"
         id="stop89" /><stop
         style="stop-color:#434a5f;stop-opacity:1;"
         offset="1"
         id="stop90" /></linearGradient><linearGradient
       id="linearGradient1-1"><stop
         style="stop-color:#434a5f;stop-opacity:1;"
         offset="0.47322804"
         id="stop3" /><stop
         style="stop-color:#434a5f;stop-opacity:1;"
         offset="1"
         id="stop4" /></linearGradient><linearGradient
       id="linearGradient568"><stop
         style="stop-color:#6d7592;stop-opacity:1;"
         offset="0.18130387"
         id="stop565" /><stop
         style="stop-color:#a7adbe;stop-opacity:1;"
         offset="0.18130387"
         id="stop566" /><stop
         style="stop-color:#a8acbd;stop-opacity:1;"
         offset="0.2008221"
         id="stop567" /><stop
         style="stop-color:#8a90a8;stop-opacity:1;"
         offset="0.2008221"
         id="stop568" /></linearGradient><radialGradient
       xlink:href="#linearGradient568"
       id="radialGradient491"
       gradientUnits="userSpaceOnUse"
       gradientTransform="matrix(7.5298137,0,0,1.8808423,-2903.0283,-173.49755)"
       cx="452.62515"
       cy="196.25169"
       fx="452.62515"
       fy="196.25169"
       r="4.2087579" /><linearGradient
       xlink:href="#linearGradient1-1"
       id="linearGradient326"
       x1="500.9462"
       y1="191.57932"
       x2="509.36371"
       y2="191.57932"
       gradientUnits="userSpaceOnUse" /><linearGradient
       xlink:href="#linearGradient89"
       id="linearGradient710"
       x1="503.99554"
       y1="190.65709"
       x2="506.35953"
       y2="190.65709"
       gradientUnits="userSpaceOnUse" /></defs><g
     id="g456"
     transform="translate(-190.50005,-25.399943)"
     style="display:inline"><g
       id="g370"
       style="display:inline;paint-order:fill markers stroke"
       transform="matrix(1.1870466,0,0,1.1870466,-404.14642,-196.62076)"><rect
         style="opacity:1;fill:url(#radialGradient491);fill-opacity:1;stroke:url(#linearGradient326);stroke-width:1.00301;stroke-linecap:round;stroke-linejoin:round;stroke-miterlimit:0;stroke-dasharray:none;stroke-opacity:1;paint-order:fill markers stroke"
         id="rect370"
         width="7.414506"
         height="8.0831823"
         x="501.44769"
         y="187.53772"
         rx="1.1144606"
         ry="1.1144606" /><path
         d="m 505.55044,189.92259 q -0.0362,-0.16724 -0.12656,-0.24861 -0.0904,-0.0859 -0.25764,-0.0859 -0.25764,0 -0.37064,0.22601 -0.113,0.22148 -0.11752,0.70512 0.0994,-0.1582 0.28476,-0.2486 0.18984,-0.0904 0.41584,-0.0904 0.44296,0 0.70964,0.28024 0.27121,0.28024 0.27121,0.78196 0,0.32996 -0.13561,0.57856 -0.13108,0.24861 -0.38872,0.38873 -0.25312,0.14012 -0.60116,0.14012 -0.69608,0 -0.96728,-0.43393 -0.27121,-0.43844 -0.27121,-1.25656 0,-0.8588 0.28477,-1.27465 0.28928,-0.42036 0.92208,-0.42036 0.339,0 0.56952,0.1356 0.23504,0.13108 0.35256,0.34804 0.12204,0.21696 0.14464,0.47461 z m -0.35708,0.86784 q -0.19436,0 -0.32544,0.11752 -0.12656,0.113 -0.12656,0.32544 0,0.21696 0.11752,0.339 0.12204,0.12204 0.34352,0.12204 0.19888,0 0.31188,-0.11752 0.11752,-0.12204 0.11752,-0.32996 0,-0.21244 -0.113,-0.33448 -0.113,-0.12204 -0.32544,-0.12204 z"
         id="text370"
         style="font-weight:bold;font-size:4.52002px;font-family:Poppins;-inkscape-font-specification:'Poppins Bold';text-align:center;letter-spacing:0.100131px;text-anchor:middle;fill:url(#linearGradient710);stroke-width:1.99061;stroke-linecap:round;stroke-linejoin:round;stroke-dasharray:3.98122, 1.99061"
         aria-label="6" /></g></g></svg>
