<?xml version="1.0" encoding="UTF-8" standalone="no"?>
<!-- Created with Inkscape (http://www.inkscape.org/) -->

<svg
   width="37.764996"
   height="40.764969"
   viewBox="0 0 9.9919884 10.785731"
   version="1.1"
   id="svg1"
   xml:space="preserve"
   xmlns:xlink="http://www.w3.org/1999/xlink"
   xmlns="http://www.w3.org/2000/svg"
   xmlns:svg="http://www.w3.org/2000/svg"><defs
     id="defs1"><linearGradient
       id="linearGradient1"><stop
         style="stop-color:#434a5f;stop-opacity:1;"
         offset="1"
         id="stop111" /><stop
         style="stop-color:#434a5f;stop-opacity:1;"
         offset="1"
         id="stop112" /></linearGradient><linearGradient
       id="linearGradient103"><stop
         style="stop-color:#434a5f;stop-opacity:1;"
         offset="1"
         id="stop103" /><stop
         style="stop-color:#434a5f;stop-opacity:1;"
         offset="1"
         id="stop104" /></linearGradient><linearGradient
       id="linearGradient7"><stop
         style="stop-color:#b8b8b8;stop-opacity:1;"
         offset="0.16548869"
         id="stop14" /><stop
         style="stop-color:#ffffff;stop-opacity:1;"
         offset="0.16548869"
         id="stop16" /><stop
         style="stop-color:#ffffff;stop-opacity:1;"
         offset="0.2089889"
         id="stop15" /><stop
         style="stop-color:#e5e5e5;stop-opacity:1;"
         offset="0.2089889"
         id="stop7" /></linearGradient><radialGradient
       xlink:href="#linearGradient7"
       id="radialGradient145"
       gradientUnits="userSpaceOnUse"
       gradientTransform="matrix(7.5298137,0,0,1.8808423,-2903.0283,-173.49755)"
       cx="452.62515"
       cy="196.25169"
       fx="452.62515"
       fy="196.25169"
       r="4.2087579" /><linearGradient
       xlink:href="#linearGradient1"
       id="linearGradient213"
       x1="500.9462"
       y1="191.57932"
       x2="509.36371"
       y2="191.57932"
       gradientUnits="userSpaceOnUse" /><linearGradient
       xlink:href="#linearGradient103"
       id="linearGradient821"
       x1="503.99554"
       y1="190.65709"
       x2="506.35953"
       y2="190.65709"
       gradientUnits="userSpaceOnUse" /></defs><g
     id="layer2"
     transform="translate(-190.50005,-12.699943)"
     style="display:inline"><g
       id="g230"
       style="display:inline;paint-order:fill markers stroke"
       transform="matrix(1.1870466,0,0,1.1870466,-404.14642,-209.32076)"><path
         id="rect137"
         style="opacity:1;fill:url(#radialGradient145);stroke:url(#linearGradient213);stroke-width:1.00301;stroke-linecap:round;stroke-linejoin:round;stroke-miterlimit:0"
         d="m 502.56215,187.53772 h 5.18559 c 0.61741,0 1.11446,0.49705 1.11446,1.11446 v 5.85426 c 0,0.61741 -0.49705,1.11446 -1.11446,1.11446 h -5.18559 c -0.61741,0 -1.11446,-0.49705 -1.11446,-1.11446 v -5.85426 c 0,-0.61741 0.49705,-1.11446 1.11446,-1.11446 z" /><path
         d="m 505.55044,189.92259 q -0.0362,-0.16724 -0.12656,-0.24861 -0.0904,-0.0859 -0.25764,-0.0859 -0.25764,0 -0.37064,0.22601 -0.113,0.22148 -0.11752,0.70512 0.0994,-0.1582 0.28476,-0.2486 0.18984,-0.0904 0.41584,-0.0904 0.44296,0 0.70964,0.28024 0.27121,0.28024 0.27121,0.78196 0,0.32996 -0.13561,0.57856 -0.13108,0.24861 -0.38872,0.38873 -0.25312,0.14012 -0.60116,0.14012 -0.69608,0 -0.96728,-0.43393 -0.27121,-0.43844 -0.27121,-1.25656 0,-0.8588 0.28477,-1.27465 0.28928,-0.42036 0.92208,-0.42036 0.339,0 0.56952,0.1356 0.23504,0.13108 0.35256,0.34804 0.12204,0.21696 0.14464,0.47461 z m -0.35708,0.86784 q -0.19436,0 -0.32544,0.11752 -0.12656,0.113 -0.12656,0.32544 0,0.21696 0.11752,0.339 0.12204,0.12204 0.34352,0.12204 0.19888,0 0.31188,-0.11752 0.11752,-0.12204 0.11752,-0.32996 0,-0.21244 -0.113,-0.33448 -0.113,-0.12204 -0.32544,-0.12204 z"
         id="text137"
         style="font-weight:bold;font-size:4.52002px;font-family:Poppins;-inkscape-font-specification:'Poppins Bold';text-align:center;letter-spacing:0.100131px;text-anchor:middle;fill:url(#linearGradient821);stroke-width:1.99061;stroke-linecap:round;stroke-linejoin:round;stroke-dasharray:3.98122, 1.99061"
         aria-label="6" /></g></g></svg>
