<?xml version="1.0" encoding="UTF-8" standalone="no"?>
<!-- Created with Inkscape (http://www.inkscape.org/) -->

<svg
   width="37.76495"
   height="40.764969"
   viewBox="0 0 9.9919763 10.785731"
   version="1.1"
   id="svg1"
   xml:space="preserve"
   xmlns:xlink="http://www.w3.org/1999/xlink"
   xmlns="http://www.w3.org/2000/svg"
   xmlns:svg="http://www.w3.org/2000/svg"><defs
     id="defs1"><linearGradient
       id="linearGradient89"><stop
         style="stop-color:#434a5f;stop-opacity:1;"
         offset="1"
         id="stop89" /><stop
         style="stop-color:#434a5f;stop-opacity:1;"
         offset="1"
         id="stop90" /></linearGradient><linearGradient
       id="linearGradient1-1"><stop
         style="stop-color:#434a5f;stop-opacity:1;"
         offset="1"
         id="stop3" /><stop
         style="stop-color:#434a5f;stop-opacity:1;"
         offset="1"
         id="stop4" /></linearGradient><linearGradient
       id="linearGradient568"><stop
         style="stop-color:#6d7592;stop-opacity:1;"
         offset="0.18130387"
         id="stop565" /><stop
         style="stop-color:#a7adbe;stop-opacity:1;"
         offset="0.18130387"
         id="stop566" /><stop
         style="stop-color:#a8acbd;stop-opacity:1;"
         offset="0.2008221"
         id="stop567" /><stop
         style="stop-color:#8a90a8;stop-opacity:1;"
         offset="0.2008221"
         id="stop568" /></linearGradient><radialGradient
       xlink:href="#linearGradient568"
       id="radialGradient493"
       gradientUnits="userSpaceOnUse"
       gradientTransform="matrix(7.5298137,0,0,1.8808423,-2881.6306,-173.49758)"
       cx="452.62515"
       cy="196.25169"
       fx="452.62515"
       fy="196.25169"
       r="4.2087579" /><linearGradient
       xlink:href="#linearGradient1-1"
       id="linearGradient328"
       x1="522.34381"
       y1="191.57932"
       x2="530.76135"
       y2="191.57932"
       gradientUnits="userSpaceOnUse" /><linearGradient
       xlink:href="#linearGradient89"
       id="linearGradient719"
       x1="525.33221"
       y1="190.67969"
       x2="527.77301"
       y2="190.67969"
       gradientUnits="userSpaceOnUse" /></defs><g
     id="g456"
     transform="translate(-215.90005,-25.399943)"
     style="display:inline"><g
       id="g372"
       style="display:inline;paint-order:fill markers stroke"
       transform="matrix(1.1870466,0,0,1.1870466,-404.14642,-196.62076)"><path
         id="rect372"
         style="opacity:1;fill:url(#radialGradient493);stroke:url(#linearGradient328);stroke-width:1.00301;stroke-linecap:round;stroke-linejoin:round;stroke-miterlimit:0"
         d="m 523.9598,187.53772 h 5.18558 c 0.61741,0 1.11446,0.49705 1.11446,1.11446 v 5.85426 c 0,0.61741 -0.49705,1.11446 -1.11446,1.11446 h -5.18558 c -0.61741,0 -1.11446,-0.49705 -1.11446,-1.11446 v -5.85426 c 0,-0.61741 0.49705,-1.11446 1.11446,-1.11446 z" /><path
         d="m 525.83393,190.55991 q -0.42488,-0.226 -0.42488,-0.70964 0,-0.24409 0.12656,-0.44297 0.12656,-0.2034 0.3842,-0.32092 0.25764,-0.12204 0.6328,-0.12204 0.37516,0 0.62828,0.12204 0.25764,0.11752 0.38421,0.32092 0.12656,0.19888 0.12656,0.44297 0,0.24408 -0.11752,0.42488 -0.11301,0.1808 -0.30737,0.28476 0.24408,0.11752 0.37517,0.32544 0.13108,0.2034 0.13108,0.47912 0,0.32092 -0.16272,0.55596 -0.16273,0.23053 -0.44297,0.35257 -0.27572,0.12204 -0.61472,0.12204 -0.339,0 -0.61924,-0.12204 -0.27572,-0.12204 -0.43844,-0.35257 -0.16272,-0.23504 -0.16272,-0.55596 0,-0.28024 0.13108,-0.48364 0.13108,-0.20792 0.37064,-0.32092 z m 1.1074,-0.59212 q 0,-0.18532 -0.10848,-0.28477 -0.10396,-0.10396 -0.28024,-0.10396 -0.17628,0 -0.28476,0.10396 -0.10396,0.10397 -0.10396,0.28929 0,0.17628 0.10848,0.28024 0.10848,0.0994 0.28024,0.0994 0.17176,0 0.28024,-0.10396 0.10848,-0.10396 0.10848,-0.28024 z m -0.38872,0.9266 q -0.21244,0 -0.34352,0.11752 -0.13108,0.113 -0.13108,0.3164 0,0.18984 0.12656,0.31188 0.13108,0.12204 0.34804,0.12204 0.21696,0 0.339,-0.12204 0.12656,-0.12204 0.12656,-0.31188 0,-0.19888 -0.13108,-0.3164 -0.12656,-0.11752 -0.33448,-0.11752 z"
         id="text372"
         style="font-weight:bold;font-size:4.52002px;font-family:Poppins;-inkscape-font-specification:'Poppins Bold';text-align:center;letter-spacing:0.100131px;text-anchor:middle;fill:url(#linearGradient719);stroke-width:1.99061;stroke-linecap:round;stroke-linejoin:round;stroke-dasharray:3.98122, 1.99061"
         aria-label="8" /></g></g></svg>
