<?xml version="1.0" encoding="UTF-8" standalone="no"?>
<!-- Created with Inkscape (http://www.inkscape.org/) -->

<svg
   width="37.76495"
   height="40.764969"
   viewBox="0 0 9.9919763 10.785731"
   version="1.1"
   id="svg1"
   xml:space="preserve"
   xmlns:xlink="http://www.w3.org/1999/xlink"
   xmlns="http://www.w3.org/2000/svg"
   xmlns:svg="http://www.w3.org/2000/svg"><defs
     id="defs1"><linearGradient
       id="linearGradient89"><stop
         style="stop-color:#434a5f;stop-opacity:1;"
         offset="1"
         id="stop89" /><stop
         style="stop-color:#434a5f;stop-opacity:1;"
         offset="1"
         id="stop90" /></linearGradient><linearGradient
       id="linearGradient1-1"><stop
         style="stop-color:#434a5f;stop-opacity:1;"
         offset="1"
         id="stop3" /><stop
         style="stop-color:#434a5f;stop-opacity:1;"
         offset="1"
         id="stop4" /></linearGradient><linearGradient
       id="linearGradient568"><stop
         style="stop-color:#6d7592;stop-opacity:1;"
         offset="0.18130387"
         id="stop565" /><stop
         style="stop-color:#a7adbe;stop-opacity:1;"
         offset="0.18130387"
         id="stop566" /><stop
         style="stop-color:#a8acbd;stop-opacity:1;"
         offset="0.2008221"
         id="stop567" /><stop
         style="stop-color:#8a90a8;stop-opacity:1;"
         offset="0.2008221"
         id="stop568" /></linearGradient><radialGradient
       xlink:href="#linearGradient568"
       id="radialGradient494"
       gradientUnits="userSpaceOnUse"
       gradientTransform="matrix(7.5298137,0,0,1.8808423,-2870.9318,-173.49757)"
       cx="452.62515"
       cy="196.25169"
       fx="452.62515"
       fy="196.25169"
       r="4.2087579" /><linearGradient
       xlink:href="#linearGradient1-1"
       id="linearGradient331"
       x1="533.0426"
       y1="191.57932"
       x2="541.46014"
       y2="191.57932"
       gradientUnits="userSpaceOnUse" /><linearGradient
       xlink:href="#linearGradient89"
       id="linearGradient759"
       x1="536.09656"
       y1="190.65031"
       x2="538.43341"
       y2="190.65031"
       gradientUnits="userSpaceOnUse" /></defs><g
     id="g456"
     transform="translate(-228.60002,-25.399943)"
     style="display:inline"><g
       id="g373"
       style="display:inline;paint-order:fill markers stroke"
       transform="matrix(1.1870466,0,0,1.1870466,-404.14642,-196.62076)"><path
         id="rect373"
         style="opacity:1;fill:url(#radialGradient494);stroke:url(#linearGradient331);stroke-width:1.00301;stroke-linecap:round;stroke-linejoin:round;stroke-miterlimit:0"
         d="m 534.65859,187.53772 h 5.18558 c 0.61741,0 1.11446,0.49705 1.11446,1.11446 v 5.85426 c 0,0.61741 -0.49705,1.11446 -1.11446,1.11446 h -5.18558 c -0.61741,0 -1.11446,-0.49705 -1.11446,-1.11446 v -5.85426 c 0,-0.61741 0.49705,-1.11446 1.11446,-1.11446 z" /><path
         d="m 536.89658,191.36447 q 0.0678,0.35708 0.41584,0.35708 0.23957,0 0.33901,-0.21244 0.0994,-0.21244 0.0994,-0.69156 -0.0994,0.14012 -0.2712,0.21696 -0.17177,0.0768 -0.38421,0.0768 -0.28928,0 -0.51528,-0.11752 -0.226,-0.12204 -0.35708,-0.35708 -0.12656,-0.23956 -0.12656,-0.57856 0,-0.33448 0.1356,-0.58309 0.14012,-0.2486 0.39324,-0.3842 0.25764,-0.1356 0.60568,-0.1356 0.66897,0 0.93565,0.41584 0.26668,0.41585 0.26668,1.22493 0,0.5876 -0.10848,0.9718 -0.10396,0.37968 -0.35708,0.57857 -0.2486,0.19888 -0.68253,0.19888 -0.34352,0 -0.5876,-0.1356 -0.23956,-0.1356 -0.37064,-0.35709 -0.12656,-0.22148 -0.14464,-0.48816 z m 0.37516,-0.86332 q 0.18985,0 0.30285,-0.113 0.113,-0.11752 0.113,-0.3164 0,-0.21696 -0.11752,-0.33448 -0.11752,-0.11753 -0.31641,-0.11753 -0.19888,0 -0.3164,0.12205 -0.113,0.11752 -0.113,0.32544 0,0.19436 0.113,0.3164 0.11752,0.11752 0.33448,0.11752 z"
         id="text373"
         style="font-weight:bold;font-size:4.52002px;font-family:Poppins;-inkscape-font-specification:'Poppins Bold';text-align:center;letter-spacing:0.100131px;text-anchor:middle;fill:url(#linearGradient759);stroke-width:1.99061;stroke-linecap:round;stroke-linejoin:round;stroke-dasharray:3.98122, 1.99061"
         aria-label="9" /></g></g></svg>
