<?xml version="1.0" encoding="UTF-8" standalone="no"?>
<!-- Created with Inkscape (http://www.inkscape.org/) -->

<svg
   width="37.764977"
   height="40.764977"
   viewBox="0 0 9.9919834 10.785733"
   version="1.1"
   id="svg1"
   xml:space="preserve"
   xmlns:xlink="http://www.w3.org/1999/xlink"
   xmlns="http://www.w3.org/2000/svg"
   xmlns:svg="http://www.w3.org/2000/svg"><defs
     id="defs1"><linearGradient
       id="linearGradient89"><stop
         style="stop-color:#434a5f;stop-opacity:1;"
         offset="1"
         id="stop89" /><stop
         style="stop-color:#434a5f;stop-opacity:1;"
         offset="1"
         id="stop90" /></linearGradient><linearGradient
       id="linearGradient1-1"><stop
         style="stop-color:#434a5f;stop-opacity:1;"
         offset="0.47322804"
         id="stop3" /><stop
         style="stop-color:#434a5f;stop-opacity:1;"
         offset="1"
         id="stop4" /></linearGradient><linearGradient
       id="linearGradient568"><stop
         style="stop-color:#6d7592;stop-opacity:1;"
         offset="0.18130387"
         id="stop565" /><stop
         style="stop-color:#a7adbe;stop-opacity:1;"
         offset="0.18130387"
         id="stop566" /><stop
         style="stop-color:#a8acbd;stop-opacity:1;"
         offset="0.2008221"
         id="stop567" /><stop
         style="stop-color:#8a90a8;stop-opacity:1;"
         offset="0.2008221"
         id="stop568" /></linearGradient><radialGradient
       xlink:href="#linearGradient568"
       id="radialGradient514"
       gradientUnits="userSpaceOnUse"
       gradientTransform="matrix(7.5298137,0,0,1.8808423,-2796.04,-184.19638)"
       cx="452.62515"
       cy="196.25169"
       fx="452.62515"
       fy="196.25169"
       r="4.2087579" /><linearGradient
       xlink:href="#linearGradient1-1"
       id="linearGradient347"
       x1="607.93433"
       y1="180.88049"
       x2="616.35187"
       y2="180.88049"
       gradientUnits="userSpaceOnUse" /><linearGradient
       xlink:href="#linearGradient89"
       id="linearGradient969"
       x1="610.03229"
       y1="180.63174"
       x2="614.25397"
       y2="180.63174"
       gradientUnits="userSpaceOnUse" /></defs><g
     id="g456"
     transform="translate(-152.40007,-12.699952)"
     style="display:inline"><g
       id="g396"
       style="display:inline;paint-order:fill markers stroke"
       transform="matrix(1.1870466,0,0,1.1870466,-569.24633,-196.62075)"><rect
         style="opacity:1;fill:url(#radialGradient514);fill-opacity:1;stroke:url(#linearGradient347);stroke-width:1.00301;stroke-linecap:round;stroke-linejoin:round;stroke-miterlimit:0;stroke-dasharray:none;stroke-opacity:1;paint-order:fill markers stroke"
         id="rect396"
         width="7.414506"
         height="8.0831823"
         x="608.43585"
         y="176.8389"
         rx="1.1144606"
         ry="1.1144606" /><path
         d="m 612.49569,178.61356 q 0.53336,0 0.93112,0.2034 0.39777,0.19888 0.61021,0.565 0.21696,0.36161 0.21696,0.83621 0,0.3842 -0.1356,0.71416 -0.13108,0.32996 -0.39325,0.52884 -0.25764,0.19436 -0.61472,0.19436 -0.23956,0 -0.39776,-0.0949 -0.15368,-0.0949 -0.20792,-0.26668 -0.12656,0.17628 -0.32544,0.27572 -0.19888,0.0949 -0.43392,0.0949 -0.33449,0 -0.52885,-0.19888 -0.18984,-0.2034 -0.18984,-0.55144 0,-0.32996 0.1356,-0.61924 0.1356,-0.2938 0.37516,-0.47008 0.23957,-0.17628 0.53789,-0.17628 0.37968,0 0.51528,0.2712 l 0.0407,-0.23956 h 0.62376 l -0.19888,1.13452 q -0.0136,0.0814 -0.0136,0.14464 0,0.19888 0.17628,0.19888 0.21696,0 0.32996,-0.27572 0.11752,-0.28024 0.11752,-0.64184 0,-0.5198 -0.32996,-0.81361 -0.32544,-0.2938 -0.91756,-0.2938 -0.50624,0 -0.92209,0.24408 -0.41132,0.24409 -0.64636,0.66897 -0.23504,0.42036 -0.23504,0.9266 0,0.54692 0.3164,0.84977 0.32092,0.30284 0.89497,0.30284 0.44748,0 0.80004,-0.16272 l 0.12204,0.49268 q -0.44296,0.19436 -0.9944,0.19436 -0.51529,0 -0.90853,-0.19888 -0.38872,-0.19888 -0.60116,-0.565 -0.21244,-0.36613 -0.21244,-0.85429 0,-0.68252 0.32092,-1.23396 0.32092,-0.55597 0.8814,-0.86785 0.56501,-0.3164 1.26109,-0.3164 z m -0.4972,2.49505 q 0.12656,0 0.23504,-0.0768 0.113,-0.0768 0.17628,-0.2034 0.0678,-0.13108 0.0678,-0.28024 0,-0.15368 -0.0859,-0.2486 -0.0859,-0.0994 -0.23504,-0.0994 -0.19888,0 -0.32996,0.17176 -0.13108,0.17176 -0.13108,0.4068 0,0.14916 0.0768,0.23956 0.0768,0.0904 0.226,0.0904 z"
         id="text396"
         style="font-weight:bold;font-size:4.52002px;font-family:Poppins;-inkscape-font-specification:'Poppins Bold';text-align:center;letter-spacing:0.100131px;text-anchor:middle;fill:url(#linearGradient969);stroke-width:1.99061;stroke-linecap:round;stroke-linejoin:round;stroke-dasharray:3.98122, 1.99061"
         aria-label="@" /></g></g></svg>
