<?xml version="1.0" encoding="UTF-8" standalone="no"?>
<!-- Created with Inkscape (http://www.inkscape.org/) -->

<svg
   width="37.76495"
   height="40.764969"
   viewBox="0 0 9.9919763 10.785731"
   version="1.1"
   id="svg1"
   xml:space="preserve"
   xmlns:xlink="http://www.w3.org/1999/xlink"
   xmlns="http://www.w3.org/2000/svg"
   xmlns:svg="http://www.w3.org/2000/svg"><defs
     id="defs1"><linearGradient
       id="linearGradient89"><stop
         style="stop-color:#434a5f;stop-opacity:1;"
         offset="1"
         id="stop89" /><stop
         style="stop-color:#434a5f;stop-opacity:1;"
         offset="1"
         id="stop90" /></linearGradient><linearGradient
       id="linearGradient1-1"><stop
         style="stop-color:#434a5f;stop-opacity:1;"
         offset="1"
         id="stop3" /><stop
         style="stop-color:#434a5f;stop-opacity:1;"
         offset="1"
         id="stop4" /></linearGradient><linearGradient
       id="linearGradient568"><stop
         style="stop-color:#6d7592;stop-opacity:1;"
         offset="0.18130387"
         id="stop565" /><stop
         style="stop-color:#a7adbe;stop-opacity:1;"
         offset="0.18130387"
         id="stop566" /><stop
         style="stop-color:#a8acbd;stop-opacity:1;"
         offset="0.2008221"
         id="stop567" /><stop
         style="stop-color:#8a90a8;stop-opacity:1;"
         offset="0.2008221"
         id="stop568" /></linearGradient><radialGradient
       xlink:href="#linearGradient568"
       id="radialGradient482"
       gradientUnits="userSpaceOnUse"
       gradientTransform="matrix(7.5298137,0,0,1.8808423,-2892.3294,-141.40112)"
       cx="452.62515"
       cy="196.25169"
       fx="452.62515"
       fy="196.25169"
       r="4.2087579" /><linearGradient
       xlink:href="#linearGradient1-1"
       id="linearGradient280"
       x1="511.64505"
       y1="223.67578"
       x2="520.06256"
       y2="223.67578"
       gradientUnits="userSpaceOnUse" /><linearGradient
       xlink:href="#linearGradient89"
       id="linearGradient663"
       x1="514.64465"
       y1="222.84171"
       x2="517.17584"
       y2="222.84171"
       gradientUnits="userSpaceOnUse" /></defs><g
     id="g456"
     transform="translate(-203.20009,-63.499949)"
     style="display:inline"><g
       id="g361"
       style="display:inline;paint-order:fill markers stroke"
       transform="matrix(1.1870466,0,0,1.1870466,-404.14642,-196.62076)"><path
         id="rect361"
         style="opacity:1;fill:url(#radialGradient482);stroke:url(#linearGradient280);stroke-width:1.00301;stroke-linecap:round;stroke-linejoin:round;stroke-miterlimit:0"
         d="m 513.26101,219.63419 h 5.18558 c 0.61741,0 1.11446,0.49705 1.11446,1.11446 v 5.85426 c 0,0.61741 -0.49705,1.11446 -1.11446,1.11446 h -5.18558 c -0.61742,0 -1.11446,-0.49705 -1.11446,-1.11446 v -5.85426 c 0,-0.61741 0.49704,-1.11446 1.11446,-1.11446 z" /><path
         d="m 516.56566,222.80102 q 0.27572,0.0588 0.44296,0.27572 0.16724,0.21244 0.16724,0.48816 0,0.39776 -0.28024,0.6328 -0.27572,0.23052 -0.77292,0.23052 h -1.47805 v -3.17305 h 1.42833 q 0.48364,0 0.75484,0.22148 0.27572,0.22148 0.27572,0.60116 0,0.28024 -0.14916,0.46556 -0.14464,0.18533 -0.38872,0.25765 z m -1.14808,-0.26217 h 0.50624 q 0.18984,0 0.28928,-0.0814 0.10396,-0.0859 0.10396,-0.2486 0,-0.16272 -0.10396,-0.2486 -0.0994,-0.0859 -0.28928,-0.0859 h -0.50624 z m 0.56952,1.26561 q 0.19436,0 0.29832,-0.0859 0.10848,-0.0904 0.10848,-0.25764 0,-0.16724 -0.113,-0.26216 -0.10848,-0.0949 -0.30284,-0.0949 h -0.56048 v 0.7006 z"
         id="text361"
         style="font-weight:bold;font-size:4.52002px;font-family:Poppins;-inkscape-font-specification:'Poppins Bold';text-align:center;letter-spacing:0.100131px;text-anchor:middle;fill:url(#linearGradient663);stroke-width:1.99061;stroke-linecap:round;stroke-linejoin:round;stroke-dasharray:3.98122, 1.99061"
         aria-label="B" /></g></g></svg>
