<?xml version="1.0" encoding="UTF-8" standalone="no"?>
<!-- Created with Inkscape (http://www.inkscape.org/) -->

<svg
   width="37.764977"
   height="40.764977"
   viewBox="0 0 9.9919834 10.785733"
   version="1.1"
   id="svg1"
   xml:space="preserve"
   xmlns:xlink="http://www.w3.org/1999/xlink"
   xmlns="http://www.w3.org/2000/svg"
   xmlns:svg="http://www.w3.org/2000/svg"><defs
     id="defs1"><linearGradient
       id="linearGradient1"><stop
         style="stop-color:#434a5f;stop-opacity:1;"
         offset="1"
         id="stop111" /><stop
         style="stop-color:#434a5f;stop-opacity:1;"
         offset="1"
         id="stop112" /></linearGradient><linearGradient
       id="linearGradient103"><stop
         style="stop-color:#434a5f;stop-opacity:1;"
         offset="1"
         id="stop103" /><stop
         style="stop-color:#434a5f;stop-opacity:1;"
         offset="1"
         id="stop104" /></linearGradient><linearGradient
       id="linearGradient7"><stop
         style="stop-color:#b8b8b8;stop-opacity:1;"
         offset="0.16548869"
         id="stop14" /><stop
         style="stop-color:#ffffff;stop-opacity:1;"
         offset="0.16548869"
         id="stop16" /><stop
         style="stop-color:#ffffff;stop-opacity:1;"
         offset="0.2089889"
         id="stop15" /><stop
         style="stop-color:#e5e5e5;stop-opacity:1;"
         offset="0.2089889"
         id="stop7" /></linearGradient><radialGradient
       xlink:href="#linearGradient7"
       id="radialGradient126"
       gradientUnits="userSpaceOnUse"
       gradientTransform="matrix(7.5298137,0,0,1.8808423,-2892.3294,-141.40112)"
       cx="452.62515"
       cy="196.25169"
       fx="452.62515"
       fy="196.25169"
       r="4.2087579" /><linearGradient
       xlink:href="#linearGradient1"
       id="linearGradient129"
       x1="511.64505"
       y1="223.67578"
       x2="520.06256"
       y2="223.67578"
       gradientUnits="userSpaceOnUse" /><linearGradient
       xlink:href="#linearGradient103"
       id="linearGradient855"
       x1="514.64465"
       y1="222.84171"
       x2="517.17584"
       y2="222.84171"
       gradientUnits="userSpaceOnUse" /></defs><g
     id="layer2"
     transform="translate(-203.20009,-50.799944)"
     style="display:inline"><g
       id="g261"
       style="display:inline;paint-order:fill markers stroke"
       transform="matrix(1.1870466,0,0,1.1870466,-404.14642,-209.32076)"><rect
         style="opacity:1;fill:url(#radialGradient126);fill-opacity:1;stroke:url(#linearGradient129);stroke-width:1.00301;stroke-linecap:round;stroke-linejoin:round;stroke-miterlimit:0;stroke-dasharray:none;stroke-opacity:1;paint-order:fill markers stroke"
         id="rect122"
         width="7.414506"
         height="8.0831823"
         x="512.14655"
         y="219.63419"
         rx="1.1144606"
         ry="1.1144606" /><path
         d="m 516.56566,222.80102 q 0.27572,0.0588 0.44296,0.27572 0.16724,0.21244 0.16724,0.48816 0,0.39776 -0.28024,0.6328 -0.27572,0.23052 -0.77292,0.23052 h -1.47805 v -3.17305 h 1.42833 q 0.48364,0 0.75484,0.22148 0.27572,0.22148 0.27572,0.60116 0,0.28024 -0.14916,0.46556 -0.14464,0.18533 -0.38872,0.25765 z m -1.14808,-0.26217 h 0.50624 q 0.18984,0 0.28928,-0.0814 0.10396,-0.0859 0.10396,-0.2486 0,-0.16272 -0.10396,-0.2486 -0.0994,-0.0859 -0.28928,-0.0859 h -0.50624 z m 0.56952,1.26561 q 0.19436,0 0.29832,-0.0859 0.10848,-0.0904 0.10848,-0.25764 0,-0.16724 -0.113,-0.26216 -0.10848,-0.0949 -0.30284,-0.0949 h -0.56048 v 0.7006 z"
         id="text122"
         style="font-weight:bold;font-size:4.52002px;font-family:Poppins;-inkscape-font-specification:'Poppins Bold';text-align:center;letter-spacing:0.100131px;text-anchor:middle;fill:url(#linearGradient855);stroke-width:1.99061;stroke-linecap:round;stroke-linejoin:round;stroke-dasharray:3.98122, 1.99061"
         aria-label="B" /></g></g></svg>
