<?xml version="1.0" encoding="UTF-8" standalone="no"?>
<!-- Created with Inkscape (http://www.inkscape.org/) -->

<svg
   width="47.999817"
   height="47.999817"
   viewBox="0 0 12.699952 12.699952"
   version="1.1"
   id="svg1"
   xml:space="preserve"
   xmlns:xlink="http://www.w3.org/1999/xlink"
   xmlns="http://www.w3.org/2000/svg"
   xmlns:svg="http://www.w3.org/2000/svg"><defs
     id="defs1"><linearGradient
       id="linearGradient1"><stop
         style="stop-color:#434a5f;stop-opacity:1;"
         offset="1"
         id="stop111" /><stop
         style="stop-color:#434a5f;stop-opacity:1;"
         offset="1"
         id="stop112" /></linearGradient><linearGradient
       id="linearGradient89"><stop
         style="stop-color:#434a5f;stop-opacity:1;"
         offset="1"
         id="stop89" /><stop
         style="stop-color:#434a5f;stop-opacity:1;"
         offset="1"
         id="stop90" /></linearGradient><linearGradient
       id="linearGradient1-1"><stop
         style="stop-color:#434a5f;stop-opacity:1;"
         offset="1"
         id="stop3" /><stop
         style="stop-color:#434a5f;stop-opacity:1;"
         offset="1"
         id="stop4" /></linearGradient><linearGradient
       id="linearGradient2"><stop
         style="stop-color:#8a90a8;stop-opacity:1"
         offset="0.68779135"
         id="stop39" /><stop
         style="stop-color:#636883;stop-opacity:1;"
         offset="0.68779135"
         id="stop40" /></linearGradient><linearGradient
       id="linearGradient301"><stop
         style="stop-color:#ffffff;stop-opacity:1;"
         offset="0.68779135"
         id="stop300" /><stop
         style="stop-color:#b2b2b2;stop-opacity:1;"
         offset="0.68779135"
         id="stop301" /></linearGradient><radialGradient
       xlink:href="#linearGradient301"
       id="radialGradient497"
       gradientUnits="userSpaceOnUse"
       gradientTransform="matrix(1.3210463,-1.485635e-4,1.6897385e-4,1.5025378,-124.79435,-96.679263)"
       cx="388.60379"
       cy="191.03438"
       fx="388.60379"
       fy="191.03438"
       r="5.3493915" /><radialGradient
       xlink:href="#linearGradient2"
       id="radialGradient330"
       gradientUnits="userSpaceOnUse"
       gradientTransform="matrix(1.3062652,0,0,1.1740965,-108.88531,-22.505786)"
       cx="387.76566"
       cy="184.43718"
       fx="387.76566"
       fy="184.43718"
       r="3.7980435" /><linearGradient
       xlink:href="#linearGradient1"
       id="linearGradient29"
       x1="383.25916"
       y1="192.38565"
       x2="393.95795"
       y2="192.38565"
       gradientUnits="userSpaceOnUse" /><linearGradient
       xlink:href="#linearGradient1-1"
       id="linearGradient490"
       x1="395.69595"
       y1="197.817"
       x2="399.58304"
       y2="197.817"
       gradientUnits="userSpaceOnUse" /><linearGradient
       xlink:href="#linearGradient1-1"
       id="linearGradient491"
       x1="393.46164"
       y1="194.79788"
       x2="401.81735"
       y2="194.79788"
       gradientUnits="userSpaceOnUse" /><linearGradient
       xlink:href="#linearGradient89"
       id="linearGradient603"
       x1="396.67734"
       y1="194.7979"
       x2="398.53754"
       y2="194.7979"
       gradientUnits="userSpaceOnUse" /></defs><g
     id="g584"
     style="display:inline"
     transform="translate(7.8076845e-6,-127)"><g
       id="g496"
       style="display:inline;stroke-width:0.999961;stroke-dasharray:none;paint-order:fill markers stroke"
       transform="matrix(1.1870466,0,0,1.1870466,-454.94649,-95.02076)"><path
         id="circle496"
         style="fill:url(#radialGradient497);stroke:url(#linearGradient29);stroke-linecap:round;stroke-linejoin:round"
         d="m 393.45796,192.38565 a 4.849411,4.849411 0 0 1 -4.84941,4.84941 4.849411,4.849411 0 0 1 -4.84941,-4.84941 4.849411,4.849411 0 0 1 4.84941,-4.84941 4.849411,4.849411 0 0 1 4.84941,4.84941 z" /></g></g><g
     id="g323"
     style="display:inline"
     transform="translate(-101.59998,-88.899993)"><g
       id="g300"
       transform="matrix(1.0449459,0,0,1.0449459,-301.21176,-119.49241)"
       style="display:inline;stroke-width:0.999961;stroke-dasharray:none;paint-order:fill markers stroke"><path
         id="path299"
         style="fill:#8a90a8;fill-opacity:1;stroke:url(#linearGradient490);stroke-width:0.759609;stroke-linecap:round;stroke-linejoin:round;stroke-miterlimit:0;stroke-dasharray:none"
         d="m 396.07574,196.58491 h 3.1275 c 0,0 0,1.29309 0,1.68231 0,1.0425 -3.1275,1.0425 -3.1275,0 0,-0.57456 0,-1.68231 0,-1.68231 z" /><path
         id="ellipse299"
         style="fill:url(#radialGradient330);stroke:url(#linearGradient491);stroke-width:0.759609;stroke-linecap:round;stroke-linejoin:round;stroke-miterlimit:0;paint-order:normal"
         d="m 401.43754,194.79788 a 3.7980435,3.0697258 0 0 1 -3.79804,3.06973 3.7980435,3.0697258 0 0 1 -3.79805,-3.06973 3.7980435,3.0697258 0 0 1 3.79805,-3.06972 3.7980435,3.0697258 0 0 1 3.79804,3.06972 z" /><path
         d="m 397.88595,195.98288 -0.4929,-0.89465 h -0.13842 v 0.89465 h -0.5773 v -2.36998 h 0.96892 q 0.28021,0 0.47602,0.0979 0.19919,0.0979 0.29709,0.27009 0.0979,0.1688 0.0979,0.37811 0,0.23633 -0.13504,0.42201 -0.13167,0.18568 -0.39162,0.26333 l 0.54692,0.93854 z m -0.63132,-1.30315 h 0.35786 q 0.15868,0 0.23632,-0.0777 0.081,-0.0777 0.081,-0.21944 0,-0.13504 -0.081,-0.21269 -0.0776,-0.0777 -0.23632,-0.0777 h -0.35786 z"
         id="text299"
         style="font-weight:bold;font-size:3.37604px;line-height:1.1;font-family:Poppins;-inkscape-font-specification:'Poppins Bold';text-align:center;letter-spacing:0.126602px;text-anchor:middle;fill:url(#linearGradient603);stroke-width:0.759609;stroke-linecap:round;stroke-linejoin:round;stroke-miterlimit:0;paint-order:stroke fill markers"
         aria-label="R" /></g></g></svg>
