<?xml version="1.0" encoding="UTF-8" standalone="no"?>
<!-- Created with Inkscape (http://www.inkscape.org/) -->

<svg
   width="37.76495"
   height="40.765011"
   viewBox="0 0 9.9919763 10.785742"
   version="1.1"
   id="svg1"
   xml:space="preserve"
   xmlns:xlink="http://www.w3.org/1999/xlink"
   xmlns="http://www.w3.org/2000/svg"
   xmlns:svg="http://www.w3.org/2000/svg"><defs
     id="defs1"><linearGradient
       id="linearGradient89"><stop
         style="stop-color:#434a5f;stop-opacity:1;"
         offset="1"
         id="stop89" /><stop
         style="stop-color:#434a5f;stop-opacity:1;"
         offset="1"
         id="stop90" /></linearGradient><linearGradient
       id="linearGradient1-1"><stop
         style="stop-color:#434a5f;stop-opacity:1;"
         offset="1"
         id="stop3" /><stop
         style="stop-color:#434a5f;stop-opacity:1;"
         offset="1"
         id="stop4" /></linearGradient><linearGradient
       id="linearGradient568"><stop
         style="stop-color:#6d7592;stop-opacity:1;"
         offset="0.18130387"
         id="stop565" /><stop
         style="stop-color:#a7adbe;stop-opacity:1;"
         offset="0.18130387"
         id="stop566" /><stop
         style="stop-color:#a8acbd;stop-opacity:1;"
         offset="0.2008221"
         id="stop567" /><stop
         style="stop-color:#8a90a8;stop-opacity:1;"
         offset="0.2008221"
         id="stop568" /></linearGradient><radialGradient
       xlink:href="#linearGradient568"
       id="radialGradient543"
       gradientUnits="userSpaceOnUse"
       gradientTransform="matrix(7.5298137,0,0,1.8808423,-2881.6306,-152.09994)"
       cx="452.62515"
       cy="196.25169"
       fx="452.62515"
       fy="196.25169"
       r="4.2087579" /><linearGradient
       xlink:href="#linearGradient1-1"
       id="linearGradient298"
       x1="522.34381"
       y1="212.97694"
       x2="530.76135"
       y2="212.97694"
       gradientUnits="userSpaceOnUse" /><linearGradient
       xlink:href="#linearGradient89"
       id="linearGradient994"
       x1="526.09155"
       y1="212.42537"
       x2="527.00916"
       y2="212.42537"
       gradientUnits="userSpaceOnUse" /></defs><g
     id="g456"
     transform="translate(-254.00007,-50.799949)"
     style="display:inline"><g
       id="g429"
       style="display:inline;paint-order:fill markers stroke"
       transform="matrix(1.1870466,0,0,1.1870466,-366.0464,-196.62075)"><path
         id="rect428"
         style="opacity:1;fill:url(#radialGradient543);stroke:url(#linearGradient298);stroke-width:1.00301;stroke-linecap:round;stroke-linejoin:round;stroke-miterlimit:0"
         d="m 523.9598,208.93536 h 5.18558 c 0.61741,0 1.11446,0.49705 1.11446,1.11446 v 5.85427 c 0,0.61741 -0.49705,1.11446 -1.11446,1.11446 h -5.18558 c -0.61741,0 -1.11446,-0.49705 -1.11446,-1.11446 v -5.85427 c 0,-0.61741 0.49705,-1.11446 1.11446,-1.11446 z" /><path
         d="m 526.55261,213.76556 q -0.2034,0 -0.33448,-0.11752 -0.12656,-0.12204 -0.12656,-0.29832 0,-0.1808 0.12656,-0.30284 0.13108,-0.12204 0.33448,-0.12204 0.19888,0 0.32544,0.12204 0.13108,0.12204 0.13108,0.30284 0,0.17628 -0.13108,0.29832 -0.12656,0.11752 -0.32544,0.11752 z m 0,-1.83965 q -0.2034,0 -0.33448,-0.11752 -0.12656,-0.12204 -0.12656,-0.29832 0,-0.1808 0.12656,-0.30284 0.13108,-0.12204 0.33448,-0.12204 0.19888,0 0.32544,0.12204 0.13108,0.12204 0.13108,0.30284 0,0.17628 -0.13108,0.29832 -0.12656,0.11752 -0.32544,0.11752 z"
         id="text428"
         style="font-weight:bold;font-size:4.52002px;font-family:Poppins;-inkscape-font-specification:'Poppins Bold';text-align:center;letter-spacing:0.100131px;text-anchor:middle;fill:url(#linearGradient994);stroke-width:1.99061;stroke-linecap:round;stroke-linejoin:round;stroke-dasharray:3.98122, 1.99061"
         aria-label=":" /></g></g></svg>
