<?xml version="1.0" encoding="UTF-8" standalone="no"?>
<!-- Created with Inkscape (http://www.inkscape.org/) -->

<svg
   width="77.421761"
   height="40.764969"
   viewBox="0 0 20.484507 10.785731"
   version="1.1"
   id="svg1"
   xml:space="preserve"
   xmlns:xlink="http://www.w3.org/1999/xlink"
   xmlns="http://www.w3.org/2000/svg"
   xmlns:svg="http://www.w3.org/2000/svg"><defs
     id="defs1"><linearGradient
       id="linearGradient89"><stop
         style="stop-color:#434a5f;stop-opacity:1;"
         offset="1"
         id="stop89" /><stop
         style="stop-color:#434a5f;stop-opacity:1;"
         offset="1"
         id="stop90" /></linearGradient><linearGradient
       id="linearGradient1-1"><stop
         style="stop-color:#434a5f;stop-opacity:1;"
         offset="1"
         id="stop3" /><stop
         style="stop-color:#434a5f;stop-opacity:1;"
         offset="1"
         id="stop4" /></linearGradient><linearGradient
       id="linearGradient568"><stop
         style="stop-color:#6d7592;stop-opacity:1;"
         offset="0.18130387"
         id="stop565" /><stop
         style="stop-color:#a7adbe;stop-opacity:1;"
         offset="0.18130387"
         id="stop566" /><stop
         style="stop-color:#a8acbd;stop-opacity:1;"
         offset="0.2008221"
         id="stop567" /><stop
         style="stop-color:#8a90a8;stop-opacity:1;"
         offset="0.2008221"
         id="stop568" /></linearGradient><linearGradient
       xlink:href="#linearGradient568"
       id="linearGradient511"
       gradientUnits="userSpaceOnUse"
       gradientTransform="translate(-1.4338166e-5,10.698826)"
       x1="454.61255"
       y1="238.41618"
       x2="454.61255"
       y2="230.33301" /><linearGradient
       xlink:href="#linearGradient1-1"
       id="linearGradient272"
       x1="447.45212"
       y1="245.07343"
       x2="464.7088"
       y2="245.07343"
       gradientUnits="userSpaceOnUse" /><linearGradient
       xlink:href="#linearGradient89"
       id="linearGradient966"
       x1="449.50406"
       y1="244.23256"
       x2="460.78357"
       y2="244.23256"
       gradientUnits="userSpaceOnUse" /></defs><g
     id="g456"
     transform="translate(-127.00008,-88.899939)"
     style="display:inline"><g
       id="g393"
       transform="translate(-88.899928,12.699945)"><path
         id="rect393"
         style="display:inline;opacity:1;fill:url(#linearGradient511);stroke:url(#linearGradient272);stroke-width:1.00301;stroke-linecap:round;stroke-linejoin:round;stroke-miterlimit:0;paint-order:fill markers stroke"
         transform="matrix(1.1870466,0,0,1.1870466,-315.24649,-209.32071)"
         d="m 449.06807,241.03183 h 14.02477 c 0.61741,0 1.11446,0.49705 1.11446,1.11446 v 5.85425 c 0,0.61742 -0.49705,1.11447 -1.11446,1.11447 h -14.02477 c -0.61741,0 -1.11446,-0.49705 -1.11446,-1.11447 v -5.85425 c 0,-0.61741 0.49705,-1.11446 1.11446,-1.11446 z" /><path
         style="font-weight:bold;font-size:4.52002px;font-family:Poppins;-inkscape-font-specification:'Poppins Bold';letter-spacing:0.100131px;fill:url(#linearGradient966);stroke-width:1.99061;stroke-linecap:round;stroke-linejoin:round;stroke-dasharray:3.98122, 1.99061;paint-order:fill markers stroke"
         d="m 449.50405,244.23482 q 0,-0.47008 0.2034,-0.8362 0.2034,-0.37065 0.565,-0.57405 0.36612,-0.20792 0.82717,-0.20792 0.565,0 0.96728,0.29832 0.40228,0.29833 0.53788,0.81361 h -0.84976 q -0.0949,-0.19888 -0.2712,-0.30284 -0.17176,-0.10396 -0.39324,-0.10396 -0.35708,0 -0.57857,0.2486 -0.22148,0.2486 -0.22148,0.66444 0,0.41584 0.22148,0.66444 0.22149,0.2486 0.57857,0.2486 0.22148,0 0.39324,-0.10396 0.17628,-0.10396 0.2712,-0.30284 h 0.84976 q -0.1356,0.51528 -0.53788,0.81361 -0.40228,0.2938 -0.96728,0.2938 -0.46105,0 -0.82717,-0.2034 -0.3616,-0.20793 -0.565,-0.57405 -0.2034,-0.36612 -0.2034,-0.8362 z m 5.95807,-1.58201 v 0.61925 h -0.84072 v 2.55381 h -0.77292 v -2.55381 h -0.84073 v -0.61925 z m 2.10702,3.17306 -0.65992,-1.19781 h -0.18532 v 1.19781 h -0.77293 v -3.17306 h 1.29725 q 0.37516,0 0.63732,0.13108 0.26668,0.13108 0.39776,0.3616 0.13108,0.22601 0.13108,0.50625 0,0.3164 -0.1808,0.565 -0.17628,0.2486 -0.52432,0.35256 l 0.73224,1.25657 z m -0.84524,-1.74473 h 0.47912 q 0.21244,0 0.3164,-0.10396 0.10848,-0.10396 0.10848,-0.2938 0,-0.1808 -0.10848,-0.28476 -0.10396,-0.10396 -0.3164,-0.10396 h -0.47912 z m 3.04718,1.14808 h 1.01249 v 0.59665 h -1.78541 v -3.17306 h 0.77292 z"
         id="text393"
         transform="matrix(1.1870466,0,0,1.1870466,-315.24649,-209.32071)"
         aria-label="CTRL" /></g></g></svg>
