<?xml version="1.0" encoding="UTF-8" standalone="no"?>
<!-- Created with Inkscape (http://www.inkscape.org/) -->

<svg
   width="37.764996"
   height="40.765011"
   viewBox="0 0 9.9919884 10.785742"
   version="1.1"
   id="svg1"
   xml:space="preserve"
   xmlns:xlink="http://www.w3.org/1999/xlink"
   xmlns="http://www.w3.org/2000/svg"
   xmlns:svg="http://www.w3.org/2000/svg"><defs
     id="defs1"><linearGradient
       id="linearGradient89"><stop
         style="stop-color:#434a5f;stop-opacity:1;"
         offset="1"
         id="stop89" /><stop
         style="stop-color:#434a5f;stop-opacity:1;"
         offset="1"
         id="stop90" /></linearGradient><linearGradient
       id="linearGradient1-1"><stop
         style="stop-color:#434a5f;stop-opacity:1;"
         offset="1"
         id="stop3" /><stop
         style="stop-color:#434a5f;stop-opacity:1;"
         offset="1"
         id="stop4" /></linearGradient><linearGradient
       id="linearGradient568"><stop
         style="stop-color:#6d7592;stop-opacity:1;"
         offset="0.18130387"
         id="stop565" /><stop
         style="stop-color:#a7adbe;stop-opacity:1;"
         offset="0.18130387"
         id="stop566" /><stop
         style="stop-color:#a8acbd;stop-opacity:1;"
         offset="0.2008221"
         id="stop567" /><stop
         style="stop-color:#8a90a8;stop-opacity:1;"
         offset="0.2008221"
         id="stop568" /></linearGradient><radialGradient
       xlink:href="#linearGradient568"
       id="radialGradient464"
       gradientUnits="userSpaceOnUse"
       gradientTransform="matrix(7.5298137,0,0,1.8808423,-2924.4259,-152.09993)"
       cx="452.62515"
       cy="196.25169"
       fx="452.62515"
       fy="196.25169"
       r="4.2087579" /><linearGradient
       xlink:href="#linearGradient1-1"
       id="linearGradient314"
       x1="479.54858"
       y1="212.97694"
       x2="487.96609"
       y2="212.97694"
       gradientUnits="userSpaceOnUse" /><linearGradient
       xlink:href="#linearGradient89"
       id="linearGradient636"
       x1="482.39453"
       y1="212.14287"
       x2="485.24667"
       y2="212.14287"
       gradientUnits="userSpaceOnUse" /></defs><g
     id="g456"
     transform="translate(-165.10009,-50.799939)"
     style="display:inline"><g
       id="g343"
       style="display:inline;paint-order:fill markers stroke"
       transform="matrix(1.1870466,0,0,1.1870466,-404.14642,-196.62076)"><path
         id="rect343"
         style="opacity:1;fill:url(#radialGradient464);stroke:url(#linearGradient314);stroke-width:1.00301;stroke-linecap:round;stroke-linejoin:round;stroke-miterlimit:0"
         d="m 481.16454,208.93536 h 5.18558 c 0.61742,0 1.11447,0.49705 1.11447,1.11446 v 5.85427 c 0,0.61741 -0.49705,1.11446 -1.11447,1.11446 h -5.18558 c -0.61741,0 -1.11446,-0.49705 -1.11446,-1.11446 v -5.85427 c 0,-0.61741 0.49705,-1.11446 1.11446,-1.11446 z" /><path
         d="m 483.58331,210.55635 q 0.50172,0 0.87688,0.19888 0.37516,0.19888 0.57856,0.56048 0.20792,0.35708 0.20792,0.82716 0,0.46557 -0.20792,0.82717 -0.2034,0.3616 -0.58308,0.56048 -0.37516,0.19888 -0.87236,0.19888 h -1.18877 v -3.17305 z m -0.0497,2.50409 q 0.43845,0 0.68253,-0.23956 0.24408,-0.23956 0.24408,-0.67801 0,-0.43844 -0.24408,-0.68252 -0.24408,-0.24408 -0.68253,-0.24408 h -0.36612 v 1.84417 z"
         id="text343"
         style="font-weight:bold;font-size:4.52002px;font-family:Poppins;-inkscape-font-specification:'Poppins Bold';text-align:center;letter-spacing:0.100131px;text-anchor:middle;fill:url(#linearGradient636);stroke-width:1.99061;stroke-linecap:round;stroke-linejoin:round;stroke-dasharray:3.98122, 1.99061"
         aria-label="D" /></g></g></svg>
