<?xml version="1.0" encoding="UTF-8" standalone="no"?>
<!-- Created with Inkscape (http://www.inkscape.org/) -->

<svg
   width="64.499992"
   height="40.764969"
   viewBox="0 0 17.065623 10.785731"
   version="1.1"
   id="svg1"
   xml:space="preserve"
   xmlns:xlink="http://www.w3.org/1999/xlink"
   xmlns="http://www.w3.org/2000/svg"
   xmlns:svg="http://www.w3.org/2000/svg"><defs
     id="defs1"><linearGradient
       id="linearGradient89"><stop
         style="stop-color:#434a5f;stop-opacity:1;"
         offset="1"
         id="stop89" /><stop
         style="stop-color:#434a5f;stop-opacity:1;"
         offset="1"
         id="stop90" /></linearGradient><linearGradient
       id="linearGradient1-1"><stop
         style="stop-color:#434a5f;stop-opacity:1;"
         offset="1"
         id="stop3" /><stop
         style="stop-color:#434a5f;stop-opacity:1;"
         offset="1"
         id="stop4" /></linearGradient><linearGradient
       id="linearGradient568"><stop
         style="stop-color:#6d7592;stop-opacity:1;"
         offset="0.18130387"
         id="stop565" /><stop
         style="stop-color:#a7adbe;stop-opacity:1;"
         offset="0.18130387"
         id="stop566" /><stop
         style="stop-color:#a8acbd;stop-opacity:1;"
         offset="0.2008221"
         id="stop567" /><stop
         style="stop-color:#8a90a8;stop-opacity:1;"
         offset="0.2008221"
         id="stop568" /></linearGradient><linearGradient
       xlink:href="#linearGradient568"
       id="linearGradient498"
       gradientUnits="userSpaceOnUse"
       gradientTransform="translate(42.795269)"
       x1="454.61255"
       y1="238.41618"
       x2="454.61255"
       y2="230.33301" /><linearGradient
       xlink:href="#linearGradient1-1"
       id="linearGradient270"
       x1="490.24738"
       y1="234.3746"
       x2="504.6239"
       y2="234.3746"
       gradientUnits="userSpaceOnUse" /><linearGradient
       xlink:href="#linearGradient89"
       id="linearGradient928"
       x1="492.43039"
       y1="233.54053"
       x2="500.14743"
       y2="233.54053"
       gradientUnits="userSpaceOnUse" /></defs><g
     id="g456"
     transform="translate(-177.80005,-76.199947)"
     style="display:inline"><g
       id="g378"
       style="display:inline;paint-order:fill markers stroke"
       transform="matrix(1.1870466,0,0,1.1870466,-404.14642,-196.62076)"><path
         id="rect378"
         style="opacity:1;fill:url(#linearGradient498);stroke:url(#linearGradient270);stroke-width:1.00301;stroke-linecap:round;stroke-linejoin:round;stroke-miterlimit:0"
         d="m 491.86333,230.33301 h 11.14461 c 0.61741,0 1.11446,0.49705 1.11446,1.11446 v 5.85426 c 0,0.61741 -0.49705,1.11446 -1.11446,1.11446 h -11.14461 c -0.61741,0 -1.11446,-0.49705 -1.11446,-1.11446 v -5.85426 c 0,-0.61741 0.49705,-1.11446 1.11446,-1.11446 z" /><path
         style="font-weight:bold;font-size:4.52002px;font-family:Poppins;-inkscape-font-specification:'Poppins Bold';letter-spacing:0.100131px;fill:url(#linearGradient928);stroke-width:1.99061;stroke-linecap:round;stroke-linejoin:round;stroke-dasharray:3.98122, 1.99061"
         d="m 493.61915,231.95399 q 0.50173,0 0.87689,0.19888 0.37516,0.19888 0.57856,0.56048 0.20792,0.35709 0.20792,0.82717 0,0.46556 -0.20792,0.82716 -0.2034,0.3616 -0.58308,0.56048 -0.37516,0.19888 -0.87237,0.19888 h -1.18876 v -3.17305 z m -0.0497,2.50409 q 0.43844,0 0.68253,-0.23956 0.24408,-0.23956 0.24408,-0.678 0,-0.43844 -0.24408,-0.68253 -0.24409,-0.24408 -0.68253,-0.24408 h -0.36612 v 1.84417 z m 3.02006,-1.88485 v 0.64185 h 1.03509 v 0.59664 h -1.03509 v 0.69608 h 1.17069 v 0.61924 h -1.94361 v -3.17305 h 1.94361 v 0.61924 z m 2.54547,1.95717 h 1.01248 v 0.59664 h -1.78541 v -3.17305 h 0.77293 z"
         id="text378"
         aria-label="DEL" /></g></g></svg>
