<?xml version="1.0" encoding="UTF-8" standalone="no"?>
<!-- Created with Inkscape (http://www.inkscape.org/) -->

<svg
   width="48.004429"
   height="47.997044"
   viewBox="0 0 12.701172 12.699218"
   version="1.1"
   id="svg1"
   xml:space="preserve"
   xmlns:xlink="http://www.w3.org/1999/xlink"
   xmlns="http://www.w3.org/2000/svg"
   xmlns:svg="http://www.w3.org/2000/svg"><defs
     id="defs1"><linearGradient
       id="linearGradient1"><stop
         style="stop-color:#434a5f;stop-opacity:1;"
         offset="1"
         id="stop111" /><stop
         style="stop-color:#434a5f;stop-opacity:1;"
         offset="1"
         id="stop112" /></linearGradient><linearGradient
       id="linearGradient1-1"><stop
         style="stop-color:#434a5f;stop-opacity:1;"
         offset="0.47322804"
         id="stop3" /><stop
         style="stop-color:#434a5f;stop-opacity:1;"
         offset="1"
         id="stop4" /></linearGradient><linearGradient
       id="linearGradient2"><stop
         style="stop-color:#8a90a8;stop-opacity:1"
         offset="0.68779135"
         id="stop39" /><stop
         style="stop-color:#636883;stop-opacity:1;"
         offset="0.68779135"
         id="stop40" /></linearGradient><linearGradient
       id="linearGradient301"><stop
         style="stop-color:#ffffff;stop-opacity:1;"
         offset="0.68779135"
         id="stop300" /><stop
         style="stop-color:#b2b2b2;stop-opacity:1;"
         offset="0.68779135"
         id="stop301" /></linearGradient><linearGradient
       xlink:href="#linearGradient301"
       id="linearGradient658"
       gradientUnits="userSpaceOnUse"
       gradientTransform="matrix(0.33069664,0,0,0.33333334,0.05022912,-33.866666)"
       x1="23.283487"
       y1="-36.247658"
       x2="23.283487"
       y2="-27.550001" /><linearGradient
       xlink:href="#linearGradient301"
       id="linearGradient659"
       gradientUnits="userSpaceOnUse"
       gradientTransform="matrix(0.33597004,0,0,0.33333334,-0.05022901,-33.866666)"
       x1="14.584153"
       y1="-36.251179"
       x2="14.584153"
       y2="-27.474903" /><linearGradient
       xlink:href="#linearGradient301"
       id="linearGradient660"
       gradientUnits="userSpaceOnUse"
       gradientTransform="matrix(0.33333334,0,0,0.33069657,1.5442047e-8,-33.950383)"
       x1="19.049999"
       y1="-31.75"
       x2="19.049999"
       y2="-12.7" /><linearGradient
       xlink:href="#linearGradient301"
       id="linearGradient664"
       gradientUnits="userSpaceOnUse"
       gradientTransform="matrix(0.33069664,0,0,0.33333334,0.05022912,-33.866666)"
       x1="23.283487"
       y1="-36.247658"
       x2="23.283487"
       y2="-27.550001" /><linearGradient
       xlink:href="#linearGradient301"
       id="linearGradient665"
       gradientUnits="userSpaceOnUse"
       gradientTransform="matrix(0.33597004,0,0,0.33333334,-0.05022901,-33.866666)"
       x1="14.584153"
       y1="-36.251179"
       x2="14.584153"
       y2="-27.474903" /><linearGradient
       xlink:href="#linearGradient301"
       id="linearGradient666"
       gradientUnits="userSpaceOnUse"
       gradientTransform="matrix(0.33333334,0,0,0.33069657,1.5442047e-8,-33.950383)"
       x1="19.049999"
       y1="-31.75"
       x2="19.049999"
       y2="-12.7" /><linearGradient
       xlink:href="#linearGradient301"
       id="linearGradient674"
       gradientUnits="userSpaceOnUse"
       gradientTransform="matrix(0.33069664,0,0,0.33333334,0.05022912,-33.866666)"
       x1="23.283487"
       y1="-36.247658"
       x2="23.283487"
       y2="-27.550001" /><linearGradient
       xlink:href="#linearGradient301"
       id="linearGradient675"
       gradientUnits="userSpaceOnUse"
       gradientTransform="matrix(0.33597004,0,0,0.33333334,-0.05022901,-33.866666)"
       x1="14.584153"
       y1="-36.251179"
       x2="14.584153"
       y2="-27.474903" /><linearGradient
       xlink:href="#linearGradient301"
       id="linearGradient676"
       gradientUnits="userSpaceOnUse"
       gradientTransform="matrix(0.33333334,0,0,0.33069657,1.5442047e-8,-33.950383)"
       x1="19.049999"
       y1="-31.75"
       x2="19.049999"
       y2="-12.7" /><linearGradient
       xlink:href="#linearGradient2"
       id="linearGradient834"
       gradientUnits="userSpaceOnUse"
       gradientTransform="matrix(0.33069664,0,0,0.33333334,0.05022912,-33.866666)"
       x1="23.283487"
       y1="-36.247658"
       x2="23.283487"
       y2="-27.550001" /><linearGradient
       xlink:href="#linearGradient2"
       id="linearGradient835"
       gradientUnits="userSpaceOnUse"
       gradientTransform="matrix(0.33597004,0,0,0.33333334,-0.05022901,-33.866666)"
       x1="14.584153"
       y1="-36.251179"
       x2="14.584153"
       y2="-27.474903" /><linearGradient
       xlink:href="#linearGradient2"
       id="linearGradient836"
       gradientUnits="userSpaceOnUse"
       gradientTransform="matrix(0.33333334,0,0,0.33069657,1.5442047e-8,-33.950383)"
       x1="19.049999"
       y1="-31.75"
       x2="19.049999"
       y2="-12.7" /><linearGradient
       xlink:href="#linearGradient1-1"
       id="linearGradient559"
       x1="-0.05078125"
       y1="-44.5"
       x2="12.650391"
       y2="-44.5"
       gradientUnits="userSpaceOnUse" /><linearGradient
       xlink:href="#linearGradient1"
       id="linearGradient574"
       x1="-0.05078125"
       y1="-44.5"
       x2="12.650391"
       y2="-44.5"
       gradientUnits="userSpaceOnUse" /><linearGradient
       xlink:href="#linearGradient1"
       id="linearGradient576"
       x1="-0.05078125"
       y1="-44.5"
       x2="12.650391"
       y2="-44.5"
       gradientUnits="userSpaceOnUse" /><linearGradient
       xlink:href="#linearGradient1"
       id="linearGradient577"
       x1="-0.05078125"
       y1="-44.5"
       x2="12.650391"
       y2="-44.5"
       gradientUnits="userSpaceOnUse" /></defs><g
     id="layer15"
     style="display:inline"
     transform="translate(-50.799931,-12.700324)"><g
       id="g793"
       transform="translate(38.153676,76.24899)"
       style="display:inline;stroke-width:1.00013;stroke-dasharray:none"><path
         id="path788"
         style="fill:#8a90a8;fill-opacity:1;stroke-width:1.00013;stroke-linecap:round;stroke-linejoin:round;stroke-dasharray:none"
         d="M 4.8496094,-49.849609 H 7.75 v 3.90039 L 6.3500002,-44.45 4.8496094,-45.949219 Z" /><path
         id="path789"
         style="fill:url(#linearGradient834);stroke-width:1.00012;stroke-linecap:round;stroke-linejoin:round;stroke-dasharray:none"
         d="m 11.650391,-45.949219 v 2.898438 L 7.75,-43.05 6.3500002,-44.449999 7.75,-45.949219 Z" /><path
         id="path790"
         style="fill:url(#linearGradient835);stroke-width:1.00013;stroke-linecap:round;stroke-linejoin:round;stroke-dasharray:none"
         d="m 0.94921875,-43.050781 v -2.898438 l 3.90039065,-0.0012 1.5003909,1.500394 -1.5003909,1.425032 z" /><path
         id="path791"
         style="fill:url(#linearGradient836);stroke-width:1.00012;stroke-linecap:round;stroke-linejoin:round;stroke-dasharray:none"
         d="M 4.8496094,-39.150391 H 7.75 V -43.05 l -1.3999998,-1.399999 -1.5003908,1.425032 z" /><path
         style="color:#000000;fill:url(#linearGradient559);stroke-linecap:round;stroke-linejoin:round;stroke-miterlimit:0;-inkscape-stroke:none;paint-order:fill markers stroke"
         d="m 4.3496094,-50.849609 c -0.2761172,6.1e-5 -0.4999393,0.223883 -0.5,0.5 v 3.398437 H 0.44921875 c -0.27611721,6.1e-5 -0.49993926,0.223883 -0.5,0.5 v 3.900391 c 6.074e-5,0.276117 0.22388279,0.499939 0.5,0.5 H 3.8496094 v 3.40039 c 6.07e-5,0.276117 0.2238828,0.499939 0.5,0.5 H 8.25 c 0.2761172,-6.1e-5 0.4999393,-0.223883 0.5,-0.5 v -3.40039 h 3.400391 c 0.276117,-6.1e-5 0.499939,-0.223883 0.5,-0.5 v -3.900391 c -6.1e-5,-0.276117 -0.223883,-0.499939 -0.5,-0.5 H 8.75 v -3.398437 c -6.07e-5,-0.276117 -0.2238828,-0.499939 -0.5,-0.5 z m 0.5,1 H 7.75 v 3.90039 h 3.900391 v 2.898438 H 7.75 v 3.90039 H 4.8496094 v -3.90039 H 0.94921875 v -2.898438 H 4.8496094 Z"
         id="path792" /><path
         id="path793"
         style="display:inline;mix-blend-mode:color;fill:#23c3f6;fill-opacity:1;stroke-width:1.00012;stroke-linecap:round;stroke-linejoin:round;stroke-dasharray:none"
         d="M 4.8496094,-39.150391 H 7.75 V -43.05 l -1.3999998,-1.399999 -1.5003908,1.425032 z" /></g></g><g
     id="layer7"
     style="display:inline"
     transform="translate(-50.799379,-12.700162)"><g
       id="g658"
       transform="translate(38.153125,63.549609)"
       style="stroke-width:1.00013;stroke-dasharray:none"><path
         id="path654"
         style="fill:#ffffff;stroke-width:1.00013;stroke-linecap:round;stroke-linejoin:round;stroke-dasharray:none"
         d="M 4.8496094,-49.849609 H 7.75 v 3.90039 L 6.3500002,-44.45 4.8496094,-45.949219 Z" /><path
         id="path655"
         style="fill:url(#linearGradient658);stroke-width:1.00012;stroke-linecap:round;stroke-linejoin:round;stroke-dasharray:none"
         d="m 11.650391,-45.949219 v 2.898438 L 7.75,-43.05 6.3500002,-44.449999 7.75,-45.949219 Z" /><path
         id="path656"
         style="fill:url(#linearGradient659);stroke-width:1.00013;stroke-linecap:round;stroke-linejoin:round;stroke-dasharray:none"
         d="m 0.94921875,-43.050781 v -2.898438 l 3.90039065,-0.0012 1.5003909,1.500394 -1.5003909,1.425032 z" /><path
         id="path657"
         style="fill:url(#linearGradient660);stroke-width:1.00012;stroke-linecap:round;stroke-linejoin:round;stroke-dasharray:none"
         d="M 4.8496094,-39.150391 H 7.75 V -43.05 l -1.3999998,-1.399999 -1.5003908,1.425032 z" /><path
         style="color:#000000;fill:url(#linearGradient577);stroke-linecap:round;stroke-linejoin:round;stroke-miterlimit:0;-inkscape-stroke:none;paint-order:fill markers stroke"
         d="m 4.3496094,-50.849609 c -0.2761172,6.1e-5 -0.4999393,0.223883 -0.5,0.5 v 3.398437 H 0.44921875 c -0.27611721,6.1e-5 -0.49993926,0.223883 -0.5,0.5 v 3.900391 c 6.074e-5,0.276117 0.22388279,0.499939 0.5,0.5 H 3.8496094 v 3.40039 c 6.07e-5,0.276117 0.2238828,0.499939 0.5,0.5 H 8.25 c 0.2761172,-6.1e-5 0.4999393,-0.223883 0.5,-0.5 v -3.40039 h 3.400391 c 0.276117,-6.1e-5 0.499939,-0.223883 0.5,-0.5 v -3.900391 c -6.1e-5,-0.276117 -0.223883,-0.499939 -0.5,-0.5 H 8.75 v -3.398437 c -6.07e-5,-0.276117 -0.2238828,-0.499939 -0.5,-0.5 z m 0.5,1 H 7.75 v 3.90039 h 3.900391 v 2.898438 H 7.75 v 3.90039 H 4.8496094 v -3.90039 H 0.94921875 v -2.898438 H 4.8496094 Z"
         id="path658" /><path
         id="path668"
         style="display:inline;mix-blend-mode:multiply;fill:#23c3f6;fill-opacity:1;stroke-width:1.00012;stroke-linecap:round;stroke-linejoin:round;stroke-dasharray:none"
         d="M 4.8496094,-39.150391 H 7.75 V -43.05 l -1.3999998,-1.399999 -1.5003908,1.425032 z" /></g><g
       id="g664"
       transform="translate(50.85016,63.549771)"
       style="stroke-width:1.00013;stroke-dasharray:none"><path
         id="path660"
         style="fill:#ffffff;stroke-width:1.00013;stroke-linecap:round;stroke-linejoin:round;stroke-dasharray:none"
         d="M 4.8496094,-49.849609 H 7.75 v 3.90039 L 6.3500002,-44.45 4.8496094,-45.949219 Z" /><path
         id="path661"
         style="fill:url(#linearGradient664);stroke-width:1.00012;stroke-linecap:round;stroke-linejoin:round;stroke-dasharray:none"
         d="m 11.650391,-45.949219 v 2.898438 L 7.75,-43.05 6.3500002,-44.449999 7.75,-45.949219 Z" /><path
         id="path662"
         style="fill:url(#linearGradient665);stroke-width:1.00013;stroke-linecap:round;stroke-linejoin:round;stroke-dasharray:none"
         d="m 0.94921875,-43.050781 v -2.898438 l 3.90039065,-0.0012 1.5003909,1.500394 -1.5003909,1.425032 z" /><path
         id="path663"
         style="fill:url(#linearGradient666);stroke-width:1.00012;stroke-linecap:round;stroke-linejoin:round;stroke-dasharray:none"
         d="M 4.8496094,-39.150391 H 7.75 V -43.05 l -1.3999998,-1.399999 -1.5003908,1.425032 z" /><path
         style="color:#000000;fill:url(#linearGradient576);stroke-linecap:round;stroke-linejoin:round;stroke-miterlimit:0;-inkscape-stroke:none;paint-order:fill markers stroke"
         d="m 4.3496094,-50.849609 c -0.2761172,6.1e-5 -0.4999393,0.223883 -0.5,0.5 v 3.398437 H 0.44921875 c -0.27611721,6.1e-5 -0.49993926,0.223883 -0.5,0.5 v 3.900391 c 6.074e-5,0.276117 0.22388279,0.499939 0.5,0.5 H 3.8496094 v 3.40039 c 6.07e-5,0.276117 0.2238828,0.499939 0.5,0.5 H 8.25 c 0.2761172,-6.1e-5 0.4999393,-0.223883 0.5,-0.5 v -3.40039 h 3.400391 c 0.276117,-6.1e-5 0.499939,-0.223883 0.5,-0.5 v -3.900391 c -6.1e-5,-0.276117 -0.223883,-0.499939 -0.5,-0.5 H 8.75 v -3.398437 c -6.07e-5,-0.276117 -0.2238828,-0.499939 -0.5,-0.5 z m 0.5,1 H 7.75 v 3.90039 h 3.900391 v 2.898438 H 7.75 v 3.90039 H 4.8496094 v -3.90039 H 0.94921875 v -2.898438 H 4.8496094 Z"
         id="path664" /><path
         id="path669"
         style="display:inline;mix-blend-mode:multiply;fill:#23c3f6;fill-opacity:1;stroke-width:1.00013;stroke-linecap:round;stroke-linejoin:round;stroke-dasharray:none"
         d="m 0.94921875,-43.050781 v -2.898438 l 3.90039065,-0.0012 1.5003909,1.500394 -1.5003909,1.425032 z" /></g><g
       id="g674"
       transform="translate(63.55016,63.549771)"
       style="stroke-width:1.00013;stroke-dasharray:none"><path
         id="path670"
         style="fill:#ffffff;stroke-width:1.00013;stroke-linecap:round;stroke-linejoin:round;stroke-dasharray:none"
         d="M 4.8496094,-49.849609 H 7.75 v 3.90039 L 6.3500002,-44.45 4.8496094,-45.949219 Z" /><path
         id="path671"
         style="fill:url(#linearGradient674);stroke-width:1.00012;stroke-linecap:round;stroke-linejoin:round;stroke-dasharray:none"
         d="m 11.650391,-45.949219 v 2.898438 L 7.75,-43.05 6.3500002,-44.449999 7.75,-45.949219 Z" /><path
         id="path672"
         style="fill:url(#linearGradient675);stroke-width:1.00013;stroke-linecap:round;stroke-linejoin:round;stroke-dasharray:none"
         d="m 0.94921875,-43.050781 v -2.898438 l 3.90039065,-0.0012 1.5003909,1.500394 -1.5003909,1.425032 z" /><path
         id="path673"
         style="fill:url(#linearGradient676);stroke-width:1.00012;stroke-linecap:round;stroke-linejoin:round;stroke-dasharray:none"
         d="M 4.8496094,-39.150391 H 7.75 V -43.05 l -1.3999998,-1.399999 -1.5003908,1.425032 z" /><path
         style="color:#000000;fill:url(#linearGradient574);stroke-linecap:round;stroke-linejoin:round;stroke-miterlimit:0;-inkscape-stroke:none;paint-order:fill markers stroke"
         d="m 4.3496094,-50.849609 c -0.2761172,6.1e-5 -0.4999393,0.223883 -0.5,0.5 v 3.398437 H 0.44921875 c -0.27611721,6.1e-5 -0.49993926,0.223883 -0.5,0.5 v 3.900391 c 6.074e-5,0.276117 0.22388279,0.499939 0.5,0.5 H 3.8496094 v 3.40039 c 6.07e-5,0.276117 0.2238828,0.499939 0.5,0.5 H 8.25 c 0.2761172,-6.1e-5 0.4999393,-0.223883 0.5,-0.5 v -3.40039 h 3.400391 c 0.276117,-6.1e-5 0.499939,-0.223883 0.5,-0.5 v -3.900391 c -6.1e-5,-0.276117 -0.223883,-0.499939 -0.5,-0.5 H 8.75 v -3.398437 c -6.07e-5,-0.276117 -0.2238828,-0.499939 -0.5,-0.5 z m 0.5,1 H 7.75 v 3.90039 h 3.900391 v 2.898438 H 7.75 v 3.90039 H 4.8496094 v -3.90039 H 0.94921875 v -2.898438 H 4.8496094 Z"
         id="path674" /><path
         id="path688"
         style="display:inline;mix-blend-mode:multiply;fill:#23c3f6;fill-opacity:1;stroke-width:1.00012;stroke-linecap:round;stroke-linejoin:round;stroke-dasharray:none"
         d="m 11.650391,-45.949219 v 2.898438 L 7.75,-43.05 6.3500002,-44.449999 7.75,-45.949219 Z" /><path
         id="path689"
         style="display:inline;mix-blend-mode:multiply;fill:#23c3f6;fill-opacity:1;stroke-width:1.00013;stroke-linecap:round;stroke-linejoin:round;stroke-dasharray:none"
         d="m 0.94921875,-43.050781 v -2.898438 l 3.90039065,-0.0012 1.5003909,1.500394 -1.5003909,1.425032 z" /></g></g></svg>
