<?xml version="1.0" encoding="UTF-8" standalone="no"?>
<!-- Created with Inkscape (http://www.inkscape.org/) -->

<svg
   width="64.499985"
   height="40.764977"
   viewBox="0 0 17.065621 10.785733"
   version="1.1"
   id="svg1"
   xml:space="preserve"
   xmlns:xlink="http://www.w3.org/1999/xlink"
   xmlns="http://www.w3.org/2000/svg"
   xmlns:svg="http://www.w3.org/2000/svg"><defs
     id="defs1"><linearGradient
       id="linearGradient1"><stop
         style="stop-color:#434a5f;stop-opacity:1;"
         offset="1"
         id="stop111" /><stop
         style="stop-color:#434a5f;stop-opacity:1;"
         offset="1"
         id="stop112" /></linearGradient><linearGradient
       id="linearGradient103"><stop
         style="stop-color:#434a5f;stop-opacity:1;"
         offset="1"
         id="stop103" /><stop
         style="stop-color:#434a5f;stop-opacity:1;"
         offset="1"
         id="stop104" /></linearGradient><linearGradient
       id="linearGradient7"><stop
         style="stop-color:#b8b8b8;stop-opacity:1;"
         offset="0.16548869"
         id="stop14" /><stop
         style="stop-color:#ffffff;stop-opacity:1;"
         offset="0.16548869"
         id="stop16" /><stop
         style="stop-color:#ffffff;stop-opacity:1;"
         offset="0.2089889"
         id="stop15" /><stop
         style="stop-color:#e5e5e5;stop-opacity:1;"
         offset="0.2089889"
         id="stop7" /></linearGradient><linearGradient
       xlink:href="#linearGradient7"
       id="linearGradient156"
       gradientUnits="userSpaceOnUse"
       gradientTransform="translate(64.192927)"
       x1="454.61255"
       y1="238.41618"
       x2="454.61255"
       y2="230.33301" /><linearGradient
       xlink:href="#linearGradient1"
       id="linearGradient119"
       x1="511.64505"
       y1="234.3746"
       x2="526.02161"
       y2="234.3746"
       gradientUnits="userSpaceOnUse" /><linearGradient
       xlink:href="#linearGradient103"
       id="linearGradient813"
       x1="513.828"
       y1="233.54053"
       x2="522.72479"
       y2="233.54053"
       gradientUnits="userSpaceOnUse" /></defs><g
     id="layer2"
     transform="translate(-203.20009,-63.499944)"
     style="display:inline"><g
       id="g268"
       style="display:inline;paint-order:fill markers stroke"
       transform="matrix(1.1870466,0,0,1.1870466,-404.14642,-209.32076)"><rect
         style="opacity:1;fill:url(#linearGradient156);stroke:url(#linearGradient119);stroke-width:1.00301;stroke-linecap:round;stroke-linejoin:round;stroke-miterlimit:0;stroke-dasharray:none;stroke-opacity:1;paint-order:fill markers stroke"
         id="rect156"
         width="13.373528"
         height="8.0831823"
         x="512.14655"
         y="230.33301"
         rx="1.1144606"
         ry="1.1144606" /><path
         style="font-weight:bold;font-size:4.52002px;font-family:Poppins;-inkscape-font-specification:'Poppins Bold';letter-spacing:0.100131px;fill:url(#linearGradient813);stroke-width:1.99061;stroke-linecap:round;stroke-linejoin:round;stroke-dasharray:3.98122, 1.99061"
         d="m 514.60096,232.57323 v 0.64185 h 1.03508 v 0.59664 h -1.03508 v 0.69608 h 1.17068 v 0.61924 h -1.94361 v -3.17305 h 1.94361 v 0.61924 z m 4.61111,2.55381 h -0.77293 l -1.29272,-1.95716 v 1.95716 h -0.77292 v -3.17305 h 0.77292 l 1.29272,1.96621 v -1.96621 h 0.77293 z m 1.84938,-3.17305 q 0.50172,0 0.87688,0.19888 0.37517,0.19888 0.57857,0.56048 0.20792,0.35709 0.20792,0.82717 0,0.46556 -0.20792,0.82716 -0.2034,0.3616 -0.58309,0.56048 -0.37516,0.19888 -0.87236,0.19888 h -1.18876 v -3.17305 z m -0.0497,2.50409 q 0.43844,0 0.68252,-0.23956 0.24408,-0.23956 0.24408,-0.678 0,-0.43844 -0.24408,-0.68253 -0.24408,-0.24408 -0.68252,-0.24408 h -0.36612 v 1.84417 z"
         id="text156"
         aria-label="END" /></g></g></svg>
