<?xml version="1.0" encoding="UTF-8" standalone="no"?>
<!-- Created with Inkscape (http://www.inkscape.org/) -->

<svg
   width="37.764977"
   height="40.764977"
   viewBox="0 0 9.9919834 10.785733"
   version="1.1"
   id="svg1"
   xml:space="preserve"
   xmlns:xlink="http://www.w3.org/1999/xlink"
   xmlns="http://www.w3.org/2000/svg"
   xmlns:svg="http://www.w3.org/2000/svg"><defs
     id="defs1"><linearGradient
       id="linearGradient1"><stop
         style="stop-color:#434a5f;stop-opacity:1;"
         offset="1"
         id="stop111" /><stop
         style="stop-color:#434a5f;stop-opacity:1;"
         offset="1"
         id="stop112" /></linearGradient><linearGradient
       id="linearGradient103"><stop
         style="stop-color:#434a5f;stop-opacity:1;"
         offset="1"
         id="stop103" /><stop
         style="stop-color:#434a5f;stop-opacity:1;"
         offset="1"
         id="stop104" /></linearGradient><linearGradient
       id="linearGradient7"><stop
         style="stop-color:#b8b8b8;stop-opacity:1;"
         offset="0.16548869"
         id="stop14" /><stop
         style="stop-color:#ffffff;stop-opacity:1;"
         offset="0.16548869"
         id="stop16" /><stop
         style="stop-color:#ffffff;stop-opacity:1;"
         offset="0.2089889"
         id="stop15" /><stop
         style="stop-color:#e5e5e5;stop-opacity:1;"
         offset="0.2089889"
         id="stop7" /></linearGradient><radialGradient
       xlink:href="#linearGradient7"
       id="radialGradient167"
       gradientUnits="userSpaceOnUse"
       gradientTransform="matrix(7.5298137,0,0,1.8808423,-2849.5342,-184.19638)"
       cx="452.62515"
       cy="196.25169"
       fx="452.62515"
       fy="196.25169"
       r="4.2087579" /><linearGradient
       xlink:href="#linearGradient1"
       id="linearGradient230"
       x1="554.44031"
       y1="180.88049"
       x2="562.85785"
       y2="180.88049"
       gradientUnits="userSpaceOnUse" /><linearGradient
       xlink:href="#linearGradient103"
       id="linearGradient803"
       x1="556.03339"
       y1="179.57301"
       x2="561.34161"
       y2="179.57301"
       gradientUnits="userSpaceOnUse" /></defs><g
     id="layer2"
     transform="translate(-254.00007,12.700048)"
     style="display:inline"><g
       id="g218"
       style="display:inline;paint-order:fill markers stroke"
       transform="matrix(1.1870466,0,0,1.1870466,-404.14644,-222.02075)"><rect
         style="opacity:1;fill:url(#radialGradient167);fill-opacity:1;stroke:url(#linearGradient230);stroke-width:1.00301;stroke-linecap:round;stroke-linejoin:round;stroke-miterlimit:0;stroke-dasharray:none;stroke-opacity:1;paint-order:fill markers stroke"
         id="rect167"
         width="7.414506"
         height="8.0831823"
         x="554.94183"
         y="176.8389"
         rx="1.1144606"
         ry="1.1144606" /><path
         d="m 557.63745,178.41645 v 0.48088 h -1.00387 v 0.51948 h 0.75115 v 0.46683 h -0.75115 v 0.99685 h -0.60021 v -2.46404 z m 0.27081,0.45982 v -0.5581 h 0.97228 v 2.56232 h -0.62478 v -2.00422 z m 1.46071,0.68796 q 0,-0.60372 0.23166,-0.95122 0.23517,-0.34749 0.75466,-0.34749 0.51948,0 0.75115,0.34749 0.23517,0.3475 0.23517,0.95122 0,0.61075 -0.23517,0.95824 -0.23167,0.34749 -0.75115,0.34749 -0.51949,0 -0.75466,-0.34749 -0.23166,-0.34749 -0.23166,-0.95824 z m 1.38295,0 q 0,-0.35451 -0.0772,-0.54405 -0.0772,-0.19305 -0.31941,-0.19305 -0.24219,0 -0.31941,0.19305 -0.0772,0.18954 -0.0772,0.54405 0,0.23868 0.0281,0.39664 0.0281,0.15444 0.11232,0.25272 0.0878,0.0948 0.25623,0.0948 0.16848,0 0.25272,-0.0948 0.0877,-0.0983 0.11583,-0.25272 0.0281,-0.15796 0.0281,-0.39664 z"
         id="text167"
         style="font-weight:bold;font-size:3.51003px;font-family:Poppins;-inkscape-font-specification:'Poppins Bold';text-align:center;letter-spacing:0.0777568px;text-anchor:middle;fill:url(#linearGradient803);stroke-width:1.99061;stroke-linecap:round;stroke-linejoin:round;stroke-dasharray:3.98122, 1.99061"
         aria-label="F10" /></g></g></svg>
