<?xml version="1.0" encoding="UTF-8" standalone="no"?>
<!-- Created with Inkscape (http://www.inkscape.org/) -->

<svg
   width="37.764977"
   height="40.764977"
   viewBox="0 0 9.9919834 10.785733"
   version="1.1"
   id="svg1"
   xml:space="preserve"
   xmlns:xlink="http://www.w3.org/1999/xlink"
   xmlns="http://www.w3.org/2000/svg"
   xmlns:svg="http://www.w3.org/2000/svg"><defs
     id="defs1"><linearGradient
       id="linearGradient89"><stop
         style="stop-color:#434a5f;stop-opacity:1;"
         offset="1"
         id="stop89" /><stop
         style="stop-color:#434a5f;stop-opacity:1;"
         offset="1"
         id="stop90" /></linearGradient><linearGradient
       id="linearGradient1-1"><stop
         style="stop-color:#434a5f;stop-opacity:1;"
         offset="0.47322804"
         id="stop3" /><stop
         style="stop-color:#434a5f;stop-opacity:1;"
         offset="1"
         id="stop4" /></linearGradient><linearGradient
       id="linearGradient568"><stop
         style="stop-color:#6d7592;stop-opacity:1;"
         offset="0.18130387"
         id="stop565" /><stop
         style="stop-color:#a7adbe;stop-opacity:1;"
         offset="0.18130387"
         id="stop566" /><stop
         style="stop-color:#a8acbd;stop-opacity:1;"
         offset="0.2008221"
         id="stop567" /><stop
         style="stop-color:#8a90a8;stop-opacity:1;"
         offset="0.2008221"
         id="stop568" /></linearGradient><radialGradient
       xlink:href="#linearGradient568"
       id="radialGradient510"
       gradientUnits="userSpaceOnUse"
       gradientTransform="matrix(7.5298137,0,0,1.8808423,-2828.1366,-184.19636)"
       cx="452.62515"
       cy="196.25169"
       fx="452.62515"
       fy="196.25169"
       r="4.2087579" /><linearGradient
       xlink:href="#linearGradient1-1"
       id="linearGradient357"
       x1="575.83795"
       y1="180.88049"
       x2="584.25549"
       y2="180.88049"
       gradientUnits="userSpaceOnUse" /><linearGradient
       xlink:href="#linearGradient89"
       id="linearGradient964"
       x1="577.57318"
       y1="179.57124"
       x2="582.64978"
       y2="179.57124"
       gradientUnits="userSpaceOnUse" /></defs><g
     id="g456"
     transform="translate(-279.40007,4.7557085e-5)"
     style="display:inline"><g
       id="g391"
       style="display:inline;paint-order:fill markers stroke"
       transform="matrix(1.1870466,0,0,1.1870466,-404.14644,-209.32075)"><rect
         style="opacity:1;fill:url(#radialGradient510);fill-opacity:1;stroke:url(#linearGradient357);stroke-width:1.00301;stroke-linecap:round;stroke-linejoin:round;stroke-miterlimit:0;stroke-dasharray:none;stroke-opacity:1;paint-order:fill markers stroke"
         id="rect391"
         width="7.414506"
         height="8.0831823"
         x="576.33948"
         y="176.8389"
         rx="1.1144606"
         ry="1.1144606" /><path
         d="m 579.17726,178.41645 v 0.48088 h -1.00387 v 0.51948 h 0.75114 v 0.46683 h -0.75114 v 0.99685 h -0.60022 v -2.46404 z m 0.27081,0.45982 v -0.5581 h 0.97228 v 2.56232 h -0.62479 v -2.00422 z m 1.43964,1.52335 q 0.11934,-0.0948 0.10881,-0.0877 0.34399,-0.28431 0.54055,-0.46684 0.20007,-0.18252 0.33696,-0.38259 0.13689,-0.20007 0.13689,-0.38961 0,-0.14391 -0.0667,-0.22464 -0.0667,-0.0807 -0.20007,-0.0807 -0.13338,0 -0.2106,0.10179 -0.0737,0.0983 -0.0737,0.2808 h -0.57916 q 0.007,-0.29835 0.12636,-0.49843 0.12286,-0.20007 0.31942,-0.29484 0.20007,-0.0948 0.44226,-0.0948 0.41769,0 0.6283,0.21411 0.21411,0.21411 0.21411,0.5581 0,0.37557 -0.25623,0.69849 -0.25624,0.31942 -0.65287,0.62479 h 0.94771 v 0.48789 h -1.76204 z"
         id="text391"
         style="font-weight:bold;font-size:3.51003px;font-family:Poppins;-inkscape-font-specification:'Poppins Bold';text-align:center;letter-spacing:0.0777568px;text-anchor:middle;fill:url(#linearGradient964);stroke-width:1.99061;stroke-linecap:round;stroke-linejoin:round;stroke-dasharray:3.98122, 1.99061"
         aria-label="F12" /></g></g></svg>
