<?xml version="1.0" encoding="UTF-8" standalone="no"?>
<!-- Created with Inkscape (http://www.inkscape.org/) -->

<svg
   width="37.76495"
   height="40.764969"
   viewBox="0 0 9.9919763 10.785731"
   version="1.1"
   id="svg1"
   xml:space="preserve"
   xmlns:xlink="http://www.w3.org/1999/xlink"
   xmlns="http://www.w3.org/2000/svg"
   xmlns:svg="http://www.w3.org/2000/svg"><defs
     id="defs1"><linearGradient
       id="linearGradient1"><stop
         style="stop-color:#434a5f;stop-opacity:1;"
         offset="1"
         id="stop111" /><stop
         style="stop-color:#434a5f;stop-opacity:1;"
         offset="1"
         id="stop112" /></linearGradient><linearGradient
       id="linearGradient103"><stop
         style="stop-color:#434a5f;stop-opacity:1;"
         offset="1"
         id="stop103" /><stop
         style="stop-color:#434a5f;stop-opacity:1;"
         offset="1"
         id="stop104" /></linearGradient><linearGradient
       id="linearGradient7"><stop
         style="stop-color:#b8b8b8;stop-opacity:1;"
         offset="0.16548869"
         id="stop14" /><stop
         style="stop-color:#ffffff;stop-opacity:1;"
         offset="0.16548869"
         id="stop16" /><stop
         style="stop-color:#ffffff;stop-opacity:1;"
         offset="0.2089889"
         id="stop15" /><stop
         style="stop-color:#e5e5e5;stop-opacity:1;"
         offset="0.2089889"
         id="stop7" /></linearGradient><radialGradient
       xlink:href="#linearGradient7"
       id="radialGradient175"
       gradientUnits="userSpaceOnUse"
       gradientTransform="matrix(7.5298137,0,0,1.8808423,-2935.1247,-184.19641)"
       cx="452.62515"
       cy="196.25169"
       fx="452.62515"
       fy="196.25169"
       r="4.2087579" /><linearGradient
       xlink:href="#linearGradient1"
       id="linearGradient240"
       x1="468.84976"
       y1="180.88049"
       x2="477.26727"
       y2="180.88049"
       gradientUnits="userSpaceOnUse" /><linearGradient
       xlink:href="#linearGradient103"
       id="linearGradient811"
       x1="470.76199"
       y1="179.94698"
       x2="475.49966"
       y2="179.94698"
       gradientUnits="userSpaceOnUse" /></defs><g
     id="layer2"
     transform="translate(-152.40007,12.700045)"
     style="display:inline"><g
       id="g210"
       style="display:inline;paint-order:fill markers stroke"
       transform="matrix(1.1870466,0,0,1.1870466,-404.14644,-222.02075)"><path
         id="rect159"
         style="opacity:1;fill:url(#radialGradient175);stroke:url(#linearGradient240);stroke-width:1.00301;stroke-linecap:round;stroke-linejoin:round;stroke-miterlimit:0"
         d="m 470.46572,176.8389 h 5.18558 c 0.61741,0 1.11446,0.49705 1.11446,1.11446 v 5.85426 c 0,0.61741 -0.49705,1.11446 -1.11446,1.11446 h -5.18558 c -0.61741,0 -1.11446,-0.49705 -1.11446,-1.11446 v -5.85426 c 0,-0.61741 0.49705,-1.11446 1.11446,-1.11446 z" /><path
         d="m 472.82764,178.45988 v 0.61924 h -1.29273 v 0.66897 h 0.96728 v 0.60116 h -0.96728 v 1.28368 h -0.77292 v -3.17305 z m 0.40297,2.55381 q 0.15368,-0.12204 0.14012,-0.113 0.44296,-0.36612 0.69609,-0.60116 0.25764,-0.23504 0.43392,-0.49268 0.17628,-0.25764 0.17628,-0.50173 0,-0.18532 -0.0859,-0.28928 -0.0859,-0.10396 -0.25764,-0.10396 -0.17176,0 -0.2712,0.13108 -0.0949,0.12656 -0.0949,0.3616 h -0.74581 q 0.009,-0.3842 0.16272,-0.64184 0.1582,-0.25764 0.41132,-0.37968 0.25765,-0.12204 0.56953,-0.12204 0.53788,0 0.80908,0.27572 0.27572,0.27572 0.27572,0.71868 0,0.48365 -0.32996,0.89949 -0.32996,0.41132 -0.84072,0.80456 h 1.2204 v 0.62828 h -2.26905 z"
         id="text159"
         style="font-weight:bold;font-size:4.52002px;font-family:Poppins;-inkscape-font-specification:'Poppins Bold';text-align:center;letter-spacing:0.100131px;text-anchor:middle;fill:url(#linearGradient811);stroke-width:1.99061;stroke-linecap:round;stroke-linejoin:round;stroke-dasharray:3.98122, 1.99061"
         aria-label="F2" /></g></g></svg>
