<?xml version="1.0" encoding="UTF-8" standalone="no"?>
<!-- Created with Inkscape (http://www.inkscape.org/) -->

<svg
   width="37.764977"
   height="40.764977"
   viewBox="0 0 9.9919834 10.785733"
   version="1.1"
   id="svg1"
   xml:space="preserve"
   xmlns:xlink="http://www.w3.org/1999/xlink"
   xmlns="http://www.w3.org/2000/svg"
   xmlns:svg="http://www.w3.org/2000/svg"><defs
     id="defs1"><linearGradient
       id="linearGradient89"><stop
         style="stop-color:#434a5f;stop-opacity:1;"
         offset="1"
         id="stop89" /><stop
         style="stop-color:#434a5f;stop-opacity:1;"
         offset="1"
         id="stop90" /></linearGradient><linearGradient
       id="linearGradient1-1"><stop
         style="stop-color:#434a5f;stop-opacity:1;"
         offset="0.47322804"
         id="stop3" /><stop
         style="stop-color:#434a5f;stop-opacity:1;"
         offset="1"
         id="stop4" /></linearGradient><linearGradient
       id="linearGradient568"><stop
         style="stop-color:#6d7592;stop-opacity:1;"
         offset="0.18130387"
         id="stop565" /><stop
         style="stop-color:#a7adbe;stop-opacity:1;"
         offset="0.18130387"
         id="stop566" /><stop
         style="stop-color:#a8acbd;stop-opacity:1;"
         offset="0.2008221"
         id="stop567" /><stop
         style="stop-color:#8a90a8;stop-opacity:1;"
         offset="0.2008221"
         id="stop568" /></linearGradient><radialGradient
       xlink:href="#linearGradient568"
       id="radialGradient501"
       gradientUnits="userSpaceOnUse"
       gradientTransform="matrix(7.5298137,0,0,1.8808423,-2924.4259,-184.1964)"
       cx="452.62515"
       cy="196.25169"
       fx="452.62515"
       fy="196.25169"
       r="4.2087579" /><linearGradient
       xlink:href="#linearGradient1-1"
       id="linearGradient360"
       x1="479.54858"
       y1="180.88049"
       x2="487.96609"
       y2="180.88049"
       gradientUnits="userSpaceOnUse" /><linearGradient
       xlink:href="#linearGradient89"
       id="linearGradient955"
       x1="481.38397"
       y1="179.95827"
       x2="486.16232"
       y2="179.95827"
       gradientUnits="userSpaceOnUse" /></defs><g
     id="g456"
     transform="translate(-165.10006,4.7557085e-5)"
     style="display:inline"><g
       id="g382"
       style="display:inline;paint-order:fill markers stroke"
       transform="matrix(1.1870466,0,0,1.1870466,-404.14644,-209.32075)"><rect
         style="opacity:1;fill:url(#radialGradient501);fill-opacity:1;stroke:url(#linearGradient360);stroke-width:1.00301;stroke-linecap:round;stroke-linejoin:round;stroke-miterlimit:0;stroke-dasharray:none;stroke-opacity:1;paint-order:fill markers stroke"
         id="rect382"
         width="7.414506"
         height="8.0831823"
         x="480.05008"
         y="176.8389"
         rx="1.1144606"
         ry="1.1144606" /><path
         d="m 483.44962,178.45988 v 0.61924 h -1.29273 v 0.66897 h 0.96729 v 0.60116 h -0.96729 v 1.28368 h -0.77292 v -3.17305 z m 0.45721,0.80456 q 0.0181,-0.48364 0.3164,-0.7458 0.29833,-0.26216 0.80909,-0.26216 0.339,0 0.57856,0.11752 0.24408,0.11752 0.36612,0.32092 0.12656,0.2034 0.12656,0.45652 0,0.29832 -0.14916,0.48817 -0.14916,0.18532 -0.34804,0.25312 v 0.0181 q 0.25764,0.0859 0.4068,0.28476 0.14916,0.19888 0.14916,0.51076 0,0.28024 -0.13108,0.4972 -0.12656,0.21244 -0.37516,0.33448 -0.24408,0.12204 -0.58308,0.12204 -0.5424,0 -0.86785,-0.26668 -0.32092,-0.26668 -0.339,-0.80456 h 0.75033 q 0.005,0.19888 0.113,0.3164 0.10848,0.113 0.3164,0.113 0.17628,0 0.2712,-0.0994 0.0994,-0.10396 0.0994,-0.2712 0,-0.21696 -0.14012,-0.31188 -0.1356,-0.0994 -0.43844,-0.0994 h -0.14464 v -0.62828 h 0.14464 q 0.23052,0 0.37064,-0.0768 0.14464,-0.0814 0.14464,-0.28477 0,-0.16272 -0.0904,-0.25312 -0.0904,-0.0904 -0.2486,-0.0904 -0.17176,0 -0.25764,0.10396 -0.0814,0.10396 -0.0949,0.25764 z"
         id="text382"
         style="font-weight:bold;font-size:4.52002px;font-family:Poppins;-inkscape-font-specification:'Poppins Bold';text-align:center;letter-spacing:0.100131px;text-anchor:middle;fill:url(#linearGradient955);stroke-width:1.99061;stroke-linecap:round;stroke-linejoin:round;stroke-dasharray:3.98122, 1.99061"
         aria-label="F3" /></g></g></svg>
