<?xml version="1.0" encoding="UTF-8" standalone="no"?>
<!-- Created with Inkscape (http://www.inkscape.org/) -->

<svg
   width="37.764996"
   height="40.764969"
   viewBox="0 0 9.9919884 10.785731"
   version="1.1"
   id="svg1"
   xml:space="preserve"
   xmlns:xlink="http://www.w3.org/1999/xlink"
   xmlns="http://www.w3.org/2000/svg"
   xmlns:svg="http://www.w3.org/2000/svg"><defs
     id="defs1"><linearGradient
       id="linearGradient89"><stop
         style="stop-color:#434a5f;stop-opacity:1;"
         offset="1"
         id="stop89" /><stop
         style="stop-color:#434a5f;stop-opacity:1;"
         offset="1"
         id="stop90" /></linearGradient><linearGradient
       id="linearGradient1-1"><stop
         style="stop-color:#434a5f;stop-opacity:1;"
         offset="1"
         id="stop3" /><stop
         style="stop-color:#434a5f;stop-opacity:1;"
         offset="1"
         id="stop4" /></linearGradient><linearGradient
       id="linearGradient568"><stop
         style="stop-color:#6d7592;stop-opacity:1;"
         offset="0.18130387"
         id="stop565" /><stop
         style="stop-color:#a7adbe;stop-opacity:1;"
         offset="0.18130387"
         id="stop566" /><stop
         style="stop-color:#a8acbd;stop-opacity:1;"
         offset="0.2008221"
         id="stop567" /><stop
         style="stop-color:#8a90a8;stop-opacity:1;"
         offset="0.2008221"
         id="stop568" /></linearGradient><radialGradient
       xlink:href="#linearGradient568"
       id="radialGradient503"
       gradientUnits="userSpaceOnUse"
       gradientTransform="matrix(7.5298137,0,0,1.8808423,-2903.0283,-184.19638)"
       cx="452.62515"
       cy="196.25169"
       fx="452.62515"
       fy="196.25169"
       r="4.2087579" /><linearGradient
       xlink:href="#linearGradient1-1"
       id="linearGradient350"
       x1="500.9462"
       y1="180.88049"
       x2="509.36371"
       y2="180.88049"
       gradientUnits="userSpaceOnUse" /><linearGradient
       xlink:href="#linearGradient89"
       id="linearGradient957"
       x1="502.67987"
       y1="179.98087"
       x2="507.68875"
       y2="179.98087"
       gradientUnits="userSpaceOnUse" /></defs><g
     id="g456"
     transform="translate(-190.50003,4.4832906e-5)"
     style="display:inline"><g
       id="g384"
       style="display:inline;paint-order:fill markers stroke"
       transform="matrix(1.1870466,0,0,1.1870466,-404.14644,-209.32075)"><path
         id="rect384"
         style="opacity:1;fill:url(#radialGradient503);stroke:url(#linearGradient350);stroke-width:1.00301;stroke-linecap:round;stroke-linejoin:round;stroke-miterlimit:0"
         d="m 502.56215,176.8389 h 5.18559 c 0.61741,0 1.11446,0.49705 1.11446,1.11446 v 5.85426 c 0,0.61741 -0.49705,1.11446 -1.11446,1.11446 h -5.18559 c -0.61741,0 -1.11446,-0.49705 -1.11446,-1.11446 v -5.85426 c 0,-0.61741 0.49705,-1.11446 1.11446,-1.11446 z" /><path
         d="m 504.74553,178.45988 v 0.61924 h -1.29273 v 0.66897 h 0.96729 v 0.60116 h -0.96729 v 1.28368 h -0.77292 v -3.17305 z m 2.75339,0.54692 h -1.41025 v 0.62377 q 0.0904,-0.0994 0.25312,-0.16273 0.16272,-0.0633 0.35256,-0.0633 0.339,0 0.56049,0.15369 0.226,0.15368 0.32996,0.39776 0.10396,0.24408 0.10396,0.52884 0,0.52884 -0.29832,0.84072 -0.29833,0.30736 -0.84073,0.30736 -0.3616,0 -0.62828,-0.12204 -0.26668,-0.12656 -0.41132,-0.34804 -0.14464,-0.22148 -0.1582,-0.51076 h 0.75484 q 0.0271,0.14012 0.13108,0.23504 0.10396,0.0904 0.28476,0.0904 0.21244,0 0.3164,-0.1356 0.10396,-0.1356 0.10396,-0.3616 0,-0.22148 -0.10848,-0.339 -0.10848,-0.11752 -0.3164,-0.11752 -0.15368,0 -0.25312,0.0768 -0.0994,0.0723 -0.13108,0.19436 h -0.7458 v -1.96621 h 2.11085 z"
         id="text384"
         style="font-weight:bold;font-size:4.52002px;font-family:Poppins;-inkscape-font-specification:'Poppins Bold';text-align:center;letter-spacing:0.100131px;text-anchor:middle;fill:url(#linearGradient957);stroke-width:1.99061;stroke-linecap:round;stroke-linejoin:round;stroke-dasharray:3.98122, 1.99061"
         aria-label="F5" /></g></g></svg>
