<?xml version="1.0" encoding="UTF-8" standalone="no"?>
<!-- Created with Inkscape (http://www.inkscape.org/) -->

<svg
   width="37.764977"
   height="40.764977"
   viewBox="0 0 9.9919834 10.785733"
   version="1.1"
   id="svg1"
   xml:space="preserve"
   xmlns:xlink="http://www.w3.org/1999/xlink"
   xmlns="http://www.w3.org/2000/svg"
   xmlns:svg="http://www.w3.org/2000/svg"><defs
     id="defs1"><linearGradient
       id="linearGradient1"><stop
         style="stop-color:#434a5f;stop-opacity:1;"
         offset="1"
         id="stop111" /><stop
         style="stop-color:#434a5f;stop-opacity:1;"
         offset="1"
         id="stop112" /></linearGradient><linearGradient
       id="linearGradient103"><stop
         style="stop-color:#434a5f;stop-opacity:1;"
         offset="1"
         id="stop103" /><stop
         style="stop-color:#434a5f;stop-opacity:1;"
         offset="1"
         id="stop104" /></linearGradient><linearGradient
       id="linearGradient7"><stop
         style="stop-color:#b8b8b8;stop-opacity:1;"
         offset="0.16548869"
         id="stop14" /><stop
         style="stop-color:#ffffff;stop-opacity:1;"
         offset="0.16548869"
         id="stop16" /><stop
         style="stop-color:#ffffff;stop-opacity:1;"
         offset="0.2089889"
         id="stop15" /><stop
         style="stop-color:#e5e5e5;stop-opacity:1;"
         offset="0.2089889"
         id="stop7" /></linearGradient><radialGradient
       xlink:href="#linearGradient7"
       id="radialGradient172"
       gradientUnits="userSpaceOnUse"
       gradientTransform="matrix(7.5298137,0,0,1.8808423,-2903.0283,-184.19638)"
       cx="452.62515"
       cy="196.25169"
       fx="452.62515"
       fy="196.25169"
       r="4.2087579" /><linearGradient
       xlink:href="#linearGradient1"
       id="linearGradient237"
       x1="500.9462"
       y1="180.88049"
       x2="509.36371"
       y2="180.88049"
       gradientUnits="userSpaceOnUse" /><linearGradient
       xlink:href="#linearGradient103"
       id="linearGradient808"
       x1="502.67987"
       y1="179.98087"
       x2="507.68875"
       y2="179.98087"
       gradientUnits="userSpaceOnUse" /></defs><g
     id="layer2"
     transform="translate(-190.50003,12.700048)"
     style="display:inline"><g
       id="g213"
       style="display:inline;paint-order:fill markers stroke"
       transform="matrix(1.1870466,0,0,1.1870466,-404.14644,-222.02075)"><rect
         style="opacity:1;fill:url(#radialGradient172);fill-opacity:1;stroke:url(#linearGradient237);stroke-width:1.00301;stroke-linecap:round;stroke-linejoin:round;stroke-miterlimit:0;stroke-dasharray:none;stroke-opacity:1;paint-order:fill markers stroke"
         id="rect162"
         width="7.414506"
         height="8.0831823"
         x="501.44769"
         y="176.8389"
         rx="1.1144606"
         ry="1.1144606" /><path
         d="m 504.74553,178.45988 v 0.61924 h -1.29273 v 0.66897 h 0.96729 v 0.60116 h -0.96729 v 1.28368 h -0.77292 v -3.17305 z m 2.75339,0.54692 h -1.41025 v 0.62377 q 0.0904,-0.0994 0.25312,-0.16273 0.16272,-0.0633 0.35256,-0.0633 0.339,0 0.56049,0.15369 0.226,0.15368 0.32996,0.39776 0.10396,0.24408 0.10396,0.52884 0,0.52884 -0.29832,0.84072 -0.29833,0.30736 -0.84073,0.30736 -0.3616,0 -0.62828,-0.12204 -0.26668,-0.12656 -0.41132,-0.34804 -0.14464,-0.22148 -0.1582,-0.51076 h 0.75484 q 0.0271,0.14012 0.13108,0.23504 0.10396,0.0904 0.28476,0.0904 0.21244,0 0.3164,-0.1356 0.10396,-0.1356 0.10396,-0.3616 0,-0.22148 -0.10848,-0.339 -0.10848,-0.11752 -0.3164,-0.11752 -0.15368,0 -0.25312,0.0768 -0.0994,0.0723 -0.13108,0.19436 h -0.7458 v -1.96621 h 2.11085 z"
         id="text162"
         style="font-weight:bold;font-size:4.52002px;font-family:Poppins;-inkscape-font-specification:'Poppins Bold';text-align:center;letter-spacing:0.100131px;text-anchor:middle;fill:url(#linearGradient808);stroke-width:1.99061;stroke-linecap:round;stroke-linejoin:round;stroke-dasharray:3.98122, 1.99061"
         aria-label="F5" /></g></g></svg>
