<?xml version="1.0" encoding="UTF-8" standalone="no"?>
<!-- Created with Inkscape (http://www.inkscape.org/) -->

<svg
   width="37.764977"
   height="40.764977"
   viewBox="0 0 9.9919834 10.785733"
   version="1.1"
   id="svg1"
   xml:space="preserve"
   xmlns:xlink="http://www.w3.org/1999/xlink"
   xmlns="http://www.w3.org/2000/svg"
   xmlns:svg="http://www.w3.org/2000/svg"><defs
     id="defs1"><linearGradient
       id="linearGradient89"><stop
         style="stop-color:#434a5f;stop-opacity:1;"
         offset="1"
         id="stop89" /><stop
         style="stop-color:#434a5f;stop-opacity:1;"
         offset="1"
         id="stop90" /></linearGradient><linearGradient
       id="linearGradient1-1"><stop
         style="stop-color:#434a5f;stop-opacity:1;"
         offset="0.47322804"
         id="stop3" /><stop
         style="stop-color:#434a5f;stop-opacity:1;"
         offset="1"
         id="stop4" /></linearGradient><linearGradient
       id="linearGradient568"><stop
         style="stop-color:#6d7592;stop-opacity:1;"
         offset="0.18130387"
         id="stop565" /><stop
         style="stop-color:#a7adbe;stop-opacity:1;"
         offset="0.18130387"
         id="stop566" /><stop
         style="stop-color:#a8acbd;stop-opacity:1;"
         offset="0.2008221"
         id="stop567" /><stop
         style="stop-color:#8a90a8;stop-opacity:1;"
         offset="0.2008221"
         id="stop568" /></linearGradient><radialGradient
       xlink:href="#linearGradient568"
       id="radialGradient504"
       gradientUnits="userSpaceOnUse"
       gradientTransform="matrix(7.5298137,0,0,1.8808423,-2892.3295,-184.19637)"
       cx="452.62515"
       cy="196.25169"
       fx="452.62515"
       fy="196.25169"
       r="4.2087579" /><linearGradient
       xlink:href="#linearGradient1-1"
       id="linearGradient351"
       x1="511.64499"
       y1="180.88049"
       x2="520.0625"
       y2="180.88049"
       gradientUnits="userSpaceOnUse" /><linearGradient
       xlink:href="#linearGradient89"
       id="linearGradient958"
       x1="513.40808"
       y1="179.95827"
       x2="518.34467"
       y2="179.95827"
       gradientUnits="userSpaceOnUse" /></defs><g
     id="g456"
     transform="translate(-203.19999,4.7557085e-5)"
     style="display:inline"><g
       id="g385"
       style="display:inline;paint-order:fill markers stroke"
       transform="matrix(1.1870466,0,0,1.1870466,-404.14644,-209.32075)"><rect
         style="opacity:1;fill:url(#radialGradient504);fill-opacity:1;stroke:url(#linearGradient351);stroke-width:1.00301;stroke-linecap:round;stroke-linejoin:round;stroke-miterlimit:0;stroke-dasharray:none;stroke-opacity:1;paint-order:fill markers stroke"
         id="rect385"
         width="7.414506"
         height="8.0831823"
         x="512.14648"
         y="176.8389"
         rx="1.1144606"
         ry="1.1144606" /><path
         d="m 515.47373,178.45988 v 0.61924 h -1.29272 v 0.66897 h 0.96728 v 0.60116 h -0.96728 v 1.28368 h -0.77293 v -3.17305 z m 2.06183,0.76388 q -0.0362,-0.16724 -0.12656,-0.2486 -0.0904,-0.0859 -0.25765,-0.0859 -0.25764,0 -0.37064,0.226 -0.113,0.22148 -0.11752,0.70513 0.0994,-0.1582 0.28476,-0.2486 0.18984,-0.0904 0.41585,-0.0904 0.44296,0 0.70964,0.28024 0.2712,0.28024 0.2712,0.78196 0,0.32996 -0.1356,0.57856 -0.13108,0.2486 -0.38872,0.38872 -0.25312,0.14012 -0.60116,0.14012 -0.69609,0 -0.96729,-0.43392 -0.2712,-0.43844 -0.2712,-1.25656 0,-0.85881 0.28476,-1.27465 0.28928,-0.42036 0.92209,-0.42036 0.339,0 0.56952,0.1356 0.23504,0.13108 0.35256,0.34804 0.12204,0.21696 0.14464,0.4746 z m -0.35709,0.86785 q -0.19436,0 -0.32544,0.11752 -0.12656,0.113 -0.12656,0.32544 0,0.21696 0.11752,0.339 0.12204,0.12204 0.34353,0.12204 0.19888,0 0.31188,-0.11752 0.11752,-0.12204 0.11752,-0.32996 0,-0.21244 -0.113,-0.33448 -0.113,-0.12204 -0.32545,-0.12204 z"
         id="text385"
         style="font-weight:bold;font-size:4.52002px;font-family:Poppins;-inkscape-font-specification:'Poppins Bold';text-align:center;letter-spacing:0.100131px;text-anchor:middle;fill:url(#linearGradient958);stroke-width:1.99061;stroke-linecap:round;stroke-linejoin:round;stroke-dasharray:3.98122, 1.99061"
         aria-label="F6" /></g></g></svg>
