<?xml version="1.0" encoding="UTF-8" standalone="no"?>
<!-- Created with Inkscape (http://www.inkscape.org/) -->

<svg
   width="37.764996"
   height="40.764969"
   viewBox="0 0 9.9919884 10.785731"
   version="1.1"
   id="svg1"
   xml:space="preserve"
   xmlns:xlink="http://www.w3.org/1999/xlink"
   xmlns="http://www.w3.org/2000/svg"
   xmlns:svg="http://www.w3.org/2000/svg"><defs
     id="defs1"><linearGradient
       id="linearGradient89"><stop
         style="stop-color:#434a5f;stop-opacity:1;"
         offset="1"
         id="stop89" /><stop
         style="stop-color:#434a5f;stop-opacity:1;"
         offset="1"
         id="stop90" /></linearGradient><linearGradient
       id="linearGradient1-1"><stop
         style="stop-color:#434a5f;stop-opacity:1;"
         offset="1"
         id="stop3" /><stop
         style="stop-color:#434a5f;stop-opacity:1;"
         offset="1"
         id="stop4" /></linearGradient><linearGradient
       id="linearGradient568"><stop
         style="stop-color:#6d7592;stop-opacity:1;"
         offset="0.18130387"
         id="stop565" /><stop
         style="stop-color:#a7adbe;stop-opacity:1;"
         offset="0.18130387"
         id="stop566" /><stop
         style="stop-color:#a8acbd;stop-opacity:1;"
         offset="0.2008221"
         id="stop567" /><stop
         style="stop-color:#8a90a8;stop-opacity:1;"
         offset="0.2008221"
         id="stop568" /></linearGradient><radialGradient
       xlink:href="#linearGradient568"
       id="radialGradient506"
       gradientUnits="userSpaceOnUse"
       gradientTransform="matrix(7.5298137,0,0,1.8808423,-2870.9318,-184.1964)"
       cx="452.62515"
       cy="196.25169"
       fx="452.62515"
       fy="196.25169"
       r="4.2087579" /><linearGradient
       xlink:href="#linearGradient1-1"
       id="linearGradient353"
       x1="533.04266"
       y1="180.88049"
       x2="541.46021"
       y2="180.88049"
       gradientUnits="userSpaceOnUse" /><linearGradient
       xlink:href="#linearGradient89"
       id="linearGradient960"
       x1="534.78094"
       y1="179.98087"
       x2="539.75818"
       y2="179.98087"
       gradientUnits="userSpaceOnUse" /></defs><g
     id="g456"
     transform="translate(-228.60007,4.4832906e-5)"
     style="display:inline"><g
       id="g387"
       style="display:inline;paint-order:fill markers stroke"
       transform="matrix(1.1870466,0,0,1.1870466,-404.14644,-209.32075)"><path
         id="rect387"
         style="opacity:1;fill:url(#radialGradient506);stroke:url(#linearGradient353);stroke-width:1.00301;stroke-linecap:round;stroke-linejoin:round;stroke-miterlimit:0"
         d="m 534.65865,176.8389 h 5.18558 c 0.61742,0 1.11447,0.49705 1.11447,1.11446 v 5.85426 c 0,0.61741 -0.49705,1.11446 -1.11447,1.11446 h -5.18558 c -0.61741,0 -1.11446,-0.49705 -1.11446,-1.11446 v -5.85426 c 0,-0.61741 0.49705,-1.11446 1.11446,-1.11446 z" /><path
         d="m 536.84657,178.45988 v 0.61924 h -1.29272 v 0.66897 h 0.96728 v 0.60116 h -0.96728 v 1.28368 h -0.77292 v -3.17305 z m 0.9725,1.40121 q -0.42488,-0.226 -0.42488,-0.70965 0,-0.24408 0.12656,-0.44296 0.12656,-0.2034 0.3842,-0.32092 0.25764,-0.12204 0.63281,-0.12204 0.37516,0 0.62828,0.12204 0.25764,0.11752 0.3842,0.32092 0.12656,0.19888 0.12656,0.44296 0,0.24408 -0.11752,0.42489 -0.113,0.1808 -0.30736,0.28476 0.24408,0.11752 0.37516,0.32544 0.13108,0.2034 0.13108,0.47912 0,0.32092 -0.16272,0.55596 -0.16272,0.23052 -0.44296,0.35256 -0.27572,0.12204 -0.61472,0.12204 -0.33901,0 -0.61925,-0.12204 -0.27572,-0.12204 -0.43844,-0.35256 -0.16272,-0.23504 -0.16272,-0.55596 0,-0.28024 0.13108,-0.48364 0.13108,-0.20792 0.37064,-0.32092 z m 1.10741,-0.59213 q 0,-0.18532 -0.10848,-0.28476 -0.10396,-0.10396 -0.28024,-0.10396 -0.17628,0 -0.28476,0.10396 -0.10397,0.10396 -0.10397,0.28928 0,0.17628 0.10849,0.28025 0.10848,0.0994 0.28024,0.0994 0.17176,0 0.28024,-0.10396 0.10848,-0.10397 0.10848,-0.28025 z m -0.38872,0.92661 q -0.21244,0 -0.34353,0.11752 -0.13108,0.113 -0.13108,0.3164 0,0.18984 0.12656,0.31188 0.13109,0.12204 0.34805,0.12204 0.21696,0 0.339,-0.12204 0.12656,-0.12204 0.12656,-0.31188 0,-0.19888 -0.13108,-0.3164 -0.12656,-0.11752 -0.33448,-0.11752 z"
         id="text387"
         style="font-weight:bold;font-size:4.52002px;font-family:Poppins;-inkscape-font-specification:'Poppins Bold';text-align:center;letter-spacing:0.100131px;text-anchor:middle;fill:url(#linearGradient960);stroke-width:1.99061;stroke-linecap:round;stroke-linejoin:round;stroke-dasharray:3.98122, 1.99061"
         aria-label="F8" /></g></g></svg>
