<?xml version="1.0" encoding="UTF-8" standalone="no"?>
<!-- Created with Inkscape (http://www.inkscape.org/) -->

<svg
   width="37.764977"
   height="40.764977"
   viewBox="0 0 9.9919834 10.785733"
   version="1.1"
   id="svg1"
   xml:space="preserve"
   xmlns:xlink="http://www.w3.org/1999/xlink"
   xmlns="http://www.w3.org/2000/svg"
   xmlns:svg="http://www.w3.org/2000/svg"><defs
     id="defs1"><linearGradient
       id="linearGradient89"><stop
         style="stop-color:#434a5f;stop-opacity:1;"
         offset="1"
         id="stop89" /><stop
         style="stop-color:#434a5f;stop-opacity:1;"
         offset="1"
         id="stop90" /></linearGradient><linearGradient
       id="linearGradient1-1"><stop
         style="stop-color:#434a5f;stop-opacity:1;"
         offset="0.47322804"
         id="stop3" /><stop
         style="stop-color:#434a5f;stop-opacity:1;"
         offset="1"
         id="stop4" /></linearGradient><linearGradient
       id="linearGradient568"><stop
         style="stop-color:#6d7592;stop-opacity:1;"
         offset="0.18130387"
         id="stop565" /><stop
         style="stop-color:#a7adbe;stop-opacity:1;"
         offset="0.18130387"
         id="stop566" /><stop
         style="stop-color:#a8acbd;stop-opacity:1;"
         offset="0.2008221"
         id="stop567" /><stop
         style="stop-color:#8a90a8;stop-opacity:1;"
         offset="0.2008221"
         id="stop568" /></linearGradient><radialGradient
       xlink:href="#linearGradient568"
       id="radialGradient507"
       gradientUnits="userSpaceOnUse"
       gradientTransform="matrix(7.5298137,0,0,1.8808423,-2860.233,-184.19639)"
       cx="452.62515"
       cy="196.25169"
       fx="452.62515"
       fy="196.25169"
       r="4.2087579" /><linearGradient
       xlink:href="#linearGradient1-1"
       id="linearGradient354"
       x1="543.74146"
       y1="180.88049"
       x2="552.159"
       y2="180.88049"
       gradientUnits="userSpaceOnUse" /><linearGradient
       xlink:href="#linearGradient89"
       id="linearGradient961"
       x1="545.55432"
       y1="179.95149"
       x2="550.41852"
       y2="179.95149"
       gradientUnits="userSpaceOnUse" /></defs><g
     id="g456"
     transform="translate(-241.30003,4.7557085e-5)"
     style="display:inline"><g
       id="g388"
       style="display:inline;paint-order:fill markers stroke"
       transform="matrix(1.1870466,0,0,1.1870466,-404.14644,-209.32075)"><rect
         style="opacity:1;fill:url(#radialGradient507);fill-opacity:1;stroke:url(#linearGradient354);stroke-width:1.00301;stroke-linecap:round;stroke-linejoin:round;stroke-miterlimit:0;stroke-dasharray:none;stroke-opacity:1;paint-order:fill markers stroke"
         id="rect388"
         width="7.414506"
         height="8.0831823"
         x="544.24298"
         y="176.8389"
         rx="1.1144606"
         ry="1.1144606" /><path
         d="m 547.61995,178.45988 v 0.61924 h -1.29273 v 0.66897 h 0.96729 v 0.60116 h -0.96729 v 1.28368 h -0.77292 v -3.17305 z m 1.26178,2.20577 q 0.0678,0.35708 0.41584,0.35708 0.23956,0 0.339,-0.21244 0.0994,-0.21244 0.0994,-0.69156 -0.0994,0.14012 -0.2712,0.21696 -0.17176,0.0768 -0.3842,0.0768 -0.28928,0 -0.51528,-0.11752 -0.226,-0.12204 -0.35708,-0.35708 -0.12657,-0.23956 -0.12657,-0.57857 0,-0.33448 0.13561,-0.58308 0.14012,-0.2486 0.39324,-0.3842 0.25764,-0.1356 0.60568,-0.1356 0.66896,0 0.93564,0.41584 0.26669,0.41584 0.26669,1.22493 0,0.5876 -0.10849,0.9718 -0.10396,0.37968 -0.35708,0.57856 -0.2486,0.19888 -0.68252,0.19888 -0.34352,0 -0.5876,-0.1356 -0.23956,-0.1356 -0.37064,-0.35708 -0.12656,-0.22148 -0.14464,-0.48816 z m 0.37516,-0.86332 q 0.18984,0 0.30284,-0.113 0.113,-0.11752 0.113,-0.31641 0,-0.21696 -0.11752,-0.33448 -0.11752,-0.11752 -0.3164,-0.11752 -0.19888,0 -0.3164,0.12204 -0.113,0.11752 -0.113,0.32544 0,0.19437 0.113,0.31641 0.11752,0.11752 0.33448,0.11752 z"
         id="text388"
         style="font-weight:bold;font-size:4.52002px;font-family:Poppins;-inkscape-font-specification:'Poppins Bold';text-align:center;letter-spacing:0.100131px;text-anchor:middle;fill:url(#linearGradient961);stroke-width:1.99061;stroke-linecap:round;stroke-linejoin:round;stroke-dasharray:3.98122, 1.99061"
         aria-label="F9" /></g></g></svg>
