<?xml version="1.0" encoding="UTF-8" standalone="no"?>
<!-- Created with Inkscape (http://www.inkscape.org/) -->

<svg
   width="77.421761"
   height="40.764969"
   viewBox="0 0 20.484507 10.785731"
   version="1.1"
   id="svg1"
   xml:space="preserve"
   xmlns:xlink="http://www.w3.org/1999/xlink"
   xmlns="http://www.w3.org/2000/svg"
   xmlns:svg="http://www.w3.org/2000/svg"><defs
     id="defs1"><linearGradient
       id="linearGradient1"><stop
         style="stop-color:#434a5f;stop-opacity:1;"
         offset="1"
         id="stop111" /><stop
         style="stop-color:#434a5f;stop-opacity:1;"
         offset="1"
         id="stop112" /></linearGradient><linearGradient
       id="linearGradient103"><stop
         style="stop-color:#434a5f;stop-opacity:1;"
         offset="1"
         id="stop103" /><stop
         style="stop-color:#434a5f;stop-opacity:1;"
         offset="1"
         id="stop104" /></linearGradient><linearGradient
       id="linearGradient7"><stop
         style="stop-color:#b8b8b8;stop-opacity:1;"
         offset="0.16548869"
         id="stop14" /><stop
         style="stop-color:#ffffff;stop-opacity:1;"
         offset="0.16548869"
         id="stop16" /><stop
         style="stop-color:#ffffff;stop-opacity:1;"
         offset="0.2089889"
         id="stop15" /><stop
         style="stop-color:#e5e5e5;stop-opacity:1;"
         offset="0.2089889"
         id="stop7" /></linearGradient><linearGradient
       xlink:href="#linearGradient7"
       id="linearGradient172"
       gradientUnits="userSpaceOnUse"
       gradientTransform="translate(-1.4338166e-5,10.698826)"
       x1="454.61255"
       y1="238.41618"
       x2="454.61255"
       y2="230.33301" /><linearGradient
       xlink:href="#linearGradient1"
       id="linearGradient85"
       x1="447.45212"
       y1="245.07343"
       x2="464.7088"
       y2="245.07343"
       gradientUnits="userSpaceOnUse" /><linearGradient
       xlink:href="#linearGradient103"
       id="linearGradient778"
       x1="449.63513"
       y1="244.23256"
       x2="462.88538"
       y2="244.23256"
       gradientUnits="userSpaceOnUse" /></defs><g
     id="layer2"
     transform="translate(-177.80006,-76.199942)"
     style="display:inline"><g
       id="g170"
       transform="translate(-38.099946,-5.2328735e-5)"><path
         id="rect170"
         style="display:inline;opacity:1;fill:url(#linearGradient172);stroke:url(#linearGradient85);stroke-width:1.00301;stroke-linecap:round;stroke-linejoin:round;stroke-miterlimit:0;paint-order:fill markers stroke"
         transform="matrix(1.1870466,0,0,1.1870466,-315.24649,-209.32071)"
         d="m 449.06807,241.03183 h 14.02477 c 0.61741,0 1.11446,0.49705 1.11446,1.11446 v 5.85425 c 0,0.61742 -0.49705,1.11447 -1.11446,1.11447 h -14.02477 c -0.61741,0 -1.11446,-0.49705 -1.11446,-1.11447 v -5.85425 c 0,-0.61741 0.49705,-1.11446 1.11446,-1.11446 z" /><path
         style="font-weight:bold;font-size:4.52002px;font-family:Poppins;-inkscape-font-specification:'Poppins Bold';letter-spacing:0.100131px;fill:url(#linearGradient778);stroke-width:1.99061;stroke-linecap:round;stroke-linejoin:round;stroke-dasharray:3.98122, 1.99061;paint-order:fill markers stroke"
         d="m 452.3833,242.65281 v 3.17306 h -0.77292 v -1.30629 h -1.20233 v 1.30629 h -0.77292 v -3.17306 h 0.77292 v 1.24301 h 1.20233 v -1.24301 z m 2.15675,3.2047 q -0.44749,0 -0.82265,-0.20792 -0.37064,-0.20793 -0.59212,-0.57857 -0.21696,-0.37516 -0.21696,-0.84072 0,-0.46556 0.21696,-0.8362 0.22148,-0.37065 0.59212,-0.57857 0.37516,-0.20792 0.82265,-0.20792 0.44748,0 0.81812,0.20792 0.37516,0.20792 0.5876,0.57857 0.21696,0.37064 0.21696,0.8362 0,0.46556 -0.21696,0.84072 -0.21696,0.37064 -0.5876,0.57857 -0.37064,0.20792 -0.81812,0.20792 z m 0,-0.70513 q 0.37968,0 0.60568,-0.25312 0.23052,-0.25312 0.23052,-0.66896 0,-0.42036 -0.23052,-0.66896 -0.226,-0.25312 -0.60568,-0.25312 -0.38421,0 -0.61473,0.2486 -0.226,0.2486 -0.226,0.67348 0,0.42036 0.226,0.67348 0.23052,0.2486 0.61473,0.2486 z m 5.74563,-2.49957 v 3.17306 h -0.77292 v -1.90293 l -0.70965,1.90293 h -0.62376 l -0.71416,-1.90745 v 1.90745 h -0.77293 v -3.17306 h 0.91305 l 0.89044,2.19673 0.88141,-2.19673 z m 1.42901,0.61925 v 0.64184 h 1.03509 v 0.59664 h -1.03509 v 0.69608 h 1.17069 v 0.61925 h -1.94361 v -3.17306 h 1.94361 v 0.61925 z"
         id="text170"
         transform="matrix(1.1870466,0,0,1.1870466,-315.24649,-209.32071)"
         aria-label="HOME" /></g></g></svg>
