<?xml version="1.0" encoding="UTF-8" standalone="no"?>
<!-- Created with Inkscape (http://www.inkscape.org/) -->

<svg
   width="96"
   height="40.764973"
   viewBox="0 0 25.4 10.785732"
   version="1.1"
   id="svg1"
   xml:space="preserve"
   xmlns:xlink="http://www.w3.org/1999/xlink"
   xmlns="http://www.w3.org/2000/svg"
   xmlns:svg="http://www.w3.org/2000/svg"><defs
     id="defs1"><linearGradient
       id="linearGradient89"><stop
         style="stop-color:#434a5f;stop-opacity:1;"
         offset="1"
         id="stop89" /><stop
         style="stop-color:#434a5f;stop-opacity:1;"
         offset="1"
         id="stop90" /></linearGradient><linearGradient
       id="linearGradient1-1"><stop
         style="stop-color:#434a5f;stop-opacity:1;"
         offset="0.47322804"
         id="stop3" /><stop
         style="stop-color:#434a5f;stop-opacity:1;"
         offset="1"
         id="stop4" /></linearGradient><linearGradient
       id="linearGradient568"><stop
         style="stop-color:#6d7592;stop-opacity:1;"
         offset="0.18130387"
         id="stop565" /><stop
         style="stop-color:#a7adbe;stop-opacity:1;"
         offset="0.18130387"
         id="stop566" /><stop
         style="stop-color:#a8acbd;stop-opacity:1;"
         offset="0.2008221"
         id="stop567" /><stop
         style="stop-color:#8a90a8;stop-opacity:1;"
         offset="0.2008221"
         id="stop568" /></linearGradient><linearGradient
       xlink:href="#linearGradient568"
       id="linearGradient533"
       gradientUnits="userSpaceOnUse"
       gradientTransform="matrix(1.1871923,0,0,1.1870466,-315.31179,-196.6207)"
       x1="454.61255"
       y1="238.41618"
       x2="454.61255"
       y2="230.33301" /><linearGradient
       xlink:href="#linearGradient568"
       id="linearGradient536"
       gradientUnits="userSpaceOnUse"
       gradientTransform="matrix(1.1871923,0,0,1.1870466,-315.31179,-196.6207)"
       x1="454.61255"
       y1="238.41618"
       x2="454.61255"
       y2="230.33301" /><linearGradient
       xlink:href="#linearGradient568"
       id="linearGradient538"
       gradientUnits="userSpaceOnUse"
       gradientTransform="matrix(1.1871923,0,0,1.1870466,-315.31179,-196.6207)"
       x1="454.61255"
       y1="238.41618"
       x2="454.61255"
       y2="230.33301" /><linearGradient
       xlink:href="#linearGradient1-1"
       id="linearGradient246"
       x1="215.89999"
       y1="81.592857"
       x2="241.3"
       y2="81.592857"
       gradientUnits="userSpaceOnUse" /><linearGradient
       xlink:href="#linearGradient1-1"
       id="linearGradient247"
       x1="215.89999"
       y1="81.592857"
       x2="241.3"
       y2="81.592857"
       gradientUnits="userSpaceOnUse" /><linearGradient
       xlink:href="#linearGradient1-1"
       id="linearGradient248"
       x1="215.89999"
       y1="81.592857"
       x2="241.3"
       y2="81.592857"
       gradientUnits="userSpaceOnUse" /><linearGradient
       xlink:href="#linearGradient89"
       id="linearGradient984"
       x1="449.54474"
       y1="244.23256"
       x2="462.20807"
       y2="244.23256"
       gradientUnits="userSpaceOnUse" /><linearGradient
       xlink:href="#linearGradient89"
       id="linearGradient986"
       x1="449.63513"
       y1="244.23256"
       x2="465.32306"
       y2="244.23256"
       gradientUnits="userSpaceOnUse" /><linearGradient
       xlink:href="#linearGradient89"
       id="linearGradient988"
       x1="449.63513"
       y1="244.23933"
       x2="462.81827"
       y2="244.23933"
       gradientUnits="userSpaceOnUse" /></defs><g
     id="g456"
     transform="translate(-152.40004,-101.59995)"
     style="display:inline"><g
       id="g417"
       transform="translate(-88.899945,25.399949)"><path
         id="path417"
         style="display:inline;opacity:1;fill:url(#linearGradient533);stroke:url(#linearGradient246);stroke-width:1.19062;stroke-linecap:round;stroke-linejoin:round;stroke-miterlimit:0;paint-order:fill markers stroke"
         d="m 217.81838,76.795304 h 21.56323 c 0.73298,0 1.32308,0.590022 1.32308,1.322916 v 6.949268 c 0,0.732906 -0.5901,1.322928 -1.32308,1.322928 h -21.56323 c -0.73298,0 -1.32307,-0.590022 -1.32307,-1.322928 V 78.11822 c 0,-0.732894 0.59009,-1.322916 1.32307,-1.322916 z" /><path
         style="font-weight:bold;font-size:4.52002px;font-family:Poppins;-inkscape-font-specification:'Poppins Bold';letter-spacing:0.100131px;fill:url(#linearGradient984);stroke-width:1.99061;stroke-linecap:round;stroke-linejoin:round;stroke-dasharray:3.98122, 1.99061;paint-order:fill markers stroke"
         d="m 450.78322,245.85751 q -0.34805,0 -0.62377,-0.113 -0.27572,-0.113 -0.44296,-0.33449 -0.16272,-0.22148 -0.17176,-0.53336 h 0.82264 q 0.0181,0.17628 0.12204,0.2712 0.10396,0.0904 0.27121,0.0904 0.17176,0 0.2712,-0.0768 0.0994,-0.0814 0.0994,-0.22148 0,-0.11752 -0.0814,-0.19436 -0.0768,-0.0768 -0.19436,-0.12656 -0.113,-0.0497 -0.32545,-0.113 -0.30736,-0.0949 -0.50172,-0.18984 -0.19436,-0.0949 -0.33448,-0.28024 -0.14012,-0.18532 -0.14012,-0.48364 0,-0.44297 0.32092,-0.69157 0.32092,-0.25312 0.8362,-0.25312 0.52433,0 0.84525,0.25312 0.32092,0.2486 0.34352,0.69609 h -0.8362 q -0.009,-0.15368 -0.113,-0.23956 -0.10396,-0.0904 -0.26669,-0.0904 -0.14012,0 -0.226,0.0768 -0.0859,0.0723 -0.0859,0.21244 0,0.15368 0.14464,0.23956 0.14464,0.0859 0.45201,0.18532 0.30736,0.10396 0.4972,0.19888 0.19436,0.0949 0.33448,0.27572 0.14012,0.1808 0.14012,0.46556 0,0.2712 -0.14012,0.49268 -0.1356,0.22149 -0.39776,0.35257 -0.26216,0.13108 -0.61924,0.13108 z m 4.48002,-3.2047 v 3.17306 h -0.77292 v -1.30629 H 453.288 v 1.30629 h -0.77293 v -3.17306 h 0.77293 v 1.24301 h 1.20232 v -1.24301 z m 1.42903,0 v 3.17306 h -0.77293 v -3.17306 z m 2.72626,0 v 0.61925 h -1.29273 v 0.66896 h 0.96729 v 0.60116 h -0.96729 v 1.28369 h -0.77292 v -3.17306 z m 2.78955,0 v 0.61925 h -0.84073 v 2.55381 h -0.77292 v -2.55381 h -0.84072 v -0.61925 z"
         id="text417"
         transform="matrix(1.1870466,0,0,1.1870466,-315.24649,-209.32071)"
         aria-label="SHIFT" /></g><g
       id="g421"
       transform="translate(-63.499962,25.399954)"><path
         id="path420"
         style="display:inline;opacity:1;fill:url(#linearGradient536);stroke:url(#linearGradient247);stroke-width:1.19062;stroke-linecap:round;stroke-linejoin:round;stroke-miterlimit:0;paint-order:fill markers stroke"
         d="m 217.81838,76.795304 h 21.56323 c 0.73298,0 1.32308,0.590022 1.32308,1.322916 v 6.949268 c 0,0.732906 -0.5901,1.322928 -1.32308,1.322928 h -21.56323 c -0.73298,0 -1.32307,-0.590022 -1.32307,-1.322928 V 78.11822 c 0,-0.732894 0.59009,-1.322916 1.32307,-1.322916 z" /><path
         style="font-weight:bold;font-size:4.52002px;font-family:Poppins;-inkscape-font-specification:'Poppins Bold';letter-spacing:0.100131px;fill:url(#linearGradient986);stroke-width:1.99061;stroke-linecap:round;stroke-linejoin:round;stroke-dasharray:3.98122, 1.99061;paint-order:fill markers stroke"
         d="m 450.40805,242.65281 v 3.17306 h -0.77292 v -3.17306 z m 3.49919,3.17306 h -0.77292 l -1.29273,-1.95717 v 1.95717 h -0.77292 v -3.17306 h 0.77292 l 1.29273,1.96621 v -1.96621 h 0.77292 z m 1.8087,0.0316 q -0.34804,0 -0.62376,-0.113 -0.27572,-0.113 -0.44296,-0.33449 -0.16272,-0.22148 -0.17176,-0.53336 h 0.82264 q 0.0181,0.17628 0.12204,0.2712 0.10396,0.0904 0.2712,0.0904 0.17176,0 0.2712,-0.0768 0.0994,-0.0814 0.0994,-0.22148 0,-0.11752 -0.0814,-0.19436 -0.0768,-0.0768 -0.19436,-0.12656 -0.113,-0.0497 -0.32544,-0.113 -0.30736,-0.0949 -0.50172,-0.18984 -0.19436,-0.0949 -0.33448,-0.28024 -0.14012,-0.18532 -0.14012,-0.48364 0,-0.44297 0.32092,-0.69157 0.32092,-0.25312 0.8362,-0.25312 0.52432,0 0.84525,0.25312 0.32092,0.2486 0.34352,0.69609 h -0.83621 q -0.009,-0.15368 -0.113,-0.23956 -0.10396,-0.0904 -0.26668,-0.0904 -0.14012,0 -0.226,0.0768 -0.0859,0.0723 -0.0859,0.21244 0,0.15368 0.14464,0.23956 0.14464,0.0859 0.452,0.18532 0.30736,0.10396 0.49721,0.19888 0.19436,0.0949 0.33448,0.27572 0.14012,0.1808 0.14012,0.46556 0,0.2712 -0.14012,0.49268 -0.1356,0.22149 -0.39777,0.35257 -0.26216,0.13108 -0.61924,0.13108 z m 2.50478,-2.58545 v 0.64184 h 1.03509 v 0.59664 h -1.03509 v 0.69608 h 1.17069 v 0.61925 h -1.94361 v -3.17306 h 1.94361 v 0.61925 z m 3.39071,2.55381 -0.65992,-1.19781 h -0.18532 v 1.19781 h -0.77293 v -3.17306 h 1.29725 q 0.37516,0 0.63732,0.13108 0.26668,0.13108 0.39776,0.3616 0.13108,0.22601 0.13108,0.50625 0,0.3164 -0.1808,0.565 -0.17628,0.2486 -0.52432,0.35256 l 0.73224,1.25657 z m -0.84524,-1.74473 h 0.47912 q 0.21244,0 0.3164,-0.10396 0.10848,-0.10396 0.10848,-0.2938 0,-0.1808 -0.10848,-0.28476 -0.10396,-0.10396 -0.3164,-0.10396 h -0.47912 z m 4.55687,-1.42833 v 0.61925 h -0.84072 v 2.55381 h -0.77293 v -2.55381 h -0.84072 v -0.61925 z"
         id="text420"
         transform="matrix(1.1870466,0,0,1.1870466,-315.24649,-209.32071)"
         aria-label="INSERT" /></g><g
       id="g423"
       transform="translate(-38.099963,25.399954)"><path
         id="path422"
         style="display:inline;opacity:1;fill:url(#linearGradient538);stroke:url(#linearGradient248);stroke-width:1.19062;stroke-linecap:round;stroke-linejoin:round;stroke-miterlimit:0;paint-order:fill markers stroke"
         d="m 217.81838,76.795304 h 21.56323 c 0.73298,0 1.32308,0.590022 1.32308,1.322916 v 6.949268 c 0,0.732906 -0.5901,1.322928 -1.32308,1.322928 h -21.56323 c -0.73298,0 -1.32307,-0.590022 -1.32307,-1.322928 V 78.11822 c 0,-0.732894 0.59009,-1.322916 1.32307,-1.322916 z" /><path
         style="font-weight:bold;font-size:4.52002px;font-family:Poppins;-inkscape-font-specification:'Poppins Bold';letter-spacing:0.100131px;fill:url(#linearGradient988);stroke-width:1.99061;stroke-linecap:round;stroke-linejoin:round;stroke-dasharray:3.98122, 1.99061;paint-order:fill markers stroke"
         d="m 452.05334,243.67434 q 0,0.27572 -0.12656,0.50624 -0.12656,0.226 -0.38872,0.36612 -0.26216,0.14012 -0.65088,0.14012 h -0.47913 v 1.13905 h -0.77292 v -3.17306 h 1.25205 q 0.37968,0 0.64184,0.13108 0.26216,0.13108 0.39324,0.3616 0.13108,0.23053 0.13108,0.52885 z m -1.22492,0.39776 q 0.22148,0 0.32996,-0.10396 0.10848,-0.10396 0.10848,-0.2938 0,-0.18984 -0.10848,-0.2938 -0.10848,-0.10396 -0.32996,-0.10396 h -0.42037 v 0.79552 z m 3.3455,1.75377 -0.65992,-1.19781 h -0.18532 v 1.19781 h -0.77292 v -3.17306 h 1.29724 q 0.37516,0 0.63732,0.13108 0.26669,0.13108 0.39777,0.3616 0.13108,0.22601 0.13108,0.50625 0,0.3164 -0.1808,0.565 -0.17628,0.2486 -0.52433,0.35256 l 0.73225,1.25657 z m -0.84524,-1.74473 h 0.47912 q 0.21244,0 0.3164,-0.10396 0.10848,-0.10396 0.10848,-0.2938 0,-0.1808 -0.10848,-0.28476 -0.10396,-0.10396 -0.3164,-0.10396 h -0.47912 z m 3.04719,-1.42833 v 3.17306 h -0.77293 v -3.17306 z m 3.49918,3.17306 h -0.77292 l -1.29273,-1.95717 v 1.95717 h -0.77292 v -3.17306 h 0.77292 l 1.29273,1.96621 v -1.96621 h 0.77292 z m 2.94323,-3.17306 v 0.61925 h -0.84073 v 2.55381 h -0.77292 v -2.55381 h -0.84072 v -0.61925 z"
         id="text422"
         transform="matrix(1.1870466,0,0,1.1870466,-315.24649,-209.32071)"
         aria-label="PRINT" /></g></g></svg>
