<?xml version="1.0" encoding="UTF-8" standalone="no"?>
<!-- Created with Inkscape (http://www.inkscape.org/) -->

<svg
   width="48.000038"
   height="40.000031"
   viewBox="0 0 12.70001 10.583341"
   version="1.1"
   id="svg1"
   xml:space="preserve"
   xmlns:xlink="http://www.w3.org/1999/xlink"
   xmlns="http://www.w3.org/2000/svg"
   xmlns:svg="http://www.w3.org/2000/svg"><defs
     id="defs1"><linearGradient
       id="linearGradient1"><stop
         style="stop-color:#434a5f;stop-opacity:1;"
         offset="1"
         id="stop111" /><stop
         style="stop-color:#434a5f;stop-opacity:1;"
         offset="1"
         id="stop112" /></linearGradient><linearGradient
       id="linearGradient103"><stop
         style="stop-color:#434a5f;stop-opacity:1;"
         offset="1"
         id="stop103" /><stop
         style="stop-color:#434a5f;stop-opacity:1;"
         offset="1"
         id="stop104" /></linearGradient><linearGradient
       id="linearGradient89"><stop
         style="stop-color:#434a5f;stop-opacity:1;"
         offset="1"
         id="stop89" /><stop
         style="stop-color:#434a5f;stop-opacity:1;"
         offset="1"
         id="stop90" /></linearGradient><linearGradient
       id="linearGradient1-1"><stop
         style="stop-color:#434a5f;stop-opacity:1;"
         offset="1"
         id="stop3" /><stop
         style="stop-color:#434a5f;stop-opacity:1;"
         offset="1"
         id="stop4" /></linearGradient><linearGradient
       id="linearGradient2"><stop
         style="stop-color:#8a90a8;stop-opacity:1"
         offset="0.68779135"
         id="stop39" /><stop
         style="stop-color:#636883;stop-opacity:1;"
         offset="0.68779135"
         id="stop40" /></linearGradient><linearGradient
       id="linearGradient301"><stop
         style="stop-color:#ffffff;stop-opacity:1;"
         offset="0.68779135"
         id="stop300" /><stop
         style="stop-color:#b2b2b2;stop-opacity:1;"
         offset="0.68779135"
         id="stop301" /></linearGradient><linearGradient
       xlink:href="#linearGradient301"
       id="linearGradient177"
       x1="398.78177"
       y1="117.41906"
       x2="398.78177"
       y2="119.40787"
       gradientUnits="userSpaceOnUse" /><linearGradient
       xlink:href="#linearGradient301"
       id="linearGradient195"
       gradientUnits="userSpaceOnUse"
       x1="395.22943"
       y1="117.67512"
       x2="393.54318"
       y2="117.67512" /><linearGradient
       xlink:href="#linearGradient2"
       id="linearGradient209"
       gradientUnits="userSpaceOnUse"
       x1="395.22943"
       y1="117.67512"
       x2="393.54318"
       y2="117.67512" /><linearGradient
       xlink:href="#linearGradient2"
       id="linearGradient210"
       gradientUnits="userSpaceOnUse"
       x1="398.78177"
       y1="117.41906"
       x2="398.78177"
       y2="119.43993" /><linearGradient
       xlink:href="#linearGradient2"
       id="linearGradient211"
       gradientUnits="userSpaceOnUse"
       x1="398.78177"
       y1="117.41906"
       x2="398.78177"
       y2="119.40787" /><linearGradient
       xlink:href="#linearGradient2"
       id="linearGradient212"
       gradientUnits="userSpaceOnUse"
       x1="395.22943"
       y1="117.67512"
       x2="393.54318"
       y2="117.67512" /><linearGradient
       xlink:href="#linearGradient1"
       id="linearGradient4"
       x1="392.01932"
       y1="115.01765"
       x2="402.28177"
       y2="115.01765"
       gradientUnits="userSpaceOnUse" /><linearGradient
       xlink:href="#linearGradient1"
       id="linearGradient8"
       x1="389.96683"
       y1="115.01765"
       x2="402.28177"
       y2="115.01765"
       gradientUnits="userSpaceOnUse" /><linearGradient
       xlink:href="#linearGradient1-1"
       id="linearGradient16"
       x1="389.96683"
       y1="115.01765"
       x2="402.28177"
       y2="115.01765"
       gradientUnits="userSpaceOnUse" /><linearGradient
       xlink:href="#linearGradient1-1"
       id="linearGradient17"
       x1="389.96683"
       y1="115.01765"
       x2="402.28177"
       y2="115.01765"
       gradientUnits="userSpaceOnUse" /><linearGradient
       xlink:href="#linearGradient1-1"
       id="linearGradient20"
       x1="392.01932"
       y1="115.01765"
       x2="402.28177"
       y2="115.01765"
       gradientUnits="userSpaceOnUse" /><linearGradient
       xlink:href="#linearGradient1-1"
       id="linearGradient21"
       x1="392.01932"
       y1="115.01765"
       x2="402.28177"
       y2="115.01765"
       gradientUnits="userSpaceOnUse" /><linearGradient
       xlink:href="#linearGradient89"
       id="linearGradient95"
       x1="157.53912"
       y1="-3.9137075"
       x2="164.18065"
       y2="-3.9137075"
       gradientUnits="userSpaceOnUse" /><linearGradient
       xlink:href="#linearGradient89"
       id="linearGradient100"
       x1="158.033"
       y1="-3.9137075"
       x2="163.68674"
       y2="-3.9137075"
       gradientUnits="userSpaceOnUse" /><linearGradient
       xlink:href="#linearGradient89"
       id="linearGradient101"
       x1="1.4269164"
       y1="-161.94502"
       x2="7.3911028"
       y2="-161.94502"
       gradientUnits="userSpaceOnUse" /><linearGradient
       xlink:href="#linearGradient89"
       id="linearGradient102"
       x1="-7.884995"
       y1="-161.94502"
       x2="-0.93302494"
       y2="-161.94502"
       gradientUnits="userSpaceOnUse" /><linearGradient
       xlink:href="#linearGradient103"
       id="linearGradient108"
       x1="157.53912"
       y1="-3.9137075"
       x2="164.18065"
       y2="-3.9137075"
       gradientUnits="userSpaceOnUse" /><linearGradient
       xlink:href="#linearGradient103"
       id="linearGradient111"
       x1="-7.884995"
       y1="-161.94502"
       x2="-0.93302494"
       y2="-161.94502"
       gradientUnits="userSpaceOnUse" /></defs><g
     id="g584"
     style="display:inline"
     transform="translate(-25.399975,-190.49999)"><g
       id="g202"
       transform="matrix(0,-1,-1,0,48.858998,357.73667)"
       style="display:inline"><path
         id="path201"
         style="fill:url(#linearGradient209);stroke:url(#linearGradient21);stroke-width:1;stroke-linecap:round;stroke-linejoin:round;stroke-dasharray:none;paint-order:fill markers stroke"
         d="m 398.52569,109.36018 h 0.29417 a 2.9618952,2.9618952 45 0 1 2.9619,2.9619 v 5.35304 a 3,3 135 0 1 -3,3 h -4.37586 a 1.8865943,1.8865943 45 0 1 -1.88659,-1.88659 v -3.42197 a 6.0063817,6.0063817 135 0 1 6.00638,-6.00638 z"
         transform="matrix(1.0312685,0,0,1.0312685,-247.62383,-114.20507)" /><path
         d="m -5.8642852,-159.96382 -0.8240882,-1.49578 h -0.2314221 v 1.49578 h -0.9651993 v -3.9624 h 1.6199544 q 0.4684885,0 0.795866,0.16369 0.333022,0.16369 0.4967108,0.45156 0.1636887,0.28222 0.1636887,0.63217 0,0.39511 -0.2257776,0.70556 -0.2201331,0.31044 -0.654755,0.44026 l 0.9143993,1.56916 z m -1.0555103,-2.17876 h 0.5983107 q 0.2652887,0 0.3951108,-0.12982 0.1354665,-0.12982 0.1354665,-0.36689 0,-0.22577 -0.1354665,-0.3556 -0.1298221,-0.12982 -0.3951108,-0.12982 h -0.5983107 z m 5.2247712,0.14676 q 0.3443108,0.0734 0.5531551,0.34431 0.20884428,0.26529 0.20884428,0.6096 0,0.49671 -0.34995528,0.79022 -0.3443109,0.28787 -0.9651993,0.28787 h -1.8457319 v -3.9624 h 1.7836431 q 0.6039551,0 0.9426215,0.27658 0.3443108,0.27658 0.3443108,0.75071 0,0.34995 -0.1862665,0.58138 -0.1806221,0.23142 -0.4854218,0.32173 z m -1.4336879,-0.32738 h 0.6321773 q 0.2370665,0 0.3612442,-0.1016 0.1298221,-0.10724 0.1298221,-0.31044 0,-0.2032 -0.1298221,-0.31045 -0.1241777,-0.10724 -0.3612442,-0.10724 h -0.6321773 z m 0.7111995,1.58045 q 0.2427109,0 0.3725331,-0.10725 0.1354665,-0.11289 0.1354665,-0.32173 0,-0.20885 -0.141111,-0.32738 -0.1354665,-0.11853 -0.3781775,-0.11853 h -0.6999106 v 0.87489 z"
         id="text202"
         style="font-weight:bold;font-size:5.64444px;font-family:Poppins;-inkscape-font-specification:'Poppins Bold';text-align:center;letter-spacing:0.110906px;text-anchor:middle;fill:url(#linearGradient102);stroke-width:0.670673;stroke-linecap:round;stroke-linejoin:round;paint-order:fill markers stroke"
         transform="matrix(0,-1,-1,0,0,0)"
         aria-label="RB" /></g><g
       id="g199"
       transform="rotate(-90,192.53882,165.19785)"
       style="display:inline"><path
         id="path195"
         style="fill:url(#linearGradient212);stroke:url(#linearGradient20);stroke-width:1;stroke-linecap:round;stroke-linejoin:round;stroke-dasharray:none;paint-order:fill markers stroke"
         d="m 398.52569,109.36018 h 0.29417 a 2.9618952,2.9618952 45 0 1 2.9619,2.9619 v 5.35304 a 3,3 135 0 1 -3,3 h -4.37586 a 1.8865943,1.8865943 45 0 1 -1.88659,-1.88659 v -3.42197 a 6.0063817,6.0063817 135 0 1 6.00638,-6.00638 z"
         transform="matrix(1.0312685,0,0,1.0312685,-247.62383,-114.20507)" /><path
         d="m 2.3921156,-160.70889 h 1.2643546 v 0.74507 H 1.4269164 v -3.9624 h 0.9651992 z m 4.2369878,-1.28693 q 0.3443108,0.0734 0.5531551,0.34431 0.2088443,0.26529 0.2088443,0.6096 0,0.49671 -0.3499553,0.79022 -0.3443109,0.28787 -0.9651993,0.28787 H 4.2302163 v -3.9624 h 1.7836431 q 0.6039551,0 0.9426215,0.27658 0.3443108,0.27658 0.3443108,0.75071 0,0.34995 -0.1862665,0.58138 -0.1806221,0.23142 -0.4854218,0.32173 z m -1.4336878,-0.32738 h 0.6321773 q 0.2370664,0 0.3612441,-0.1016 0.1298221,-0.10724 0.1298221,-0.31044 0,-0.2032 -0.1298221,-0.31045 -0.1241777,-0.10724 -0.3612441,-0.10724 H 5.1954156 Z m 0.7111994,1.58045 q 0.2427109,0 0.3725331,-0.10725 0.1354665,-0.11289 0.1354665,-0.32173 0,-0.20885 -0.141111,-0.32738 -0.1354665,-0.11853 -0.3781775,-0.11853 H 5.1954156 v 0.87489 z"
         id="text199"
         style="font-weight:bold;font-size:5.64444px;font-family:Poppins;-inkscape-font-specification:'Poppins Bold';text-align:center;letter-spacing:0.110906px;text-anchor:middle;fill:url(#linearGradient101);stroke-width:0.670673;stroke-linecap:round;stroke-linejoin:round;paint-order:fill markers stroke"
         transform="rotate(90)"
         aria-label="LB" /></g><g
       id="g200"
       transform="matrix(1,0,0,-1,-116.43671,188.55901)"
       style="display:inline"><path
         id="path199"
         style="fill:url(#linearGradient211);stroke:url(#linearGradient16);stroke-width:1;stroke-linecap:round;stroke-linejoin:round;stroke-dasharray:none;paint-order:fill markers stroke"
         d="m 397.02152,109.36018 h 1.76024 a 3,3 45 0 1 3,3 v 5.31494 a 3,3 135 0 1 -3,3 h -5.31493 a 3,3 45 0 1 -3,-3 v -1.76025 a 6.5546876,6.5546876 135 0 1 6.55469,-6.55469 z"
         transform="matrix(-1.0312685,0,0,-1.0312685,569.3972,123.02309)" /><path
         d="m 159.55983,-1.9325091 -0.82409,-1.4957766 h -0.23142 v 1.4957766 h -0.9652 v -3.962397 h 1.61996 q 0.46849,0 0.79586,0.1636888 0.33302,0.1636888 0.49671,0.4515552 0.16369,0.282222 0.16369,0.6321773 0,0.3951108 -0.22578,0.705555 -0.22013,0.3104442 -0.65475,0.4402664 l 0.9144,1.5691543 z m -1.05551,-2.1787539 h 0.59831 q 0.26529,0 0.39511,-0.1298221 0.13547,-0.1298221 0.13547,-0.3668886 0,-0.2257776 -0.13547,-0.3555997 -0.12982,-0.1298222 -0.39511,-0.1298222 h -0.59831 z m 5.67633,-1.7836431 v 0.7732883 h -1.04987 v 3.1891087 h -0.9652 v -3.1891087 h -1.04986 v -0.7732883 z"
         id="text200"
         style="font-weight:bold;font-size:5.64444px;font-family:Poppins;-inkscape-font-specification:'Poppins Bold';text-align:center;letter-spacing:0.110906px;text-anchor:middle;fill:url(#linearGradient95);stroke-width:0.670673;stroke-linecap:round;stroke-linejoin:round;paint-order:fill markers stroke"
         transform="scale(1,-1)"
         aria-label="RT" /></g><g
       id="g201"
       transform="matrix(1,0,0,-1,-129.13672,188.55901)"
       style="display:inline"><path
         id="path200"
         style="fill:url(#linearGradient210);stroke:url(#linearGradient17);stroke-width:1;stroke-linecap:round;stroke-linejoin:round;stroke-dasharray:none;paint-order:fill markers stroke"
         d="m 397.02152,109.36018 h 1.76024 a 3,3 45 0 1 3,3 v 5.31494 a 3,3 135 0 1 -3,3 h -5.31493 a 3,3 45 0 1 -3,-3 v -1.76025 a 6.5546876,6.5546876 135 0 1 6.55469,-6.55469 z"
         transform="matrix(1.0312685,0,0,-1.0312685,-247.62382,123.02309)" /><path
         d="m 158.9982,-2.6775752 h 1.26435 v 0.7450661 H 158.033 v -3.962397 h 0.9652 z m 4.68854,-3.2173309 v 0.7732883 h -1.04986 v 3.1891087 h -0.9652 v -3.1891087 h -1.04987 v -0.7732883 z"
         id="text201"
         style="font-weight:bold;font-size:5.64444px;font-family:Poppins;-inkscape-font-specification:'Poppins Bold';text-align:center;letter-spacing:0.110906px;text-anchor:middle;fill:url(#linearGradient100);stroke-width:0.670673;stroke-linecap:round;stroke-linejoin:round;paint-order:fill markers stroke"
         transform="scale(1,-1)"
         aria-label="LT" /></g><g
       id="g194"
       transform="matrix(0,-1,-1,0,23.458988,357.73667)"><path
         id="path182"
         style="fill:url(#linearGradient195);stroke:url(#linearGradient4);stroke-width:1;stroke-linecap:round;stroke-linejoin:round;stroke-dasharray:none;paint-order:fill markers stroke"
         d="m 398.52569,109.36018 h 0.29417 a 2.9618952,2.9618952 45 0 1 2.9619,2.9619 v 5.35304 a 3,3 135 0 1 -3,3 h -4.37586 a 1.8865943,1.8865943 45 0 1 -1.88659,-1.88659 v -3.42197 a 6.0063817,6.0063817 135 0 1 6.00638,-6.00638 z"
         transform="matrix(1.0312685,0,0,1.0312685,-247.62383,-114.20507)" /><path
         d="m -5.8642852,-159.96382 -0.8240882,-1.49578 h -0.2314221 v 1.49578 h -0.9651993 v -3.9624 h 1.6199544 q 0.4684885,0 0.795866,0.16369 0.333022,0.16369 0.4967108,0.45156 0.1636887,0.28222 0.1636887,0.63217 0,0.39511 -0.2257776,0.70556 -0.2201331,0.31044 -0.654755,0.44026 l 0.9143993,1.56916 z m -1.0555103,-2.17876 h 0.5983107 q 0.2652887,0 0.3951108,-0.12982 0.1354665,-0.12982 0.1354665,-0.36689 0,-0.22577 -0.1354665,-0.3556 -0.1298221,-0.12982 -0.3951108,-0.12982 h -0.5983107 z m 5.2247712,0.14676 q 0.3443108,0.0734 0.5531551,0.34431 0.20884428,0.26529 0.20884428,0.6096 0,0.49671 -0.34995528,0.79022 -0.3443109,0.28787 -0.9651993,0.28787 h -1.8457319 v -3.9624 h 1.7836431 q 0.6039551,0 0.9426215,0.27658 0.3443108,0.27658 0.3443108,0.75071 0,0.34995 -0.1862665,0.58138 -0.1806221,0.23142 -0.4854218,0.32173 z m -1.4336879,-0.32738 h 0.6321773 q 0.2370665,0 0.3612442,-0.1016 0.1298221,-0.10724 0.1298221,-0.31044 0,-0.2032 -0.1298221,-0.31045 -0.1241777,-0.10724 -0.3612442,-0.10724 h -0.6321773 z m 0.7111995,1.58045 q 0.2427109,0 0.3725331,-0.10725 0.1354665,-0.11289 0.1354665,-0.32173 0,-0.20885 -0.141111,-0.32738 -0.1354665,-0.11853 -0.3781775,-0.11853 h -0.6999106 v 0.87489 z"
         id="text194"
         style="font-weight:bold;font-size:5.64444px;font-family:Poppins;-inkscape-font-specification:'Poppins Bold';text-align:center;letter-spacing:0.110906px;text-anchor:middle;fill:url(#linearGradient111);stroke-width:0.670673;stroke-linecap:round;stroke-linejoin:round;paint-order:fill markers stroke"
         transform="matrix(0,-1,-1,0,0,0)"
         aria-label="RB" /></g><g
       id="g6"
       transform="matrix(1,0,0,-1,-141.8367,188.55901)"
       style="display:inline"><path
         id="path4"
         style="fill:url(#linearGradient177);stroke:url(#linearGradient8);stroke-width:1;stroke-linecap:round;stroke-linejoin:round;stroke-dasharray:none;paint-order:fill markers stroke"
         d="m 397.02152,109.36018 h 1.76024 a 3,3 45 0 1 3,3 v 5.31494 a 3,3 135 0 1 -3,3 h -5.31493 a 3,3 45 0 1 -3,-3 v -1.76025 a 6.5546876,6.5546876 135 0 1 6.55469,-6.55469 z"
         transform="matrix(-1.0312685,0,0,-1.0312685,569.3972,123.02309)" /><path
         d="m 159.55983,-1.9325091 -0.82409,-1.4957766 h -0.23142 v 1.4957766 h -0.9652 v -3.962397 h 1.61996 q 0.46849,0 0.79586,0.1636888 0.33302,0.1636888 0.49671,0.4515552 0.16369,0.282222 0.16369,0.6321773 0,0.3951108 -0.22578,0.705555 -0.22013,0.3104442 -0.65475,0.4402664 l 0.9144,1.5691543 z m -1.05551,-2.1787539 h 0.59831 q 0.26529,0 0.39511,-0.1298221 0.13547,-0.1298221 0.13547,-0.3668886 0,-0.2257776 -0.13547,-0.3555997 -0.12982,-0.1298222 -0.39511,-0.1298222 h -0.59831 z m 5.67633,-1.7836431 v 0.7732883 h -1.04987 v 3.1891087 h -0.9652 v -3.1891087 h -1.04986 v -0.7732883 z"
         id="text6"
         style="font-weight:bold;font-size:5.64444px;font-family:Poppins;-inkscape-font-specification:'Poppins Bold';text-align:center;letter-spacing:0.110906px;text-anchor:middle;fill:url(#linearGradient108);stroke-width:0.670673;stroke-linecap:round;stroke-linejoin:round;paint-order:fill markers stroke"
         transform="scale(1,-1)"
         aria-label="RT" /></g></g></svg>
