<?xml version="1.0" encoding="UTF-8" standalone="no"?>
<!-- Created with Inkscape (http://www.inkscape.org/) -->

<svg
   width="48.000038"
   height="40.000031"
   viewBox="0 0 12.70001 10.583341"
   version="1.1"
   id="svg1"
   xml:space="preserve"
   xmlns:xlink="http://www.w3.org/1999/xlink"
   xmlns="http://www.w3.org/2000/svg"
   xmlns:svg="http://www.w3.org/2000/svg"><defs
     id="defs1"><linearGradient
       id="linearGradient1"><stop
         style="stop-color:#434a5f;stop-opacity:1;"
         offset="1"
         id="stop111" /><stop
         style="stop-color:#434a5f;stop-opacity:1;"
         offset="1"
         id="stop112" /></linearGradient><linearGradient
       id="linearGradient103"><stop
         style="stop-color:#434a5f;stop-opacity:1;"
         offset="1"
         id="stop103" /><stop
         style="stop-color:#434a5f;stop-opacity:1;"
         offset="1"
         id="stop104" /></linearGradient><linearGradient
       id="linearGradient301"><stop
         style="stop-color:#ffffff;stop-opacity:1;"
         offset="0.68779135"
         id="stop300" /><stop
         style="stop-color:#b2b2b2;stop-opacity:1;"
         offset="0.68779135"
         id="stop301" /></linearGradient><linearGradient
       xlink:href="#linearGradient301"
       id="linearGradient179"
       x1="395.22943"
       y1="117.67512"
       x2="393.54318"
       y2="117.67512"
       gradientUnits="userSpaceOnUse" /><linearGradient
       xlink:href="#linearGradient301"
       id="linearGradient195"
       gradientUnits="userSpaceOnUse"
       x1="395.22943"
       y1="117.67512"
       x2="393.54318"
       y2="117.67512" /><linearGradient
       xlink:href="#linearGradient1"
       id="linearGradient4"
       x1="392.01932"
       y1="115.01765"
       x2="402.28177"
       y2="115.01765"
       gradientUnits="userSpaceOnUse" /><linearGradient
       xlink:href="#linearGradient1"
       id="linearGradient5"
       x1="392.01932"
       y1="115.01765"
       x2="402.28177"
       y2="115.01765"
       gradientUnits="userSpaceOnUse" /><linearGradient
       xlink:href="#linearGradient103"
       id="linearGradient110"
       x1="1.4269164"
       y1="-161.94502"
       x2="7.3911028"
       y2="-161.94502"
       gradientUnits="userSpaceOnUse" /><linearGradient
       xlink:href="#linearGradient103"
       id="linearGradient111"
       x1="-7.884995"
       y1="-161.94502"
       x2="-0.93302494"
       y2="-161.94502"
       gradientUnits="userSpaceOnUse" /></defs><g
     id="g584"
     style="display:inline"
     transform="translate(2.546167e-5,-190.50001)"><g
       id="g27"
       transform="rotate(-90,179.83883,177.89786)"><path
         id="rect1"
         style="fill:url(#linearGradient179);stroke:url(#linearGradient5);stroke-width:1;stroke-linecap:round;stroke-linejoin:round;stroke-dasharray:none;paint-order:fill markers stroke"
         d="m 398.52569,109.36018 h 0.29417 a 2.9618952,2.9618952 45 0 1 2.9619,2.9619 v 5.35304 a 3,3 135 0 1 -3,3 h -4.37586 a 1.8865943,1.8865943 45 0 1 -1.88659,-1.88659 v -3.42197 a 6.0063817,6.0063817 135 0 1 6.00638,-6.00638 z"
         transform="matrix(1.0312685,0,0,1.0312685,-247.62383,-114.20507)" /><path
         d="m 2.3921156,-160.70889 h 1.2643546 v 0.74507 H 1.4269164 v -3.9624 h 0.9651992 z m 4.2369878,-1.28693 q 0.3443108,0.0734 0.5531551,0.34431 0.2088443,0.26529 0.2088443,0.6096 0,0.49671 -0.3499553,0.79022 -0.3443109,0.28787 -0.9651993,0.28787 H 4.2302163 v -3.9624 h 1.7836431 q 0.6039551,0 0.9426215,0.27658 0.3443108,0.27658 0.3443108,0.75071 0,0.34995 -0.1862665,0.58138 -0.1806221,0.23142 -0.4854218,0.32173 z m -1.4336878,-0.32738 h 0.6321773 q 0.2370664,0 0.3612441,-0.1016 0.1298221,-0.10724 0.1298221,-0.31044 0,-0.2032 -0.1298221,-0.31045 -0.1241777,-0.10724 -0.3612441,-0.10724 H 5.1954156 Z m 0.7111994,1.58045 q 0.2427109,0 0.3725331,-0.10725 0.1354665,-0.11289 0.1354665,-0.32173 0,-0.20885 -0.141111,-0.32738 -0.1354665,-0.11853 -0.3781775,-0.11853 H 5.1954156 v 0.87489 z"
         id="text9"
         style="font-weight:bold;font-size:5.64444px;font-family:Poppins;-inkscape-font-specification:'Poppins Bold';text-align:center;letter-spacing:0.110906px;text-anchor:middle;fill:url(#linearGradient110);stroke-width:0.670673;stroke-linecap:round;stroke-linejoin:round;paint-order:fill markers stroke"
         transform="rotate(90)"
         aria-label="LB" /></g><g
       id="g194"
       transform="matrix(0,-1,-1,0,23.458988,357.73667)"><path
         id="path182"
         style="fill:url(#linearGradient195);stroke:url(#linearGradient4);stroke-width:1;stroke-linecap:round;stroke-linejoin:round;stroke-dasharray:none;paint-order:fill markers stroke"
         d="m 398.52569,109.36018 h 0.29417 a 2.9618952,2.9618952 45 0 1 2.9619,2.9619 v 5.35304 a 3,3 135 0 1 -3,3 h -4.37586 a 1.8865943,1.8865943 45 0 1 -1.88659,-1.88659 v -3.42197 a 6.0063817,6.0063817 135 0 1 6.00638,-6.00638 z"
         transform="matrix(1.0312685,0,0,1.0312685,-247.62383,-114.20507)" /><path
         d="m -5.8642852,-159.96382 -0.8240882,-1.49578 h -0.2314221 v 1.49578 h -0.9651993 v -3.9624 h 1.6199544 q 0.4684885,0 0.795866,0.16369 0.333022,0.16369 0.4967108,0.45156 0.1636887,0.28222 0.1636887,0.63217 0,0.39511 -0.2257776,0.70556 -0.2201331,0.31044 -0.654755,0.44026 l 0.9143993,1.56916 z m -1.0555103,-2.17876 h 0.5983107 q 0.2652887,0 0.3951108,-0.12982 0.1354665,-0.12982 0.1354665,-0.36689 0,-0.22577 -0.1354665,-0.3556 -0.1298221,-0.12982 -0.3951108,-0.12982 h -0.5983107 z m 5.2247712,0.14676 q 0.3443108,0.0734 0.5531551,0.34431 0.20884428,0.26529 0.20884428,0.6096 0,0.49671 -0.34995528,0.79022 -0.3443109,0.28787 -0.9651993,0.28787 h -1.8457319 v -3.9624 h 1.7836431 q 0.6039551,0 0.9426215,0.27658 0.3443108,0.27658 0.3443108,0.75071 0,0.34995 -0.1862665,0.58138 -0.1806221,0.23142 -0.4854218,0.32173 z m -1.4336879,-0.32738 h 0.6321773 q 0.2370665,0 0.3612442,-0.1016 0.1298221,-0.10724 0.1298221,-0.31044 0,-0.2032 -0.1298221,-0.31045 -0.1241777,-0.10724 -0.3612442,-0.10724 h -0.6321773 z m 0.7111995,1.58045 q 0.2427109,0 0.3725331,-0.10725 0.1354665,-0.11289 0.1354665,-0.32173 0,-0.20885 -0.141111,-0.32738 -0.1354665,-0.11853 -0.3781775,-0.11853 h -0.6999106 v 0.87489 z"
         id="text194"
         style="font-weight:bold;font-size:5.64444px;font-family:Poppins;-inkscape-font-specification:'Poppins Bold';text-align:center;letter-spacing:0.110906px;text-anchor:middle;fill:url(#linearGradient111);stroke-width:0.670673;stroke-linecap:round;stroke-linejoin:round;paint-order:fill markers stroke"
         transform="matrix(0,-1,-1,0,0,0)"
         aria-label="RB" /></g></g></svg>
