<?xml version="1.0" encoding="UTF-8" standalone="no"?>
<!-- Created with Inkscape (http://www.inkscape.org/) -->

<svg
   width="47.999996"
   height="48.000038"
   viewBox="0 0 12.699999 12.70001"
   version="1.1"
   id="svg1"
   xml:space="preserve"
   xmlns:xlink="http://www.w3.org/1999/xlink"
   xmlns="http://www.w3.org/2000/svg"
   xmlns:svg="http://www.w3.org/2000/svg"><defs
     id="defs1"><linearGradient
       id="linearGradient1"><stop
         style="stop-color:#434a5f;stop-opacity:1;"
         offset="1"
         id="stop111" /><stop
         style="stop-color:#434a5f;stop-opacity:1;"
         offset="1"
         id="stop112" /></linearGradient><linearGradient
       id="linearGradient103"><stop
         style="stop-color:#434a5f;stop-opacity:1;"
         offset="1"
         id="stop103" /><stop
         style="stop-color:#434a5f;stop-opacity:1;"
         offset="1"
         id="stop104" /></linearGradient><linearGradient
       id="linearGradient89"><stop
         style="stop-color:#434a5f;stop-opacity:1;"
         offset="1"
         id="stop89" /><stop
         style="stop-color:#434a5f;stop-opacity:1;"
         offset="1"
         id="stop90" /></linearGradient><linearGradient
       id="linearGradient1-1"><stop
         style="stop-color:#434a5f;stop-opacity:1;"
         offset="0.47322804"
         id="stop3" /><stop
         style="stop-color:#434a5f;stop-opacity:1;"
         offset="1"
         id="stop4" /></linearGradient><linearGradient
       id="linearGradient2"><stop
         style="stop-color:#8a90a8;stop-opacity:1"
         offset="0.68779135"
         id="stop39" /><stop
         style="stop-color:#636883;stop-opacity:1;"
         offset="0.68779135"
         id="stop40" /></linearGradient><linearGradient
       id="linearGradient301"><stop
         style="stop-color:#ffffff;stop-opacity:1;"
         offset="0.68779135"
         id="stop300" /><stop
         style="stop-color:#b2b2b2;stop-opacity:1;"
         offset="0.68779135"
         id="stop301" /></linearGradient><radialGradient
       xlink:href="#linearGradient2"
       id="radialGradient1"
       gradientUnits="userSpaceOnUse"
       gradientTransform="matrix(1.3210463,-1.485635e-4,1.6897385e-4,1.5025378,-124.79435,-96.679263)"
       cx="388.60379"
       cy="191.03438"
       fx="388.60379"
       fy="191.03438"
       r="5.3493915" /><linearGradient
       xlink:href="#linearGradient301"
       id="linearGradient178"
       x1="398.78177"
       y1="117.41906"
       x2="398.78177"
       y2="119.43993"
       gradientUnits="userSpaceOnUse" /><linearGradient
       xlink:href="#linearGradient301"
       id="linearGradient195"
       gradientUnits="userSpaceOnUse"
       x1="395.22943"
       y1="117.67512"
       x2="393.54318"
       y2="117.67512" /><linearGradient
       xlink:href="#linearGradient1"
       id="linearGradient4"
       x1="392.01932"
       y1="115.01765"
       x2="402.28177"
       y2="115.01765"
       gradientUnits="userSpaceOnUse" /><linearGradient
       xlink:href="#linearGradient1"
       id="linearGradient6"
       x1="389.96683"
       y1="115.01765"
       x2="402.28177"
       y2="115.01765"
       gradientUnits="userSpaceOnUse" /><linearGradient
       xlink:href="#linearGradient1-1"
       id="linearGradient11"
       x1="383.25916"
       y1="192.38565"
       x2="393.95795"
       y2="192.38565"
       gradientUnits="userSpaceOnUse" /><linearGradient
       xlink:href="#linearGradient89"
       id="linearGradient90"
       x1="386.51038"
       y1="191.93987"
       x2="390.7067"
       y2="191.93987"
       gradientUnits="userSpaceOnUse" /><linearGradient
       xlink:href="#linearGradient103"
       id="linearGradient109"
       x1="158.033"
       y1="-3.9137075"
       x2="163.68674"
       y2="-3.9137075"
       gradientUnits="userSpaceOnUse" /><linearGradient
       xlink:href="#linearGradient103"
       id="linearGradient111"
       x1="-7.884995"
       y1="-161.94502"
       x2="-0.93302494"
       y2="-161.94502"
       gradientUnits="userSpaceOnUse" /></defs><g
     id="g584"
     style="display:inline"
     transform="translate(2.2176145e-5,-177.79999)"><g
       id="g1"
       style="display:inline;paint-order:fill markers stroke"
       transform="matrix(1.1870466,0,0,1.1870466,-454.94649,-56.920712)"><circle
         style="fill:url(#radialGradient1);fill-opacity:1;stroke:url(#linearGradient11);stroke-width:0.999961;stroke-linecap:round;stroke-linejoin:round;stroke-dasharray:none;stroke-dashoffset:0;stroke-opacity:1;paint-order:fill markers stroke"
         id="circle1"
         cx="388.60855"
         cy="192.38565"
         r="4.849411" /><path
         d="m 389.38123,193.28911 h -1.55728 l -0.24964,0.73703 h -1.06393 l 1.50972,-4.17254 h 1.17687 l 1.50972,4.17254 h -1.07582 z m -0.26153,-0.78458 -0.51711,-1.52756 -0.51117,1.52756 z"
         id="text1"
         style="font-weight:bold;font-size:5.94379px;font-family:Poppins;-inkscape-font-specification:'Poppins Bold';text-align:center;letter-spacing:0.131671px;text-anchor:middle;fill:url(#linearGradient90);stroke-width:1.99061;stroke-linecap:round;stroke-linejoin:round;stroke-dasharray:3.98122, 1.99061"
         aria-label="A" /></g><g
       id="g194"
       transform="matrix(0,-1,-1,0,23.458988,357.73667)"><path
         id="path182"
         style="fill:url(#linearGradient195);stroke:url(#linearGradient4);stroke-width:1;stroke-linecap:round;stroke-linejoin:round;stroke-dasharray:none;paint-order:fill markers stroke"
         d="m 398.52569,109.36018 h 0.29417 a 2.9618952,2.9618952 45 0 1 2.9619,2.9619 v 5.35304 a 3,3 135 0 1 -3,3 h -4.37586 a 1.8865943,1.8865943 45 0 1 -1.88659,-1.88659 v -3.42197 a 6.0063817,6.0063817 135 0 1 6.00638,-6.00638 z"
         transform="matrix(1.0312685,0,0,1.0312685,-247.62383,-114.20507)" /><path
         d="m -5.8642852,-159.96382 -0.8240882,-1.49578 h -0.2314221 v 1.49578 h -0.9651993 v -3.9624 h 1.6199544 q 0.4684885,0 0.795866,0.16369 0.333022,0.16369 0.4967108,0.45156 0.1636887,0.28222 0.1636887,0.63217 0,0.39511 -0.2257776,0.70556 -0.2201331,0.31044 -0.654755,0.44026 l 0.9143993,1.56916 z m -1.0555103,-2.17876 h 0.5983107 q 0.2652887,0 0.3951108,-0.12982 0.1354665,-0.12982 0.1354665,-0.36689 0,-0.22577 -0.1354665,-0.3556 -0.1298221,-0.12982 -0.3951108,-0.12982 h -0.5983107 z m 5.2247712,0.14676 q 0.3443108,0.0734 0.5531551,0.34431 0.20884428,0.26529 0.20884428,0.6096 0,0.49671 -0.34995528,0.79022 -0.3443109,0.28787 -0.9651993,0.28787 h -1.8457319 v -3.9624 h 1.7836431 q 0.6039551,0 0.9426215,0.27658 0.3443108,0.27658 0.3443108,0.75071 0,0.34995 -0.1862665,0.58138 -0.1806221,0.23142 -0.4854218,0.32173 z m -1.4336879,-0.32738 h 0.6321773 q 0.2370665,0 0.3612442,-0.1016 0.1298221,-0.10724 0.1298221,-0.31044 0,-0.2032 -0.1298221,-0.31045 -0.1241777,-0.10724 -0.3612442,-0.10724 h -0.6321773 z m 0.7111995,1.58045 q 0.2427109,0 0.3725331,-0.10725 0.1354665,-0.11289 0.1354665,-0.32173 0,-0.20885 -0.141111,-0.32738 -0.1354665,-0.11853 -0.3781775,-0.11853 h -0.6999106 v 0.87489 z"
         id="text194"
         style="font-weight:bold;font-size:5.64444px;font-family:Poppins;-inkscape-font-specification:'Poppins Bold';text-align:center;letter-spacing:0.110906px;text-anchor:middle;fill:url(#linearGradient111);stroke-width:0.670673;stroke-linecap:round;stroke-linejoin:round;paint-order:fill markers stroke"
         transform="matrix(0,-1,-1,0,0,0)"
         aria-label="RB" /></g><g
       id="g13"
       transform="matrix(1,0,0,-1,-154.53671,188.55901)"
       style="display:inline"><path
         id="path13"
         style="fill:url(#linearGradient178);stroke:url(#linearGradient6);stroke-width:1;stroke-linecap:round;stroke-linejoin:round;stroke-dasharray:none;paint-order:fill markers stroke"
         d="m 397.02152,109.36018 1.76024,0 a 3,3 45 0 1 3,3 v 5.31494 a 3,3 135 0 1 -3,3 h -5.31493 a 3,3 45 0 1 -3,-3 v -1.76025 a 6.5546876,6.5546876 135 0 1 6.55469,-6.55469 z"
         transform="matrix(1.0312685,0,0,-1.0312685,-247.62382,123.02309)" /><path
         d="m 158.9982,-2.6775752 h 1.26435 v 0.7450661 H 158.033 v -3.962397 h 0.9652 z m 4.68854,-3.2173309 v 0.7732883 h -1.04986 v 3.1891087 h -0.9652 v -3.1891087 h -1.04987 v -0.7732883 z"
         id="text13"
         style="font-weight:bold;font-size:5.64444px;font-family:Poppins;-inkscape-font-specification:'Poppins Bold';text-align:center;letter-spacing:0.110906px;text-anchor:middle;fill:url(#linearGradient109);stroke-width:0.670673;stroke-linecap:round;stroke-linejoin:round;paint-order:fill markers stroke"
         transform="scale(1,-1)"
         aria-label="LT" /></g></g></svg>
