<?xml version="1.0" encoding="UTF-8" standalone="no"?>
<!-- Created with Inkscape (http://www.inkscape.org/) -->

<svg
   width="64.499985"
   height="40.764977"
   viewBox="0 0 17.065621 10.785733"
   version="1.1"
   id="svg1"
   xml:space="preserve"
   xmlns:xlink="http://www.w3.org/1999/xlink"
   xmlns="http://www.w3.org/2000/svg"
   xmlns:svg="http://www.w3.org/2000/svg"><defs
     id="defs1"><linearGradient
       id="linearGradient89"><stop
         style="stop-color:#434a5f;stop-opacity:1;"
         offset="1"
         id="stop89" /><stop
         style="stop-color:#434a5f;stop-opacity:1;"
         offset="1"
         id="stop90" /></linearGradient><linearGradient
       id="linearGradient1-1"><stop
         style="stop-color:#434a5f;stop-opacity:1;"
         offset="0.47322804"
         id="stop3" /><stop
         style="stop-color:#434a5f;stop-opacity:1;"
         offset="1"
         id="stop4" /></linearGradient><linearGradient
       id="linearGradient568"><stop
         style="stop-color:#6d7592;stop-opacity:1;"
         offset="0.18130387"
         id="stop565" /><stop
         style="stop-color:#a7adbe;stop-opacity:1;"
         offset="0.18130387"
         id="stop566" /><stop
         style="stop-color:#a8acbd;stop-opacity:1;"
         offset="0.2008221"
         id="stop567" /><stop
         style="stop-color:#8a90a8;stop-opacity:1;"
         offset="0.2008221"
         id="stop568" /></linearGradient><linearGradient
       xlink:href="#linearGradient568"
       id="linearGradient543"
       gradientUnits="userSpaceOnUse"
       gradientTransform="translate(64.192927)"
       x1="454.61255"
       y1="238.41618"
       x2="454.61255"
       y2="230.33301" /><linearGradient
       xlink:href="#linearGradient1-1"
       id="linearGradient260"
       x1="511.64505"
       y1="234.3746"
       x2="526.02161"
       y2="234.3746"
       gradientUnits="userSpaceOnUse" /><linearGradient
       xlink:href="#linearGradient89"
       id="linearGradient993"
       x1="513.828"
       y1="233.55634"
       x2="524.2074"
       y2="233.55634"
       gradientUnits="userSpaceOnUse" /></defs><g
     id="g456"
     transform="translate(-228.60007,-76.199954)"
     style="display:inline"><g
       id="g428"
       style="display:inline;paint-order:fill markers stroke"
       transform="matrix(1.1870466,0,0,1.1870466,-378.74644,-196.62075)"><rect
         style="opacity:1;fill:url(#linearGradient543);stroke:url(#linearGradient260);stroke-width:1.00301;stroke-linecap:round;stroke-linejoin:round;stroke-miterlimit:0;stroke-dasharray:none;stroke-opacity:1;paint-order:fill markers stroke"
         id="rect427"
         width="13.373528"
         height="8.0831823"
         x="512.14655"
         y="230.33301"
         rx="1.1144606"
         ry="1.1144606" /><path
         style="font-weight:bold;font-size:4.52002px;font-family:Poppins;-inkscape-font-specification:'Poppins Bold';letter-spacing:0.100131px;fill:url(#linearGradient993);stroke-width:1.99061;stroke-linecap:round;stroke-linejoin:round;stroke-dasharray:3.98122, 1.99061"
         d="m 516.6666,235.12704 h -0.77292 l -1.29272,-1.95716 v 1.95716 h -0.77293 v -3.17305 h 0.77293 l 1.29272,1.96621 v -1.96621 h 0.77292 z m 1.41998,-3.17305 v 1.89841 q 0,0.28476 0.14013,0.43844 0.14012,0.15368 0.41132,0.15368 0.2712,0 0.41584,-0.15368 0.14464,-0.15368 0.14464,-0.43844 v -1.89841 h 0.77292 v 1.89389 q 0,0.42488 -0.1808,0.71868 -0.1808,0.2938 -0.48816,0.44296 -0.30284,0.14916 -0.678,0.14916 -0.37516,0 -0.67349,-0.14464 -0.2938,-0.14916 -0.46556,-0.44296 -0.17176,-0.29832 -0.17176,-0.7232 v -1.89389 z m 6.1208,0 v 3.17305 h -0.77292 v -1.90292 l -0.70964,1.90292 h -0.62377 l -0.71416,-1.90744 v 1.90744 h -0.77292 v -3.17305 h 0.91304 l 0.89044,2.19673 0.88141,-2.19673 z"
         id="text427"
         aria-label="NUM" /></g></g></svg>
