<?xml version="1.0" encoding="UTF-8" standalone="no"?>
<!-- Created with Inkscape (http://www.inkscape.org/) -->

<svg
   width="37.764977"
   height="40.764977"
   viewBox="0 0 9.9919834 10.785733"
   version="1.1"
   id="svg1"
   xml:space="preserve"
   xmlns:xlink="http://www.w3.org/1999/xlink"
   xmlns="http://www.w3.org/2000/svg"
   xmlns:svg="http://www.w3.org/2000/svg"><defs
     id="defs1"><linearGradient
       id="linearGradient89"><stop
         style="stop-color:#434a5f;stop-opacity:1;"
         offset="1"
         id="stop89" /><stop
         style="stop-color:#434a5f;stop-opacity:1;"
         offset="1"
         id="stop90" /></linearGradient><linearGradient
       id="linearGradient1-1"><stop
         style="stop-color:#434a5f;stop-opacity:1;"
         offset="0.47322804"
         id="stop3" /><stop
         style="stop-color:#434a5f;stop-opacity:1;"
         offset="1"
         id="stop4" /></linearGradient><linearGradient
       id="linearGradient568"><stop
         style="stop-color:#6d7592;stop-opacity:1;"
         offset="0.18130387"
         id="stop565" /><stop
         style="stop-color:#a7adbe;stop-opacity:1;"
         offset="0.18130387"
         id="stop566" /><stop
         style="stop-color:#a8acbd;stop-opacity:1;"
         offset="0.2008221"
         id="stop567" /><stop
         style="stop-color:#8a90a8;stop-opacity:1;"
         offset="0.2008221"
         id="stop568" /></linearGradient><radialGradient
       xlink:href="#linearGradient568"
       id="radialGradient469"
       gradientUnits="userSpaceOnUse"
       gradientTransform="matrix(7.5298137,0,0,1.8808423,-2870.9318,-162.79875)"
       cx="452.62515"
       cy="196.25169"
       fx="452.62515"
       fy="196.25169"
       r="4.2087579" /><linearGradient
       xlink:href="#linearGradient1-1"
       id="linearGradient302"
       x1="533.0426"
       y1="202.27814"
       x2="541.46014"
       y2="202.27814"
       gradientUnits="userSpaceOnUse" /><linearGradient
       xlink:href="#linearGradient89"
       id="linearGradient644"
       x1="535.62421"
       y1="201.43727"
       x2="538.8786"
       y2="201.43727"
       gradientUnits="userSpaceOnUse" /></defs><g
     id="g456"
     transform="translate(-228.60001,-38.099943)"
     style="display:inline"><g
       id="g348"
       style="display:inline;paint-order:fill markers stroke"
       transform="matrix(1.1870466,0,0,1.1870466,-404.14642,-196.62076)"><rect
         style="opacity:1;fill:url(#radialGradient469);fill-opacity:1;stroke:url(#linearGradient302);stroke-width:1.00301;stroke-linecap:round;stroke-linejoin:round;stroke-miterlimit:0;stroke-dasharray:none;stroke-opacity:1;paint-order:fill markers stroke"
         id="rect348"
         width="7.414506"
         height="8.0831823"
         x="533.54413"
         y="198.23654"
         rx="1.1144606"
         ry="1.1144606" /><path
         d="m 537.25593,203.06222 q -0.44749,0 -0.82265,-0.20792 -0.37064,-0.20792 -0.59212,-0.57856 -0.21696,-0.37517 -0.21696,-0.84073 0,-0.46556 0.21696,-0.8362 0.22148,-0.37064 0.59212,-0.57856 0.37516,-0.20793 0.82265,-0.20793 0.44748,0 0.81812,0.20793 0.37516,0.20792 0.5876,0.57856 0.21696,0.37064 0.21696,0.8362 0,0.46556 -0.21696,0.84073 -0.21696,0.37064 -0.5876,0.57856 -0.37064,0.20792 -0.81812,0.20792 z m 0,-0.70512 q 0.37968,0 0.60568,-0.25313 0.23052,-0.25312 0.23052,-0.66896 0,-0.42036 -0.23052,-0.66896 -0.226,-0.25312 -0.60568,-0.25312 -0.38421,0 -0.61473,0.2486 -0.226,0.2486 -0.226,0.67348 0,0.42036 0.226,0.67348 0.23052,0.24861 0.61473,0.24861 z"
         id="text348"
         style="font-weight:bold;font-size:4.52002px;font-family:Poppins;-inkscape-font-specification:'Poppins Bold';text-align:center;letter-spacing:0.100131px;text-anchor:middle;fill:url(#linearGradient644);stroke-width:1.99061;stroke-linecap:round;stroke-linejoin:round;stroke-dasharray:3.98122, 1.99061"
         aria-label="O" /></g></g></svg>
