<?xml version="1.0" encoding="UTF-8" standalone="no"?>
<!-- Created with Inkscape (http://www.inkscape.org/) -->

<svg
   width="96"
   height="40.764973"
   viewBox="0 0 25.4 10.785732"
   version="1.1"
   id="svg1"
   xml:space="preserve"
   xmlns:xlink="http://www.w3.org/1999/xlink"
   xmlns="http://www.w3.org/2000/svg"
   xmlns:svg="http://www.w3.org/2000/svg"><defs
     id="defs1"><linearGradient
       id="linearGradient89"><stop
         style="stop-color:#434a5f;stop-opacity:1;"
         offset="1"
         id="stop89" /><stop
         style="stop-color:#434a5f;stop-opacity:1;"
         offset="1"
         id="stop90" /></linearGradient><linearGradient
       id="linearGradient1-1"><stop
         style="stop-color:#434a5f;stop-opacity:1;"
         offset="1"
         id="stop3" /><stop
         style="stop-color:#434a5f;stop-opacity:1;"
         offset="1"
         id="stop4" /></linearGradient><linearGradient
       id="linearGradient568"><stop
         style="stop-color:#6d7592;stop-opacity:1;"
         offset="0.18130387"
         id="stop565" /><stop
         style="stop-color:#a7adbe;stop-opacity:1;"
         offset="0.18130387"
         id="stop566" /><stop
         style="stop-color:#a8acbd;stop-opacity:1;"
         offset="0.2008221"
         id="stop567" /><stop
         style="stop-color:#8a90a8;stop-opacity:1;"
         offset="0.2008221"
         id="stop568" /></linearGradient><linearGradient
       xlink:href="#linearGradient568"
       id="linearGradient539"
       gradientUnits="userSpaceOnUse"
       gradientTransform="matrix(1.1871923,0,0,1.1870466,-315.31179,-196.6207)"
       x1="454.61255"
       y1="238.41618"
       x2="454.61255"
       y2="230.33301" /><linearGradient
       xlink:href="#linearGradient1-1"
       id="linearGradient266"
       x1="215.89999"
       y1="81.592857"
       x2="241.3"
       y2="81.592857"
       gradientUnits="userSpaceOnUse" /><linearGradient
       xlink:href="#linearGradient89"
       id="linearGradient989"
       x1="449.55756"
       y1="244.67679"
       x2="463.61389"
       y2="244.67679"
       gradientUnits="userSpaceOnUse" /></defs><g
     id="g456"
     transform="translate(-203.20007,-88.899939)"
     style="display:inline"><g
       id="g424"
       transform="translate(-12.699932,12.699945)"><path
         id="path423"
         style="display:inline;opacity:1;fill:url(#linearGradient539);stroke:url(#linearGradient266);stroke-width:1.19062;stroke-linecap:round;stroke-linejoin:round;stroke-miterlimit:0;paint-order:fill markers stroke"
         d="m 217.81838,76.795304 h 21.56323 c 0.73298,0 1.32308,0.590022 1.32308,1.322916 v 6.949268 c 0,0.732906 -0.5901,1.322928 -1.32308,1.322928 h -21.56323 c -0.73298,0 -1.32307,-0.590022 -1.32307,-1.322928 V 78.11822 c 0,-0.732894 0.59009,-1.322916 1.32307,-1.322916 z" /><path
         style="font-weight:bold;font-size:3.26908px;font-family:Poppins;-inkscape-font-specification:'Poppins Bold';letter-spacing:0.100131px;fill:url(#linearGradient989);stroke-width:1.99061;stroke-linecap:round;stroke-linejoin:round;stroke-dasharray:3.98122, 1.99061;paint-order:fill markers stroke"
         d="m 451.30653,244.26978 q 0,0.19942 -0.0915,0.36614 -0.0915,0.16346 -0.28115,0.2648 -0.1896,0.10134 -0.47074,0.10134 h -0.34653 v 0.82381 h -0.55901 v -2.2949 h 0.90554 q 0.2746,0 0.46421,0.0948 0.1896,0.0948 0.28441,0.26152 0.0948,0.16673 0.0948,0.38248 z m -0.88592,0.28768 q 0.16018,0 0.23864,-0.0752 0.0785,-0.0752 0.0785,-0.21249 0,-0.1373 -0.0785,-0.21249 -0.0785,-0.0752 -0.23864,-0.0752 h -0.30403 v 0.57535 z m 2.70559,0.86304 h -0.8565 l -0.1373,0.40537 h -0.58517 l 0.83035,-2.2949 h 0.64728 l 0.83034,2.2949 h -0.5917 z m -0.14384,-0.43152 -0.28441,-0.84015 -0.28114,0.84015 z m 2.74808,-0.73227 q -0.0621,-0.11442 -0.1798,-0.17326 -0.11441,-0.0621 -0.27133,-0.0621 -0.27133,0 -0.43479,0.1798 -0.16345,0.17653 -0.16345,0.47402 0,0.3171 0.16999,0.4969 0.17326,0.17653 0.47402,0.17653 0.20595,0 0.34652,-0.10461 0.14384,-0.10461 0.20922,-0.30075 h -0.70939 v -0.41191 h 1.2161 v 0.51978 q -0.0621,0.20923 -0.21249,0.38903 -0.14711,0.17979 -0.37595,0.29094 -0.22883,0.11115 -0.51651,0.11115 -0.33999,0 -0.60805,-0.14711 -0.2648,-0.15037 -0.41517,-0.41517 -0.14711,-0.2648 -0.14711,-0.60478 0,-0.33998 0.14711,-0.60478 0.15037,-0.26806 0.41517,-0.41517 0.2648,-0.15038 0.60478,-0.15038 0.4119,0 0.69304,0.19941 0.28441,0.19942 0.37595,0.55248 z m 1.62679,-0.27787 v 0.46421 h 0.74862 v 0.43151 h -0.74862 v 0.50344 h 0.84669 v 0.44787 h -1.4057 v -2.2949 h 1.4057 v 0.44787 z m 2.65207,-0.44787 v 1.37302 q 0,0.20595 0.10135,0.3171 0.10134,0.11115 0.29748,0.11115 0.19615,0 0.30076,-0.11115 0.10461,-0.11115 0.10461,-0.3171 v -1.37302 h 0.55901 v 1.36975 q 0,0.30729 -0.13076,0.51978 -0.13077,0.21249 -0.35306,0.32037 -0.21903,0.10788 -0.49037,0.10788 -0.27133,0 -0.48709,-0.10461 -0.21249,-0.10788 -0.33671,-0.32037 -0.12423,-0.21576 -0.12423,-0.52305 v -1.36975 z m 3.60459,0.73881 q 0,0.19942 -0.0915,0.36614 -0.0915,0.16346 -0.28115,0.2648 -0.1896,0.10134 -0.47074,0.10134 h -0.34653 v 0.82381 h -0.55901 v -2.2949 h 0.90554 q 0.2746,0 0.46421,0.0948 0.1896,0.0948 0.28441,0.26152 0.0948,0.16673 0.0948,0.38248 z m -0.88592,0.28768 q 0.16018,0 0.23864,-0.0752 0.0785,-0.0752 0.0785,-0.21249 0,-0.1373 -0.0785,-0.21249 -0.0785,-0.0752 -0.23864,-0.0752 h -0.30403 v 0.57535 z"
         id="text423"
         transform="matrix(1.1870466,0,0,1.1870466,-315.24649,-209.32071)"
         aria-label="PAGE UP" /></g></g></svg>
