<?xml version="1.0" encoding="UTF-8" standalone="no"?>
<!-- Created with Inkscape (http://www.inkscape.org/) -->

<svg
   width="37.76495"
   height="40.764969"
   viewBox="0 0 9.9919763 10.785731"
   version="1.1"
   id="svg1"
   xml:space="preserve"
   xmlns:xlink="http://www.w3.org/1999/xlink"
   xmlns="http://www.w3.org/2000/svg"
   xmlns:svg="http://www.w3.org/2000/svg"><defs
     id="defs1"><linearGradient
       id="linearGradient1"><stop
         style="stop-color:#434a5f;stop-opacity:1;"
         offset="1"
         id="stop111" /><stop
         style="stop-color:#434a5f;stop-opacity:1;"
         offset="1"
         id="stop112" /></linearGradient><linearGradient
       id="linearGradient103"><stop
         style="stop-color:#434a5f;stop-opacity:1;"
         offset="1"
         id="stop103" /><stop
         style="stop-color:#434a5f;stop-opacity:1;"
         offset="1"
         id="stop104" /></linearGradient><linearGradient
       id="linearGradient7"><stop
         style="stop-color:#b8b8b8;stop-opacity:1;"
         offset="0.16548869"
         id="stop14" /><stop
         style="stop-color:#ffffff;stop-opacity:1;"
         offset="0.16548869"
         id="stop16" /><stop
         style="stop-color:#ffffff;stop-opacity:1;"
         offset="0.2089889"
         id="stop15" /><stop
         style="stop-color:#e5e5e5;stop-opacity:1;"
         offset="0.2089889"
         id="stop7" /></linearGradient><linearGradient
       xlink:href="#linearGradient7"
       id="linearGradient185"
       gradientUnits="userSpaceOnUse"
       gradientTransform="matrix(1.1871923,0,0,1.1870466,-315.31179,-196.6207)"
       x1="454.61255"
       y1="238.41618"
       x2="454.61255"
       y2="230.33301" /><radialGradient
       xlink:href="#linearGradient7"
       id="radialGradient293"
       gradientUnits="userSpaceOnUse"
       gradientTransform="matrix(7.5298137,0,0,1.8808423,-2828.1366,-141.40108)"
       cx="452.62515"
       cy="196.25169"
       fx="452.62515"
       fy="196.25169"
       r="4.2087579" /><linearGradient
       xlink:href="#linearGradient1"
       id="linearGradient37"
       x1="215.89999"
       y1="81.592857"
       x2="241.3"
       y2="81.592857"
       gradientUnits="userSpaceOnUse" /><linearGradient
       xlink:href="#linearGradient1"
       id="linearGradient38"
       x1="575.83789"
       y1="223.67578"
       x2="584.25543"
       y2="223.67578"
       gradientUnits="userSpaceOnUse" /><linearGradient
       xlink:href="#linearGradient103"
       id="linearGradient773"
       x1="449.63513"
       y1="244.23256"
       x2="464.09744"
       y2="244.23256"
       gradientUnits="userSpaceOnUse" /><linearGradient
       xlink:href="#linearGradient103"
       id="linearGradient887"
       x1="382.71198"
       y1="55.521332"
       x2="387.3645"
       y2="55.521332"
       gradientUnits="userSpaceOnUse" /></defs><g
     id="layer2"
     transform="translate(-254.00007,-88.899959)"
     style="display:inline"><g
       id="g185"
       transform="translate(12.700072,12.699954)"><path
         id="path177"
         style="display:inline;opacity:1;fill:url(#linearGradient185);stroke:url(#linearGradient37);stroke-width:1.19062;stroke-linecap:round;stroke-linejoin:round;stroke-miterlimit:0;paint-order:fill markers stroke"
         d="m 217.81838,76.795304 h 21.56323 c 0.73298,0 1.32308,0.590022 1.32308,1.322916 v 6.949268 c 0,0.732906 -0.5901,1.322928 -1.32308,1.322928 h -21.56323 c -0.73298,0 -1.32307,-0.590022 -1.32307,-1.322928 V 78.11822 c 0,-0.732894 0.59009,-1.322916 1.32307,-1.322916 z" /><path
         style="font-weight:bold;font-size:4.52002px;font-family:Poppins;-inkscape-font-specification:'Poppins Bold';letter-spacing:0.100131px;fill:url(#linearGradient773);stroke-width:1.99061;stroke-linecap:round;stroke-linejoin:round;stroke-dasharray:3.98122, 1.99061;paint-order:fill markers stroke"
         d="m 452.05334,243.67434 q 0,0.27572 -0.12656,0.50624 -0.12656,0.226 -0.38872,0.36612 -0.26216,0.14012 -0.65088,0.14012 h -0.47913 v 1.13905 h -0.77292 v -3.17306 h 1.25205 q 0.37968,0 0.64184,0.13108 0.26216,0.13108 0.39324,0.3616 0.13108,0.23053 0.13108,0.52885 z m -1.22492,0.39776 q 0.22148,0 0.32996,-0.10396 0.10848,-0.10396 0.10848,-0.2938 0,-0.18984 -0.10848,-0.2938 -0.10848,-0.10396 -0.32996,-0.10396 h -0.42037 v 0.79552 z m 3.70258,1.19328 h -1.18424 l -0.18984,0.56049 h -0.80908 l 1.14808,-3.17306 h 0.89496 l 1.14809,3.17306 h -0.81812 z m -0.19888,-0.59664 -0.39324,-1.16164 -0.38872,1.16164 z m 2.41438,-2.01593 v 1.89841 q 0,0.28476 0.14012,0.43844 0.14012,0.15368 0.41133,0.15368 0.2712,0 0.41584,-0.15368 0.14464,-0.15368 0.14464,-0.43844 v -1.89841 h 0.77292 v 1.89389 q 0,0.42488 -0.1808,0.71868 -0.1808,0.29381 -0.48816,0.44297 -0.30284,0.14916 -0.678,0.14916 -0.37517,0 -0.67349,-0.14464 -0.2938,-0.14916 -0.46556,-0.44297 -0.17176,-0.29832 -0.17176,-0.7232 v -1.89389 z m 3.67547,3.2047 q -0.34804,0 -0.62376,-0.113 -0.27572,-0.113 -0.44297,-0.33449 -0.16272,-0.22148 -0.17176,-0.53336 h 0.82265 q 0.0181,0.17628 0.12204,0.2712 0.10396,0.0904 0.2712,0.0904 0.17176,0 0.2712,-0.0768 0.0994,-0.0814 0.0994,-0.22148 0,-0.11752 -0.0814,-0.19436 -0.0768,-0.0768 -0.19436,-0.12656 -0.113,-0.0497 -0.32544,-0.113 -0.30736,-0.0949 -0.50172,-0.18984 -0.19437,-0.0949 -0.33449,-0.28024 -0.14012,-0.18532 -0.14012,-0.48364 0,-0.44297 0.32093,-0.69157 0.32092,-0.25312 0.8362,-0.25312 0.52432,0 0.84524,0.25312 0.32092,0.2486 0.34352,0.69609 h -0.8362 q -0.009,-0.15368 -0.113,-0.23956 -0.10396,-0.0904 -0.26668,-0.0904 -0.14012,0 -0.226,0.0768 -0.0859,0.0723 -0.0859,0.21244 0,0.15368 0.14464,0.23956 0.14464,0.0859 0.452,0.18532 0.30736,0.10396 0.4972,0.19888 0.19436,0.0949 0.33448,0.27572 0.14012,0.1808 0.14012,0.46556 0,0.2712 -0.14012,0.49268 -0.1356,0.22149 -0.39776,0.35257 -0.26216,0.13108 -0.61924,0.13108 z m 2.50478,-2.58545 v 0.64184 h 1.03508 v 0.59664 h -1.03508 v 0.69608 h 1.17069 v 0.61925 h -1.94361 v -3.17306 h 1.94361 v 0.61925 z"
         id="text185"
         transform="matrix(1.1870466,0,0,1.1870466,-315.24649,-209.32071)"
         aria-label="PAUSE" /></g><g
       id="g293"
       style="display:inline;paint-order:fill markers stroke"
       transform="matrix(1.1870466,0,0,1.1870466,-429.54637,-171.22075)"><path
         id="rect287"
         style="opacity:1;fill:url(#radialGradient293);stroke:url(#linearGradient38);stroke-width:1.00301;stroke-linecap:round;stroke-linejoin:round;stroke-miterlimit:0"
         d="m 577.45388,219.63419 h 5.18558 c 0.61741,0 1.11446,0.49705 1.11446,1.11446 v 5.85426 c 0,0.61741 -0.49705,1.11446 -1.11446,1.11446 h -5.18558 c -0.61741,0 -1.11446,-0.49705 -1.11446,-1.11446 v -5.85426 c 0,-0.61741 0.49705,-1.11446 1.11446,-1.11446 z" /><path
         id="path293"
         style="fill:url(#linearGradient887);stroke-width:2.02175;stroke-linecap:round;stroke-linejoin:round;stroke-miterlimit:0"
         transform="matrix(0,-0.84242692,-0.59562918,0,613.1168,547.59657)"
         d="m 387.36449,57.535925 h -4.6525 l 2.32625,-4.029184 z" /></g></g></svg>
