<?xml version="1.0" encoding="UTF-8" standalone="no"?>
<!-- Created with Inkscape (http://www.inkscape.org/) -->

<svg
   width="96"
   height="40.764973"
   viewBox="0 0 25.4 10.785732"
   version="1.1"
   id="svg1"
   xml:space="preserve"
   xmlns:xlink="http://www.w3.org/1999/xlink"
   xmlns="http://www.w3.org/2000/svg"
   xmlns:svg="http://www.w3.org/2000/svg"><defs
     id="defs1"><linearGradient
       id="linearGradient1"><stop
         style="stop-color:#434a5f;stop-opacity:1;"
         offset="1"
         id="stop111" /><stop
         style="stop-color:#434a5f;stop-opacity:1;"
         offset="1"
         id="stop112" /></linearGradient><linearGradient
       id="linearGradient103"><stop
         style="stop-color:#434a5f;stop-opacity:1;"
         offset="1"
         id="stop103" /><stop
         style="stop-color:#434a5f;stop-opacity:1;"
         offset="1"
         id="stop104" /></linearGradient><linearGradient
       id="linearGradient7"><stop
         style="stop-color:#b8b8b8;stop-opacity:1;"
         offset="0.16548869"
         id="stop14" /><stop
         style="stop-color:#ffffff;stop-opacity:1;"
         offset="0.16548869"
         id="stop16" /><stop
         style="stop-color:#ffffff;stop-opacity:1;"
         offset="0.2089889"
         id="stop15" /><stop
         style="stop-color:#e5e5e5;stop-opacity:1;"
         offset="0.2089889"
         id="stop7" /></linearGradient><linearGradient
       xlink:href="#linearGradient7"
       id="linearGradient171"
       gradientUnits="userSpaceOnUse"
       gradientTransform="matrix(1.1871923,0,0,1.1870466,-315.31179,-196.6207)"
       x1="454.61255"
       y1="238.41618"
       x2="454.61255"
       y2="230.33301" /><linearGradient
       xlink:href="#linearGradient1"
       id="linearGradient32"
       x1="215.89999"
       y1="81.592857"
       x2="241.3"
       y2="81.592857"
       gradientUnits="userSpaceOnUse" /><linearGradient
       xlink:href="#linearGradient103"
       id="linearGradient777"
       x1="449.63513"
       y1="244.23933"
       x2="462.81827"
       y2="244.23933"
       gradientUnits="userSpaceOnUse" /></defs><g
     id="layer2"
     transform="translate(-177.80004,-88.899952)"
     style="display:inline"><g
       id="g171"
       transform="translate(-38.099963,12.699958)"><path
         id="path170"
         style="display:inline;opacity:1;fill:url(#linearGradient171);stroke:url(#linearGradient32);stroke-width:1.19062;stroke-linecap:round;stroke-linejoin:round;stroke-miterlimit:0;paint-order:fill markers stroke"
         d="m 217.81838,76.795304 h 21.56323 c 0.73298,0 1.32308,0.590022 1.32308,1.322916 v 6.949268 c 0,0.732906 -0.5901,1.322928 -1.32308,1.322928 h -21.56323 c -0.73298,0 -1.32307,-0.590022 -1.32307,-1.322928 V 78.11822 c 0,-0.732894 0.59009,-1.322916 1.32307,-1.322916 z" /><path
         style="font-weight:bold;font-size:4.52002px;font-family:Poppins;-inkscape-font-specification:'Poppins Bold';letter-spacing:0.100131px;fill:url(#linearGradient777);stroke-width:1.99061;stroke-linecap:round;stroke-linejoin:round;stroke-dasharray:3.98122, 1.99061;paint-order:fill markers stroke"
         d="m 452.05334,243.67434 q 0,0.27572 -0.12656,0.50624 -0.12656,0.226 -0.38872,0.36612 -0.26216,0.14012 -0.65088,0.14012 h -0.47913 v 1.13905 h -0.77292 v -3.17306 h 1.25205 q 0.37968,0 0.64184,0.13108 0.26216,0.13108 0.39324,0.3616 0.13108,0.23053 0.13108,0.52885 z m -1.22492,0.39776 q 0.22148,0 0.32996,-0.10396 0.10848,-0.10396 0.10848,-0.2938 0,-0.18984 -0.10848,-0.2938 -0.10848,-0.10396 -0.32996,-0.10396 h -0.42037 v 0.79552 z m 3.3455,1.75377 -0.65992,-1.19781 h -0.18532 v 1.19781 h -0.77292 v -3.17306 h 1.29724 q 0.37516,0 0.63732,0.13108 0.26669,0.13108 0.39777,0.3616 0.13108,0.22601 0.13108,0.50625 0,0.3164 -0.1808,0.565 -0.17628,0.2486 -0.52433,0.35256 l 0.73225,1.25657 z m -0.84524,-1.74473 h 0.47912 q 0.21244,0 0.3164,-0.10396 0.10848,-0.10396 0.10848,-0.2938 0,-0.1808 -0.10848,-0.28476 -0.10396,-0.10396 -0.3164,-0.10396 h -0.47912 z m 3.04719,-1.42833 v 3.17306 h -0.77293 v -3.17306 z m 3.49918,3.17306 h -0.77292 l -1.29273,-1.95717 v 1.95717 h -0.77292 v -3.17306 h 0.77292 l 1.29273,1.96621 v -1.96621 h 0.77292 z m 2.94323,-3.17306 v 0.61925 h -0.84073 v 2.55381 h -0.77292 v -2.55381 h -0.84072 v -0.61925 z"
         id="text171"
         transform="matrix(1.1870466,0,0,1.1870466,-315.24649,-209.32071)"
         aria-label="PRINT" /></g></g></svg>
