<?xml version="1.0" encoding="UTF-8" standalone="no"?>
<!-- Created with Inkscape (http://www.inkscape.org/) -->

<svg
   width="47.999516"
   height="47.999516"
   viewBox="0 0 12.699872 12.699872"
   version="1.1"
   id="svg1"
   xml:space="preserve"
   xmlns:xlink="http://www.w3.org/1999/xlink"
   xmlns="http://www.w3.org/2000/svg"
   xmlns:svg="http://www.w3.org/2000/svg"><defs
     id="defs1"><linearGradient
       id="linearGradient1-1"><stop
         style="stop-color:#434a5f;stop-opacity:1;"
         offset="1"
         id="stop3" /><stop
         style="stop-color:#434a5f;stop-opacity:1;"
         offset="1"
         id="stop4" /></linearGradient><linearGradient
       id="linearGradient2"><stop
         style="stop-color:#8a90a8;stop-opacity:1"
         offset="0.68779135"
         id="stop39" /><stop
         style="stop-color:#636883;stop-opacity:1;"
         offset="0.68779135"
         id="stop40" /></linearGradient><radialGradient
       xlink:href="#linearGradient2"
       id="radialGradient903"
       gradientUnits="userSpaceOnUse"
       gradientTransform="matrix(1.3210463,-1.485635e-4,1.6897385e-4,1.5025378,-124.79435,-96.679263)"
       cx="388.60379"
       cy="191.03438"
       fx="388.60379"
       fy="191.03438"
       r="5.3493915" /><linearGradient
       xlink:href="#linearGradient1-1"
       id="linearGradient50"
       x1="383.25919"
       y1="192.38565"
       x2="393.95792"
       y2="192.38565"
       gradientUnits="userSpaceOnUse" /></defs><g
     id="g585"
     style="display:inline"
     transform="translate(-38.479302,-241.30008)"><g
       id="g903"
       transform="translate(-164.72072,215.89999)"
       style="display:inline"><path
         id="circle902"
         style="display:inline;fill:url(#radialGradient903);stroke:url(#linearGradient50);stroke-width:0.999894;stroke-linecap:round;stroke-linejoin:round;paint-order:fill markers stroke"
         transform="matrix(1.1870466,0,0,1.1870466,-251.7465,-196.62071)"
         d="m 393.45796,192.38565 a 4.849411,4.849411 0 0 1 -4.84941,4.84941 4.849411,4.849411 0 0 1 -4.84941,-4.84941 4.849411,4.849411 0 0 1 4.84941,-4.84941 4.849411,4.849411 0 0 1 4.84941,4.84941 z" /><path
         id="circle903"
         style="fill:none;stroke:#fd6248;stroke-width:1.05833;stroke-linecap:square;stroke-miterlimit:2.66;paint-order:stroke fill markers"
         d="m 212.72496,31.220856 a 3.1749885,3.1749885 0 0 1 -3.17499,3.174988 3.1749885,3.1749885 0 0 1 -3.17499,-3.174988 3.1749885,3.1749885 0 0 1 3.17499,-3.174989 3.1749885,3.1749885 0 0 1 3.17499,3.174989 z" /></g></g></svg>
