<?xml version="1.0" encoding="UTF-8" standalone="no"?>
<!-- Created with Inkscape (http://www.inkscape.org/) -->

<svg
   width="39.99942"
   height="38.329563"
   viewBox="0 0 10.58318 10.141364"
   version="1.1"
   id="svg1"
   xml:space="preserve"
   xmlns:xlink="http://www.w3.org/1999/xlink"
   xmlns="http://www.w3.org/2000/svg"
   xmlns:svg="http://www.w3.org/2000/svg"><defs
     id="defs1"><linearGradient
       id="linearGradient89"><stop
         style="stop-color:#434a5f;stop-opacity:1;"
         offset="1"
         id="stop89" /><stop
         style="stop-color:#434a5f;stop-opacity:1;"
         offset="1"
         id="stop90" /></linearGradient><linearGradient
       id="linearGradient1-1"><stop
         style="stop-color:#434a5f;stop-opacity:1;"
         offset="1"
         id="stop3" /><stop
         style="stop-color:#434a5f;stop-opacity:1;"
         offset="1"
         id="stop4" /></linearGradient><linearGradient
       id="linearGradient2"><stop
         style="stop-color:#8a90a8;stop-opacity:1"
         offset="0.68779135"
         id="stop39" /><stop
         style="stop-color:#636883;stop-opacity:1;"
         offset="0.68779135"
         id="stop40" /></linearGradient><linearGradient
       xlink:href="#linearGradient2"
       id="linearGradient471"
       gradientUnits="userSpaceOnUse"
       x1="398.78177"
       y1="117.41906"
       x2="398.78177"
       y2="119.43993" /><linearGradient
       xlink:href="#linearGradient1-1"
       id="linearGradient56"
       x1="389.85574"
       y1="115.27421"
       x2="402.39285"
       y2="115.27421"
       gradientUnits="userSpaceOnUse" /><linearGradient
       xlink:href="#linearGradient89"
       id="linearGradient722"
       x1="158.30817"
       y1="-5.1591759"
       x2="163.46519"
       y2="-5.1591759"
       gradientUnits="userSpaceOnUse" /></defs><g
     id="g585"
     style="display:inline"
     transform="translate(-38.100069,-278.87085)"><g
       id="g462"
       transform="matrix(1,0,0,-1,-117.49502,289.10071)"
       style="display:inline"><path
         id="path462"
         style="fill:url(#linearGradient471);stroke:url(#linearGradient56);stroke-width:1.22219;stroke-linecap:round;stroke-linejoin:round;stroke-dasharray:none;paint-order:fill markers stroke"
         d="m 392.54483,109.8733 h 7.15893 a 2.0779996,2.0779996 45 0 1 2.078,2.078 v 4.38945 a 4.3343718,4.3343718 135 0 1 -4.33437,4.33437 h -2.64619 a 4.3343718,4.3343718 45 0 1 -4.33437,-4.33437 v -4.38945 a 2.0779996,2.0779996 135 0 1 2.078,-2.078 z"
         transform="matrix(0.84414759,0,0,-0.84342607,-173.50069,102.38445)" /><path
         d="m 160.32887,-3.0989554 -0.82409,-1.4957766 h -0.23142 v 1.4957766 h -0.9652 v -3.962397 h 1.61996 q 0.46848,0 0.79586,0.1636888 0.33302,0.1636887 0.49671,0.4515552 0.16369,0.282222 0.16369,0.6321773 0,0.3951108 -0.22578,0.705555 -0.22013,0.3104442 -0.65475,0.4402663 l 0.9144,1.5691544 z m -1.05551,-2.1787539 h 0.59831 q 0.26529,0 0.39511,-0.1298221 0.13547,-0.1298221 0.13547,-0.3668886 0,-0.2257776 -0.13547,-0.3555998 -0.12982,-0.1298221 -0.39511,-0.1298221 h -0.59831 z m 2.62833,-1.0442214 v -0.897466 h 1.56351 v 4.1204413 h -1.00471 v -3.2229753 z"
         id="text462"
         style="font-weight:bold;font-size:5.64444px;font-family:Poppins;-inkscape-font-specification:'Poppins Bold';text-align:center;letter-spacing:0.110906px;text-anchor:middle;fill:url(#linearGradient722);stroke-width:0.670673;stroke-linecap:round;stroke-linejoin:round;paint-order:fill markers stroke"
         transform="scale(1,-1)"
         aria-label="R1" /></g></g></svg>
