<?xml version="1.0" encoding="UTF-8" standalone="no"?>
<!-- Created with Inkscape (http://www.inkscape.org/) -->

<svg
   width="47.999817"
   height="47.999817"
   viewBox="0 0 12.699952 12.699952"
   version="1.1"
   id="svg1"
   xml:space="preserve"
   xmlns:xlink="http://www.w3.org/1999/xlink"
   xmlns="http://www.w3.org/2000/svg"
   xmlns:svg="http://www.w3.org/2000/svg"><defs
     id="defs1"><linearGradient
       id="linearGradient1"><stop
         style="stop-color:#434a5f;stop-opacity:1;"
         offset="1"
         id="stop111" /><stop
         style="stop-color:#434a5f;stop-opacity:1;"
         offset="1"
         id="stop112" /></linearGradient><linearGradient
       id="linearGradient103"><stop
         style="stop-color:#434a5f;stop-opacity:1;"
         offset="1"
         id="stop103" /><stop
         style="stop-color:#434a5f;stop-opacity:1;"
         offset="1"
         id="stop104" /></linearGradient><linearGradient
       id="linearGradient301"><stop
         style="stop-color:#ffffff;stop-opacity:1;"
         offset="0.68779135"
         id="stop300" /><stop
         style="stop-color:#b2b2b2;stop-opacity:1;"
         offset="0.68779135"
         id="stop301" /></linearGradient><radialGradient
       xlink:href="#linearGradient301"
       id="radialGradient888"
       gradientUnits="userSpaceOnUse"
       gradientTransform="matrix(1.3210463,-1.485635e-4,1.6897385e-4,1.5025378,-124.79435,-96.679263)"
       cx="388.60379"
       cy="191.03438"
       fx="388.60379"
       fy="191.03438"
       r="5.3493915" /><linearGradient
       xlink:href="#linearGradient1"
       id="linearGradient79"
       x1="383.25916"
       y1="192.38565"
       x2="393.95795"
       y2="192.38565"
       gradientUnits="userSpaceOnUse" /><linearGradient
       xlink:href="#linearGradient103"
       id="linearGradient939"
       x1="205.84583"
       y1="31.220856"
       x2="213.25414"
       y2="31.220856"
       gradientUnits="userSpaceOnUse" /></defs><g
     id="g585"
     style="display:inline"
     transform="translate(-38.100002,-292.10005)"><g
       id="g892"
       transform="translate(-165.09998,266.7)"
       style="display:inline"><path
         id="circle888"
         style="display:inline;fill:url(#radialGradient888);stroke:url(#linearGradient79);stroke-width:0.999961;stroke-linecap:round;stroke-linejoin:round;paint-order:fill markers stroke"
         transform="matrix(1.1870466,0,0,1.1870466,-251.7465,-196.62071)"
         d="m 393.45796,192.38565 a 4.849411,4.849411 0 0 1 -4.84941,4.84941 4.849411,4.849411 0 0 1 -4.84941,-4.84941 4.849411,4.849411 0 0 1 4.84941,-4.84941 4.849411,4.849411 0 0 1 4.84941,4.84941 z" /><path
         id="path890"
         style="fill:none;stroke:url(#linearGradient939);stroke-width:1.05833;stroke-linecap:square;stroke-miterlimit:2.66;paint-order:stroke fill markers"
         d="m 212.72496,31.220856 a 3.1749885,3.1749885 0 0 1 -3.17499,3.174988 3.1749885,3.1749885 0 0 1 -3.17499,-3.174988 3.1749885,3.1749885 0 0 1 3.17499,-3.174989 3.1749885,3.1749885 0 0 1 3.17499,3.174989 z" /></g></g></svg>
