<?xml version="1.0" encoding="UTF-8" standalone="no"?>
<!-- Created with Inkscape (http://www.inkscape.org/) -->

<svg
   width="37.764996"
   height="40.764969"
   viewBox="0 0 9.9919884 10.785731"
   version="1.1"
   id="svg1"
   xml:space="preserve"
   xmlns:xlink="http://www.w3.org/1999/xlink"
   xmlns="http://www.w3.org/2000/svg"
   xmlns:svg="http://www.w3.org/2000/svg"><defs
     id="defs1"><linearGradient
       id="linearGradient89"><stop
         style="stop-color:#434a5f;stop-opacity:1;"
         offset="1"
         id="stop89" /><stop
         style="stop-color:#434a5f;stop-opacity:1;"
         offset="1"
         id="stop90" /></linearGradient><linearGradient
       id="linearGradient1-1"><stop
         style="stop-color:#434a5f;stop-opacity:1;"
         offset="1"
         id="stop3" /><stop
         style="stop-color:#434a5f;stop-opacity:1;"
         offset="1"
         id="stop4" /></linearGradient><linearGradient
       id="linearGradient568"><stop
         style="stop-color:#6d7592;stop-opacity:1;"
         offset="0.18130387"
         id="stop565" /><stop
         style="stop-color:#a7adbe;stop-opacity:1;"
         offset="0.18130387"
         id="stop566" /><stop
         style="stop-color:#a8acbd;stop-opacity:1;"
         offset="0.2008221"
         id="stop567" /><stop
         style="stop-color:#8a90a8;stop-opacity:1;"
         offset="0.2008221"
         id="stop568" /></linearGradient><radialGradient
       xlink:href="#linearGradient568"
       id="radialGradient456"
       gradientUnits="userSpaceOnUse"
       gradientTransform="matrix(7.5298137,0,0,1.8808423,-2956.5223,-162.79878)"
       cx="452.62515"
       cy="196.25169"
       fx="452.62515"
       fy="196.25169"
       r="4.2087579" /><linearGradient
       xlink:href="#linearGradient1-1"
       id="linearGradient318"
       x1="447.45212"
       y1="202.27814"
       x2="455.86963"
       y2="202.27814"
       gradientUnits="userSpaceOnUse" /><linearGradient
       xlink:href="#linearGradient89"
       id="linearGradient629"
       x1="450.02914"
       y1="201.69266"
       x2="453.35587"
       y2="201.69266"
       gradientUnits="userSpaceOnUse" /></defs><g
     id="g456"
     transform="translate(-127.00008,-38.099941)"
     style="display:inline"><g
       id="g335"
       style="display:inline;paint-order:fill markers stroke"
       transform="matrix(1.1870466,0,0,1.1870466,-404.14642,-196.62076)"><path
         id="rect335"
         style="opacity:1;fill:url(#radialGradient456);stroke:url(#linearGradient318);stroke-width:1.00301;stroke-linecap:round;stroke-linejoin:round;stroke-miterlimit:0"
         d="m 449.06807,198.23654 h 5.18559 c 0.61741,0 1.11446,0.49705 1.11446,1.11446 v 5.85426 c 0,0.61741 -0.49705,1.11446 -1.11446,1.11446 h -5.18559 c -0.61741,0 -1.11446,-0.49705 -1.11446,-1.11446 V 199.351 c 0,-0.61741 0.49705,-1.11446 1.11446,-1.11446 z" /><path
         d="m 452.42022,203.57298 -0.4068,-0.54692 q -0.1808,0.0362 -0.35256,0.0362 -0.44748,0 -0.82265,-0.20792 -0.37064,-0.20792 -0.59212,-0.57856 -0.21696,-0.37517 -0.21696,-0.84073 0,-0.46556 0.21696,-0.8362 0.22148,-0.37064 0.59212,-0.57856 0.37517,-0.20793 0.82265,-0.20793 0.44748,0 0.81812,0.20793 0.37516,0.20792 0.5876,0.57856 0.21697,0.37064 0.21697,0.8362 0,0.4068 -0.16725,0.7458 -0.16272,0.33449 -0.45652,0.55597 l 0.69609,0.8362 z m -1.60009,-2.13797 q 0,0.42036 0.22601,0.67348 0.23052,0.24861 0.61472,0.24861 0.37968,0 0.60568,-0.25313 0.23052,-0.25312 0.23052,-0.66896 0,-0.42036 -0.23052,-0.66896 -0.226,-0.25312 -0.60568,-0.25312 -0.3842,0 -0.61472,0.2486 -0.22601,0.2486 -0.22601,0.67348 z"
         id="text335"
         style="font-weight:bold;font-size:4.52002px;font-family:Poppins;-inkscape-font-specification:'Poppins Bold';text-align:center;letter-spacing:0.100131px;text-anchor:middle;fill:url(#linearGradient629);stroke-width:1.99061;stroke-linecap:round;stroke-linejoin:round;stroke-dasharray:3.98122, 1.99061"
         aria-label="Q" /></g></g></svg>
