<?xml version="1.0" encoding="UTF-8" standalone="no"?>
<!-- Created with Inkscape (http://www.inkscape.org/) -->

<svg
   width="37.764996"
   height="40.764969"
   viewBox="0 0 9.9919884 10.785731"
   version="1.1"
   id="svg1"
   xml:space="preserve"
   xmlns:xlink="http://www.w3.org/1999/xlink"
   xmlns="http://www.w3.org/2000/svg"
   xmlns:svg="http://www.w3.org/2000/svg"><defs
     id="defs1"><linearGradient
       id="linearGradient89"><stop
         style="stop-color:#434a5f;stop-opacity:1;"
         offset="1"
         id="stop89" /><stop
         style="stop-color:#434a5f;stop-opacity:1;"
         offset="1"
         id="stop90" /></linearGradient><linearGradient
       id="linearGradient1-1"><stop
         style="stop-color:#434a5f;stop-opacity:1;"
         offset="1"
         id="stop3" /><stop
         style="stop-color:#434a5f;stop-opacity:1;"
         offset="1"
         id="stop4" /></linearGradient><linearGradient
       id="linearGradient568"><stop
         style="stop-color:#6d7592;stop-opacity:1;"
         offset="0.18130387"
         id="stop565" /><stop
         style="stop-color:#a7adbe;stop-opacity:1;"
         offset="0.18130387"
         id="stop566" /><stop
         style="stop-color:#a8acbd;stop-opacity:1;"
         offset="0.2008221"
         id="stop567" /><stop
         style="stop-color:#8a90a8;stop-opacity:1;"
         offset="0.2008221"
         id="stop568" /></linearGradient><radialGradient
       xlink:href="#linearGradient568"
       id="radialGradient518"
       gradientUnits="userSpaceOnUse"
       gradientTransform="matrix(7.5298137,0,0,1.8808423,-2838.8354,-141.40109)"
       cx="452.62515"
       cy="196.25169"
       fx="452.62515"
       fy="196.25169"
       r="4.2087579" /><linearGradient
       xlink:href="#linearGradient1-1"
       id="linearGradient291"
       x1="565.13904"
       y1="223.67578"
       x2="573.55658"
       y2="223.67578"
       gradientUnits="userSpaceOnUse" /><linearGradient
       xlink:href="#linearGradient89"
       id="linearGradient973"
       x1="568.25787"
       y1="222.77164"
       x2="570.40552"
       y2="222.77164"
       gradientUnits="userSpaceOnUse" /></defs><g
     id="g456"
     transform="translate(-317.50006,-50.799959)"
     style="display:inline"><g
       id="g400"
       style="display:inline;paint-order:fill markers stroke"
       transform="matrix(1.1870466,0,0,1.1870466,-353.34633,-209.32075)"><path
         id="rect400"
         style="opacity:1;fill:url(#radialGradient518);stroke:url(#linearGradient291);stroke-width:1.00301;stroke-linecap:round;stroke-linejoin:round;stroke-miterlimit:0"
         d="m 566.75502,219.63419 h 5.18559 c 0.61741,0 1.11446,0.49705 1.11446,1.11446 v 5.85426 c 0,0.61741 -0.49705,1.11446 -1.11446,1.11446 h -5.18559 c -0.61741,0 -1.11446,-0.49705 -1.11446,-1.11446 v -5.85426 c 0,-0.61741 0.49705,-1.11446 1.11446,-1.11446 z" /><path
         d="m 569.3388,221.07889 q 0.48364,0 0.77292,0.25312 0.2938,0.25312 0.2938,0.71416 0,0.42488 -0.28024,0.66445 -0.27572,0.23504 -0.73224,0.23956 l -0.0226,0.339 h -0.678 l -0.0226,-0.84073 h 0.2712 q 0.34804,0 0.52884,-0.0859 0.18532,-0.0859 0.18532,-0.31188 0,-0.1582 -0.0859,-0.2486 -0.0859,-0.0904 -0.23956,-0.0904 -0.16272,0 -0.25312,0.0949 -0.0904,0.0904 -0.0904,0.2486 h -0.72773 q -0.009,-0.27572 0.113,-0.4972 0.12657,-0.22148 0.37065,-0.34804 0.2486,-0.13108 0.59664,-0.13108 z m -0.29832,3.38549 q -0.2034,0 -0.33448,-0.11752 -0.12656,-0.12204 -0.12656,-0.29832 0,-0.1808 0.12656,-0.30284 0.13108,-0.12204 0.33448,-0.12204 0.19888,0 0.32544,0.12204 0.13108,0.12204 0.13108,0.30284 0,0.17628 -0.13108,0.29832 -0.12656,0.11752 -0.32544,0.11752 z"
         id="text400"
         style="font-weight:bold;font-size:4.52002px;font-family:Poppins;-inkscape-font-specification:'Poppins Bold';text-align:center;letter-spacing:0.100131px;text-anchor:middle;fill:url(#linearGradient973);stroke-width:1.99061;stroke-linecap:round;stroke-linejoin:round;stroke-dasharray:3.98122, 1.99061"
         aria-label="?" /></g></g></svg>
