<?xml version="1.0" encoding="UTF-8" standalone="no"?>
<!-- Created with Inkscape (http://www.inkscape.org/) -->

<svg
   width="37.76495"
   height="40.764969"
   viewBox="0 0 9.9919763 10.785731"
   version="1.1"
   id="svg1"
   xml:space="preserve"
   xmlns:xlink="http://www.w3.org/1999/xlink"
   xmlns="http://www.w3.org/2000/svg"
   xmlns:svg="http://www.w3.org/2000/svg"><defs
     id="defs1"><linearGradient
       id="linearGradient89"><stop
         style="stop-color:#434a5f;stop-opacity:1;"
         offset="1"
         id="stop89" /><stop
         style="stop-color:#434a5f;stop-opacity:1;"
         offset="1"
         id="stop90" /></linearGradient><linearGradient
       id="linearGradient1-1"><stop
         style="stop-color:#434a5f;stop-opacity:1;"
         offset="1"
         id="stop3" /><stop
         style="stop-color:#434a5f;stop-opacity:1;"
         offset="1"
         id="stop4" /></linearGradient><linearGradient
       id="linearGradient568"><stop
         style="stop-color:#6d7592;stop-opacity:1;"
         offset="0.18130387"
         id="stop565" /><stop
         style="stop-color:#a7adbe;stop-opacity:1;"
         offset="0.18130387"
         id="stop566" /><stop
         style="stop-color:#a8acbd;stop-opacity:1;"
         offset="0.2008221"
         id="stop567" /><stop
         style="stop-color:#8a90a8;stop-opacity:1;"
         offset="0.2008221"
         id="stop568" /></linearGradient><radialGradient
       xlink:href="#linearGradient568"
       id="radialGradient459"
       gradientUnits="userSpaceOnUse"
       gradientTransform="matrix(7.5298137,0,0,1.8808423,-2924.4259,-162.79875)"
       cx="452.62515"
       cy="196.25169"
       fx="452.62515"
       fy="196.25169"
       r="4.2087579" /><linearGradient
       xlink:href="#linearGradient1-1"
       id="linearGradient313"
       x1="479.54855"
       y1="202.27814"
       x2="487.96606"
       y2="202.27814"
       gradientUnits="userSpaceOnUse" /><linearGradient
       xlink:href="#linearGradient89"
       id="linearGradient631"
       x1="482.564"
       y1="201.44405"
       x2="485.05453"
       y2="201.44405"
       gradientUnits="userSpaceOnUse" /></defs><g
     id="g456"
     transform="translate(-165.10005,-38.099941)"
     style="display:inline"><g
       id="g338"
       style="display:inline;paint-order:fill markers stroke"
       transform="matrix(1.1870466,0,0,1.1870466,-404.14642,-196.62076)"><path
         id="rect338"
         style="opacity:1;fill:url(#radialGradient459);stroke:url(#linearGradient313);stroke-width:1.00301;stroke-linecap:round;stroke-linejoin:round;stroke-miterlimit:0"
         d="m 481.16451,198.23654 h 5.18558 c 0.61742,0 1.11446,0.49705 1.11446,1.11446 v 5.85426 c 0,0.61741 -0.49704,1.11446 -1.11446,1.11446 h -5.18558 c -0.61741,0 -1.11446,-0.49705 -1.11446,-1.11446 V 199.351 c 0,-0.61741 0.49705,-1.11446 1.11446,-1.11446 z" /><path
         d="m 484.18217,203.03058 -0.65992,-1.19781 h -0.18532 v 1.19781 h -0.77292 v -3.17306 h 1.29724 q 0.37516,0 0.63733,0.13109 0.26668,0.13108 0.39776,0.3616 0.13108,0.226 0.13108,0.50624 0,0.3164 -0.1808,0.565 -0.17628,0.2486 -0.52432,0.35256 l 0.73224,1.25657 z m -0.84524,-1.74473 h 0.47912 q 0.21244,0 0.3164,-0.10396 0.10848,-0.10396 0.10848,-0.2938 0,-0.1808 -0.10848,-0.28476 -0.10396,-0.10396 -0.3164,-0.10396 h -0.47912 z"
         id="text338"
         style="font-weight:bold;font-size:4.52002px;font-family:Poppins;-inkscape-font-specification:'Poppins Bold';text-align:center;letter-spacing:0.100131px;text-anchor:middle;fill:url(#linearGradient631);stroke-width:1.99061;stroke-linecap:round;stroke-linejoin:round;stroke-dasharray:3.98122, 1.99061"
         aria-label="R" /></g></g></svg>
