<?xml version="1.0" encoding="UTF-8" standalone="no"?>
<!-- Created with Inkscape (http://www.inkscape.org/) -->

<svg
   width="37.764977"
   height="40.764977"
   viewBox="0 0 9.9919834 10.785733"
   version="1.1"
   id="svg1"
   xml:space="preserve"
   xmlns:xlink="http://www.w3.org/1999/xlink"
   xmlns="http://www.w3.org/2000/svg"
   xmlns:svg="http://www.w3.org/2000/svg"><defs
     id="defs1"><linearGradient
       id="linearGradient1"><stop
         style="stop-color:#434a5f;stop-opacity:1;"
         offset="1"
         id="stop111" /><stop
         style="stop-color:#434a5f;stop-opacity:1;"
         offset="1"
         id="stop112" /></linearGradient><linearGradient
       id="linearGradient103"><stop
         style="stop-color:#434a5f;stop-opacity:1;"
         offset="1"
         id="stop103" /><stop
         style="stop-color:#434a5f;stop-opacity:1;"
         offset="1"
         id="stop104" /></linearGradient><linearGradient
       id="linearGradient7"><stop
         style="stop-color:#b8b8b8;stop-opacity:1;"
         offset="0.16548869"
         id="stop14" /><stop
         style="stop-color:#ffffff;stop-opacity:1;"
         offset="0.16548869"
         id="stop16" /><stop
         style="stop-color:#ffffff;stop-opacity:1;"
         offset="0.2089889"
         id="stop15" /><stop
         style="stop-color:#e5e5e5;stop-opacity:1;"
         offset="0.2089889"
         id="stop7" /></linearGradient><linearGradient
       xlink:href="#linearGradient7"
       id="linearGradient176"
       gradientUnits="userSpaceOnUse"
       gradientTransform="matrix(1.1871923,0,0,1.1870466,-315.31179,-196.6207)"
       x1="454.61255"
       y1="238.41618"
       x2="454.61255"
       y2="230.33301" /><radialGradient
       xlink:href="#linearGradient7"
       id="radialGradient285"
       gradientUnits="userSpaceOnUse"
       gradientTransform="matrix(7.5298137,0,0,1.8808423,-2860.233,-152.09992)"
       cx="452.62515"
       cy="196.25169"
       fx="452.62515"
       fy="196.25169"
       r="4.2087579" /><linearGradient
       xlink:href="#linearGradient1"
       id="linearGradient87"
       x1="215.89999"
       y1="81.592857"
       x2="241.3"
       y2="81.592857"
       gradientUnits="userSpaceOnUse" /><linearGradient
       xlink:href="#linearGradient1"
       id="linearGradient88"
       x1="543.74146"
       y1="212.97694"
       x2="552.159"
       y2="212.97694"
       gradientUnits="userSpaceOnUse" /><linearGradient
       xlink:href="#linearGradient103"
       id="linearGradient774"
       x1="449.55756"
       y1="244.67352"
       x2="463.98984"
       y2="244.67352"
       gradientUnits="userSpaceOnUse" /><linearGradient
       xlink:href="#linearGradient103"
       id="linearGradient886"
       x1="546.19586"
       y1="212.53119"
       x2="549.70465"
       y2="212.53119"
       gradientUnits="userSpaceOnUse" /></defs><g
     id="layer2"
     transform="translate(-254.00007,-76.199943)"
     style="display:inline"><g
       id="g176"
       transform="translate(12.700072,-5.2328735e-5)"><path
         id="path176"
         style="display:inline;opacity:1;fill:url(#linearGradient176);stroke:url(#linearGradient87);stroke-width:1.19062;stroke-linecap:round;stroke-linejoin:round;stroke-miterlimit:0;paint-order:fill markers stroke"
         d="m 217.81838,76.795304 h 21.56323 c 0.73298,0 1.32308,0.590022 1.32308,1.322916 v 6.949268 c 0,0.732906 -0.5901,1.322928 -1.32308,1.322928 h -21.56323 c -0.73298,0 -1.32307,-0.590022 -1.32307,-1.322928 V 78.11822 c 0,-0.732894 0.59009,-1.322916 1.32307,-1.322916 z" /><path
         style="font-weight:bold;font-size:3.26908px;font-family:Poppins;-inkscape-font-specification:'Poppins Bold';letter-spacing:0.100131px;fill:url(#linearGradient774);stroke-width:1.99061;stroke-linecap:round;stroke-linejoin:round;stroke-dasharray:3.98122, 1.99061;paint-order:fill markers stroke"
         d="m 451.30653,244.26978 q 0,0.19942 -0.0915,0.36614 -0.0915,0.16346 -0.28115,0.2648 -0.1896,0.10134 -0.47074,0.10134 h -0.34653 v 0.82381 h -0.55901 v -2.2949 h 0.90554 q 0.2746,0 0.46421,0.0948 0.1896,0.0948 0.28441,0.26152 0.0948,0.16673 0.0948,0.38248 z m -0.88592,0.28768 q 0.16018,0 0.23864,-0.0752 0.0785,-0.0752 0.0785,-0.21249 0,-0.1373 -0.0785,-0.21249 -0.0785,-0.0752 -0.23864,-0.0752 h -0.30403 v 0.57535 z m 2.70559,0.86304 h -0.8565 l -0.1373,0.40537 h -0.58517 l 0.83035,-2.2949 h 0.64728 l 0.83034,2.2949 h -0.5917 z m -0.14384,-0.43152 -0.28441,-0.84015 -0.28114,0.84015 z m 2.74808,-0.73227 q -0.0621,-0.11442 -0.1798,-0.17326 -0.11441,-0.0621 -0.27133,-0.0621 -0.27133,0 -0.43479,0.1798 -0.16345,0.17653 -0.16345,0.47402 0,0.3171 0.16999,0.4969 0.17326,0.17653 0.47402,0.17653 0.20595,0 0.34652,-0.10461 0.14384,-0.10461 0.20922,-0.30075 h -0.70939 v -0.41191 h 1.2161 v 0.51978 q -0.0621,0.20923 -0.21249,0.38903 -0.14711,0.17979 -0.37595,0.29094 -0.22883,0.11115 -0.51651,0.11115 -0.33999,0 -0.60805,-0.14711 -0.2648,-0.15037 -0.41517,-0.41517 -0.14711,-0.2648 -0.14711,-0.60478 0,-0.33998 0.14711,-0.60478 0.15037,-0.26806 0.41517,-0.41517 0.2648,-0.15038 0.60478,-0.15038 0.4119,0 0.69304,0.19941 0.28441,0.19942 0.37595,0.55248 z m 1.62679,-0.27787 v 0.46421 h 0.74862 v 0.43151 h -0.74862 v 0.50344 h 0.84669 v 0.44787 h -1.4057 v -2.2949 h 1.4057 v 0.44787 z m 2.96264,-0.44787 q 0.36286,0 0.6342,0.14384 0.27133,0.14384 0.41844,0.40537 0.15038,0.25826 0.15038,0.59824 0,0.33671 -0.15038,0.59824 -0.14711,0.26153 -0.42171,0.40537 -0.27133,0.14384 -0.63093,0.14384 h -0.85977 v -2.2949 z m -0.036,1.81107 q 0.3171,0 0.49363,-0.17326 0.17653,-0.17326 0.17653,-0.49036 0,-0.3171 -0.17653,-0.49363 -0.17653,-0.17653 -0.49363,-0.17653 h -0.2648 v 1.33378 z m 3.70592,0.48383 h -0.55901 l -0.93496,-1.41551 v 1.41551 h -0.55901 v -2.2949 h 0.55901 l 0.93496,1.42205 v -1.42205 h 0.55901 z"
         id="text176"
         transform="matrix(1.1870466,0,0,1.1870466,-315.24649,-209.32071)"
         aria-label="PAGE DN" /></g><g
       id="g283"
       style="display:inline;paint-order:fill markers stroke"
       transform="matrix(1.1870466,0,0,1.1870466,-391.4464,-171.22076)"><rect
         style="opacity:1;fill:url(#radialGradient285);fill-opacity:1;stroke:url(#linearGradient88);stroke-width:1.00301;stroke-linecap:round;stroke-linejoin:round;stroke-miterlimit:0;stroke-dasharray:none;stroke-opacity:1;paint-order:fill markers stroke"
         id="rect282"
         width="7.414506"
         height="8.0831823"
         x="544.24298"
         y="208.93536"
         rx="1.1144606"
         ry="1.1144606" /><circle
         style="fill:url(#linearGradient886);fill-opacity:1;stroke-width:1.43213;stroke-linecap:round;stroke-linejoin:round;stroke-miterlimit:0;paint-order:fill markers stroke"
         id="path287"
         cx="547.95026"
         cy="212.53119"
         r="1.7544092" /></g></g></svg>
