<?xml version="1.0" encoding="UTF-8" standalone="no"?>
<!-- Created with Inkscape (http://www.inkscape.org/) -->

<svg
   width="31.693195"
   height="31.929348"
   viewBox="0 0 8.3854913 8.4479733"
   version="1.1"
   id="svg1"
   xml:space="preserve"
   xmlns:xlink="http://www.w3.org/1999/xlink"
   xmlns="http://www.w3.org/2000/svg"
   xmlns:svg="http://www.w3.org/2000/svg"><defs
     id="defs1"><linearGradient
       id="linearGradient1"><stop
         style="stop-color:#434a5f;stop-opacity:1;"
         offset="1"
         id="stop111" /><stop
         style="stop-color:#434a5f;stop-opacity:1;"
         offset="1"
         id="stop112" /></linearGradient><linearGradient
       id="linearGradient103"><stop
         style="stop-color:#434a5f;stop-opacity:1;"
         offset="1"
         id="stop103" /><stop
         style="stop-color:#434a5f;stop-opacity:1;"
         offset="1"
         id="stop104" /></linearGradient><linearGradient
       id="linearGradient301"><stop
         style="stop-color:#ffffff;stop-opacity:1;"
         offset="0.68779135"
         id="stop300" /><stop
         style="stop-color:#b2b2b2;stop-opacity:1;"
         offset="0.68779135"
         id="stop301" /></linearGradient><radialGradient
       xlink:href="#linearGradient301"
       id="radialGradient283"
       gradientUnits="userSpaceOnUse"
       gradientTransform="matrix(1.3062652,0,0,1.1740965,-108.88531,-22.505786)"
       cx="387.76566"
       cy="184.43718"
       fx="387.76566"
       fy="184.43718"
       r="3.7980435" /><linearGradient
       xlink:href="#linearGradient1"
       id="linearGradient447"
       x1="393.46164"
       y1="194.79788"
       x2="401.81735"
       y2="194.79788"
       gradientUnits="userSpaceOnUse" /><linearGradient
       xlink:href="#linearGradient1"
       id="linearGradient459"
       x1="395.69595"
       y1="197.817"
       x2="399.58304"
       y2="197.817"
       gradientUnits="userSpaceOnUse" /><linearGradient
       xlink:href="#linearGradient103"
       id="linearGradient921"
       x1="396.67734"
       y1="194.7979"
       x2="398.53754"
       y2="194.7979"
       gradientUnits="userSpaceOnUse" /></defs><g
     id="layer6"
     style="display:inline"
     transform="translate(-137.72838,-80.845471)"><g
       id="g276"
       transform="matrix(0.90494969,0.52247295,-0.52247295,0.90494969,-116.14599,-299.38218)"
       style="display:inline;stroke-width:0.999961;stroke-dasharray:none;paint-order:fill markers stroke"><path
         id="path275"
         style="fill:#8a90a8;fill-opacity:1;stroke:url(#linearGradient459);stroke-width:0.759609;stroke-linecap:round;stroke-linejoin:round;stroke-miterlimit:0;stroke-dasharray:none"
         d="m 396.07574,196.58491 h 3.1275 c 0,0 0,1.29309 0,1.68231 0,1.0425 -3.1275,1.0425 -3.1275,0 0,-0.57456 0,-1.68231 0,-1.68231 z" /><ellipse
         style="fill:url(#radialGradient283);stroke:url(#linearGradient447);stroke-width:0.759609;stroke-linecap:round;stroke-linejoin:round;stroke-miterlimit:0;stroke-dasharray:none;stroke-opacity:1;paint-order:normal"
         id="ellipse275"
         cx="397.6395"
         cy="194.79788"
         rx="3.7980435"
         ry="3.0697258" /><path
         d="m 397.88595,195.98288 -0.4929,-0.89465 h -0.13842 v 0.89465 h -0.5773 v -2.36998 h 0.96892 q 0.28021,0 0.47602,0.0979 0.19919,0.0979 0.29709,0.27009 0.0979,0.1688 0.0979,0.37811 0,0.23633 -0.13504,0.42201 -0.13167,0.18568 -0.39162,0.26333 l 0.54692,0.93854 z m -0.63132,-1.30315 h 0.35786 q 0.15868,0 0.23632,-0.0777 0.081,-0.0777 0.081,-0.21944 0,-0.13504 -0.081,-0.21269 -0.0776,-0.0777 -0.23632,-0.0777 h -0.35786 z"
         id="text276"
         style="font-weight:bold;font-size:3.37604px;line-height:1.1;font-family:Poppins;-inkscape-font-specification:'Poppins Bold';text-align:center;letter-spacing:0.126602px;text-anchor:middle;fill:url(#linearGradient921);stroke-width:0.759609;stroke-linecap:round;stroke-linejoin:round;stroke-miterlimit:0;paint-order:stroke fill markers"
         aria-label="R" /></g></g></svg>
