<?xml version="1.0" encoding="UTF-8" standalone="no"?>
<!-- Created with Inkscape (http://www.inkscape.org/) -->

<svg
   width="33.000011"
   height="31.913315"
   viewBox="0 0 8.731253 8.4437312"
   version="1.1"
   id="svg1"
   xml:space="preserve"
   xmlns:xlink="http://www.w3.org/1999/xlink"
   xmlns="http://www.w3.org/2000/svg"
   xmlns:svg="http://www.w3.org/2000/svg"><defs
     id="defs1"><linearGradient
       id="linearGradient1"><stop
         style="stop-color:#434a5f;stop-opacity:1;"
         offset="1"
         id="stop111" /><stop
         style="stop-color:#434a5f;stop-opacity:1;"
         offset="1"
         id="stop112" /></linearGradient><linearGradient
       id="linearGradient103"><stop
         style="stop-color:#434a5f;stop-opacity:1;"
         offset="1"
         id="stop103" /><stop
         style="stop-color:#434a5f;stop-opacity:1;"
         offset="1"
         id="stop104" /></linearGradient><linearGradient
       id="linearGradient301"><stop
         style="stop-color:#ffffff;stop-opacity:1;"
         offset="0.68779135"
         id="stop300" /><stop
         style="stop-color:#b2b2b2;stop-opacity:1;"
         offset="0.68779135"
         id="stop301" /></linearGradient><radialGradient
       xlink:href="#linearGradient301"
       id="radialGradient284"
       gradientUnits="userSpaceOnUse"
       gradientTransform="matrix(1.3062652,0,0,1.1740965,-108.88531,-412.10155)"
       cx="387.76483"
       cy="185.85812"
       fx="387.76483"
       fy="185.85812"
       r="3.7980435" /><linearGradient
       xlink:href="#linearGradient1"
       id="linearGradient460"
       x1="393.46164"
       y1="-194.79788"
       x2="401.81735"
       y2="-194.79788"
       gradientUnits="userSpaceOnUse" /><linearGradient
       xlink:href="#linearGradient1"
       id="linearGradient461"
       x1="395.69595"
       y1="197.817"
       x2="399.58304"
       y2="197.817"
       gradientUnits="userSpaceOnUse" /><linearGradient
       xlink:href="#linearGradient103"
       id="linearGradient922"
       x1="396.67734"
       y1="-194.79787"
       x2="398.53754"
       y2="-194.79787"
       gradientUnits="userSpaceOnUse" /></defs><g
     id="layer6"
     style="display:inline"
     transform="translate(-148.03437,-80.456259)"><g
       id="g275"
       transform="matrix(1.0449459,0,0,-1.0449459,-263.11176,288.84867)"
       style="display:inline;stroke-width:0.999961;stroke-dasharray:none;paint-order:fill markers stroke"><path
         id="path274"
         style="fill:#8a90a8;fill-opacity:1;stroke:url(#linearGradient461);stroke-width:0.759609;stroke-linecap:round;stroke-linejoin:round;stroke-miterlimit:0;stroke-dasharray:none"
         d="m 396.07574,196.58491 h 3.1275 c 0,0 0,1.29309 0,1.68231 0,1.0425 -3.1275,1.0425 -3.1275,0 0,-0.57456 0,-1.68231 0,-1.68231 z" /><path
         id="ellipse274"
         style="fill:url(#radialGradient284);stroke:url(#linearGradient460);stroke-width:0.759609;stroke-linecap:round;stroke-linejoin:round;stroke-miterlimit:0;paint-order:normal"
         transform="scale(1,-1)"
         d="m 401.43754,-194.79788 a 3.7980435,3.0697258 0 0 1 -3.79804,3.06972 3.7980435,3.0697258 0 0 1 -3.79805,-3.06972 3.7980435,3.0697258 0 0 1 3.79805,-3.06973 3.7980435,3.0697258 0 0 1 3.79804,3.06973 z" /><path
         d="m 397.88595,-193.61288 -0.4929,-0.89466 h -0.13842 v 0.89466 h -0.5773 v -2.36998 h 0.96892 q 0.28021,0 0.47602,0.0979 0.19919,0.0979 0.29709,0.27008 0.0979,0.16881 0.0979,0.37812 0,0.23632 -0.13504,0.42201 -0.13167,0.18568 -0.39162,0.26333 l 0.54692,0.93854 z m -0.63132,-1.30316 h 0.35786 q 0.15868,0 0.23632,-0.0776 0.081,-0.0776 0.081,-0.21945 0,-0.13504 -0.081,-0.21269 -0.0776,-0.0777 -0.23632,-0.0777 h -0.35786 z"
         id="text275"
         style="font-weight:bold;font-size:3.37604px;line-height:1.1;font-family:Poppins;-inkscape-font-specification:'Poppins Bold';text-align:center;letter-spacing:0.126602px;text-anchor:middle;fill:url(#linearGradient922);stroke-width:0.759609;stroke-linecap:round;stroke-linejoin:round;stroke-miterlimit:0;paint-order:stroke fill markers"
         transform="scale(1,-1)"
         aria-label="R" /></g></g></svg>
