<?xml version="1.0" encoding="UTF-8" standalone="no"?>
<!-- Created with Inkscape (http://www.inkscape.org/) -->

<svg
   width="33.000011"
   height="42.045231"
   viewBox="0 0 8.731253 11.124467"
   version="1.1"
   id="svg1"
   xml:space="preserve"
   xmlns:xlink="http://www.w3.org/1999/xlink"
   xmlns="http://www.w3.org/2000/svg"
   xmlns:svg="http://www.w3.org/2000/svg"><defs
     id="defs1"><linearGradient
       id="linearGradient89"><stop
         style="stop-color:#434a5f;stop-opacity:1;"
         offset="1"
         id="stop89" /><stop
         style="stop-color:#434a5f;stop-opacity:1;"
         offset="1"
         id="stop90" /></linearGradient><linearGradient
       id="linearGradient1-1"><stop
         style="stop-color:#434a5f;stop-opacity:1;"
         offset="1"
         id="stop3" /><stop
         style="stop-color:#434a5f;stop-opacity:1;"
         offset="1"
         id="stop4" /></linearGradient><linearGradient
       id="linearGradient2"><stop
         style="stop-color:#8a90a8;stop-opacity:1"
         offset="0.68779135"
         id="stop39" /><stop
         style="stop-color:#636883;stop-opacity:1;"
         offset="0.68779135"
         id="stop40" /></linearGradient><radialGradient
       xlink:href="#linearGradient2"
       id="radialGradient323"
       gradientUnits="userSpaceOnUse"
       gradientTransform="matrix(1.3062652,0,0,1.1740965,-108.88531,-22.505786)"
       cx="387.76566"
       cy="184.43718"
       fx="387.76566"
       fy="184.43718"
       r="3.7980435" /><linearGradient
       xlink:href="#linearGradient1-1"
       id="linearGradient544"
       x1="394.9949"
       y1="191.34332"
       x2="400.28406"
       y2="191.34332"
       gradientUnits="userSpaceOnUse" /><linearGradient
       xlink:href="#linearGradient1-1"
       id="linearGradient545"
       x1="393.46164"
       y1="194.79788"
       x2="401.81735"
       y2="194.79788"
       gradientUnits="userSpaceOnUse" /><linearGradient
       xlink:href="#linearGradient1-1"
       id="linearGradient546"
       x1="395.69595"
       y1="197.817"
       x2="399.58304"
       y2="197.817"
       gradientUnits="userSpaceOnUse" /><linearGradient
       xlink:href="#linearGradient89"
       id="linearGradient617"
       x1="396.80075"
       y1="195.39993"
       x2="398.66095"
       y2="195.39993"
       gradientUnits="userSpaceOnUse" /></defs><g
     id="g323"
     style="display:inline"
     transform="translate(-173.43437,-78.172403)"><g
       id="g289"
       transform="matrix(1.0449459,0,0,1.0449459,-237.71176,-119.09554)"
       style="display:inline;stroke-width:0.999961;stroke-dasharray:none;paint-order:fill markers stroke"><path
         id="path288"
         style="fill:#8a90a8;fill-opacity:1;stroke:url(#linearGradient546);stroke-width:0.759609;stroke-linecap:round;stroke-linejoin:round;stroke-miterlimit:0;stroke-dasharray:none"
         d="m 396.07574,196.58491 h 3.1275 c 0,0 0,1.29309 0,1.68231 0,1.0425 -3.1275,1.0425 -3.1275,0 0,-0.57456 0,-1.68231 0,-1.68231 z" /><path
         id="ellipse288"
         style="fill:url(#radialGradient323);stroke:url(#linearGradient545);stroke-width:0.759609;stroke-linecap:round;stroke-linejoin:round;stroke-miterlimit:0;paint-order:normal"
         d="m 401.43754,194.79788 a 3.7980435,3.0697258 0 0 1 -3.79804,3.06973 3.7980435,3.0697258 0 0 1 -3.79805,-3.06973 3.7980435,3.0697258 0 0 1 3.79805,-3.06972 3.7980435,3.0697258 0 0 1 3.79804,3.06972 z" /><path
         d="m 398.00936,196.58492 -0.4929,-0.89466 h -0.13842 v 0.89466 h -0.5773 v -2.36998 h 0.96892 q 0.28022,0 0.47603,0.0979 0.19918,0.0979 0.29709,0.27008 0.0979,0.16881 0.0979,0.37812 0,0.23632 -0.13504,0.422 -0.13166,0.18569 -0.39162,0.26334 l 0.54692,0.93854 z m -0.63132,-1.30316 h 0.35786 q 0.15868,0 0.23633,-0.0777 0.081,-0.0776 0.081,-0.21944 0,-0.13504 -0.081,-0.21269 -0.0777,-0.0777 -0.23633,-0.0777 h -0.35786 z"
         id="text288"
         style="font-weight:bold;font-size:3.37604px;line-height:1.1;font-family:Poppins;-inkscape-font-specification:'Poppins Bold';text-align:center;letter-spacing:0.126602px;text-anchor:middle;fill:url(#linearGradient617);stroke-width:0.759609;stroke-linecap:round;stroke-linejoin:round;stroke-miterlimit:0;paint-order:stroke fill markers"
         aria-label="R" /><path
         id="path289"
         style="fill:#23c3f6;stroke:url(#linearGradient544);stroke-width:1.21537;stroke-linecap:round;stroke-linejoin:round;stroke-miterlimit:0;stroke-dasharray:none;stroke-opacity:1;paint-order:stroke fill markers"
         d="m 397.63949,193.29608 2.03698,-2.10191 h -0.88119 v -1.80356 h -2.31158 v 1.80356 h -0.88119 z" /></g></g></svg>
