<?xml version="1.0" encoding="UTF-8" standalone="no"?>
<!-- Created with Inkscape (http://www.inkscape.org/) -->

<svg
   width="35.601501"
   height="42.665672"
   viewBox="0 0 9.4195639 11.288626"
   version="1.1"
   id="svg1"
   xml:space="preserve"
   xmlns="http://www.w3.org/2000/svg"
   xmlns:svg="http://www.w3.org/2000/svg"><defs
     id="defs1" /><g
     id="g584"
     style="display:inline"
     transform="translate(-1.6251824e-8,-215.9)"><g
       id="g484"
       transform="matrix(1.017668,0,0,1.017668,-2.2851735,-158.45059)"
       style="display:inline"><path
         style="display:inline;fill:#feb21b;fill-opacity:1;stroke:#434a5f;stroke-width:1.54091;stroke-linecap:round;stroke-linejoin:round;stroke-miterlimit:2.66;stroke-dasharray:none;stroke-opacity:1;paint-order:stroke fill markers"
         d="m 9.1358888,375.04619 0.845091,0.82415 -0.497437,2e-5 v 0 0 c -1e-6,1.54184 -1.375174,2.30739 -2.684137,2.30302 -0.65448,-0.001 -1.242751,-0.19739 -1.733611,-0.58481 -0.490862,-0.38743 -0.818102,-0.96707 -0.818103,-1.73816 h 0.144433 0.144433 0.144433 0.144433 c -0.008,0.60065 0.238825,1.05493 0.613423,1.36031 0.374599,0.30537 0.876966,0.46185 1.380029,0.46689 1.006126,0.0102 2.015036,-0.58558 2.010157,-1.80725 v 0 0 h -0.538777 z"
         id="path468" /><g
         id="g480"
         style="display:inline"
         transform="matrix(1.4559793,0,0,1.4559793,-239.18116,-80.773161)"><path
           style="fill:#8a90a8;stroke-linecap:round;stroke-linejoin:round;stroke-miterlimit:2.66;paint-order:stroke fill markers"
           d="m 166.94843,311.09594 c -0.15126,0.15229 -0.24061,0.35121 -0.32601,0.64399 -0.1003,0.34386 -0.20864,0.91356 -0.26376,1.33616 -0.0551,0.4226 0.0577,0.73792 0.27889,0.94542 0.22115,0.20749 0.4542,0.17271 0.5526,6.8e-4 l 0.51632,-0.90076 c 0.13633,-0.23779 0.38948,-0.38444 0.66358,-0.38444 h 0.62615 0.62651 c 0.2741,0 0.52725,0.14665 0.66358,0.38444 l 0.51632,0.90076 c 0.0984,0.17179 0.33145,0.20658 0.5526,-6.8e-4 0.22115,-0.2075 0.33402,-0.52282 0.27889,-0.94542 -0.0551,-0.4226 -0.16346,-0.9923 -0.26376,-1.33616 -0.0854,-0.29278 -0.16015,-0.50774 -0.32601,-0.64399 -0.40798,-0.33513 -0.85421,-0.33354 -1.97758,-0.33513 -1.12338,-0.002 -1.78546,0 -2.11832,0.33513 z"
           id="path469" /><path
           style="display:inline;fill:#636883;fill-opacity:1;stroke:none;stroke-width:1.05833;stroke-linecap:round;stroke-linejoin:round;stroke-miterlimit:2.66;stroke-dasharray:none;stroke-opacity:1;paint-order:stroke fill markers"
           d="m 166.62242,311.73994 1.25672,1.17539 -0.68899,1.10685 -0.205,0.33589 -0.83509,-0.55399 0.21498,-1.61229 z"
           id="path470" /><path
           style="display:inline;fill:#636883;fill-opacity:1;stroke:none;stroke-width:1.05833;stroke-linecap:round;stroke-linejoin:round;stroke-miterlimit:2.66;stroke-dasharray:none;stroke-opacity:1;paint-order:stroke fill markers"
           d="m 171.37046,311.74011 -1.25672,1.17539 0.68899,1.10685 0.205,0.33589 0.8351,-0.55399 -0.21498,-1.61229 z"
           id="path471" /><path
           id="path472"
           style="display:inline;fill:#434a5f;stroke-linecap:round;stroke-linejoin:round;stroke-miterlimit:2.66;paint-order:stroke fill markers"
           d="m 168.66575,310.2322 c -0.3849,0.001 -0.71808,0.008 -1.01906,0.045 -0.40129,0.0487 -0.78468,0.15379 -1.07435,0.44545 -0.2402,0.24183 -0.36167,0.54301 -0.45682,0.86919 -0.11561,0.39635 -0.22289,0.96564 -0.28163,1.41594 -0.0714,0.54788 0.091,1.07134 0.44183,1.40043 0.18898,0.17731 0.43641,0.29699 0.70693,0.28525 0.26995,-0.0117 0.53485,-0.18003 0.66611,-0.40824 l 0.51728,-0.9002 c 0.0424,-0.074 0.11773,-0.11938 0.20309,-0.11938 h 0.62684 0.62735 c 0.0854,0 0.16221,0.0453 0.20464,0.11938 l 0.51573,0.9002 c 0.13109,0.22887 0.39579,0.3965 0.66611,0.40824 0.27031,0.0117 0.5179,-0.10809 0.70693,-0.28525 0.3507,-0.32906 0.51281,-0.85248 0.44132,-1.40043 -0.0587,-0.45034 -0.16346,-1.01961 -0.27906,-1.41594 -0.0891,-0.30563 -0.18162,-0.6443 -0.49816,-0.90433 -0.27743,-0.22789 -0.62032,-0.35815 -0.98443,-0.40825 -0.3641,-0.0501 -0.76675,-0.0462 -1.32809,-0.047 -0.14054,-2.5e-4 -0.27425,-3.5e-4 -0.40256,0 z m 0.001,0.52865 c 0.12626,-5.2e-4 0.25955,-2.5e-4 0.39997,0 1.12337,0.002 1.56968,-2.7e-4 1.97766,0.33486 0.16586,0.13625 0.24068,0.35162 0.32608,0.6444 0.1003,0.34386 0.20845,0.91324 0.26355,1.33584 0.0551,0.4226 -0.0574,0.73818 -0.27854,0.94568 -0.22115,0.20726 -0.45454,0.17231 -0.55294,5.2e-4 l -0.51624,-0.90072 c -0.13633,-0.23779 -0.38943,-0.38448 -0.66353,-0.38448 h -0.62632 -0.62632 c -0.2741,0 -0.52719,0.14669 -0.66352,0.38448 l -0.51625,0.90072 c -0.0984,0.17203 -0.33179,0.20697 -0.55294,-5.2e-4 -0.22119,-0.2075 -0.33363,-0.52308 -0.27853,-0.94568 0.0551,-0.4226 0.16325,-0.99198 0.26355,-1.33584 0.0854,-0.29278 0.17482,-0.49211 0.32608,-0.6444 0.29125,-0.29324 0.83438,-0.33124 1.71824,-0.33486 z" /><circle
           style="fill:#636883;fill-opacity:1;stroke:none;stroke-width:1.38888;stroke-linecap:round;stroke-linejoin:round;stroke-miterlimit:2.66;stroke-dasharray:none;stroke-opacity:1;paint-order:stroke fill markers"
           id="circle472"
           cx="168.04442"
           cy="311.8226"
           r="0.43402708" /><circle
           style="fill:#636883;fill-opacity:1;stroke:none;stroke-width:0.638877;stroke-linecap:round;stroke-linejoin:round;stroke-miterlimit:2.66;stroke-dasharray:none;stroke-opacity:1;paint-order:stroke fill markers"
           id="circle477"
           cx="170.05003"
           cy="312.22641"
           r="0.19964978" /><circle
           style="fill:#636883;fill-opacity:1;stroke:none;stroke-width:0.638877;stroke-linecap:round;stroke-linejoin:round;stroke-miterlimit:2.66;stroke-dasharray:none;stroke-opacity:1;paint-order:stroke fill markers"
           id="circle478"
           cx="170.05003"
           cy="311.41873"
           r="0.19964978" /><circle
           style="fill:#636883;fill-opacity:1;stroke:none;stroke-width:0.638877;stroke-linecap:round;stroke-linejoin:round;stroke-miterlimit:2.66;stroke-dasharray:none;stroke-opacity:1;paint-order:stroke fill markers"
           id="circle479"
           cx="-311.8226"
           cy="170.45387"
           r="0.19964978"
           transform="rotate(-90)" /><circle
           style="fill:#636883;fill-opacity:1;stroke:none;stroke-width:0.638877;stroke-linecap:round;stroke-linejoin:round;stroke-miterlimit:2.66;stroke-dasharray:none;stroke-opacity:1;paint-order:stroke fill markers"
           id="circle480"
           cx="-311.8226"
           cy="169.64619"
           r="0.19964978"
           transform="rotate(-90)" /></g><path
         id="path480"
         style="display:inline;fill:#feb21b;fill-opacity:1;stroke:#434a5f;stroke-width:1.54091;stroke-linecap:round;stroke-linejoin:round;stroke-miterlimit:2.66;stroke-dasharray:none;stroke-opacity:1;paint-order:stroke fill markers"
         d="m 4.8524648,371.74908 -0.845091,-0.82416 0.497436,-10e-6 v 0 c 5e-6,-3.0837 5.23585,-3.06437 5.235852,0.0199 h -0.577749 c 0.03203,-2.4026 -4.013364,-2.46328 -4.003608,-0.0199 v 0 h 0.538777 z" /><g
         id="g482"
         transform="matrix(-1.4559793,0,0,1.4559793,52.402101,-171.33086)"><path
           style="fill:#434a5f;stroke-linecap:round;stroke-linejoin:round;stroke-miterlimit:2.66;paint-order:stroke fill markers"
           d="m 31.302731,376.54297 c -0.239292,0.002 -0.471973,-0.0739 -0.617187,-0.18945 -0.03702,-0.0295 -0.02971,-0.0991 -0.05859,-0.13282 0.232156,-0.19742 0.250033,-0.54962 0.03906,-0.76953 l -0.580079,-0.5664 c -0.205459,-0.2 -0.532822,-0.2 -0.738281,0 h 2e-6 l -0.582031,0.5664 c -0.340584,0.33195 -0.104498,0.90974 0.371094,0.9082 h 0.06445 c 0.126177,0.40058 0.210066,0.84046 0.511719,1.07618 0.450044,0.35167 1.011191,0.5077 1.564453,0.50586"
           id="path481" /><path
           style="fill:#feb21b;stroke-linecap:round;stroke-linejoin:round;stroke-miterlimit:2.66;paint-order:stroke fill markers"
           d="m 29.716228,375.2643 -0.580428,0.56605 0.341651,10e-6 v 0 0 c 1e-6,1.05897 0.944501,1.58477 1.843527,1.58177 l -0.01338,-0.34051 c -0.691031,0.007 -1.383973,-0.40219 -1.380622,-1.24126 v 0 0 h 0.370044 z"
           id="path482" /></g></g></g></svg>
