<?xml version="1.0" encoding="UTF-8" standalone="no"?>
<!-- Created with Inkscape (http://www.inkscape.org/) -->

<svg
   width="96"
   height="40.764973"
   viewBox="0 0 25.4 10.785732"
   version="1.1"
   id="svg1"
   xml:space="preserve"
   xmlns:xlink="http://www.w3.org/1999/xlink"
   xmlns="http://www.w3.org/2000/svg"
   xmlns:svg="http://www.w3.org/2000/svg"><defs
     id="defs1"><linearGradient
       id="linearGradient89"><stop
         style="stop-color:#434a5f;stop-opacity:1;"
         offset="1"
         id="stop89" /><stop
         style="stop-color:#434a5f;stop-opacity:1;"
         offset="1"
         id="stop90" /></linearGradient><linearGradient
       id="linearGradient1-1"><stop
         style="stop-color:#434a5f;stop-opacity:1;"
         offset="1"
         id="stop3" /><stop
         style="stop-color:#434a5f;stop-opacity:1;"
         offset="1"
         id="stop4" /></linearGradient><linearGradient
       id="linearGradient568"><stop
         style="stop-color:#6d7592;stop-opacity:1;"
         offset="0.18130387"
         id="stop565" /><stop
         style="stop-color:#a7adbe;stop-opacity:1;"
         offset="0.18130387"
         id="stop566" /><stop
         style="stop-color:#a8acbd;stop-opacity:1;"
         offset="0.2008221"
         id="stop567" /><stop
         style="stop-color:#8a90a8;stop-opacity:1;"
         offset="0.2008221"
         id="stop568" /></linearGradient><linearGradient
       xlink:href="#linearGradient568"
       id="linearGradient540"
       gradientUnits="userSpaceOnUse"
       gradientTransform="matrix(1.1871923,0,0,1.1870466,-315.31179,-196.6207)"
       x1="454.61255"
       y1="238.41618"
       x2="454.61255"
       y2="230.33301" /><linearGradient
       xlink:href="#linearGradient1-1"
       id="linearGradient249"
       x1="215.89999"
       y1="81.592857"
       x2="241.3"
       y2="81.592857"
       gradientUnits="userSpaceOnUse" /><linearGradient
       xlink:href="#linearGradient89"
       id="linearGradient990"
       x1="449.54474"
       y1="244.23256"
       x2="466.80109"
       y2="244.23256"
       gradientUnits="userSpaceOnUse" /></defs><g
     id="g456"
     transform="translate(-203.20007,-101.59994)"
     style="display:inline"><g
       id="g425"
       transform="translate(-12.699932,25.39995)"><path
         id="path424"
         style="display:inline;opacity:1;fill:url(#linearGradient540);stroke:url(#linearGradient249);stroke-width:1.19062;stroke-linecap:round;stroke-linejoin:round;stroke-miterlimit:0;paint-order:fill markers stroke"
         d="m 217.81838,76.795304 h 21.56323 c 0.73298,0 1.32308,0.590022 1.32308,1.322916 v 6.949268 c 0,0.732906 -0.5901,1.322928 -1.32308,1.322928 h -21.56323 c -0.73298,0 -1.32307,-0.590022 -1.32307,-1.322928 V 78.11822 c 0,-0.732894 0.59009,-1.322916 1.32307,-1.322916 z" /><path
         style="font-weight:bold;font-size:4.52002px;font-family:Poppins;-inkscape-font-specification:'Poppins Bold';letter-spacing:0.100131px;fill:url(#linearGradient990);stroke-width:1.99061;stroke-linecap:round;stroke-linejoin:round;stroke-dasharray:3.98122, 1.99061;paint-order:fill markers stroke"
         d="m 450.78322,245.85751 q -0.34805,0 -0.62377,-0.113 -0.27572,-0.113 -0.44296,-0.33449 -0.16272,-0.22148 -0.17176,-0.53336 h 0.82264 q 0.0181,0.17628 0.12204,0.2712 0.10396,0.0904 0.27121,0.0904 0.17176,0 0.2712,-0.0768 0.0994,-0.0814 0.0994,-0.22148 0,-0.11752 -0.0814,-0.19436 -0.0768,-0.0768 -0.19436,-0.12656 -0.113,-0.0497 -0.32545,-0.113 -0.30736,-0.0949 -0.50172,-0.18984 -0.19436,-0.0949 -0.33448,-0.28024 -0.14012,-0.18532 -0.14012,-0.48364 0,-0.44297 0.32092,-0.69157 0.32092,-0.25312 0.8362,-0.25312 0.52433,0 0.84525,0.25312 0.32092,0.2486 0.34352,0.69609 h -0.8362 q -0.009,-0.15368 -0.113,-0.23956 -0.10396,-0.0904 -0.26669,-0.0904 -0.14012,0 -0.226,0.0768 -0.0859,0.0723 -0.0859,0.21244 0,0.15368 0.14464,0.23956 0.14464,0.0859 0.45201,0.18532 0.30736,0.10396 0.4972,0.19888 0.19436,0.0949 0.33448,0.27572 0.14012,0.1808 0.14012,0.46556 0,0.2712 -0.14012,0.49268 -0.1356,0.22149 -0.39776,0.35257 -0.26216,0.13108 -0.61924,0.13108 z m 1.60077,-1.62269 q 0,-0.47008 0.2034,-0.8362 0.2034,-0.37065 0.56501,-0.57405 0.36612,-0.20792 0.82716,-0.20792 0.565,0 0.96728,0.29832 0.40229,0.29833 0.53789,0.81361 h -0.84977 q -0.0949,-0.19888 -0.2712,-0.30284 -0.17176,-0.10396 -0.39324,-0.10396 -0.35708,0 -0.57856,0.2486 -0.22148,0.2486 -0.22148,0.66444 0,0.41584 0.22148,0.66444 0.22148,0.2486 0.57856,0.2486 0.22148,0 0.39324,-0.10396 0.17628,-0.10396 0.2712,-0.30284 h 0.84977 q -0.1356,0.51528 -0.53789,0.81361 -0.40228,0.2938 -0.96728,0.2938 -0.46104,0 -0.82716,-0.2034 -0.36161,-0.20793 -0.56501,-0.57405 -0.2034,-0.36612 -0.2034,-0.8362 z m 5.29363,1.59105 -0.65992,-1.19781 h -0.18532 v 1.19781 h -0.77293 v -3.17306 h 1.29725 q 0.37516,0 0.63732,0.13108 0.26668,0.13108 0.39776,0.3616 0.13109,0.22601 0.13109,0.50625 0,0.3164 -0.18081,0.565 -0.17628,0.2486 -0.52432,0.35256 l 0.73225,1.25657 z m -0.84524,-1.74473 h 0.47912 q 0.21244,0 0.3164,-0.10396 0.10848,-0.10396 0.10848,-0.2938 0,-0.1808 -0.10848,-0.28476 -0.10396,-0.10396 -0.3164,-0.10396 h -0.47912 z m 3.77491,1.77637 q -0.44748,0 -0.82265,-0.20792 -0.37064,-0.20793 -0.59212,-0.57857 -0.21696,-0.37516 -0.21696,-0.84072 0,-0.46556 0.21696,-0.8362 0.22148,-0.37065 0.59212,-0.57857 0.37517,-0.20792 0.82265,-0.20792 0.44748,0 0.81812,0.20792 0.37516,0.20792 0.5876,0.57857 0.21696,0.37064 0.21696,0.8362 0,0.46556 -0.21696,0.84072 -0.21696,0.37064 -0.5876,0.57857 -0.37064,0.20792 -0.81812,0.20792 z m 0,-0.70513 q 0.37968,0 0.60568,-0.25312 0.23052,-0.25312 0.23052,-0.66896 0,-0.42036 -0.23052,-0.66896 -0.226,-0.25312 -0.60568,-0.25312 -0.3842,0 -0.61473,0.2486 -0.226,0.2486 -0.226,0.67348 0,0.42036 0.226,0.67348 0.23053,0.2486 0.61473,0.2486 z m 2.92514,0.0768 h 1.01248 v 0.59665 h -1.78541 v -3.17306 h 0.77293 z m 2.25617,0 h 1.01249 v 0.59665 h -1.78541 v -3.17306 h 0.77292 z"
         id="text424"
         transform="matrix(1.1870466,0,0,1.1870466,-315.24649,-209.32071)"
         aria-label="SCROLL" /></g></g></svg>
