<?xml version="1.0" encoding="UTF-8" standalone="no"?>
<!-- Created with Inkscape (http://www.inkscape.org/) -->

<svg
   width="144"
   height="40.76495"
   viewBox="0 0 38.1 10.785726"
   version="1.1"
   id="svg1"
   xml:space="preserve"
   xmlns:xlink="http://www.w3.org/1999/xlink"
   xmlns="http://www.w3.org/2000/svg"
   xmlns:svg="http://www.w3.org/2000/svg"><defs
     id="defs1"><linearGradient
       id="linearGradient89"><stop
         style="stop-color:#434a5f;stop-opacity:1;"
         offset="1"
         id="stop89" /><stop
         style="stop-color:#434a5f;stop-opacity:1;"
         offset="1"
         id="stop90" /></linearGradient><linearGradient
       id="linearGradient1-1"><stop
         style="stop-color:#434a5f;stop-opacity:1;"
         offset="0.47322804"
         id="stop3" /><stop
         style="stop-color:#434a5f;stop-opacity:1;"
         offset="1"
         id="stop4" /></linearGradient><linearGradient
       id="linearGradient568"><stop
         style="stop-color:#6d7592;stop-opacity:1;"
         offset="0.18130387"
         id="stop565" /><stop
         style="stop-color:#a7adbe;stop-opacity:1;"
         offset="0.18130387"
         id="stop566" /><stop
         style="stop-color:#a8acbd;stop-opacity:1;"
         offset="0.2008221"
         id="stop567" /><stop
         style="stop-color:#8a90a8;stop-opacity:1;"
         offset="0.2008221"
         id="stop568" /></linearGradient><linearGradient
       xlink:href="#linearGradient568"
       id="linearGradient1036"
       gradientUnits="userSpaceOnUse"
       gradientTransform="matrix(1.188951,0,0,1.1870466,-443.38486,-272.82069)"
       x1="613.25891"
       y1="249.11501"
       x2="613.25891"
       y2="241.03183" /><linearGradient
       xlink:href="#linearGradient1-1"
       id="linearGradient1037"
       gradientUnits="userSpaceOnUse"
       x1="254.00008"
       y1="81.592804"
       x2="292.10007"
       y2="81.592804"
       gradientTransform="translate(12.6999,-63.499942)" /><linearGradient
       xlink:href="#linearGradient89"
       id="linearGradient1038"
       gradientUnits="userSpaceOnUse"
       x1="449.63513"
       y1="244.23256"
       x2="464.09744"
       y2="244.23256"
       gradientTransform="matrix(1.1870466,0,0,1.1870466,-247.63644,-272.35174)" /></defs><g
     id="g456"
     transform="translate(-266.69998,-12.699998)"
     style="display:inline"><g
       id="g1039"><rect
         style="display:inline;opacity:1;fill:url(#linearGradient1036);fill-opacity:1;stroke:url(#linearGradient1037);stroke-width:1.19062;stroke-linecap:round;stroke-linejoin:round;stroke-miterlimit:0;stroke-dasharray:none;stroke-opacity:1;paint-order:fill markers stroke"
         id="rect1035"
         width="36.909382"
         height="9.5951061"
         x="267.29529"
         y="13.295308"
         rx="1.325039"
         ry="1.3229166" /><path
         d="m 278.42985,19.492581 q -0.41314,0 -0.74043,-0.134137 -0.3273,-0.134136 -0.52582,-0.397044 -0.19316,-0.262908 -0.20389,-0.633126 h 0.97652 q 0.0215,0.209253 0.14487,0.321928 0.1234,0.10731 0.32192,0.10731 0.20389,0 0.32193,-0.09121 0.11804,-0.09658 0.11804,-0.262908 0,-0.139503 -0.0966,-0.230716 -0.0912,-0.09121 -0.23071,-0.150233 -0.13414,-0.05902 -0.38632,-0.134136 -0.36485,-0.112675 -0.59556,-0.22535 -0.23072,-0.112675 -0.39705,-0.332659 -0.16633,-0.219985 -0.16633,-0.574106 0,-0.525816 0.38095,-0.820916 0.38095,-0.300467 0.99261,-0.300467 0.6224,0 1.00335,0.300467 0.38094,0.2951 0.40777,0.826282 h -0.99261 q -0.0107,-0.182426 -0.13414,-0.28437 -0.1234,-0.107309 -0.31656,-0.107309 -0.16633,0 -0.26827,0.09121 -0.10195,0.08585 -0.10195,0.252177 0,0.182426 0.1717,0.28437 0.17169,0.101944 0.53654,0.219984 0.36486,0.123406 0.59021,0.236081 0.23071,0.112674 0.39704,0.327293 0.16633,0.214619 0.16633,0.552644 0,0.321928 -0.16633,0.584836 -0.16096,0.262908 -0.47216,0.418506 -0.3112,0.155599 -0.73507,0.155599 z m 4.92632,-2.591522 q 0,0.327294 -0.15023,0.600933 -0.15024,0.268273 -0.46143,0.434603 -0.3112,0.166329 -0.77263,0.166329 h -0.56874 v 1.352099 h -0.9175 v -3.76656 h 1.48624 q 0.4507,0 0.7619,0.155599 0.31119,0.155598 0.46679,0.429237 0.1556,0.273639 0.1556,0.62776 z m -1.45404,0.472161 q 0.26291,0 0.39168,-0.123405 0.12877,-0.123406 0.12877,-0.348756 0,-0.22535 -0.12877,-0.348755 -0.12877,-0.123406 -0.39168,-0.123406 h -0.49899 v 0.944322 z m 4.39514,1.416485 h -1.40575 l -0.22535,0.665318 h -0.96042 l 1.36283,-3.76656 h 1.06236 l 1.36283,3.76656 h -0.97115 z m -0.23608,-0.708242 -0.4668,-1.378926 -0.46143,1.378926 z m 1.80898,-0.515086 q 0,-0.558008 0.24145,-0.992612 0.24144,-0.439968 0.67068,-0.681414 0.4346,-0.246812 0.98188,-0.246812 0.67069,0 1.14821,0.354121 0.47753,0.354121 0.63849,0.965785 h -1.00871 q -0.11267,-0.236081 -0.32192,-0.359487 -0.20389,-0.123406 -0.4668,-0.123406 -0.42387,0 -0.68678,0.295101 -0.26291,0.295101 -0.26291,0.788724 0,0.493624 0.26291,0.788724 0.26291,0.295101 0.68678,0.295101 0.26291,0 0.4668,-0.123405 0.20925,-0.123406 0.32192,-0.359487 h 1.00871 q -0.16096,0.611664 -0.63849,0.965785 -0.47752,0.348755 -1.14821,0.348755 -0.54728,0 -0.98188,-0.241446 -0.42924,-0.246812 -0.67068,-0.681415 -0.24145,-0.434603 -0.24145,-0.992612 z m 5.28044,-1.142845 v 0.761897 h 1.22869 v 0.708242 h -1.22869 v 0.826282 h 1.38965 v 0.73507 h -2.30715 v -3.76656 h 2.30715 v 0.735069 z"
         id="text1038"
         style="font-weight:bold;font-size:5.36547px;font-family:Poppins;-inkscape-font-specification:'Poppins Bold';text-align:center;letter-spacing:0.11886px;text-anchor:middle;fill:url(#linearGradient1038);stroke-width:2.36295;stroke-linecap:round;stroke-linejoin:round;stroke-dasharray:4.72589, 2.36295;paint-order:fill markers stroke"
         aria-label="SPACE" /></g></g></svg>
