<?xml version="1.0" encoding="UTF-8" standalone="no"?>
<!-- Created with Inkscape (http://www.inkscape.org/) -->

<svg
   width="47.999954"
   height="47.999954"
   viewBox="0 0 12.699988 12.699988"
   version="1.1"
   id="svg1"
   xml:space="preserve"
   xmlns:xlink="http://www.w3.org/1999/xlink"
   xmlns="http://www.w3.org/2000/svg"
   xmlns:svg="http://www.w3.org/2000/svg"><defs
     id="defs1"><linearGradient
       id="linearGradient1"><stop
         style="stop-color:#434a5f;stop-opacity:1;"
         offset="1"
         id="stop111" /><stop
         style="stop-color:#434a5f;stop-opacity:1;"
         offset="1"
         id="stop112" /></linearGradient><linearGradient
       id="linearGradient103"><stop
         style="stop-color:#434a5f;stop-opacity:1;"
         offset="1"
         id="stop103" /><stop
         style="stop-color:#434a5f;stop-opacity:1;"
         offset="1"
         id="stop104" /></linearGradient><linearGradient
       id="linearGradient301"><stop
         style="stop-color:#ffffff;stop-opacity:1;"
         offset="0.68779135"
         id="stop300" /><stop
         style="stop-color:#b2b2b2;stop-opacity:1;"
         offset="0.68779135"
         id="stop301" /></linearGradient><linearGradient
       xlink:href="#linearGradient301"
       id="linearGradient1133"
       gradientUnits="userSpaceOnUse"
       gradientTransform="matrix(0.9520049,0,0,0.9520049,32.461754,58.087834)"
       x1="105.9745"
       y1="212.45917"
       x2="105.97449"
       y2="218.71239" /><linearGradient
       xlink:href="#linearGradient1"
       id="linearGradient1134"
       gradientUnits="userSpaceOnUse"
       x1="126.85568"
       y1="260.34998"
       x2="139.84431"
       y2="260.34998" /><linearGradient
       xlink:href="#linearGradient103"
       id="linearGradient1135"
       gradientUnits="userSpaceOnUse"
       x1="129.76454"
       y1="260.29919"
       x2="136.82822"
       y2="260.29919" /><linearGradient
       xlink:href="#linearGradient301"
       id="linearGradient1142"
       gradientUnits="userSpaceOnUse"
       gradientTransform="matrix(0.9520049,0,0,0.9520049,32.461754,58.087834)"
       x1="105.9745"
       y1="212.45917"
       x2="105.9745"
       y2="205.80904" /><linearGradient
       xlink:href="#linearGradient1"
       id="linearGradient1143"
       gradientUnits="userSpaceOnUse"
       x1="126.85568"
       y1="260.34998"
       x2="139.84431"
       y2="260.34998" /><linearGradient
       xlink:href="#linearGradient103"
       id="linearGradient1144"
       gradientUnits="userSpaceOnUse"
       x1="131.74133"
       y1="260.34998"
       x2="134.85141"
       y2="260.34998" /></defs><g
     id="layer5"
     style="display:inline"
     transform="translate(-101.6,-393.69997)"><g
       id="g1057"
       transform="matrix(0.97777798,0,0,0.97777798,-22.436697,132.78549)"
       style="stroke-width:1.02273"><rect
         style="display:inline;fill:url(#linearGradient1142);fill-opacity:1;stroke:url(#linearGradient1143);stroke-width:1.08238;stroke-linecap:square;stroke-linejoin:round;stroke-miterlimit:2.66;stroke-dasharray:none;paint-order:fill markers stroke"
         id="rect1056"
         width="11.906249"
         height="11.906249"
         x="127.39687"
         y="254.39687"
         rx="2.4279234"
         ry="2.4626966" /><path
         d="m 133.76204,262.33118 -0.82409,-1.49578 h -0.23142 v 1.49578 h -0.9652 v -3.9624 h 1.61995 q 0.46849,0 0.79587,0.16369 0.33302,0.16369 0.49671,0.45155 0.16369,0.28223 0.16369,0.63218 0,0.39511 -0.22578,0.70556 -0.22013,0.31044 -0.65476,0.44026 l 0.9144,1.56916 z m -1.05551,-2.17876 h 0.59831 q 0.26529,0 0.39511,-0.12982 0.13546,-0.12982 0.13546,-0.36689 0,-0.22578 -0.13546,-0.3556 -0.12982,-0.12982 -0.39511,-0.12982 h -0.59831 z"
         id="text1056"
         style="font-weight:bold;font-size:5.64444px;line-height:1.1;font-family:Poppins;-inkscape-font-specification:'Poppins Bold';text-align:center;letter-spacing:0.132292px;text-anchor:middle;fill:url(#linearGradient1144);stroke-width:0.81179;stroke-linecap:square;stroke-linejoin:round;stroke-miterlimit:2.66;paint-order:fill markers stroke"
         aria-label="R" /></g><g
       id="g1060"
       transform="matrix(0.97777739,0,0,0.97777739,-22.436621,145.48563)"
       style="display:inline;stroke-width:1.02273"><rect
         style="display:inline;fill:url(#linearGradient1133);fill-opacity:1;stroke:url(#linearGradient1134);stroke-width:1.08238;stroke-linecap:square;stroke-linejoin:round;stroke-miterlimit:2.66;stroke-dasharray:none;paint-order:fill markers stroke"
         id="rect1059"
         width="11.906249"
         height="11.906249"
         x="127.39687"
         y="254.39687"
         rx="2.4279234"
         ry="2.4626966" /><path
         d="m 131.78525,262.33118 -0.82409,-1.49578 h -0.23142 v 1.49578 h -0.9652 v -3.9624 h 1.61995 q 0.46849,0 0.79587,0.16369 0.33302,0.16369 0.49671,0.45155 0.16369,0.28223 0.16369,0.63218 0,0.39511 -0.22578,0.70556 -0.22013,0.31044 -0.65475,0.44026 l 0.91439,1.56916 z m -1.05551,-2.17876 h 0.59831 q 0.26529,0 0.39511,-0.12982 0.13547,-0.12982 0.13547,-0.36689 0,-0.22578 -0.13547,-0.3556 -0.12982,-0.12982 -0.39511,-0.12982 h -0.59831 z m 2.77389,1.44498 v -0.77893 l 1.78364,-2.55129 h 1.07809 v 2.49484 h 0.46285 v 0.83538 h -0.46285 v 0.73378 h -0.9652 v -0.73378 z m 1.96426,-2.26907 -0.94826,1.43369 h 0.94826 z"
         id="text1059"
         style="font-weight:bold;font-size:5.64444px;line-height:1.1;font-family:Poppins;-inkscape-font-specification:'Poppins Bold';text-align:center;letter-spacing:0.132292px;text-anchor:middle;fill:url(#linearGradient1135);stroke-width:0.811791;stroke-linecap:square;stroke-linejoin:round;stroke-miterlimit:2.66;paint-order:fill markers stroke"
         aria-label="R4" /></g></g></svg>
