<?xml version="1.0" encoding="UTF-8" standalone="no"?>
<!-- Created with Inkscape (http://www.inkscape.org/) -->

<svg
   width="59.060287"
   height="55.685402"
   viewBox="0 0 15.626368 14.733429"
   version="1.1"
   id="svg1"
   xml:space="preserve"
   xmlns:xlink="http://www.w3.org/1999/xlink"
   xmlns="http://www.w3.org/2000/svg"
   xmlns:svg="http://www.w3.org/2000/svg"><defs
     id="defs1"><linearGradient
       id="linearGradient89"><stop
         style="stop-color:#434a5f;stop-opacity:1;"
         offset="1"
         id="stop89" /><stop
         style="stop-color:#434a5f;stop-opacity:1;"
         offset="1"
         id="stop90" /></linearGradient><linearGradient
       id="linearGradient1-1"><stop
         style="stop-color:#434a5f;stop-opacity:1;"
         offset="1"
         id="stop3" /><stop
         style="stop-color:#434a5f;stop-opacity:1;"
         offset="1"
         id="stop4" /></linearGradient><linearGradient
       id="linearGradient2"><stop
         style="stop-color:#8a90a8;stop-opacity:1"
         offset="0.68779135"
         id="stop39" /><stop
         style="stop-color:#636883;stop-opacity:1;"
         offset="0.68779135"
         id="stop40" /></linearGradient><linearGradient
       xlink:href="#linearGradient2"
       id="linearGradient34"
       gradientUnits="userSpaceOnUse"
       gradientTransform="matrix(0.9520049,0,0,0.9520049,32.461754,58.087834)"
       x1="105.9745"
       y1="212.45917"
       x2="105.9745"
       y2="205.80904" /><linearGradient
       xlink:href="#linearGradient1-1"
       id="linearGradient381"
       x1="126.85568"
       y1="260.34998"
       x2="139.84431"
       y2="260.34998"
       gradientUnits="userSpaceOnUse" /><linearGradient
       xlink:href="#linearGradient1-1"
       id="linearGradient383"
       x1="118.5613"
       y1="301.01611"
       x2="124.61387"
       y2="301.01611"
       gradientUnits="userSpaceOnUse" /><linearGradient
       xlink:href="#linearGradient89"
       id="linearGradient748"
       x1="131.74133"
       y1="260.34998"
       x2="134.85141"
       y2="260.34998"
       gradientUnits="userSpaceOnUse" /></defs><g
     id="layer5"
     style="display:inline"
     transform="translate(-152.39999,-241.3)"><g
       id="g40"
       style="display:inline"
       transform="translate(4.4264955e-8,-38.1)"><g
         id="g31"
         transform="matrix(0.97777797,0,0,0.97777797,28.363304,31.185506)"
         style="display:inline;stroke-width:1.02273"><path
           id="rect24"
           style="display:inline;fill:url(#linearGradient34);stroke:url(#linearGradient381);stroke-width:1.08238;stroke-linecap:square;stroke-linejoin:round;stroke-miterlimit:2.66;paint-order:fill markers stroke"
           d="m 129.8248,254.39687 h 7.0504 c 1.34507,0 2.42792,1.09836 2.42792,2.46269 v 6.98086 c 0,1.36433 -1.08285,2.46269 -2.42792,2.46269 h -7.0504 c -1.34507,0 -2.42793,-1.09836 -2.42793,-2.46269 v -6.98086 c 0,-1.36433 1.08286,-2.46269 2.42793,-2.46269 z" /><path
           d="m 133.76204,262.33118 -0.82409,-1.49578 h -0.23142 v 1.49578 h -0.9652 v -3.9624 h 1.61995 q 0.46849,0 0.79587,0.16369 0.33302,0.16369 0.49671,0.45155 0.16369,0.28223 0.16369,0.63218 0,0.39511 -0.22578,0.70556 -0.22013,0.31044 -0.65476,0.44026 l 0.9144,1.56916 z m -1.05551,-2.17876 h 0.59831 q 0.26529,0 0.39511,-0.12982 0.13546,-0.12982 0.13546,-0.36689 0,-0.22578 -0.13546,-0.3556 -0.12982,-0.12982 -0.39511,-0.12982 h -0.59831 z"
           id="text24"
           style="font-weight:bold;font-size:5.64444px;line-height:1.1;font-family:Poppins;-inkscape-font-specification:'Poppins Bold';text-align:center;letter-spacing:0.132292px;text-anchor:middle;fill:url(#linearGradient748);stroke-width:0.81179;stroke-linecap:square;stroke-linejoin:round;stroke-miterlimit:2.66;paint-order:fill markers stroke"
           aria-label="R" /></g><g
         id="g38"
         transform="matrix(1.3431298,-1.0498569,1.0498569,1.3431298,-314.63524,18.592246)"
         style="display:inline"><path
           id="circle36"
           style="fill:#ffffff;stroke-width:1.0294;stroke-linecap:round;stroke-linejoin:round;stroke-miterlimit:2.66;paint-order:stroke fill markers"
           d="m 123.44756,297.14117 a 0.82351542,0.82351542 0 0 1 -0.82351,0.82352 0.82351542,0.82351542 0 0 1 -0.82352,-0.82352 0.82351542,0.82351542 0 0 1 0.82352,-0.82351 0.82351542,0.82351542 0 0 1 0.82351,0.82351 z" /><path
           id="circle37"
           style="fill:none;stroke:#ffffff;stroke-width:0.307214;stroke-linecap:round;stroke-linejoin:round;stroke-miterlimit:2.66;paint-order:stroke fill markers"
           d="m 124.0338,297.14117 a 1.409755,1.409755 0 0 1 -1.40975,1.40976 1.409755,1.409755 0 0 1 -1.40976,-1.40976 1.409755,1.409755 0 0 1 1.40976,-1.40975 1.409755,1.409755 0 0 1 1.40975,1.40975 z" /><path
           stroke="none"
           fill="#ffffff"
           d="m 123.20893,300.14538 c 0.37819,0 0.73638,0.1952 0.73638,0.65961 0.0157,0.17107 0,1.92833 0,1.92833 0,0.79825 -0.95296,0.90874 -1.52025,0.90874 -0.46594,0 -0.8768,-0.13016 -1.23379,-0.4488 l -0.15931,-0.17151 c -0.19145,-0.24869 -0.42961,-0.45429 -0.71445,-0.61681 -0.12457,-0.069 -0.72824,-0.0322 -1.00539,-0.55805 -0.29781,-0.51582 0.1165,-0.91114 0.39365,-1.01125 0.4597,-0.16203 0.73349,0.12238 0.90511,0.20194 v -1.78775 c 0,-1.12144 1.34494,-1.17078 1.34494,0 v 0.8956 z"
           id="path38"
           style="display:inline;fill:#23c3f6;fill-opacity:1;stroke:url(#linearGradient383);stroke-width:1.32292;stroke-linecap:round;stroke-linejoin:round;stroke-dasharray:none;paint-order:stroke fill markers"
           transform="matrix(0.5865938,0,0,0.5865938,51.493331,122.49536)" /></g></g></g></svg>
