<?xml version="1.0" encoding="UTF-8" standalone="no"?>
<!-- Created with Inkscape (http://www.inkscape.org/) -->

<svg
   width="57.987511"
   height="47.999962"
   viewBox="0 0 15.342529 12.69999"
   version="1.1"
   id="svg1"
   xml:space="preserve"
   xmlns:xlink="http://www.w3.org/1999/xlink"
   xmlns="http://www.w3.org/2000/svg"
   xmlns:svg="http://www.w3.org/2000/svg"><defs
     id="defs1"><linearGradient
       id="linearGradient89"><stop
         style="stop-color:#434a5f;stop-opacity:1;"
         offset="1"
         id="stop89" /><stop
         style="stop-color:#434a5f;stop-opacity:1;"
         offset="1"
         id="stop90" /></linearGradient><linearGradient
       id="linearGradient1-1"><stop
         style="stop-color:#434a5f;stop-opacity:1;"
         offset="1"
         id="stop3" /><stop
         style="stop-color:#434a5f;stop-opacity:1;"
         offset="1"
         id="stop4" /></linearGradient><linearGradient
       id="linearGradient2"><stop
         style="stop-color:#8a90a8;stop-opacity:1"
         offset="0.68779135"
         id="stop39" /><stop
         style="stop-color:#636883;stop-opacity:1;"
         offset="0.68779135"
         id="stop40" /></linearGradient><linearGradient
       xlink:href="#linearGradient2"
       id="linearGradient160"
       gradientUnits="userSpaceOnUse"
       gradientTransform="matrix(0.93084945,0,0,0.93084945,60.103691,75.282507)"
       x1="105.9745"
       y1="212.45917"
       x2="105.9745"
       y2="205.80904" /><linearGradient
       xlink:href="#linearGradient1-1"
       id="linearGradient377"
       x1="152.39999"
       y1="273.04999"
       x2="165.09999"
       y2="273.04999"
       gradientUnits="userSpaceOnUse" /><linearGradient
       xlink:href="#linearGradient1-1"
       id="linearGradient389"
       x1="119.89864"
       y1="298.85413"
       x2="123.28366"
       y2="298.85413"
       gradientUnits="userSpaceOnUse" /><linearGradient
       xlink:href="#linearGradient89"
       id="linearGradient744"
       x1="155.60199"
       y1="273.84204"
       x2="158.64296"
       y2="273.84204"
       gradientUnits="userSpaceOnUse" /></defs><g
     id="layer5"
     style="display:inline"
     transform="translate(-152.39999,-292.09999)"><g
       id="g161"
       style="display:inline"
       transform="translate(4.4249562e-8,25.4)"><path
         id="rect148"
         style="display:inline;fill:url(#linearGradient160);stroke:url(#linearGradient377);stroke-width:1.05833;stroke-linecap:square;stroke-linejoin:round;stroke-miterlimit:2.66;paint-order:fill markers stroke"
         d="m 155.30312,267.22916 h 6.89373 c 1.31518,0 2.37397,1.07395 2.37397,2.40797 v 6.82572 c 0,1.33402 -1.05879,2.40797 -2.37397,2.40797 h -6.89373 c -1.31518,0 -2.37397,-1.07395 -2.37397,-2.40797 v -6.82572 c 0,-1.33402 1.05879,-2.40797 2.37397,-2.40797 z" /><path
         d="m 157.57779,275.77921 -0.80577,-1.46254 h -0.22628 v 1.46254 h -0.94375 v -3.87435 h 1.58395 q 0.45808,0 0.77818,0.16005 0.32562,0.16005 0.48568,0.44152 0.16005,0.27595 0.16005,0.61813 0,0.38633 -0.22076,0.68988 -0.21525,0.30354 -0.64021,0.43048 l 0.89408,1.53429 z m -1.03205,-2.13034 h 0.58501 q 0.2594,0 0.38633,-0.12694 0.13246,-0.12694 0.13246,-0.35874 0,-0.22076 -0.13246,-0.34769 -0.12693,-0.12694 -0.38633,-0.12694 h -0.58501 z"
         id="text148"
         style="font-weight:bold;font-size:5.51901px;line-height:1.1;font-family:Poppins;-inkscape-font-specification:'Poppins Bold';text-align:center;letter-spacing:0.129352px;text-anchor:middle;fill:url(#linearGradient744);stroke-width:0.79375;stroke-linecap:square;stroke-linejoin:round;stroke-miterlimit:2.66;paint-order:fill markers stroke"
         aria-label="R" /><g
         id="g149"
         transform="matrix(-1.0498569,-1.3431298,1.3431298,-1.0498569,-108.94776,749.96449)"
         style="display:inline"><path
           id="circle148"
           style="fill:#ffffff;stroke-width:1.0294;stroke-linecap:round;stroke-linejoin:round;stroke-miterlimit:2.66;paint-order:stroke fill markers"
           d="m 123.44756,297.14117 a 0.82351542,0.82351542 0 0 1 -0.82351,0.82352 0.82351542,0.82351542 0 0 1 -0.82352,-0.82352 0.82351542,0.82351542 0 0 1 0.82352,-0.82351 0.82351542,0.82351542 0 0 1 0.82351,0.82351 z" /><path
           id="circle149"
           style="fill:none;stroke:#ffffff;stroke-width:0.307214;stroke-linecap:round;stroke-linejoin:round;stroke-miterlimit:2.66;paint-order:stroke fill markers"
           d="m 124.0338,297.14117 a 1.409755,1.409755 0 0 1 -1.40975,1.40976 1.409755,1.409755 0 0 1 -1.40976,-1.40976 1.409755,1.409755 0 0 1 1.40976,-1.40975 1.409755,1.409755 0 0 1 1.40975,1.40975 z" /><path
           stroke="none"
           fill="#ffffff"
           d="m 122.70907,298.82443 c 0.17461,0.13683 0.26936,0.35657 0.10127,0.571 -0.0546,0.0847 -0.69772,0.89031 -0.69772,0.89031 -0.28883,0.36855 -0.7688,0.0747 -1.03071,-0.13047 -0.21513,-0.16859 -0.35773,-0.37735 -0.40726,-0.65364 l -0.0113,-0.13683 c 0.002,-0.18409 -0.034,-0.36519 -0.10671,-0.54329 -0.0326,-0.077 -0.32457,-0.27837 -0.26228,-0.62144 0.0492,-0.34591 0.38347,-0.37852 0.54766,-0.32446 0.27088,0.0915 0.29437,0.32189 0.34483,0.42073 l 0.64685,-0.82542 c 0.40577,-0.51777 1.04459,-0.0539 0.62097,0.48665 l -0.32405,0.4135 z"
           id="path149"
           style="display:inline;fill:#23c3f6;fill-opacity:1;stroke:url(#linearGradient389);stroke-width:0.776017;stroke-linecap:round;stroke-linejoin:round;stroke-dasharray:none;paint-order:stroke fill markers" /></g><path
         id="path150"
         style="fill:#ffffff;fill-opacity:1;stroke:none;stroke-width:0.989227;stroke-linecap:round;stroke-linejoin:round;stroke-miterlimit:0;stroke-dasharray:none;stroke-opacity:1;paint-order:stroke fill markers"
         d="m 161.15554,279.00891 1.36026,-1.40055 h -0.58844 v -1.20176 h -1.54363 v 1.20176 h -0.58844 z" /><path
         id="path151"
         style="fill:#ffffff;fill-opacity:1;stroke:none;stroke-width:0.989227;stroke-linecap:round;stroke-linejoin:round;stroke-miterlimit:0;stroke-dasharray:none;stroke-opacity:1;paint-order:stroke fill markers"
         d="m 161.00084,267.58537 1.36026,1.40055 h -0.58844 v 1.20176 h -1.54363 v -1.20176 h -0.58844 z" /></g></g></svg>
