<?xml version="1.0" encoding="UTF-8" standalone="no"?>
<!-- Created with Inkscape (http://www.inkscape.org/) -->

<svg
   width="47.999989"
   height="60.028423"
   viewBox="0 0 12.699997 15.88252"
   version="1.1"
   id="svg1"
   xml:space="preserve"
   xmlns:xlink="http://www.w3.org/1999/xlink"
   xmlns="http://www.w3.org/2000/svg"
   xmlns:svg="http://www.w3.org/2000/svg"><defs
     id="defs1"><linearGradient
       id="linearGradient89"><stop
         style="stop-color:#434a5f;stop-opacity:1;"
         offset="1"
         id="stop89" /><stop
         style="stop-color:#434a5f;stop-opacity:1;"
         offset="1"
         id="stop90" /></linearGradient><linearGradient
       id="linearGradient1-1"><stop
         style="stop-color:#434a5f;stop-opacity:1;"
         offset="1"
         id="stop3" /><stop
         style="stop-color:#434a5f;stop-opacity:1;"
         offset="1"
         id="stop4" /></linearGradient><linearGradient
       id="linearGradient2"><stop
         style="stop-color:#8a90a8;stop-opacity:1"
         offset="0.68779135"
         id="stop39" /><stop
         style="stop-color:#636883;stop-opacity:1;"
         offset="0.68779135"
         id="stop40" /></linearGradient><linearGradient
       xlink:href="#linearGradient2"
       id="linearGradient161"
       gradientUnits="userSpaceOnUse"
       gradientTransform="matrix(0.9520049,0,0,0.9520049,32.461754,58.087834)"
       x1="105.9745"
       y1="212.45917"
       x2="105.9745"
       y2="205.80904" /><linearGradient
       xlink:href="#linearGradient1-1"
       id="linearGradient378"
       x1="126.85568"
       y1="260.34998"
       x2="139.84431"
       y2="260.34998"
       gradientUnits="userSpaceOnUse" /><linearGradient
       xlink:href="#linearGradient1-1"
       id="linearGradient384"
       x1="119.89864"
       y1="298.85413"
       x2="123.28366"
       y2="298.85413"
       gradientUnits="userSpaceOnUse" /><linearGradient
       xlink:href="#linearGradient89"
       id="linearGradient745"
       x1="131.74133"
       y1="259.26758"
       x2="134.85141"
       y2="259.26758"
       gradientUnits="userSpaceOnUse" /></defs><g
     id="layer5"
     style="display:inline"
     transform="translate(-152.39999,-266.7)"><g
       id="g148"
       style="display:inline"
       transform="translate(25.4)"><path
         id="rect93"
         style="display:inline;fill:url(#linearGradient161);stroke:url(#linearGradient378);stroke-width:1.08238;stroke-linecap:square;stroke-linejoin:round;stroke-miterlimit:2.66;paint-order:fill markers stroke"
         transform="matrix(0.977778,0,0,0.977778,2.9633016,18.485501)"
         d="m 129.8248,254.39687 h 7.0504 c 1.34507,0 2.42792,1.09836 2.42792,2.46269 v 6.98086 c 0,1.36433 -1.08285,2.46269 -2.42792,2.46269 h -7.0504 c -1.34507,0 -2.42793,-1.09836 -2.42793,-2.46269 v -6.98086 c 0,-1.36433 1.08286,-2.46269 2.42793,-2.46269 z" /><path
         d="m 133.76204,261.24878 -0.82409,-1.49578 h -0.23142 v 1.49578 h -0.9652 v -3.9624 h 1.61995 q 0.46849,0 0.79587,0.16369 0.33302,0.16369 0.49671,0.45156 0.16369,0.28222 0.16369,0.63217 0,0.39511 -0.22578,0.70556 -0.22013,0.31044 -0.65476,0.44026 l 0.9144,1.56916 z m -1.05551,-2.17875 h 0.59831 q 0.26529,0 0.39511,-0.12983 0.13546,-0.12982 0.13546,-0.36689 0,-0.22577 -0.13546,-0.3556 -0.12982,-0.12982 -0.39511,-0.12982 h -0.59831 z"
         id="text93"
         style="font-weight:bold;font-size:5.64444px;line-height:1.1;font-family:Poppins;-inkscape-font-specification:'Poppins Bold';text-align:center;letter-spacing:0.132292px;text-anchor:middle;fill:url(#linearGradient745);stroke-width:0.81179;stroke-linecap:square;stroke-linejoin:round;stroke-miterlimit:2.66;paint-order:fill markers stroke"
         transform="matrix(0.977778,0,0,0.977778,2.9633016,18.485501)"
         aria-label="R" /><g
         id="g145"
         transform="matrix(1.3431298,-1.0498569,1.0498569,1.3431298,-343.21041,5.892246)"
         style="display:inline"><path
           id="circle93"
           style="fill:#ffffff;stroke-width:1.0294;stroke-linecap:round;stroke-linejoin:round;stroke-miterlimit:2.66;paint-order:stroke fill markers"
           d="m 123.44756,297.14117 a 0.82351542,0.82351542 0 0 1 -0.82351,0.82352 0.82351542,0.82351542 0 0 1 -0.82352,-0.82352 0.82351542,0.82351542 0 0 1 0.82352,-0.82351 0.82351542,0.82351542 0 0 1 0.82351,0.82351 z" /><path
           id="circle94"
           style="fill:none;stroke:#ffffff;stroke-width:0.307214;stroke-linecap:round;stroke-linejoin:round;stroke-miterlimit:2.66;paint-order:stroke fill markers"
           d="m 124.0338,297.14117 a 1.409755,1.409755 0 0 1 -1.40975,1.40976 1.409755,1.409755 0 0 1 -1.40976,-1.40976 1.409755,1.409755 0 0 1 1.40976,-1.40975 1.409755,1.409755 0 0 1 1.40975,1.40975 z" /><path
           stroke="none"
           fill="#ffffff"
           d="m 122.70907,298.82443 c 0.17461,0.13683 0.26936,0.35657 0.10127,0.571 -0.0546,0.0847 -0.69772,0.89031 -0.69772,0.89031 -0.28883,0.36855 -0.7688,0.0747 -1.03071,-0.13047 -0.21513,-0.16859 -0.35773,-0.37735 -0.40726,-0.65364 l -0.0113,-0.13683 c 0.002,-0.18409 -0.034,-0.36519 -0.10671,-0.54329 -0.0326,-0.077 -0.32457,-0.27837 -0.26228,-0.62144 0.0492,-0.34591 0.38347,-0.37852 0.54766,-0.32446 0.27088,0.0915 0.29437,0.32189 0.34483,0.42073 l 0.64685,-0.82542 c 0.40577,-0.51777 1.04459,-0.0539 0.62097,0.48665 l -0.32405,0.4135 z"
           id="path143"
           style="display:inline;fill:#23c3f6;fill-opacity:1;stroke:url(#linearGradient384);stroke-width:0.776017;stroke-linecap:round;stroke-linejoin:round;stroke-dasharray:none;paint-order:stroke fill markers" /></g><path
         id="path145"
         style="fill:#ffffff;fill-opacity:1;stroke:none;stroke-width:0.989227;stroke-linecap:round;stroke-linejoin:round;stroke-miterlimit:0;stroke-dasharray:none;stroke-opacity:1;paint-order:stroke fill markers"
         d="m 127.74517,275.99555 1.40055,1.36026 v -0.58844 h 1.20176 v -1.54363 h -1.20176 v -0.58844 z" /><path
         id="path148"
         style="fill:#ffffff;fill-opacity:1;stroke:none;stroke-width:0.989227;stroke-linecap:round;stroke-linejoin:round;stroke-miterlimit:0;stroke-dasharray:none;stroke-opacity:1;paint-order:stroke fill markers"
         d="m 139.16871,275.84085 -1.40055,1.36026 v -0.58844 h -1.20176 v -1.54363 h 1.20176 v -0.58844 z" /></g></g></svg>
