<?xml version="1.0" encoding="UTF-8" standalone="no"?>
<!-- Created with Inkscape (http://www.inkscape.org/) -->

<svg
   width="59.059677"
   height="55.685394"
   viewBox="0 0 15.626206 14.733427"
   version="1.1"
   id="svg1"
   xml:space="preserve"
   xmlns:xlink="http://www.w3.org/1999/xlink"
   xmlns="http://www.w3.org/2000/svg"
   xmlns:svg="http://www.w3.org/2000/svg"><defs
     id="defs1"><linearGradient
       id="linearGradient89"><stop
         style="stop-color:#434a5f;stop-opacity:1;"
         offset="1"
         id="stop89" /><stop
         style="stop-color:#434a5f;stop-opacity:1;"
         offset="1"
         id="stop90" /></linearGradient><linearGradient
       id="linearGradient1-1"><stop
         style="stop-color:#434a5f;stop-opacity:1;"
         offset="1"
         id="stop3" /><stop
         style="stop-color:#434a5f;stop-opacity:1;"
         offset="1"
         id="stop4" /></linearGradient><linearGradient
       id="linearGradient2"><stop
         style="stop-color:#8a90a8;stop-opacity:1"
         offset="0.68779135"
         id="stop39" /><stop
         style="stop-color:#636883;stop-opacity:1;"
         offset="0.68779135"
         id="stop40" /></linearGradient><linearGradient
       xlink:href="#linearGradient2"
       id="linearGradient33"
       gradientUnits="userSpaceOnUse"
       gradientTransform="matrix(0.9520049,0,0,0.9520049,32.461754,58.087834)"
       x1="105.9745"
       y1="212.45917"
       x2="105.9745"
       y2="205.80904" /><linearGradient
       xlink:href="#linearGradient1-1"
       id="linearGradient380"
       x1="126.85568"
       y1="260.34998"
       x2="139.84431"
       y2="260.34998"
       gradientUnits="userSpaceOnUse" /><linearGradient
       xlink:href="#linearGradient1-1"
       id="linearGradient382"
       x1="118.5613"
       y1="301.01611"
       x2="124.61387"
       y2="301.01611"
       gradientUnits="userSpaceOnUse" /><linearGradient
       xlink:href="#linearGradient89"
       id="linearGradient747"
       x1="132.23521"
       y1="260.34998"
       x2="134.46477"
       y2="260.34998"
       gradientUnits="userSpaceOnUse" /></defs><g
     id="layer5"
     style="display:inline"
     transform="translate(-126.99999,-241.3)"><g
       id="g39"
       style="display:inline"
       transform="translate(4.4264955e-8,-38.1)"><g
         id="g33"
         transform="matrix(0.977778,0,0,0.977778,2.9633016,31.185501)"
         style="display:inline;stroke-width:1.02273"><path
           id="rect31"
           style="display:inline;fill:url(#linearGradient33);stroke:url(#linearGradient380);stroke-width:1.08238;stroke-linecap:square;stroke-linejoin:round;stroke-miterlimit:2.66;paint-order:fill markers stroke"
           d="m 129.8248,254.39687 h 7.0504 c 1.34507,0 2.42792,1.09836 2.42792,2.46269 v 6.98086 c 0,1.36433 -1.08285,2.46269 -2.42792,2.46269 h -7.0504 c -1.34507,0 -2.42793,-1.09836 -2.42793,-2.46269 v -6.98086 c 0,-1.36433 1.08286,-2.46269 2.42793,-2.46269 z" /><path
           d="m 133.20042,261.58611 h 1.26435 v 0.74507 h -2.22955 v -3.9624 h 0.9652 z"
           id="text32"
           style="font-weight:bold;font-size:5.64444px;line-height:1.1;font-family:Poppins;-inkscape-font-specification:'Poppins Bold';text-align:center;letter-spacing:0.132292px;text-anchor:middle;fill:url(#linearGradient747);stroke-width:0.81179;stroke-linecap:square;stroke-linejoin:round;stroke-miterlimit:2.66;paint-order:fill markers stroke"
           aria-label="L" /></g><g
         id="g35"
         transform="matrix(1.3431298,-1.0498569,1.0498569,1.3431298,-340.0354,18.592246)"
         style="display:inline"><path
           id="circle34"
           style="fill:#ffffff;stroke-width:1.0294;stroke-linecap:round;stroke-linejoin:round;stroke-miterlimit:2.66;paint-order:stroke fill markers"
           d="m 123.44756,297.14117 a 0.82351542,0.82351542 0 0 1 -0.82351,0.82352 0.82351542,0.82351542 0 0 1 -0.82352,-0.82352 0.82351542,0.82351542 0 0 1 0.82352,-0.82351 0.82351542,0.82351542 0 0 1 0.82351,0.82351 z" /><path
           id="circle35"
           style="fill:none;stroke:#ffffff;stroke-width:0.307214;stroke-linecap:round;stroke-linejoin:round;stroke-miterlimit:2.66;paint-order:stroke fill markers"
           d="m 124.0338,297.14117 a 1.409755,1.409755 0 0 1 -1.40975,1.40976 1.409755,1.409755 0 0 1 -1.40976,-1.40976 1.409755,1.409755 0 0 1 1.40976,-1.40975 1.409755,1.409755 0 0 1 1.40975,1.40975 z" /><path
           stroke="none"
           fill="#ffffff"
           d="m 123.20893,300.14538 c 0.37819,0 0.73638,0.1952 0.73638,0.65961 0.0157,0.17107 0,1.92833 0,1.92833 0,0.79825 -0.95296,0.90874 -1.52025,0.90874 -0.46594,0 -0.8768,-0.13016 -1.23379,-0.4488 l -0.15931,-0.17151 c -0.19145,-0.24869 -0.42961,-0.45429 -0.71445,-0.61681 -0.12457,-0.069 -0.72824,-0.0322 -1.00539,-0.55805 -0.29781,-0.51582 0.1165,-0.91114 0.39365,-1.01125 0.4597,-0.16203 0.73349,0.12238 0.90511,0.20194 v -1.78775 c 0,-1.12144 1.34494,-1.17078 1.34494,0 v 0.8956 z"
           id="path35"
           style="display:inline;fill:#23c3f6;fill-opacity:1;stroke:url(#linearGradient382);stroke-width:1.32292;stroke-linecap:round;stroke-linejoin:round;stroke-dasharray:none;paint-order:stroke fill markers"
           transform="matrix(0.5865938,0,0,0.5865938,51.493331,122.49536)" /></g></g></g></svg>
