<?xml version="1.0" encoding="UTF-8" standalone="no"?>
<!-- Created with Inkscape (http://www.inkscape.org/) -->

<svg
   width="47.999996"
   height="48.000038"
   viewBox="0 0 12.699999 12.70001"
   version="1.1"
   id="svg1"
   xml:space="preserve"
   xmlns:xlink="http://www.w3.org/1999/xlink"
   xmlns="http://www.w3.org/2000/svg"
   xmlns:svg="http://www.w3.org/2000/svg"><defs
     id="defs1"><linearGradient
       id="linearGradient1"><stop
         style="stop-color:#434a5f;stop-opacity:1;"
         offset="1"
         id="stop111" /><stop
         style="stop-color:#434a5f;stop-opacity:1;"
         offset="1"
         id="stop112" /></linearGradient><linearGradient
       id="linearGradient103"><stop
         style="stop-color:#434a5f;stop-opacity:1;"
         offset="1"
         id="stop103" /><stop
         style="stop-color:#434a5f;stop-opacity:1;"
         offset="1"
         id="stop104" /></linearGradient><linearGradient
       id="linearGradient301"><stop
         style="stop-color:#ffffff;stop-opacity:1;"
         offset="0.68779135"
         id="stop300" /><stop
         style="stop-color:#b2b2b2;stop-opacity:1;"
         offset="0.68779135"
         id="stop301" /></linearGradient><linearGradient
       xlink:href="#linearGradient301"
       id="linearGradient1118"
       gradientUnits="userSpaceOnUse"
       x1="394.20316"
       y1="117.70407"
       x2="391.80466"
       y2="117.70407" /><linearGradient
       xlink:href="#linearGradient1"
       id="linearGradient1119"
       gradientUnits="userSpaceOnUse"
       x1="389.96683"
       y1="115.01765"
       x2="402.28177"
       y2="115.01765" /><linearGradient
       xlink:href="#linearGradient103"
       id="linearGradient1120"
       gradientUnits="userSpaceOnUse"
       x1="158.6666"
       y1="-4.4880328"
       x2="162.83586"
       y2="-4.4880328" /><linearGradient
       xlink:href="#linearGradient301"
       id="linearGradient1121"
       gradientUnits="userSpaceOnUse"
       x1="398.78177"
       y1="117.41906"
       x2="398.78177"
       y2="119.43993" /><linearGradient
       xlink:href="#linearGradient1"
       id="linearGradient1122"
       gradientUnits="userSpaceOnUse"
       x1="389.96683"
       y1="115.01765"
       x2="402.28177"
       y2="115.01765" /><linearGradient
       xlink:href="#linearGradient103"
       id="linearGradient1123"
       gradientUnits="userSpaceOnUse"
       x1="158.11627"
       y1="-4.5331883"
       x2="163.62326"
       y2="-4.5331883" /><linearGradient
       xlink:href="#linearGradient301"
       id="linearGradient1124"
       gradientUnits="userSpaceOnUse"
       x1="398.78177"
       y1="117.41906"
       x2="398.78177"
       y2="119.43993" /><linearGradient
       xlink:href="#linearGradient1"
       id="linearGradient1125"
       gradientUnits="userSpaceOnUse"
       x1="389.96683"
       y1="115.01765"
       x2="402.28177"
       y2="115.01765" /><linearGradient
       xlink:href="#linearGradient103"
       id="linearGradient1126"
       gradientUnits="userSpaceOnUse"
       x1="157.62238"
       y1="-4.5331883"
       x2="164.11716"
       y2="-4.5331883" /><linearGradient
       xlink:href="#linearGradient1"
       id="linearGradient1145"
       gradientUnits="userSpaceOnUse"
       x1="-224.81413"
       y1="80.729324"
       x2="-209.99194"
       y2="80.666618" /><linearGradient
       xlink:href="#linearGradient103"
       id="linearGradient1146"
       gradientUnits="userSpaceOnUse"
       x1="77.592941"
       y1="221.02827"
       x2="81.988426"
       y2="221.02827" /><linearGradient
       xlink:href="#linearGradient103"
       id="linearGradient1147"
       gradientUnits="userSpaceOnUse"
       x1="77.592941"
       y1="222.03767"
       x2="81.988426"
       y2="222.03767" /><linearGradient
       xlink:href="#linearGradient103"
       id="linearGradient1148"
       gradientUnits="userSpaceOnUse"
       x1="77.592949"
       y1="223.04706"
       x2="81.988419"
       y2="223.04706" /><linearGradient
       xlink:href="#linearGradient1"
       id="linearGradient1149"
       gradientUnits="userSpaceOnUse"
       x1="-224.81413"
       y1="80.729324"
       x2="-209.99194"
       y2="80.666618" /><linearGradient
       xlink:href="#linearGradient103"
       id="linearGradient1150"
       gradientUnits="userSpaceOnUse"
       x1="106.0551"
       y1="257.1268"
       x2="108.47075"
       y2="257.1268" /><linearGradient
       xlink:href="#linearGradient301"
       id="linearGradient1283"
       x1="-224.81413"
       y1="80.729324"
       x2="-209.99194"
       y2="80.666618"
       gradientUnits="userSpaceOnUse" /><linearGradient
       xlink:href="#linearGradient301"
       id="linearGradient1284"
       x1="-224.81413"
       y1="80.729324"
       x2="-209.99194"
       y2="80.666618"
       gradientUnits="userSpaceOnUse" /></defs><g
     id="layer5"
     style="display:inline"
     transform="translate(-88.900002,-342.89998)"><g
       id="g1053"
       style="display:inline"
       transform="translate(27.47224,136.6891)"><rect
         style="fill:url(#linearGradient1284);fill-opacity:1;stroke:url(#linearGradient1149);stroke-width:1.05833;stroke-linecap:round;stroke-linejoin:round;stroke-miterlimit:0;stroke-dasharray:none;paint-order:fill markers stroke"
         id="rect1052"
         width="5.1737056"
         height="10.267574"
         x="-224.28497"
         y="75.595535"
         rx="2.5868528"
         ry="2.5868528"
         transform="rotate(-89.757604)" /><rect
         style="display:inline;fill:url(#linearGradient1150);stroke:none;stroke-width:0.793751;stroke-linecap:square;stroke-linejoin:round;stroke-miterlimit:2.66;stroke-dasharray:none;stroke-opacity:1;paint-order:stroke fill markers"
         id="rect1053"
         width="2.4156547"
         height="2.4156547"
         x="106.0551"
         y="255.91896"
         transform="translate(-27.472243,-35.08912)" /></g><g
       id="g1056"
       style="display:inline"
       transform="translate(14.772241,136.6891)"><rect
         style="fill:url(#linearGradient1283);fill-opacity:1;stroke:url(#linearGradient1145);stroke-width:1.05833;stroke-linecap:round;stroke-linejoin:round;stroke-miterlimit:0;stroke-dasharray:none;paint-order:fill markers stroke"
         id="rect1054"
         width="5.1737056"
         height="10.267574"
         x="-224.28497"
         y="75.595535"
         rx="2.5868528"
         ry="2.5868528"
         transform="rotate(-89.757604)" /><path
         style="display:inline;fill:none;fill-opacity:1;stroke:url(#linearGradient1146);stroke-width:0.79375;stroke-linecap:round;stroke-linejoin:round;stroke-miterlimit:0;stroke-dasharray:none;paint-order:fill markers stroke"
         d="m 77.989818,221.02828 h 3.601733"
         id="path1054" /><path
         style="display:inline;fill:none;fill-opacity:1;stroke:url(#linearGradient1147);stroke-width:0.79375;stroke-linecap:round;stroke-linejoin:round;stroke-miterlimit:0;stroke-dasharray:none;paint-order:fill markers stroke"
         d="m 77.989818,222.03767 h 3.601733"
         id="path1055" /><path
         style="display:inline;fill:none;fill-opacity:1;stroke:url(#linearGradient1148);stroke-width:0.79375;stroke-linecap:round;stroke-linejoin:round;stroke-miterlimit:0;stroke-dasharray:none;paint-order:fill markers stroke"
         d="m 77.989825,223.04706 h 1.80086 1.800859"
         id="path1056" /></g><g
       id="g1063"
       transform="matrix(1,0,0,-1,-52.936691,353.659)"
       style="display:inline"><path
         id="path1062"
         style="fill:url(#linearGradient1124);stroke:url(#linearGradient1125);stroke-width:1;stroke-linecap:round;stroke-linejoin:round;stroke-dasharray:none;paint-order:fill markers stroke"
         d="m 393.27574,109.36018 h 5.69711 a 2.8089072,2.8089072 45 0 1 2.80891,2.80891 v 2.52376 a 5.9822685,5.9822685 135 0 1 -5.98227,5.98227 h -2.52375 a 2.8089072,2.8089072 45 0 1 -2.80891,-2.80891 v -5.69712 a 2.8089072,2.8089072 135 0 1 2.80891,-2.80891 z"
         transform="matrix(1.0312685,0,0,-1.0312685,-247.62382,123.02309)" /><path
         d="M 159.64309,-2.4278121 158.819,-3.9235887 h -0.23142 v 1.4957766 h -0.9652 v -3.962397 h 1.61995 q 0.46849,0 0.79587,0.1636888 0.33302,0.1636887 0.49671,0.4515552 0.16369,0.282222 0.16369,0.6321773 0,0.3951108 -0.22578,0.705555 -0.22013,0.3104442 -0.65475,0.4402663 l 0.91439,1.5691544 z m -1.05551,-2.1787539 h 0.59831 q 0.26529,0 0.39511,-0.1298221 0.13547,-0.1298222 0.13547,-0.3668886 0,-0.2257776 -0.13547,-0.3555998 -0.12982,-0.1298221 -0.39511,-0.1298221 h -0.59831 z m 2.69606,1.4054656 q 0.19191,-0.1523999 0.17498,-0.141111 0.55315,-0.4571997 0.86924,-0.7507106 0.32173,-0.2935108 0.54187,-0.6152439 0.22013,-0.3217331 0.22013,-0.6265329 0,-0.231422 -0.10724,-0.3612442 -0.10725,-0.1298221 -0.32174,-0.1298221 -0.21449,0 -0.33866,0.1636888 -0.11854,0.1580443 -0.11854,0.4515552 h -0.93133 q 0.0113,-0.4797774 0.2032,-0.8015105 0.19756,-0.3217331 0.51364,-0.474133 0.32174,-0.1523999 0.7112,-0.1523999 0.67169,0 1.01036,0.3443109 0.34431,0.3443108 0.34431,0.897466 0,0.6039551 -0.41205,1.1232436 -0.41204,0.513644 -1.04986,1.0047103 h 1.524 v 0.7845772 h -2.83351 z"
         id="text1062"
         style="font-weight:bold;font-size:5.64444px;font-family:Poppins;-inkscape-font-specification:'Poppins Bold';text-align:center;letter-spacing:0.110906px;text-anchor:middle;fill:url(#linearGradient1126);stroke-width:0.670673;stroke-linecap:round;stroke-linejoin:round;paint-order:fill markers stroke"
         transform="scale(1,-1)"
         aria-label="R2" /></g><g
       id="g1064"
       transform="matrix(1,0,0,-1,-65.636691,353.659)"
       style="display:inline"><path
         id="path1063"
         style="fill:url(#linearGradient1121);stroke:url(#linearGradient1122);stroke-width:1;stroke-linecap:round;stroke-linejoin:round;stroke-dasharray:none;paint-order:fill markers stroke"
         d="m 393.27574,109.36018 h 5.69711 a 2.8089072,2.8089072 45 0 1 2.80891,2.80891 v 2.52376 a 5.9822685,5.9822685 135 0 1 -5.98227,5.98227 h -2.52375 a 2.8089072,2.8089072 45 0 1 -2.80891,-2.80891 v -5.69712 a 2.8089072,2.8089072 135 0 1 2.80891,-2.80891 z"
         transform="matrix(-1.0312685,0,0,-1.0312685,569.3972,123.02309)" /><path
         d="m 159.08147,-3.1728782 h 1.26435 v 0.7450661 h -2.22955 v -3.962397 h 0.9652 z m 1.70828,-0.028222 q 0.19191,-0.1523999 0.17497,-0.141111 0.55316,-0.4571997 0.86925,-0.7507106 0.32173,-0.2935108 0.54187,-0.6152439 0.22013,-0.3217331 0.22013,-0.6265329 0,-0.231422 -0.10725,-0.3612442 -0.10724,-0.1298221 -0.32173,-0.1298221 -0.21449,0 -0.33867,0.1636888 -0.11853,0.1580443 -0.11853,0.4515552 h -0.93133 q 0.0113,-0.4797774 0.2032,-0.8015105 0.19755,-0.3217331 0.51364,-0.474133 0.32174,-0.1523999 0.7112,-0.1523999 0.67169,0 1.01036,0.3443109 0.34431,0.3443108 0.34431,0.897466 0,0.6039551 -0.41205,1.1232436 -0.41204,0.513644 -1.04986,1.0047103 h 1.524 v 0.7845772 h -2.83351 z"
         id="text1063"
         style="font-weight:bold;font-size:5.64444px;font-family:Poppins;-inkscape-font-specification:'Poppins Bold';text-align:center;letter-spacing:0.110906px;text-anchor:middle;fill:url(#linearGradient1123);stroke-width:0.670673;stroke-linecap:round;stroke-linejoin:round;paint-order:fill markers stroke"
         transform="scale(1,-1)"
         aria-label="L2" /></g><g
       id="g1065"
       transform="matrix(1,0,0,-1,-65.636696,340.95899)"
       style="display:inline"><path
         id="path1064"
         style="fill:url(#linearGradient1118);stroke:url(#linearGradient1119);stroke-width:1;stroke-linecap:round;stroke-linejoin:round;stroke-dasharray:none;paint-order:fill markers stroke"
         d="m 393.27574,109.36018 h 5.69711 a 2.8089072,2.8089072 45 0 1 2.80891,2.80891 v 2.52376 a 5.9822685,5.9822685 135 0 1 -5.98227,5.98227 h -2.52375 a 2.8089072,2.8089072 45 0 1 -2.80891,-2.80891 v -5.69712 a 2.8089072,2.8089072 135 0 1 2.80891,-2.80891 z"
         transform="matrix(0,1.0312685,-1.0312685,0,279.50077,-404.1015)" /><path
         d="m 159.6318,-3.1728782 h 1.26436 v 0.7450661 h -2.22956 v -3.962397 h 0.9652 z m 1.64055,-2.4779092 v -0.897466 h 1.56351 v 4.1204413 h -1.00471 v -3.2229753 z"
         id="text1064"
         style="font-weight:bold;font-size:5.64444px;font-family:Poppins;-inkscape-font-specification:'Poppins Bold';text-align:center;letter-spacing:0.110906px;text-anchor:middle;fill:url(#linearGradient1120);stroke-width:0.670673;stroke-linecap:round;stroke-linejoin:round;paint-order:fill markers stroke"
         transform="scale(1,-1)"
         aria-label="L1" /></g></g></svg>
