<?xml version="1.0" encoding="UTF-8" standalone="no"?>
<!-- Created with Inkscape (http://www.inkscape.org/) -->

<svg
   width="47.999977"
   height="47.999977"
   viewBox="0 0 12.699994 12.699994"
   version="1.1"
   id="svg1"
   xml:space="preserve"
   xmlns:xlink="http://www.w3.org/1999/xlink"
   xmlns="http://www.w3.org/2000/svg"
   xmlns:svg="http://www.w3.org/2000/svg"><defs
     id="defs1"><linearGradient
       id="linearGradient1"><stop
         style="stop-color:#434a5f;stop-opacity:1;"
         offset="1"
         id="stop111" /><stop
         style="stop-color:#434a5f;stop-opacity:1;"
         offset="1"
         id="stop112" /></linearGradient><linearGradient
       id="linearGradient103"><stop
         style="stop-color:#434a5f;stop-opacity:1;"
         offset="1"
         id="stop103" /><stop
         style="stop-color:#434a5f;stop-opacity:1;"
         offset="1"
         id="stop104" /></linearGradient><linearGradient
       id="linearGradient301"><stop
         style="stop-color:#ffffff;stop-opacity:1;"
         offset="0.68779135"
         id="stop300" /><stop
         style="stop-color:#b2b2b2;stop-opacity:1;"
         offset="0.68779135"
         id="stop301" /></linearGradient><linearGradient
       xlink:href="#linearGradient301"
       id="linearGradient1136"
       gradientUnits="userSpaceOnUse"
       gradientTransform="matrix(0.9520049,0,0,0.9520049,32.461754,58.087834)"
       x1="105.9745"
       y1="212.45917"
       x2="105.97449"
       y2="218.71239" /><linearGradient
       xlink:href="#linearGradient1"
       id="linearGradient1137"
       gradientUnits="userSpaceOnUse"
       x1="126.85568"
       y1="260.34998"
       x2="139.84431"
       y2="260.34998" /><linearGradient
       xlink:href="#linearGradient103"
       id="linearGradient1138"
       gradientUnits="userSpaceOnUse"
       x1="129.84074"
       y1="260.26813"
       x2="136.69556"
       y2="260.26813" /></defs><g
     id="layer5"
     style="display:inline"
     transform="translate(-101.6,-406.39997)"><g
       id="g1059"
       transform="matrix(0.97777784,0,0,0.97777784,-22.436679,158.18552)"
       style="display:inline;stroke-width:1.02273"><rect
         style="display:inline;fill:url(#linearGradient1136);fill-opacity:1;stroke:url(#linearGradient1137);stroke-width:1.08238;stroke-linecap:square;stroke-linejoin:round;stroke-miterlimit:2.66;stroke-dasharray:none;paint-order:fill markers stroke"
         id="rect1058"
         width="11.906249"
         height="11.906249"
         x="127.39687"
         y="254.39687"
         rx="2.4279234"
         ry="2.4626966" /><path
         d="m 131.86145,262.33118 -0.82409,-1.49578 h -0.23142 v 1.49578 h -0.9652 v -3.9624 h 1.61995 q 0.46849,0 0.79587,0.16369 0.33302,0.16369 0.49671,0.45155 0.16369,0.28223 0.16369,0.63218 0,0.39511 -0.22578,0.70556 -0.22013,0.31044 -0.65475,0.44026 l 0.9144,1.56916 z m -1.05551,-2.17876 h 0.59831 q 0.26529,0 0.39511,-0.12982 0.13547,-0.12982 0.13547,-0.36689 0,-0.22578 -0.13547,-0.3556 -0.12982,-0.12982 -0.39511,-0.12982 h -0.59831 z m 5.65256,-1.10066 h -1.76107 v 0.77893 q 0.11289,-0.12418 0.31609,-0.2032 0.2032,-0.079 0.44027,-0.079 0.42333,0 0.69991,0.19191 0.28222,0.19191 0.41204,0.49671 0.12982,0.3048 0.12982,0.6604 0,0.6604 -0.37253,1.04986 -0.37253,0.38383 -1.04987,0.38383 -0.45155,0 -0.78457,-0.1524 -0.33303,-0.15805 -0.51365,-0.43463 -0.18062,-0.27657 -0.19755,-0.63782 h 0.94262 q 0.0339,0.17498 0.16369,0.29351 0.12982,0.11289 0.3556,0.11289 0.26529,0 0.39511,-0.16933 0.12982,-0.16933 0.12982,-0.45156 0,-0.27657 -0.13547,-0.42333 -0.13546,-0.14675 -0.39511,-0.14675 -0.19191,0 -0.31609,0.096 -0.12417,0.0903 -0.16369,0.24271 h -0.93133 v -2.45533 h 2.63596 z"
         id="text1058"
         style="font-weight:bold;font-size:5.64444px;line-height:1.1;font-family:Poppins;-inkscape-font-specification:'Poppins Bold';text-align:center;letter-spacing:0.132292px;text-anchor:middle;fill:url(#linearGradient1138);stroke-width:0.81179;stroke-linecap:square;stroke-linejoin:round;stroke-miterlimit:2.66;paint-order:fill markers stroke"
         aria-label="R5" /></g></g></svg>
