<?xml version="1.0" encoding="UTF-8" standalone="no"?>
<!-- Created with Inkscape (http://www.inkscape.org/) -->

<svg
   width="47.999981"
   height="47.999943"
   viewBox="0 0 12.699995 12.699985"
   version="1.1"
   id="svg1"
   xml:space="preserve"
   xmlns:xlink="http://www.w3.org/1999/xlink"
   xmlns="http://www.w3.org/2000/svg"
   xmlns:svg="http://www.w3.org/2000/svg"><defs
     id="defs1"><linearGradient
       id="linearGradient89"><stop
         style="stop-color:#434a5f;stop-opacity:1;"
         offset="1"
         id="stop89" /><stop
         style="stop-color:#434a5f;stop-opacity:1;"
         offset="1"
         id="stop90" /></linearGradient><linearGradient
       id="linearGradient1-1"><stop
         style="stop-color:#434a5f;stop-opacity:1;"
         offset="1"
         id="stop3" /><stop
         style="stop-color:#434a5f;stop-opacity:1;"
         offset="1"
         id="stop4" /></linearGradient><linearGradient
       id="linearGradient2"><stop
         style="stop-color:#8a90a8;stop-opacity:1"
         offset="0.68779135"
         id="stop39" /><stop
         style="stop-color:#636883;stop-opacity:1;"
         offset="0.68779135"
         id="stop40" /></linearGradient><linearGradient
       xlink:href="#linearGradient2"
       id="linearGradient935"
       gradientUnits="userSpaceOnUse"
       gradientTransform="matrix(0.9520049,0,0,0.9520049,32.461754,58.087834)"
       x1="105.9745"
       y1="212.45917"
       x2="105.97449"
       y2="218.71239" /><linearGradient
       xlink:href="#linearGradient1-1"
       id="linearGradient374"
       x1="126.85568"
       y1="260.34998"
       x2="139.84431"
       y2="260.34998"
       gradientUnits="userSpaceOnUse" /><linearGradient
       xlink:href="#linearGradient89"
       id="linearGradient742"
       x1="129.84074"
       y1="260.26813"
       x2="136.69556"
       y2="260.26813"
       gradientUnits="userSpaceOnUse" /></defs><g
     id="layer5"
     style="display:inline"
     transform="translate(-101.6,-317.5)"><g
       id="g935"
       transform="matrix(0.97777784,0,0,0.97777784,-22.436676,69.285538)"
       style="display:inline;stroke-width:1.02273"><path
         id="rect935"
         style="display:inline;fill:url(#linearGradient935);stroke:url(#linearGradient374);stroke-width:1.08238;stroke-linecap:square;stroke-linejoin:round;stroke-miterlimit:2.66;paint-order:fill markers stroke"
         d="m 129.8248,254.39687 h 7.0504 c 1.34507,0 2.42792,1.09836 2.42792,2.46269 v 6.98086 c 0,1.36433 -1.08285,2.46269 -2.42792,2.46269 h -7.0504 c -1.34507,0 -2.42793,-1.09836 -2.42793,-2.46269 v -6.98086 c 0,-1.36433 1.08286,-2.46269 2.42793,-2.46269 z" /><path
         d="m 131.86145,262.33118 -0.82409,-1.49578 h -0.23142 v 1.49578 h -0.9652 v -3.9624 h 1.61995 q 0.46849,0 0.79587,0.16369 0.33302,0.16369 0.49671,0.45155 0.16369,0.28223 0.16369,0.63218 0,0.39511 -0.22578,0.70556 -0.22013,0.31044 -0.65475,0.44026 l 0.9144,1.56916 z m -1.05551,-2.17876 h 0.59831 q 0.26529,0 0.39511,-0.12982 0.13547,-0.12982 0.13547,-0.36689 0,-0.22578 -0.13547,-0.3556 -0.12982,-0.12982 -0.39511,-0.12982 h -0.59831 z m 5.65256,-1.10066 h -1.76107 v 0.77893 q 0.11289,-0.12418 0.31609,-0.2032 0.2032,-0.079 0.44027,-0.079 0.42333,0 0.69991,0.19191 0.28222,0.19191 0.41204,0.49671 0.12982,0.3048 0.12982,0.6604 0,0.6604 -0.37253,1.04986 -0.37253,0.38383 -1.04987,0.38383 -0.45155,0 -0.78457,-0.1524 -0.33303,-0.15805 -0.51365,-0.43463 -0.18062,-0.27657 -0.19755,-0.63782 h 0.94262 q 0.0339,0.17498 0.16369,0.29351 0.12982,0.11289 0.3556,0.11289 0.26529,0 0.39511,-0.16933 0.12982,-0.16933 0.12982,-0.45156 0,-0.27657 -0.13547,-0.42333 -0.13546,-0.14675 -0.39511,-0.14675 -0.19191,0 -0.31609,0.096 -0.12417,0.0903 -0.16369,0.24271 h -0.93133 v -2.45533 h 2.63596 z"
         id="text935"
         style="font-weight:bold;font-size:5.64444px;line-height:1.1;font-family:Poppins;-inkscape-font-specification:'Poppins Bold';text-align:center;letter-spacing:0.132292px;text-anchor:middle;fill:url(#linearGradient742);stroke-width:0.81179;stroke-linecap:square;stroke-linejoin:round;stroke-miterlimit:2.66;paint-order:fill markers stroke"
         aria-label="R5" /></g></g></svg>
