<?xml version="1.0" encoding="UTF-8" standalone="no"?>
<!-- Created with Inkscape (http://www.inkscape.org/) -->

<svg
   width="42.8064"
   height="23.635582"
   viewBox="0 0 11.32586 6.2535811"
   version="1.1"
   id="svg1"
   xml:space="preserve"
   xmlns:xlink="http://www.w3.org/1999/xlink"
   xmlns="http://www.w3.org/2000/svg"
   xmlns:svg="http://www.w3.org/2000/svg"><defs
     id="defs1"><linearGradient
       id="linearGradient89"><stop
         style="stop-color:#434a5f;stop-opacity:1;"
         offset="1"
         id="stop89" /><stop
         style="stop-color:#434a5f;stop-opacity:1;"
         offset="1"
         id="stop90" /></linearGradient><linearGradient
       id="linearGradient1-1"><stop
         style="stop-color:#434a5f;stop-opacity:1;"
         offset="1"
         id="stop3" /><stop
         style="stop-color:#434a5f;stop-opacity:1;"
         offset="1"
         id="stop4" /></linearGradient><linearGradient
       xlink:href="#linearGradient1-1"
       id="linearGradient367"
       x1="-224.81413"
       y1="80.729324"
       x2="-218.58211"
       y2="80.729324"
       gradientUnits="userSpaceOnUse" /><linearGradient
       xlink:href="#linearGradient89"
       id="linearGradient734"
       x1="81.703964"
       y1="222.03767"
       x2="83.576111"
       y2="222.03767"
       gradientUnits="userSpaceOnUse" /><linearGradient
       xlink:href="#linearGradient89"
       id="linearGradient735"
       x1="78.854614"
       y1="222.03767"
       x2="80.726761"
       y2="222.03767"
       gradientUnits="userSpaceOnUse" /><linearGradient
       xlink:href="#linearGradient89"
       id="linearGradient736"
       x1="76.005264"
       y1="222.03767"
       x2="77.877411"
       y2="222.03767"
       gradientUnits="userSpaceOnUse" /></defs><g
     id="layer5"
     style="display:inline"
     transform="translate(-88.899999,-279.40497)"><g
       id="g923"
       style="display:inline"
       transform="translate(14.772244,60.494087)"><path
         id="rect921"
         style="fill:#8a90a8;stroke:url(#linearGradient367);stroke-width:1.05833;stroke-linecap:round;stroke-linejoin:round;stroke-miterlimit:0;paint-order:fill markers stroke"
         transform="rotate(-89.757604)"
         d="m -221.69812,75.595535 c 1.43312,0 2.58685,1.153737 2.58685,2.586853 v 5.093869 c 0,1.433116 -1.15373,2.586853 -2.58685,2.586853 -1.43312,0 -2.58685,-1.153737 -2.58685,-2.586853 v -5.093869 c 0,-1.433116 1.15373,-2.586853 2.58685,-2.586853 z" /><path
         id="path927"
         style="fill:url(#linearGradient735);stroke-width:0.793751;stroke-linecap:square;stroke-linejoin:round;stroke-miterlimit:2.66;paint-order:stroke fill markers"
         d="m 80.726758,222.03767 a 0.93607092,0.93607092 0 0 1 -0.93607,0.93607 0.93607092,0.93607092 0 0 1 -0.936071,-0.93607 0.93607092,0.93607092 0 0 1 0.936071,-0.93607 0.93607092,0.93607092 0 0 1 0.93607,0.93607 z" /><path
         id="circle927"
         style="fill:url(#linearGradient734);stroke-width:0.793751;stroke-linecap:square;stroke-linejoin:round;stroke-miterlimit:2.66;paint-order:stroke fill markers"
         d="m 83.576108,222.03767 a 0.93607092,0.93607092 0 0 1 -0.93607,0.93607 0.93607092,0.93607092 0 0 1 -0.936071,-0.93607 0.93607092,0.93607092 0 0 1 0.936071,-0.93607 0.93607092,0.93607092 0 0 1 0.93607,0.93607 z" /><path
         id="circle928"
         style="fill:url(#linearGradient736);stroke-width:0.793751;stroke-linecap:square;stroke-linejoin:round;stroke-miterlimit:2.66;paint-order:stroke fill markers"
         d="m 77.877409,222.03767 a 0.93607092,0.93607092 0 0 1 -0.936071,0.93607 0.93607092,0.93607092 0 0 1 -0.936071,-0.93607 0.93607092,0.93607092 0 0 1 0.936071,-0.93607 0.93607092,0.93607092 0 0 1 0.936071,0.93607 z" /></g></g></svg>
