<?xml version="1.0" encoding="UTF-8" standalone="no"?>
<!-- Created with Inkscape (http://www.inkscape.org/) -->

<svg
   width="42.8064"
   height="23.635582"
   viewBox="0 0 11.32586 6.2535811"
   version="1.1"
   id="svg1"
   xml:space="preserve"
   xmlns:xlink="http://www.w3.org/1999/xlink"
   xmlns="http://www.w3.org/2000/svg"
   xmlns:svg="http://www.w3.org/2000/svg"><defs
     id="defs1"><linearGradient
       id="linearGradient89"><stop
         style="stop-color:#434a5f;stop-opacity:1;"
         offset="1"
         id="stop89" /><stop
         style="stop-color:#434a5f;stop-opacity:1;"
         offset="1"
         id="stop90" /></linearGradient><linearGradient
       id="linearGradient1-1"><stop
         style="stop-color:#434a5f;stop-opacity:1;"
         offset="1"
         id="stop3" /><stop
         style="stop-color:#434a5f;stop-opacity:1;"
         offset="1"
         id="stop4" /></linearGradient><linearGradient
       id="linearGradient2"><stop
         style="stop-color:#8a90a8;stop-opacity:1"
         offset="0.68779135"
         id="stop39" /><stop
         style="stop-color:#636883;stop-opacity:1;"
         offset="0.68779135"
         id="stop40" /></linearGradient><linearGradient
       xlink:href="#linearGradient2"
       id="linearGradient589"
       gradientUnits="userSpaceOnUse"
       x1="398.78177"
       y1="117.41906"
       x2="398.78177"
       y2="119.43993" /><linearGradient
       xlink:href="#linearGradient1-1"
       id="linearGradient362"
       x1="389.96683"
       y1="115.01765"
       x2="402.28177"
       y2="115.01765"
       gradientUnits="userSpaceOnUse" /><linearGradient
       xlink:href="#linearGradient1-1"
       id="linearGradient366"
       x1="-224.81413"
       y1="80.729324"
       x2="-218.58211"
       y2="80.729324"
       gradientUnits="userSpaceOnUse" /><linearGradient
       xlink:href="#linearGradient89"
       id="linearGradient700"
       x1="77.592949"
       y1="223.04706"
       x2="81.988419"
       y2="223.04706"
       gradientUnits="userSpaceOnUse" /><linearGradient
       xlink:href="#linearGradient89"
       id="linearGradient701"
       x1="77.592941"
       y1="222.03767"
       x2="81.988426"
       y2="222.03767"
       gradientUnits="userSpaceOnUse" /><linearGradient
       xlink:href="#linearGradient89"
       id="linearGradient702"
       x1="77.592941"
       y1="221.02827"
       x2="81.988426"
       y2="221.02827"
       gradientUnits="userSpaceOnUse" /><linearGradient
       xlink:href="#linearGradient89"
       id="linearGradient731"
       x1="158.11627"
       y1="-4.5331883"
       x2="163.62326"
       y2="-4.5331883"
       gradientUnits="userSpaceOnUse" /></defs><g
     id="layer5"
     style="display:inline"
     transform="translate(-88.899999,-266.7)"><g
       id="g917"
       style="display:inline"
       transform="translate(14.772244,47.78912)"><path
         id="rect915"
         style="fill:#8a90a8;stroke:url(#linearGradient366);stroke-width:1.05833;stroke-linecap:round;stroke-linejoin:round;stroke-miterlimit:0;paint-order:fill markers stroke"
         transform="rotate(-89.757604)"
         d="m -221.69812,75.595535 c 1.43312,0 2.58685,1.153737 2.58685,2.586853 v 5.093869 c 0,1.433116 -1.15373,2.586853 -2.58685,2.586853 -1.43312,0 -2.58685,-1.153737 -2.58685,-2.586853 v -5.093869 c 0,-1.433116 1.15373,-2.586853 2.58685,-2.586853 z" /><path
         style="display:inline;fill:#434a5f;fill-opacity:1;stroke:url(#linearGradient702);stroke-width:0.79375;stroke-linecap:round;stroke-linejoin:round;stroke-miterlimit:0;stroke-dasharray:none;paint-order:fill markers stroke"
         d="m 77.989818,221.02828 h 3.601733"
         id="path915" /><path
         style="display:inline;fill:#434a5f;fill-opacity:1;stroke:url(#linearGradient701);stroke-width:0.79375;stroke-linecap:round;stroke-linejoin:round;stroke-miterlimit:0;stroke-dasharray:none;paint-order:fill markers stroke"
         d="m 77.989818,222.03767 h 3.601733"
         id="path916" /><path
         style="display:inline;fill:#434a5f;fill-opacity:1;stroke:url(#linearGradient700);stroke-width:0.79375;stroke-linecap:round;stroke-linejoin:round;stroke-miterlimit:0;stroke-dasharray:none;paint-order:fill markers stroke"
         d="m 77.989825,223.04706 h 3.601719"
         id="path917" /></g><g
       id="g587"
       transform="matrix(1,0,0,-1,-65.636688,264.75902)"
       style="display:inline"><path
         id="path587"
         style="fill:url(#linearGradient589);stroke:url(#linearGradient362);stroke-width:1;stroke-linecap:round;stroke-linejoin:round;stroke-dasharray:none;paint-order:fill markers stroke"
         d="m 393.27574,109.36018 h 5.69711 a 2.8089072,2.8089072 45 0 1 2.80891,2.80891 v 2.52376 a 5.9822685,5.9822685 135 0 1 -5.98227,5.98227 h -2.52375 a 2.8089072,2.8089072 45 0 1 -2.80891,-2.80891 v -5.69712 a 2.8089072,2.8089072 135 0 1 2.80891,-2.80891 z"
         transform="matrix(-1.0312685,0,0,-1.0312685,569.3972,123.02309)" /><path
         d="m 159.08147,-3.1728782 h 1.26435 v 0.7450661 h -2.22955 v -3.962397 h 0.9652 z m 1.70828,-0.028222 q 0.19191,-0.1523999 0.17497,-0.141111 0.55316,-0.4571997 0.86925,-0.7507106 0.32173,-0.2935108 0.54187,-0.6152439 0.22013,-0.3217331 0.22013,-0.6265329 0,-0.231422 -0.10725,-0.3612442 -0.10724,-0.1298221 -0.32173,-0.1298221 -0.21449,0 -0.33867,0.1636888 -0.11853,0.1580443 -0.11853,0.4515552 h -0.93133 q 0.0113,-0.4797774 0.2032,-0.8015105 0.19755,-0.3217331 0.51364,-0.474133 0.32174,-0.1523999 0.7112,-0.1523999 0.67169,0 1.01036,0.3443109 0.34431,0.3443108 0.34431,0.897466 0,0.6039551 -0.41205,1.1232436 -0.41204,0.513644 -1.04986,1.0047103 h 1.524 v 0.7845772 h -2.83351 z"
         id="text587"
         style="font-weight:bold;font-size:5.64444px;font-family:Poppins;-inkscape-font-specification:'Poppins Bold';text-align:center;letter-spacing:0.110906px;text-anchor:middle;fill:url(#linearGradient731);stroke-width:0.670673;stroke-linecap:round;stroke-linejoin:round;paint-order:fill markers stroke"
         transform="scale(1,-1)"
         aria-label="L2" /></g></g></svg>
