<?xml version="1.0" encoding="UTF-8" standalone="no"?>
<!-- Created with Inkscape (http://www.inkscape.org/) -->

<svg
   width="57.987476"
   height="47.99995"
   viewBox="0 0 15.34252 12.699987"
   version="1.1"
   id="svg1"
   xml:space="preserve"
   xmlns:xlink="http://www.w3.org/1999/xlink"
   xmlns="http://www.w3.org/2000/svg"
   xmlns:svg="http://www.w3.org/2000/svg"><defs
     id="defs1"><linearGradient
       id="linearGradient89"><stop
         style="stop-color:#434a5f;stop-opacity:1;"
         offset="1"
         id="stop89" /><stop
         style="stop-color:#434a5f;stop-opacity:1;"
         offset="1"
         id="stop90" /></linearGradient><linearGradient
       id="linearGradient1-1"><stop
         style="stop-color:#434a5f;stop-opacity:1;"
         offset="1"
         id="stop3" /><stop
         style="stop-color:#434a5f;stop-opacity:1;"
         offset="1"
         id="stop4" /></linearGradient><linearGradient
       id="linearGradient2"><stop
         style="stop-color:#8a90a8;stop-opacity:1"
         offset="0.68779135"
         id="stop39" /><stop
         style="stop-color:#636883;stop-opacity:1;"
         offset="0.68779135"
         id="stop40" /></linearGradient><linearGradient
       xlink:href="#linearGradient2"
       id="linearGradient92"
       gradientUnits="userSpaceOnUse"
       gradientTransform="matrix(0.9520049,0,0,0.9520049,32.461754,58.087834)"
       x1="105.9745"
       y1="212.45917"
       x2="105.9745"
       y2="205.80904" /><linearGradient
       xlink:href="#linearGradient1-1"
       id="linearGradient376"
       x1="126.85568"
       y1="260.34998"
       x2="139.84431"
       y2="260.34998"
       gradientUnits="userSpaceOnUse" /><linearGradient
       xlink:href="#linearGradient1-1"
       id="linearGradient386"
       x1="119.89864"
       y1="298.85413"
       x2="123.28366"
       y2="298.85413"
       gradientUnits="userSpaceOnUse" /><linearGradient
       xlink:href="#linearGradient89"
       id="linearGradient743"
       x1="130.68491"
       y1="273.84204"
       x2="132.86491"
       y2="273.84204"
       gradientUnits="userSpaceOnUse" /></defs><g
     id="layer5"
     style="display:inline"
     transform="translate(-126.99999,-292.1)"><g
       id="g92"
       style="display:inline"
       transform="translate(4.4249561e-8,25.4)"><path
         id="rect86"
         style="display:inline;fill:url(#linearGradient92);stroke:url(#linearGradient376);stroke-width:1.08238;stroke-linecap:square;stroke-linejoin:round;stroke-miterlimit:2.66;paint-order:fill markers stroke"
         transform="matrix(0.977778,0,0,0.977778,2.9633016,18.485501)"
         d="m 129.8248,254.39687 h 7.0504 c 1.34507,0 2.42792,1.09836 2.42792,2.46269 v 6.98086 c 0,1.36433 -1.08285,2.46269 -2.42792,2.46269 h -7.0504 c -1.34507,0 -2.42793,-1.09836 -2.42793,-2.46269 v -6.98086 c 0,-1.36433 1.08286,-2.46269 2.42793,-2.46269 z" /><path
         d="m 131.62866,275.0507 h 1.23626 v 0.72851 h -2.18001 v -3.87435 h 0.94375 z"
         id="text89"
         style="font-weight:bold;font-size:5.51901px;line-height:1.1;font-family:Poppins;-inkscape-font-specification:'Poppins Bold';text-align:center;letter-spacing:0.129352px;text-anchor:middle;fill:url(#linearGradient743);stroke-width:0.79375;stroke-linecap:square;stroke-linejoin:round;stroke-miterlimit:2.66;paint-order:fill markers stroke"
         aria-label="L" /><g
         id="g90"
         transform="matrix(-1.0498569,-1.3431298,1.3431298,-1.0498569,-134.34776,749.96449)"
         style="display:inline"><path
           id="circle89"
           style="fill:#ffffff;stroke-width:1.0294;stroke-linecap:round;stroke-linejoin:round;stroke-miterlimit:2.66;paint-order:stroke fill markers"
           d="m 123.44756,297.14117 a 0.82351542,0.82351542 0 0 1 -0.82351,0.82352 0.82351542,0.82351542 0 0 1 -0.82352,-0.82352 0.82351542,0.82351542 0 0 1 0.82352,-0.82351 0.82351542,0.82351542 0 0 1 0.82351,0.82351 z" /><path
           id="circle90"
           style="fill:none;stroke:#ffffff;stroke-width:0.307214;stroke-linecap:round;stroke-linejoin:round;stroke-miterlimit:2.66;paint-order:stroke fill markers"
           d="m 124.0338,297.14117 a 1.409755,1.409755 0 0 1 -1.40975,1.40976 1.409755,1.409755 0 0 1 -1.40976,-1.40976 1.409755,1.409755 0 0 1 1.40976,-1.40975 1.409755,1.409755 0 0 1 1.40975,1.40975 z" /><path
           stroke="none"
           fill="#ffffff"
           d="m 122.70907,298.82443 c 0.17461,0.13683 0.26936,0.35657 0.10127,0.571 -0.0546,0.0847 -0.69772,0.89031 -0.69772,0.89031 -0.28883,0.36855 -0.7688,0.0747 -1.03071,-0.13047 -0.21513,-0.16859 -0.35773,-0.37735 -0.40726,-0.65364 l -0.0113,-0.13683 c 0.002,-0.18409 -0.034,-0.36519 -0.10671,-0.54329 -0.0326,-0.077 -0.32457,-0.27837 -0.26228,-0.62144 0.0492,-0.34591 0.38347,-0.37852 0.54766,-0.32446 0.27088,0.0915 0.29437,0.32189 0.34483,0.42073 l 0.64685,-0.82542 c 0.40577,-0.51777 1.04459,-0.0539 0.62097,0.48665 l -0.32405,0.4135 z"
           id="path90"
           style="display:inline;fill:#23c3f6;fill-opacity:1;stroke:url(#linearGradient386);stroke-width:0.776017;stroke-linecap:round;stroke-linejoin:round;stroke-dasharray:none;paint-order:stroke fill markers" /></g><path
         id="path91"
         style="fill:#ffffff;fill-opacity:1;stroke:none;stroke-width:0.989227;stroke-linecap:round;stroke-linejoin:round;stroke-miterlimit:0;stroke-dasharray:none;stroke-opacity:1;paint-order:stroke fill markers"
         d="m 135.75554,279.00891 1.36026,-1.40055 h -0.58844 v -1.20176 h -1.54363 v 1.20176 h -0.58844 z" /><path
         id="path92"
         style="fill:#ffffff;fill-opacity:1;stroke:none;stroke-width:0.989227;stroke-linecap:round;stroke-linejoin:round;stroke-miterlimit:0;stroke-dasharray:none;stroke-opacity:1;paint-order:stroke fill markers"
         d="m 135.60084,267.58537 1.36026,1.40055 h -0.58844 v 1.20176 h -1.54363 v -1.20176 h -0.58844 z" /></g></g></svg>
