<?xml version="1.0" encoding="UTF-8" standalone="no"?>
<!-- Created with Inkscape (http://www.inkscape.org/) -->

<svg
   width="48.000038"
   height="47.999996"
   viewBox="0 0 12.70001 12.699999"
   version="1.1"
   id="svg1"
   xml:space="preserve"
   xmlns:xlink="http://www.w3.org/1999/xlink"
   xmlns="http://www.w3.org/2000/svg"
   xmlns:svg="http://www.w3.org/2000/svg"><defs
     id="defs1"><linearGradient
       id="linearGradient1"><stop
         style="stop-color:#434a5f;stop-opacity:1;"
         offset="1"
         id="stop111" /><stop
         style="stop-color:#434a5f;stop-opacity:1;"
         offset="1"
         id="stop112" /></linearGradient><linearGradient
       id="linearGradient103"><stop
         style="stop-color:#434a5f;stop-opacity:1;"
         offset="1"
         id="stop103" /><stop
         style="stop-color:#434a5f;stop-opacity:1;"
         offset="1"
         id="stop104" /></linearGradient><linearGradient
       id="linearGradient89"><stop
         style="stop-color:#434a5f;stop-opacity:1;"
         offset="1"
         id="stop89" /><stop
         style="stop-color:#434a5f;stop-opacity:1;"
         offset="1"
         id="stop90" /></linearGradient><linearGradient
       id="linearGradient1-1"><stop
         style="stop-color:#434a5f;stop-opacity:1;"
         offset="0.47322804"
         id="stop3" /><stop
         style="stop-color:#434a5f;stop-opacity:1;"
         offset="1"
         id="stop4" /></linearGradient><linearGradient
       id="linearGradient2"><stop
         style="stop-color:#8a90a8;stop-opacity:1"
         offset="0.68779135"
         id="stop39" /><stop
         style="stop-color:#636883;stop-opacity:1;"
         offset="0.68779135"
         id="stop40" /></linearGradient><linearGradient
       id="linearGradient301"><stop
         style="stop-color:#ffffff;stop-opacity:1;"
         offset="0.68779135"
         id="stop300" /><stop
         style="stop-color:#b2b2b2;stop-opacity:1;"
         offset="0.68779135"
         id="stop301" /></linearGradient><linearGradient
       xlink:href="#linearGradient2"
       id="linearGradient932"
       gradientUnits="userSpaceOnUse"
       gradientTransform="matrix(0.9520049,0,0,0.9520049,32.461754,58.087834)"
       x1="105.9745"
       y1="212.45917"
       x2="105.97449"
       y2="218.71239" /><linearGradient
       xlink:href="#linearGradient2"
       id="linearGradient935"
       gradientUnits="userSpaceOnUse"
       gradientTransform="matrix(0.9520049,0,0,0.9520049,32.461754,58.087834)"
       x1="105.9745"
       y1="212.45917"
       x2="105.97449"
       y2="218.71239" /><linearGradient
       xlink:href="#linearGradient1-1"
       id="linearGradient373"
       x1="126.85568"
       y1="260.34998"
       x2="139.84431"
       y2="260.34998"
       gradientUnits="userSpaceOnUse" /><linearGradient
       xlink:href="#linearGradient1-1"
       id="linearGradient374"
       x1="126.85568"
       y1="260.34998"
       x2="139.84431"
       y2="260.34998"
       gradientUnits="userSpaceOnUse" /><linearGradient
       xlink:href="#linearGradient89"
       id="linearGradient741"
       x1="130.33463"
       y1="260.26813"
       x2="136.20168"
       y2="260.26813"
       gradientUnits="userSpaceOnUse" /><linearGradient
       xlink:href="#linearGradient89"
       id="linearGradient742"
       x1="129.84074"
       y1="260.26813"
       x2="136.69556"
       y2="260.26813"
       gradientUnits="userSpaceOnUse" /><linearGradient
       xlink:href="#linearGradient301"
       id="linearGradient1118"
       gradientUnits="userSpaceOnUse"
       x1="394.20316"
       y1="117.70407"
       x2="391.80466"
       y2="117.70407" /><linearGradient
       xlink:href="#linearGradient1"
       id="linearGradient1119"
       gradientUnits="userSpaceOnUse"
       x1="389.96683"
       y1="115.01765"
       x2="402.28177"
       y2="115.01765" /><linearGradient
       xlink:href="#linearGradient103"
       id="linearGradient1120"
       gradientUnits="userSpaceOnUse"
       x1="158.6666"
       y1="-4.4880328"
       x2="162.83586"
       y2="-4.4880328" /></defs><g
     id="layer5"
     style="display:inline"
     transform="translate(-88.89999,-330.19998)"><g
       id="g935"
       transform="matrix(0.97777784,0,0,0.97777784,-22.436676,69.285538)"
       style="display:inline;stroke-width:1.02273"><rect
         style="display:inline;fill:url(#linearGradient935);fill-opacity:1;stroke:url(#linearGradient374);stroke-width:1.08238;stroke-linecap:square;stroke-linejoin:round;stroke-miterlimit:2.66;stroke-dasharray:none;paint-order:fill markers stroke"
         id="rect935"
         width="11.906249"
         height="11.906249"
         x="127.39687"
         y="254.39687"
         rx="2.4279234"
         ry="2.4626966" /><path
         d="m 131.86145,262.33118 -0.82409,-1.49578 h -0.23142 v 1.49578 h -0.9652 v -3.9624 h 1.61995 q 0.46849,0 0.79587,0.16369 0.33302,0.16369 0.49671,0.45155 0.16369,0.28223 0.16369,0.63218 0,0.39511 -0.22578,0.70556 -0.22013,0.31044 -0.65475,0.44026 l 0.9144,1.56916 z m -1.05551,-2.17876 h 0.59831 q 0.26529,0 0.39511,-0.12982 0.13547,-0.12982 0.13547,-0.36689 0,-0.22578 -0.13547,-0.3556 -0.12982,-0.12982 -0.39511,-0.12982 h -0.59831 z m 5.65256,-1.10066 h -1.76107 v 0.77893 q 0.11289,-0.12418 0.31609,-0.2032 0.2032,-0.079 0.44027,-0.079 0.42333,0 0.69991,0.19191 0.28222,0.19191 0.41204,0.49671 0.12982,0.3048 0.12982,0.6604 0,0.6604 -0.37253,1.04986 -0.37253,0.38383 -1.04987,0.38383 -0.45155,0 -0.78457,-0.1524 -0.33303,-0.15805 -0.51365,-0.43463 -0.18062,-0.27657 -0.19755,-0.63782 h 0.94262 q 0.0339,0.17498 0.16369,0.29351 0.12982,0.11289 0.3556,0.11289 0.26529,0 0.39511,-0.16933 0.12982,-0.16933 0.12982,-0.45156 0,-0.27657 -0.13547,-0.42333 -0.13546,-0.14675 -0.39511,-0.14675 -0.19191,0 -0.31609,0.096 -0.12417,0.0903 -0.16369,0.24271 h -0.93133 v -2.45533 h 2.63596 z"
         id="text935"
         style="font-weight:bold;font-size:5.64444px;line-height:1.1;font-family:Poppins;-inkscape-font-specification:'Poppins Bold';text-align:center;letter-spacing:0.132292px;text-anchor:middle;fill:url(#linearGradient742);stroke-width:0.81179;stroke-linecap:square;stroke-linejoin:round;stroke-miterlimit:2.66;paint-order:fill markers stroke"
         aria-label="R5" /></g><g
       id="g932"
       transform="matrix(0.97777747,0,0,0.97777747,-35.136629,69.285638)"
       style="stroke-width:1.02273"><rect
         style="display:inline;fill:url(#linearGradient932);fill-opacity:1;stroke:url(#linearGradient373);stroke-width:1.08238;stroke-linecap:square;stroke-linejoin:round;stroke-miterlimit:2.66;stroke-dasharray:none;paint-order:fill markers stroke"
         id="rect932"
         width="11.906249"
         height="11.906249"
         x="127.39687"
         y="254.39687"
         rx="2.4279234"
         ry="2.4626966" /><path
         d="m 131.29983,261.58611 h 1.26435 v 0.74507 h -2.22955 v -3.9624 h 0.9652 z m 4.66477,-2.53435 h -1.76106 v 0.77893 q 0.11289,-0.12418 0.31609,-0.2032 0.2032,-0.079 0.44026,-0.079 0.42334,0 0.69991,0.19191 0.28223,0.19191 0.41205,0.49671 0.12982,0.3048 0.12982,0.6604 0,0.6604 -0.37253,1.04986 -0.37254,0.38383 -1.04987,0.38383 -0.45155,0 -0.78458,-0.1524 -0.33302,-0.15805 -0.51364,-0.43463 -0.18062,-0.27657 -0.19756,-0.63782 h 0.94263 q 0.0339,0.17498 0.16368,0.29351 0.12983,0.11289 0.3556,0.11289 0.26529,0 0.39512,-0.16933 0.12982,-0.16933 0.12982,-0.45156 0,-0.27657 -0.13547,-0.42333 -0.13547,-0.14675 -0.39511,-0.14675 -0.19191,0 -0.31609,0.096 -0.12418,0.0903 -0.16369,0.24271 h -0.93133 v -2.45533 h 2.63595 z"
         id="text932"
         style="font-weight:bold;font-size:5.64444px;line-height:1.1;font-family:Poppins;-inkscape-font-specification:'Poppins Bold';text-align:center;letter-spacing:0.132292px;text-anchor:middle;fill:url(#linearGradient741);stroke-width:0.81179;stroke-linecap:square;stroke-linejoin:round;stroke-miterlimit:2.66;paint-order:fill markers stroke"
         aria-label="L5" /></g><g
       id="g1065"
       transform="matrix(1,0,0,-1,-65.636696,340.95899)"
       style="display:inline"><path
         id="path1064"
         style="fill:url(#linearGradient1118);stroke:url(#linearGradient1119);stroke-width:1;stroke-linecap:round;stroke-linejoin:round;stroke-dasharray:none;paint-order:fill markers stroke"
         d="m 393.27574,109.36018 h 5.69711 a 2.8089072,2.8089072 45 0 1 2.80891,2.80891 v 2.52376 a 5.9822685,5.9822685 135 0 1 -5.98227,5.98227 h -2.52375 a 2.8089072,2.8089072 45 0 1 -2.80891,-2.80891 v -5.69712 a 2.8089072,2.8089072 135 0 1 2.80891,-2.80891 z"
         transform="matrix(0,1.0312685,-1.0312685,0,279.50077,-404.1015)" /><path
         d="m 159.6318,-3.1728782 h 1.26436 v 0.7450661 h -2.22956 v -3.962397 h 0.9652 z m 1.64055,-2.4779092 v -0.897466 h 1.56351 v 4.1204413 h -1.00471 v -3.2229753 z"
         id="text1064"
         style="font-weight:bold;font-size:5.64444px;font-family:Poppins;-inkscape-font-specification:'Poppins Bold';text-align:center;letter-spacing:0.110906px;text-anchor:middle;fill:url(#linearGradient1120);stroke-width:0.670673;stroke-linecap:round;stroke-linejoin:round;paint-order:fill markers stroke"
         transform="scale(1,-1)"
         aria-label="L1" /></g></g></svg>
