<?xml version="1.0" encoding="UTF-8" standalone="no"?>
<!-- Created with Inkscape (http://www.inkscape.org/) -->

<svg
   width="33.000011"
   height="31.913315"
   viewBox="0 0 8.731253 8.4437312"
   version="1.1"
   id="svg1"
   xml:space="preserve"
   xmlns:xlink="http://www.w3.org/1999/xlink"
   xmlns="http://www.w3.org/2000/svg"
   xmlns:svg="http://www.w3.org/2000/svg"><defs
     id="defs1"><linearGradient
       id="linearGradient1"><stop
         style="stop-color:#434a5f;stop-opacity:1;"
         offset="1"
         id="stop111" /><stop
         style="stop-color:#434a5f;stop-opacity:1;"
         offset="1"
         id="stop112" /></linearGradient><linearGradient
       id="linearGradient301"><stop
         style="stop-color:#ffffff;stop-opacity:1;"
         offset="0.68779135"
         id="stop300" /><stop
         style="stop-color:#b2b2b2;stop-opacity:1;"
         offset="0.68779135"
         id="stop301" /></linearGradient><radialGradient
       xlink:href="#linearGradient301"
       id="radialGradient5"
       cx="387.76566"
       cy="184.43718"
       fx="387.76566"
       fy="184.43718"
       r="3.7980435"
       gradientUnits="userSpaceOnUse"
       gradientTransform="matrix(1.3062652,0,0,1.1740965,-108.88531,-22.505786)" /><linearGradient
       xlink:href="#linearGradient1"
       id="linearGradient487"
       x1="395.69595"
       y1="197.817"
       x2="399.58304"
       y2="197.817"
       gradientUnits="userSpaceOnUse" /><linearGradient
       xlink:href="#linearGradient1"
       id="linearGradient488"
       x1="393.46164"
       y1="194.79788"
       x2="401.81735"
       y2="194.79788"
       gradientUnits="userSpaceOnUse" /></defs><g
     id="layer6"
     style="display:inline"
     transform="translate(-109.93437,-55.45314)"><g
       id="g104"
       transform="matrix(1.0449459,0,0,1.0449459,-301.21176,-144.49554)"
       style="display:inline;stroke-width:0.999961;stroke-dasharray:none;paint-order:fill markers stroke"><path
         id="path102"
         style="fill:#8a90a8;fill-opacity:1;stroke:url(#linearGradient487);stroke-width:0.759609;stroke-linecap:round;stroke-linejoin:round;stroke-miterlimit:0;stroke-dasharray:none"
         d="m 396.07574,196.58491 h 3.1275 c 0,0 0,1.29309 0,1.68231 0,1.0425 -3.1275,1.0425 -3.1275,0 0,-0.57456 0,-1.68231 0,-1.68231 z" /><path
         id="path2"
         style="fill:url(#radialGradient5);stroke:url(#linearGradient488);stroke-width:0.759609;stroke-linecap:round;stroke-linejoin:round;stroke-miterlimit:0;paint-order:normal"
         d="m 401.43754,194.79788 a 3.7980435,3.0697258 0 0 1 -3.79804,3.06973 3.7980435,3.0697258 0 0 1 -3.79805,-3.06973 3.7980435,3.0697258 0 0 1 3.79805,-3.06972 3.7980435,3.0697258 0 0 1 3.79804,3.06972 z" /></g></g></svg>
