<?xml version="1.0" encoding="UTF-8" standalone="no"?>
<!-- Created with Inkscape (http://www.inkscape.org/) -->

<svg
   width="38.974991"
   height="42.292625"
   viewBox="0 0 10.312133 11.189924"
   version="1.1"
   id="svg1"
   xml:space="preserve"
   xmlns:xlink="http://www.w3.org/1999/xlink"
   xmlns="http://www.w3.org/2000/svg"
   xmlns:svg="http://www.w3.org/2000/svg"><defs
     id="defs1"><linearGradient
       id="linearGradient1-1"><stop
         style="stop-color:#434a5f;stop-opacity:1;"
         offset="0.47322804"
         id="stop3" /><stop
         style="stop-color:#434a5f;stop-opacity:1;"
         offset="1"
         id="stop4" /></linearGradient><linearGradient
       xlink:href="#linearGradient1-1"
       id="linearGradient1292"
       gradientUnits="userSpaceOnUse"
       gradientTransform="translate(-0.29002512,0.36327599)"
       x1="119.89864"
       y1="298.85413"
       x2="123.28366"
       y2="298.85413" /></defs><g
     id="layer14"
     style="display:inline"
     transform="translate(-127.00001,-317.47872)"><g
       id="g1292"
       transform="translate(-12.64942,41.566724)"
       style="display:inline"><circle
         style="display:inline;fill:#ffffff;fill-opacity:1;stroke:#434a5f;stroke-width:0.620812;stroke-linecap:round;stroke-linejoin:round;stroke-miterlimit:2.66;stroke-dasharray:none;stroke-opacity:1;paint-order:stroke fill markers"
         id="circle1289"
         cx="122.62405"
         cy="297.14117"
         r="0.93121767"
         transform="matrix(-1.0498569,-1.3431298,1.3431298,-1.0498569,-127.52111,758.15833)" /><path
         style="display:inline;fill:#ffffff;stroke:#434a5f;stroke-width:0.620812;stroke-linecap:round;stroke-linejoin:round;stroke-miterlimit:2.66;stroke-dasharray:none;stroke-opacity:1;paint-order:stroke fill markers"
         d="m 122.625,295.57812 c -0.8616,0 -1.56445,0.7009 -1.56445,1.5625 -1e-5,0.86161 0.70284,1.56446 1.56445,1.56446 0.8616,0 1.5625,-0.70285 1.5625,-1.56446 0,-0.86159 -0.7009,-1.56249 -1.5625,-1.5625 z m 0,0.30665 c 0.69557,0 1.25586,0.56029 1.25586,1.25585 0,0.69558 -0.56029,1.25586 -1.25586,1.25586 -0.69557,10e-6 -1.25781,-0.56028 -1.25781,-1.25586 0,-0.69557 0.56224,-1.25586 1.25781,-1.25585 z"
         id="path1289"
         transform="matrix(-1.0498569,-1.3431298,1.3431298,-1.0498569,-127.52111,758.15833)" /><path
         stroke="none"
         fill="#ffffff"
         d="m 122.41905,299.1877 c 0.17461,0.13683 0.26936,0.35657 0.10127,0.571 -0.0546,0.0847 -0.69772,0.89031 -0.69772,0.89031 -0.28883,0.36855 -0.7688,0.0747 -1.03071,-0.13047 -0.21513,-0.16859 -0.35773,-0.37735 -0.40726,-0.65364 l -0.0113,-0.13683 c 0.002,-0.18409 -0.034,-0.36519 -0.10671,-0.54329 -0.0326,-0.077 -0.32457,-0.27837 -0.26228,-0.62144 0.0492,-0.34591 0.38347,-0.37852 0.54766,-0.32446 0.27088,0.0915 0.29437,0.32189 0.34483,0.42073 l 0.64685,-0.82542 c 0.40577,-0.51777 1.04459,-0.0539 0.62097,0.48665 l -0.32405,0.4135 z"
         id="path1290"
         style="display:inline;fill:#23c3f6;fill-opacity:1;stroke:url(#linearGradient1292);stroke-width:0.776017;stroke-linecap:round;stroke-linejoin:round;stroke-dasharray:none;paint-order:stroke fill markers"
         transform="matrix(-1.0498569,-1.3431298,1.3431298,-1.0498569,-127.52111,758.15833)" /><path
         id="path1291"
         style="fill:#feb21b;fill-opacity:1;stroke:#434a5f;stroke-width:1.05833;stroke-linecap:round;stroke-linejoin:round;stroke-miterlimit:0;stroke-dasharray:none;stroke-opacity:1;paint-order:stroke fill markers"
         d="m 142.84035,286.57278 1.36026,-1.40055 h -0.58844 v -1.20176 h -1.54363 v 1.20176 h -0.58844 z" /><path
         id="path1292"
         style="fill:#feb21b;fill-opacity:1;stroke:#434a5f;stroke-width:1.05833;stroke-linecap:round;stroke-linejoin:round;stroke-miterlimit:0;stroke-dasharray:none;stroke-opacity:1;paint-order:stroke fill markers"
         d="m 142.84035,276.44114 1.36026,1.40055 h -0.58844 v 1.20176 h -1.54363 v -1.20176 h -0.58844 z" /></g></g></svg>
