<?xml version="1.0" encoding="UTF-8" standalone="no"?>
<!-- Created with Inkscape (http://www.inkscape.org/) -->

<svg
   width="36.605186"
   height="38.80658"
   viewBox="0 0 9.6851223 10.267574"
   version="1.1"
   id="svg1"
   xml:space="preserve"
   xmlns:xlink="http://www.w3.org/1999/xlink"
   xmlns="http://www.w3.org/2000/svg"
   xmlns:svg="http://www.w3.org/2000/svg"><defs
     id="defs1"><linearGradient
       id="linearGradient89"><stop
         style="stop-color:#434a5f;stop-opacity:1;"
         offset="1"
         id="stop89" /><stop
         style="stop-color:#434a5f;stop-opacity:1;"
         offset="1"
         id="stop90" /></linearGradient><linearGradient
       id="linearGradient1-1"><stop
         style="stop-color:#434a5f;stop-opacity:1;"
         offset="1"
         id="stop3" /><stop
         style="stop-color:#434a5f;stop-opacity:1;"
         offset="1"
         id="stop4" /></linearGradient><linearGradient
       id="linearGradient2"><stop
         style="stop-color:#8a90a8;stop-opacity:1"
         offset="0.68779135"
         id="stop39" /><stop
         style="stop-color:#636883;stop-opacity:1;"
         offset="0.68779135"
         id="stop40" /></linearGradient><linearGradient
       xlink:href="#linearGradient2"
       id="linearGradient850"
       x1="399.12854"
       y1="192.2068"
       x2="399.12854"
       y2="196.93156"
       gradientUnits="userSpaceOnUse"
       gradientTransform="matrix(0.90653534,0,0,0.90653534,49.11776,17.964542)" /><linearGradient
       xlink:href="#linearGradient1-1"
       id="linearGradient395"
       x1="406.1665"
       y1="192.20679"
       x2="415.17548"
       y2="192.20679"
       gradientUnits="userSpaceOnUse" /><linearGradient
       xlink:href="#linearGradient89"
       id="linearGradient715"
       x1="65.673103"
       y1="220.97934"
       x2="71.961357"
       y2="220.97934"
       gradientUnits="userSpaceOnUse" /></defs><g
     id="g151"
     style="display:inline"
     transform="translate(-203.2,-279.4)"><g
       id="g851"
       transform="translate(139.22534,63.025282)"
       style="display:inline"><path
         id="rect849"
         style="display:inline;fill:url(#linearGradient850);stroke:url(#linearGradient395);stroke-width:0.984451;stroke-linecap:round;stroke-linejoin:round;stroke-miterlimit:0;paint-order:fill markers stroke"
         transform="matrix(1.0750507,0,0,1.0750507,-372.67491,14.876452)"
         d="m 407.2451,187.92363 h 6.85178 c 0.32486,0 0.58638,0.26152 0.58638,0.58638 v 7.39357 c 0,0.32486 -0.26152,0.58638 -0.58638,0.58638 h -6.85178 c -0.32485,0 -0.58638,-0.26152 -0.58638,-0.58638 v -7.39357 c 0,-0.32486 0.26153,-0.58638 0.58638,-0.58638 z" /><path
         id="path850"
         style="display:inline;fill-opacity:0.245589;stroke:url(#linearGradient715);stroke-width:1.05833;stroke-linecap:round;stroke-linejoin:round;stroke-miterlimit:0;paint-order:fill markers stroke"
         d="m 71.432189,220.97934 a 2.6149588,2.6149588 0 0 1 -2.614959,2.61496 2.6149588,2.6149588 0 0 1 -2.614959,-2.61496 2.6149588,2.6149588 0 0 1 2.614959,-2.61496 2.6149588,2.6149588 0 0 1 2.614959,2.61496 z" /></g></g></svg>
