<?xml version="1.0" encoding="UTF-8" standalone="no"?>
<!-- Created with Inkscape (http://www.inkscape.org/) -->

<svg
   width="47.999996"
   height="34.000053"
   viewBox="0 0 12.699999 8.9958475"
   version="1.1"
   id="svg1"
   xml:space="preserve"
   xmlns:xlink="http://www.w3.org/1999/xlink"
   xmlns="http://www.w3.org/2000/svg"
   xmlns:svg="http://www.w3.org/2000/svg"><defs
     id="defs1"><linearGradient
       id="linearGradient89"><stop
         style="stop-color:#434a5f;stop-opacity:1;"
         offset="1"
         id="stop89" /><stop
         style="stop-color:#434a5f;stop-opacity:1;"
         offset="1"
         id="stop90" /></linearGradient><linearGradient
       id="linearGradient1-1"><stop
         style="stop-color:#434a5f;stop-opacity:1;"
         offset="0.47322804"
         id="stop3" /><stop
         style="stop-color:#434a5f;stop-opacity:1;"
         offset="1"
         id="stop4" /></linearGradient><linearGradient
       id="linearGradient2"><stop
         style="stop-color:#8a90a8;stop-opacity:1"
         offset="0.68779135"
         id="stop39" /><stop
         style="stop-color:#636883;stop-opacity:1;"
         offset="0.68779135"
         id="stop40" /></linearGradient><linearGradient
       xlink:href="#linearGradient2"
       id="linearGradient150"
       gradientUnits="userSpaceOnUse"
       x1="398.78177"
       y1="117.41906"
       x2="398.78177"
       y2="119.43993" /><linearGradient
       xlink:href="#linearGradient1-1"
       id="linearGradient400"
       x1="389.96683"
       y1="116.81357"
       x2="402.28177"
       y2="116.81357"
       gradientUnits="userSpaceOnUse" /><linearGradient
       xlink:href="#linearGradient89"
       id="linearGradient758"
       x1="157.94025"
       y1="-4.1097903"
       x2="163.60001"
       y2="-4.1097903"
       gradientUnits="userSpaceOnUse" /></defs><g
     id="g151"
     style="display:inline"
     transform="translate(-254.00002,-304.80003)"><g
       id="g147"
       transform="matrix(1,0,0,-1,99.46333,312.91321)"
       style="display:inline"><path
         id="path147"
         style="fill:url(#linearGradient150);stroke:url(#linearGradient400);stroke-width:1;stroke-linecap:round;stroke-linejoin:round;stroke-dasharray:none;paint-order:fill markers stroke"
         d="m 393.08858,112.95203 h 6.07143 a 2.6217471,2.6217471 45 0 1 2.62175,2.62175 v 2.47959 a 2.6217471,2.6217471 135 0 1 -2.62175,2.62175 h -6.07143 a 2.6217471,2.6217471 45 0 1 -2.62175,-2.62175 v -2.47959 a 2.6217471,2.6217471 135 0 1 2.62175,-2.62175 z"
         transform="matrix(1.0312685,0,0,-1.0312685,-247.62382,124.08142)" /><path
         d="m 159.22649,-2.4221646 q -0.36146,0 -0.64782,-0.1173593 -0.28635,-0.1173592 -0.46005,-0.3473833 -0.16899,-0.2300241 -0.17838,-0.5539357 h 0.85437 q 0.0188,0.1830805 0.12675,0.2816622 0.10797,0.093887 0.28166,0.093887 0.17839,0 0.28167,-0.079804 0.10327,-0.084499 0.10327,-0.2300241 0,-0.1220536 -0.0845,-0.2018579 -0.0798,-0.079804 -0.20186,-0.1314423 -0.11735,-0.051638 -0.33799,-0.1173593 -0.31922,-0.098582 -0.52108,-0.1971635 -0.20185,-0.098582 -0.34738,-0.2910509 -0.14552,-0.1924692 -0.14552,-0.5022976 0,-0.4600482 0.3333,-0.7182386 0.3333,-0.2628847 0.86845,-0.2628847 0.54455,0 0.87785,0.2628847 0.3333,0.2581904 0.35677,0.722933 h -0.86845 q -0.009,-0.1596086 -0.11736,-0.2488016 -0.10797,-0.093887 -0.27697,-0.093887 -0.14553,0 -0.23472,0.079804 -0.0892,0.07511 -0.0892,0.2206353 0,0.1596086 0.15022,0.2488016 0.15022,0.089193 0.46943,0.1924692 0.31922,0.1079705 0.51638,0.2065523 0.20186,0.098582 0.34739,0.2863565 0.14552,0.1877748 0.14552,0.4835201 0,0.2816622 -0.14552,0.5116863 -0.14083,0.2300241 -0.41311,0.3661609 -0.27227,0.1361367 -0.64313,0.1361367 z m 3.46749,-0.032861 -0.68537,-1.244008 h -0.19247 v 1.244008 h -0.80274 v -3.2954476 h 1.34728 q 0.38964,0 0.66191,0.1361367 0.27697,0.1361368 0.4131,0.3755496 0.13614,0.2347185 0.13614,0.5257694 0,0.3286059 -0.18777,0.5867963 -0.18308,0.2581903 -0.54455,0.3661608 L 163.6,-2.4550252 Z m -0.87784,-1.8120267 h 0.4976 q 0.22064,0 0.32861,-0.1079705 0.11266,-0.1079705 0.11266,-0.3051341 0,-0.1877748 -0.11266,-0.2957453 -0.10797,-0.1079705 -0.32861,-0.1079705 h -0.4976 z"
         id="text147"
         style="font-weight:bold;font-size:4.69437px;font-family:Poppins;-inkscape-font-specification:'Poppins Bold';text-align:center;letter-spacing:0.0922384px;text-anchor:middle;fill:url(#linearGradient758);stroke-width:0.557786;stroke-linecap:round;stroke-linejoin:round;paint-order:fill markers stroke"
         transform="scale(1,-1)"
         aria-label="SR" /></g></g></svg>
