<?xml version="1.0" encoding="UTF-8" standalone="no"?>
<!-- Created with Inkscape (http://www.inkscape.org/) -->

<svg
   width="47.999996"
   height="38.000038"
   viewBox="0 0 12.699999 10.054177"
   version="1.1"
   id="svg1"
   xml:space="preserve"
   xmlns:xlink="http://www.w3.org/1999/xlink"
   xmlns="http://www.w3.org/2000/svg"
   xmlns:svg="http://www.w3.org/2000/svg"><defs
     id="defs1"><linearGradient
       id="linearGradient89"><stop
         style="stop-color:#434a5f;stop-opacity:1;"
         offset="1"
         id="stop89" /><stop
         style="stop-color:#434a5f;stop-opacity:1;"
         offset="1"
         id="stop90" /></linearGradient><linearGradient
       id="linearGradient1-1"><stop
         style="stop-color:#434a5f;stop-opacity:1;"
         offset="1"
         id="stop3" /><stop
         style="stop-color:#434a5f;stop-opacity:1;"
         offset="1"
         id="stop4" /></linearGradient><linearGradient
       id="linearGradient2"><stop
         style="stop-color:#8a90a8;stop-opacity:1"
         offset="0.68779135"
         id="stop39" /><stop
         style="stop-color:#636883;stop-opacity:1;"
         offset="0.68779135"
         id="stop40" /></linearGradient><linearGradient
       xlink:href="#linearGradient2"
       id="linearGradient96"
       gradientUnits="userSpaceOnUse"
       x1="398.78177"
       y1="117.41906"
       x2="398.78177"
       y2="119.43993" /><linearGradient
       xlink:href="#linearGradient1-1"
       id="linearGradient398"
       x1="389.96683"
       y1="116.30046"
       x2="402.28177"
       y2="116.30046"
       gradientUnits="userSpaceOnUse" /><linearGradient
       xlink:href="#linearGradient89"
       id="linearGradient755"
       x1="184.66248"
       y1="-3.9137197"
       x2="187.77257"
       y2="-3.9137197"
       gradientUnits="userSpaceOnUse" /></defs><g
     id="g151"
     style="display:inline"
     transform="translate(-254.00002,-292.10002)"><g
       id="g152"
       style="display:inline"
       transform="matrix(1,0,0,-1,74.06333,300.21321)"><path
         id="path88"
         style="fill:url(#linearGradient96);stroke:url(#linearGradient398);stroke-width:1;stroke-linecap:round;stroke-linejoin:round;stroke-dasharray:none;paint-order:fill markers stroke"
         d="m 394.57159,111.92579 h 5.04863 a 2.1615393,2.1615393 45 0 1 2.16154,2.16154 v 4.26798 a 2.3198052,2.3198052 135 0 1 -2.31981,2.31981 h -6.6335 a 2.3616182,2.3616182 45 0 1 -2.36162,-2.36162 v -2.28295 a 4.1047594,4.1047594 135 0 1 4.10476,-4.10476 z"
         transform="matrix(-1.0312685,0,0,-1.0312685,594.7972,123.0231)" /><path
         d="m 186.68319,-1.9325211 -0.82408,-1.4957767 h -0.23143 v 1.4957767 h -0.9652 v -3.962397 h 1.61996 q 0.46849,0 0.79587,0.1636888 0.33302,0.1636887 0.49671,0.4515552 0.16368,0.282222 0.16368,0.6321773 0,0.3951108 -0.22577,0.705555 -0.22014,0.3104442 -0.65476,0.4402663 l 0.9144,1.5691544 z m -1.05551,-2.1787539 h 0.59831 q 0.26529,0 0.39512,-0.1298221 0.13546,-0.1298222 0.13546,-0.3668886 0,-0.2257777 -0.13546,-0.3555998 -0.12983,-0.1298221 -0.39512,-0.1298221 h -0.59831 z"
         id="text88"
         style="font-weight:bold;font-size:5.64444px;font-family:Poppins;-inkscape-font-specification:'Poppins Bold';text-align:center;letter-spacing:0.110906px;text-anchor:middle;fill:url(#linearGradient755);stroke-width:0.670673;stroke-linecap:round;stroke-linejoin:round;paint-order:fill markers stroke"
         transform="scale(1,-1)"
         aria-label="R" /></g></g></svg>
