<?xml version="1.0" encoding="UTF-8" standalone="no"?>
<!-- Created with Inkscape (http://www.inkscape.org/) -->

<svg
   width="38.806614"
   height="38.806576"
   viewBox="0 0 10.267583 10.267573"
   version="1.1"
   id="svg1"
   xml:space="preserve"
   xmlns:xlink="http://www.w3.org/1999/xlink"
   xmlns="http://www.w3.org/2000/svg"
   xmlns:svg="http://www.w3.org/2000/svg"><defs
     id="defs1"><linearGradient
       id="linearGradient1"><stop
         style="stop-color:#434a5f;stop-opacity:1;"
         offset="1"
         id="stop111" /><stop
         style="stop-color:#434a5f;stop-opacity:1;"
         offset="1"
         id="stop112" /></linearGradient><linearGradient
       id="linearGradient103"><stop
         style="stop-color:#434a5f;stop-opacity:1;"
         offset="1"
         id="stop103" /><stop
         style="stop-color:#434a5f;stop-opacity:1;"
         offset="1"
         id="stop104" /></linearGradient><linearGradient
       id="linearGradient301"><stop
         style="stop-color:#ffffff;stop-opacity:1;"
         offset="0.68779135"
         id="stop300" /><stop
         style="stop-color:#b2b2b2;stop-opacity:1;"
         offset="0.68779135"
         id="stop301" /></linearGradient><radialGradient
       xlink:href="#linearGradient301"
       id="radialGradient18"
       gradientUnits="userSpaceOnUse"
       gradientTransform="matrix(1.1667933,-1.3121638e-4,1.4924351e-4,1.3270929,-54.326549,-63.105241)"
       cx="388.60379"
       cy="191.03438"
       fx="388.60379"
       fy="191.03438"
       r="5.3493915" /><linearGradient
       xlink:href="#linearGradient1"
       id="linearGradient429"
       x1="394.35315"
       y1="192.2068"
       x2="403.90393"
       y2="192.2068"
       gradientUnits="userSpaceOnUse" /><linearGradient
       xlink:href="#linearGradient103"
       id="linearGradient949"
       x1="54.610134"
       y1="221.98627"
       x2="58.206856"
       y2="221.98627"
       gradientUnits="userSpaceOnUse" /><linearGradient
       xlink:href="#linearGradient103"
       id="linearGradient950"
       x1="53.493439"
       y1="219.69504"
       x2="59.323551"
       y2="219.69504"
       gradientUnits="userSpaceOnUse" /><linearGradient
       xlink:href="#linearGradient103"
       id="linearGradient599"
       x1="53.493439"
       y1="219.69504"
       x2="59.323551"
       y2="219.69504"
       gradientUnits="userSpaceOnUse" /></defs><g
     id="g151"
     style="display:inline"
     transform="translate(-190.49998,-292.24612)"><g
       id="g15"
       style="display:inline;stroke:#434a5f;stroke-width:0.98445;stroke-dasharray:none;stroke-opacity:1;paint-order:fill markers stroke"
       transform="matrix(1.0750507,0,0,1.0750507,-233.44964,90.747847)"><path
         id="circle15"
         style="fill:url(#radialGradient18);stroke:url(#linearGradient429);stroke-linecap:round;stroke-linejoin:round"
         d="m 403.41171,192.2068 a 4.2831659,4.2831659 0 0 1 -4.28317,4.28317 4.2831659,4.2831659 0 0 1 -4.28317,-4.28317 4.2831659,4.2831659 0 0 1 4.28317,-4.28316 4.2831659,4.2831659 0 0 1 4.28317,4.28316 z" /><path
         id="rect15"
         style="display:inline;fill-opacity:0.248319;stroke:url(#linearGradient949);stroke-width:1.05833;stroke-linecap:round;stroke-linejoin:round;stroke-miterlimit:0"
         transform="matrix(0.9301887,0,0,0.9301887,346.65799,-13.837907)"
         d="m 55.640182,220.70197 h 1.536626 c 0.277488,0 0.500881,0.22605 0.500881,0.50684 v 1.55491 c 0,0.28079 -0.223393,0.50684 -0.500881,0.50684 h -1.536626 c -0.277488,0 -0.500881,-0.22605 -0.500881,-0.50684 v -1.55491 c 0,-0.28079 0.223393,-0.50684 0.500881,-0.50684 z" /><path
         id="path15"
         style="display:inline;fill:url(#linearGradient599);stroke:url(#linearGradient950);stroke-width:1.05833;stroke-linecap:round;stroke-linejoin:round;stroke-miterlimit:0;paint-order:fill markers stroke"
         d="m 54.022511,220.70197 2.385984,-2.01387 2.385983,2.01387 z"
         transform="matrix(0.9301887,0,0,0.9301887,346.65799,-13.837907)" /></g></g></svg>
