<?xml version="1.0" encoding="UTF-8" standalone="no"?>
<!-- Created with Inkscape (http://www.inkscape.org/) -->

<svg
   width="32.766953"
   height="29.64444"
   viewBox="0 0 8.6695895 7.8434247"
   version="1.1"
   id="svg1"
   xml:space="preserve"
   xmlns:xlink="http://www.w3.org/1999/xlink"
   xmlns="http://www.w3.org/2000/svg"
   xmlns:svg="http://www.w3.org/2000/svg"><defs
     id="defs1"><linearGradient
       id="linearGradient1-1"><stop
         style="stop-color:#434a5f;stop-opacity:1;"
         offset="1"
         id="stop3" /><stop
         style="stop-color:#434a5f;stop-opacity:1;"
         offset="1"
         id="stop4" /></linearGradient><linearGradient
       xlink:href="#linearGradient1-1"
       id="linearGradient387"
       x1="118.5613"
       y1="301.01611"
       x2="124.61387"
       y2="301.01611"
       gradientUnits="userSpaceOnUse" /><linearGradient
       xlink:href="#linearGradient1-1"
       id="linearGradient388"
       x1="127.00001"
       y1="315.19455"
       x2="131.7625"
       y2="315.19455"
       gradientUnits="userSpaceOnUse" /></defs><g
     id="layer14"
     style="display:inline"
     transform="translate(-127,-317.49999)"><path
       id="path541"
       style="fill:#23c3f6;stroke:url(#linearGradient388);stroke-width:1.27;stroke-linecap:round;stroke-linejoin:round;stroke-miterlimit:0;stroke-dasharray:none;paint-order:stroke fill markers"
       d="m 129.38125,316.86502 1.74634,-1.79808 h -0.75546 v -1.54285 h -1.98175 v 1.54285 h -0.75546 z" /><g
       id="g24"
       transform="matrix(1.3431298,-1.0498569,1.0498569,1.3431298,-346.99201,49.802238)"
       style="display:inline"><path
         id="path18"
         style="fill:#ffffff;stroke-width:1.0294;stroke-linecap:round;stroke-linejoin:round;stroke-miterlimit:2.66;paint-order:stroke fill markers"
         d="m 123.44756,297.14117 a 0.82351542,0.82351542 0 0 1 -0.82351,0.82352 0.82351542,0.82351542 0 0 1 -0.82352,-0.82352 0.82351542,0.82351542 0 0 1 0.82352,-0.82351 0.82351542,0.82351542 0 0 1 0.82351,0.82351 z" /><path
         id="circle18"
         style="fill:none;stroke:#ffffff;stroke-width:0.307214;stroke-linecap:round;stroke-linejoin:round;stroke-miterlimit:2.66;paint-order:stroke fill markers"
         d="m 124.0338,297.14117 a 1.409755,1.409755 0 0 1 -1.40975,1.40976 1.409755,1.409755 0 0 1 -1.40976,-1.40976 1.409755,1.409755 0 0 1 1.40976,-1.40975 1.409755,1.409755 0 0 1 1.40975,1.40975 z" /><path
         stroke="none"
         fill="#ffffff"
         d="m 123.20893,300.14538 c 0.37819,0 0.73638,0.1952 0.73638,0.65961 0.0157,0.17107 0,1.92833 0,1.92833 0,0.79825 -0.95296,0.90874 -1.52025,0.90874 -0.46594,0 -0.8768,-0.13016 -1.23379,-0.4488 l -0.15931,-0.17151 c -0.19145,-0.24869 -0.42961,-0.45429 -0.71445,-0.61681 -0.12457,-0.069 -0.72824,-0.0322 -1.00539,-0.55805 -0.29781,-0.51582 0.1165,-0.91114 0.39365,-1.01125 0.4597,-0.16203 0.73349,0.12238 0.90511,0.20194 v -1.78775 c 0,-1.12144 1.34494,-1.17078 1.34494,0 v 0.8956 z"
         id="path2-5"
         style="display:inline;fill:#23c3f6;fill-opacity:1;stroke:url(#linearGradient387);stroke-width:1.32292;stroke-linecap:round;stroke-linejoin:round;stroke-dasharray:none;paint-order:stroke fill markers"
         transform="matrix(0.5865938,0,0,0.5865938,51.493331,122.49536)" /></g></g></svg>
