<?xml version="1.0" encoding="UTF-8" standalone="no"?>
<!-- Created with Inkscape (http://www.inkscape.org/) -->

<svg
   width="47.999817"
   height="47.999817"
   viewBox="0 0 12.699952 12.699952"
   version="1.1"
   id="svg1"
   xml:space="preserve"
   xmlns:xlink="http://www.w3.org/1999/xlink"
   xmlns="http://www.w3.org/2000/svg"
   xmlns:svg="http://www.w3.org/2000/svg"><defs
     id="defs1"><linearGradient
       id="linearGradient1"><stop
         style="stop-color:#434a5f;stop-opacity:1;"
         offset="1"
         id="stop111" /><stop
         style="stop-color:#434a5f;stop-opacity:1;"
         offset="1"
         id="stop112" /></linearGradient><linearGradient
       id="linearGradient103"><stop
         style="stop-color:#434a5f;stop-opacity:1;"
         offset="1"
         id="stop103" /><stop
         style="stop-color:#434a5f;stop-opacity:1;"
         offset="1"
         id="stop104" /></linearGradient><linearGradient
       id="linearGradient89"><stop
         style="stop-color:#434a5f;stop-opacity:1;"
         offset="1"
         id="stop89" /><stop
         style="stop-color:#434a5f;stop-opacity:1;"
         offset="1"
         id="stop90" /></linearGradient><linearGradient
       id="linearGradient1-1"><stop
         style="stop-color:#434a5f;stop-opacity:1;"
         offset="1"
         id="stop3" /><stop
         style="stop-color:#434a5f;stop-opacity:1;"
         offset="1"
         id="stop4" /></linearGradient><linearGradient
       id="linearGradient2"><stop
         style="stop-color:#8a90a8;stop-opacity:1"
         offset="0.68779135"
         id="stop39" /><stop
         style="stop-color:#636883;stop-opacity:1;"
         offset="0.68779135"
         id="stop40" /></linearGradient><linearGradient
       id="linearGradient301"><stop
         style="stop-color:#ffffff;stop-opacity:1;"
         offset="0.68779135"
         id="stop300" /><stop
         style="stop-color:#b2b2b2;stop-opacity:1;"
         offset="0.68779135"
         id="stop301" /></linearGradient><radialGradient
       xlink:href="#linearGradient2"
       id="radialGradient3"
       gradientUnits="userSpaceOnUse"
       gradientTransform="matrix(1.3210463,-1.485635e-4,1.6897385e-4,1.5025378,-124.79435,-96.679263)"
       cx="388.60379"
       cy="191.03438"
       fx="388.60379"
       fy="191.03438"
       r="5.3493915" /><linearGradient
       xlink:href="#linearGradient301"
       id="linearGradient177"
       x1="398.78177"
       y1="117.41906"
       x2="398.78177"
       y2="119.40787"
       gradientUnits="userSpaceOnUse" /><linearGradient
       xlink:href="#linearGradient2"
       id="linearGradient210"
       gradientUnits="userSpaceOnUse"
       x1="398.78177"
       y1="117.41906"
       x2="398.78177"
       y2="119.43993" /><linearGradient
       xlink:href="#linearGradient1"
       id="linearGradient8"
       x1="389.96683"
       y1="115.01765"
       x2="402.28177"
       y2="115.01765"
       gradientUnits="userSpaceOnUse" /><linearGradient
       xlink:href="#linearGradient1-1"
       id="linearGradient9"
       x1="383.25916"
       y1="192.38565"
       x2="393.95795"
       y2="192.38565"
       gradientUnits="userSpaceOnUse" /><linearGradient
       xlink:href="#linearGradient1-1"
       id="linearGradient17"
       x1="389.96683"
       y1="115.01765"
       x2="402.28177"
       y2="115.01765"
       gradientUnits="userSpaceOnUse" /><linearGradient
       xlink:href="#linearGradient89"
       id="linearGradient93"
       x1="386.62332"
       y1="191.93987"
       x2="390.5878"
       y2="191.93987"
       gradientUnits="userSpaceOnUse" /><linearGradient
       xlink:href="#linearGradient89"
       id="linearGradient100"
       x1="158.033"
       y1="-3.9137075"
       x2="163.68674"
       y2="-3.9137075"
       gradientUnits="userSpaceOnUse" /><linearGradient
       xlink:href="#linearGradient103"
       id="linearGradient108"
       x1="157.53912"
       y1="-3.9137075"
       x2="164.18065"
       y2="-3.9137075"
       gradientUnits="userSpaceOnUse" /></defs><g
     id="g584"
     style="display:inline"
     transform="translate(-25.399992,-165.10009)"><g
       id="g3"
       style="display:inline;paint-order:fill markers stroke"
       transform="matrix(1.1870466,0,0,1.1870466,-429.54649,-56.920662)"><path
         id="circle3"
         style="fill:url(#radialGradient3);stroke:url(#linearGradient9);stroke-width:0.999961;stroke-linecap:round;stroke-linejoin:round"
         d="m 393.45796,192.38565 a 4.849411,4.849411 0 0 1 -4.84941,4.84941 4.849411,4.849411 0 0 1 -4.84941,-4.84941 4.849411,4.849411 0 0 1 4.84941,-4.84941 4.849411,4.849411 0 0 1 4.84941,4.84941 z" /><path
         d="m 389.405,194.02614 -0.84996,-1.27792 -0.74892,1.27792 h -1.1531 l 1.33736,-2.12193 -1.36707,-2.05061 h 1.18281 l 0.83807,1.26008 0.73703,-1.26008 h 1.1531 l -1.32547,2.1041 1.37896,2.06844 z"
         id="text3"
         style="font-weight:bold;font-size:5.94379px;font-family:Poppins;-inkscape-font-specification:'Poppins Bold';text-align:center;letter-spacing:0.131671px;text-anchor:middle;fill:url(#linearGradient93);stroke-width:1.99061;stroke-linecap:round;stroke-linejoin:round;stroke-dasharray:3.98122, 1.99061"
         aria-label="X" /></g><g
       id="g201"
       transform="matrix(1,0,0,-1,-129.13672,188.55901)"
       style="display:inline"><path
         id="path200"
         style="fill:url(#linearGradient210);stroke:url(#linearGradient17);stroke-width:1;stroke-linecap:round;stroke-linejoin:round;stroke-dasharray:none;paint-order:fill markers stroke"
         d="m 397.02152,109.36018 h 1.76024 a 3,3 45 0 1 3,3 v 5.31494 a 3,3 135 0 1 -3,3 h -5.31493 a 3,3 45 0 1 -3,-3 v -1.76025 a 6.5546876,6.5546876 135 0 1 6.55469,-6.55469 z"
         transform="matrix(1.0312685,0,0,-1.0312685,-247.62382,123.02309)" /><path
         d="m 158.9982,-2.6775752 h 1.26435 v 0.7450661 H 158.033 v -3.962397 h 0.9652 z m 4.68854,-3.2173309 v 0.7732883 h -1.04986 v 3.1891087 h -0.9652 v -3.1891087 h -1.04987 v -0.7732883 z"
         id="text201"
         style="font-weight:bold;font-size:5.64444px;font-family:Poppins;-inkscape-font-specification:'Poppins Bold';text-align:center;letter-spacing:0.110906px;text-anchor:middle;fill:url(#linearGradient100);stroke-width:0.670673;stroke-linecap:round;stroke-linejoin:round;paint-order:fill markers stroke"
         transform="scale(1,-1)"
         aria-label="LT" /></g><g
       id="g6"
       transform="matrix(1,0,0,-1,-141.8367,188.55901)"
       style="display:inline"><path
         id="path4"
         style="fill:url(#linearGradient177);stroke:url(#linearGradient8);stroke-width:1;stroke-linecap:round;stroke-linejoin:round;stroke-dasharray:none;paint-order:fill markers stroke"
         d="m 397.02152,109.36018 h 1.76024 a 3,3 45 0 1 3,3 v 5.31494 a 3,3 135 0 1 -3,3 h -5.31493 a 3,3 45 0 1 -3,-3 v -1.76025 a 6.5546876,6.5546876 135 0 1 6.55469,-6.55469 z"
         transform="matrix(-1.0312685,0,0,-1.0312685,569.3972,123.02309)" /><path
         d="m 159.55983,-1.9325091 -0.82409,-1.4957766 h -0.23142 v 1.4957766 h -0.9652 v -3.962397 h 1.61996 q 0.46849,0 0.79586,0.1636888 0.33302,0.1636888 0.49671,0.4515552 0.16369,0.282222 0.16369,0.6321773 0,0.3951108 -0.22578,0.705555 -0.22013,0.3104442 -0.65475,0.4402664 l 0.9144,1.5691543 z m -1.05551,-2.1787539 h 0.59831 q 0.26529,0 0.39511,-0.1298221 0.13547,-0.1298221 0.13547,-0.3668886 0,-0.2257776 -0.13547,-0.3555997 -0.12982,-0.1298222 -0.39511,-0.1298222 h -0.59831 z m 5.67633,-1.7836431 v 0.7732883 h -1.04987 v 3.1891087 h -0.9652 v -3.1891087 h -1.04986 v -0.7732883 z"
         id="text6"
         style="font-weight:bold;font-size:5.64444px;font-family:Poppins;-inkscape-font-specification:'Poppins Bold';text-align:center;letter-spacing:0.110906px;text-anchor:middle;fill:url(#linearGradient108);stroke-width:0.670673;stroke-linecap:round;stroke-linejoin:round;paint-order:fill markers stroke"
         transform="scale(1,-1)"
         aria-label="RT" /></g></g></svg>
