<?xml version="1.0" encoding="UTF-8" standalone="no"?>
<!-- Created with Inkscape (http://www.inkscape.org/) -->

<svg
   width="47.999817"
   height="47.999817"
   viewBox="0 0 12.699952 12.699952"
   version="1.1"
   id="svg1"
   xml:space="preserve"
   xmlns:xlink="http://www.w3.org/1999/xlink"
   xmlns="http://www.w3.org/2000/svg"
   xmlns:svg="http://www.w3.org/2000/svg"><defs
     id="defs1"><linearGradient
       id="linearGradient1"><stop
         style="stop-color:#434a5f;stop-opacity:1;"
         offset="1"
         id="stop111" /><stop
         style="stop-color:#434a5f;stop-opacity:1;"
         offset="1"
         id="stop112" /></linearGradient><linearGradient
       id="linearGradient1-1"><stop
         style="stop-color:#434a5f;stop-opacity:1;"
         offset="1"
         id="stop3" /><stop
         style="stop-color:#434a5f;stop-opacity:1;"
         offset="1"
         id="stop4" /></linearGradient><linearGradient
       id="linearGradient301"><stop
         style="stop-color:#ffffff;stop-opacity:1;"
         offset="0.68779135"
         id="stop300" /><stop
         style="stop-color:#b2b2b2;stop-opacity:1;"
         offset="0.68779135"
         id="stop301" /></linearGradient><linearGradient
       id="linearGradient10"><stop
         style="stop-color:#bae236;stop-opacity:1;"
         offset="0.68779135"
         id="stop11" /><stop
         style="stop-color:#8cb319;stop-opacity:1;"
         offset="0.68779135"
         id="stop12" /></linearGradient><radialGradient
       xlink:href="#linearGradient10"
       id="radialGradient19"
       gradientUnits="userSpaceOnUse"
       gradientTransform="matrix(1.3210463,-1.485635e-4,1.6897385e-4,1.5025378,-124.79435,-96.679263)"
       cx="388.60379"
       cy="191.03438"
       fx="388.60379"
       fy="191.03438"
       r="5.3493915" /><radialGradient
       xlink:href="#linearGradient301"
       id="radialGradient565"
       gradientUnits="userSpaceOnUse"
       gradientTransform="matrix(1.3210463,-1.485635e-4,1.6897385e-4,1.5025378,-124.79435,-96.679263)"
       cx="388.60379"
       cy="191.03438"
       fx="388.60379"
       fy="191.03438"
       r="5.3493915" /><linearGradient
       xlink:href="#linearGradient1-1"
       id="linearGradient415"
       x1="383.25916"
       y1="192.38565"
       x2="393.95795"
       y2="192.38565"
       gradientUnits="userSpaceOnUse" /><linearGradient
       xlink:href="#linearGradient1"
       id="linearGradient441"
       x1="383.25916"
       y1="192.38565"
       x2="393.95795"
       y2="192.38565"
       gradientUnits="userSpaceOnUse" /></defs><g
     id="g583"
     style="display:inline"
     transform="translate(-63.500072,-139.7)"><g
       id="g19"
       style="display:inline;stroke-width:0.999961;stroke-dasharray:none;paint-order:fill markers stroke"
       transform="matrix(1.1870466,0,0,1.1870466,-391.44641,-82.320757)"><path
         id="circle19"
         style="fill:url(#radialGradient19);stroke:url(#linearGradient415);stroke-linecap:round;stroke-linejoin:round"
         d="m 393.45796,192.38565 a 4.849411,4.849411 0 0 1 -4.84941,4.84941 4.849411,4.849411 0 0 1 -4.84941,-4.84941 4.849411,4.849411 0 0 1 4.84941,-4.84941 4.849411,4.849411 0 0 1 4.84941,4.84941 z" /><path
         d="m 389.38123,193.28911 h -1.55728 l -0.24964,0.73703 h -1.06393 l 1.50972,-4.17254 h 1.17687 l 1.50972,4.17254 h -1.07582 z m -0.26153,-0.78458 -0.51711,-1.52756 -0.51117,1.52756 z"
         id="text19"
         style="font-weight:bold;font-size:5.94379px;font-family:Poppins;-inkscape-font-specification:'Poppins Bold';text-align:center;letter-spacing:0.131671px;text-anchor:middle;fill:#ffffff;stroke-linecap:round;stroke-linejoin:round"
         aria-label="A" /></g><g
       id="g473"
       style="display:inline;paint-order:fill markers stroke"
       transform="matrix(1.1870466,0,0,1.1870466,-391.44641,-69.620807)"><path
         id="circle473"
         style="fill:url(#radialGradient565);stroke:url(#linearGradient441);stroke-width:0.999961;stroke-linecap:round;stroke-linejoin:round"
         d="m 393.45796,192.38565 a 4.849411,4.849411 0 0 1 -4.84941,4.84941 4.849411,4.849411 0 0 1 -4.84941,-4.84941 4.849411,4.849411 0 0 1 4.84941,-4.84941 4.849411,4.849411 0 0 1 4.84941,4.84941 z" /><path
         d="m 389.38123,193.28911 h -1.55728 l -0.24964,0.73703 h -1.06393 l 1.50972,-4.17254 h 1.17687 l 1.50972,4.17254 h -1.07582 z m -0.26153,-0.78458 -0.51711,-1.52756 -0.51117,1.52756 z"
         id="text473"
         style="font-weight:bold;font-size:5.94379px;font-family:Poppins;-inkscape-font-specification:'Poppins Bold';text-align:center;letter-spacing:0.131671px;text-anchor:middle;fill:#bae236;stroke-width:1.99061;stroke-linecap:round;stroke-linejoin:round;stroke-dasharray:3.98122, 1.99061"
         aria-label="A" /></g></g></svg>
