<?xml version="1.0" encoding="UTF-8" standalone="no"?>
<!-- Created with Inkscape (http://www.inkscape.org/) -->

<svg
   width="47.999817"
   height="47.999817"
   viewBox="0 0 12.699952 12.699952"
   version="1.1"
   id="svg1"
   xml:space="preserve"
   xmlns:xlink="http://www.w3.org/1999/xlink"
   xmlns="http://www.w3.org/2000/svg"
   xmlns:svg="http://www.w3.org/2000/svg"><defs
     id="defs1"><linearGradient
       id="linearGradient89"><stop
         style="stop-color:#434a5f;stop-opacity:1;"
         offset="1"
         id="stop89" /><stop
         style="stop-color:#434a5f;stop-opacity:1;"
         offset="1"
         id="stop90" /></linearGradient><linearGradient
       id="linearGradient1-1"><stop
         style="stop-color:#434a5f;stop-opacity:1;"
         offset="1"
         id="stop3" /><stop
         style="stop-color:#434a5f;stop-opacity:1;"
         offset="1"
         id="stop4" /></linearGradient><linearGradient
       id="linearGradient2"><stop
         style="stop-color:#8a90a8;stop-opacity:1"
         offset="0.68779135"
         id="stop39" /><stop
         style="stop-color:#636883;stop-opacity:1;"
         offset="0.68779135"
         id="stop40" /></linearGradient><linearGradient
       xlink:href="#linearGradient2"
       id="linearGradient862"
       gradientUnits="userSpaceOnUse"
       gradientTransform="matrix(0.97457145,0,0,0.97457145,-307.17084,46.88924)"
       x1="399.16949"
       y1="190.40506"
       x2="399.16949"
       y2="195.06465" /><radialGradient
       xlink:href="#linearGradient2"
       id="radialGradient68"
       gradientUnits="userSpaceOnUse"
       gradientTransform="matrix(1.3210463,-1.485635e-4,1.6897385e-4,1.5025378,-124.79435,-96.679263)"
       cx="388.60379"
       cy="191.03438"
       fx="388.60379"
       fy="191.03438"
       r="5.3493915" /><radialGradient
       xlink:href="#linearGradient2"
       id="radialGradient81"
       gradientUnits="userSpaceOnUse"
       gradientTransform="matrix(1.3210463,-1.485635e-4,1.6897385e-4,1.5025378,-124.79435,-96.679263)"
       cx="388.60379"
       cy="191.03438"
       fx="388.60379"
       fy="191.03438"
       r="5.3493915" /><linearGradient
       xlink:href="#linearGradient1-1"
       id="linearGradient408"
       x1="76.674667"
       y1="233.29878"
       x2="87.022072"
       y2="233.29878"
       gradientUnits="userSpaceOnUse" /><linearGradient
       xlink:href="#linearGradient1-1"
       id="linearGradient413"
       x1="383.25916"
       y1="192.38565"
       x2="393.95795"
       y2="192.38565"
       gradientUnits="userSpaceOnUse" /><linearGradient
       xlink:href="#linearGradient1-1"
       id="linearGradient414"
       x1="383.25916"
       y1="192.38565"
       x2="393.95795"
       y2="192.38565"
       gradientUnits="userSpaceOnUse" /><linearGradient
       xlink:href="#linearGradient89"
       id="linearGradient707"
       x1="79.356064"
       y1="233.57195"
       x2="83.39135"
       y2="233.57195"
       gradientUnits="userSpaceOnUse" /><linearGradient
       xlink:href="#linearGradient89"
       id="linearGradient708"
       x1="79.35614"
       y1="231.46223"
       x2="83.391266"
       y2="231.46223"
       gradientUnits="userSpaceOnUse" /><linearGradient
       xlink:href="#linearGradient89"
       id="linearGradient709"
       x1="80.97683"
       y1="232.26595"
       x2="81.770576"
       y2="232.26595"
       gradientUnits="userSpaceOnUse" /><linearGradient
       xlink:href="#linearGradient89"
       id="linearGradient711"
       x1="79.35614"
       y1="231.46223"
       x2="83.391266"
       y2="231.46223"
       gradientUnits="userSpaceOnUse" /></defs><g
     id="g583"
     style="display:inline"
     transform="translate(-88.900072,-165.10005)"><g
       id="g67"
       style="display:inline;paint-order:fill markers stroke"
       transform="matrix(1.1870466,0,0,1.1870466,-366.04641,-56.920707)"><path
         id="circle28"
         style="fill:url(#radialGradient81);stroke:url(#linearGradient413);stroke-width:0.999961;stroke-linecap:round;stroke-linejoin:round"
         d="m 393.45796,192.38565 a 4.849411,4.849411 0 0 1 -4.84941,4.84941 4.849411,4.849411 0 0 1 -4.84941,-4.84941 4.849411,4.849411 0 0 1 4.84941,-4.84941 4.849411,4.849411 0 0 1 4.84941,4.84941 z" /><path
         d="m 389.405,194.02614 -0.84996,-1.27792 -0.74892,1.27792 h -1.1531 l 1.33736,-2.12193 -1.36707,-2.05061 h 1.18281 l 0.83807,1.26008 0.73703,-1.26008 h 1.1531 l -1.32547,2.1041 1.37896,2.06844 z"
         id="text67"
         style="font-weight:bold;font-size:5.94379px;font-family:Poppins;-inkscape-font-specification:'Poppins Bold';text-align:center;letter-spacing:0.131671px;text-anchor:middle;fill:#23c3f6;stroke-width:1.99061;stroke-linecap:round;stroke-linejoin:round;stroke-dasharray:3.98122, 1.99061"
         aria-label="X" /></g><g
       id="g68"
       style="display:inline;paint-order:fill markers stroke"
       transform="matrix(1.1870466,0,0,1.1870466,-353.34646,-56.920707)"><path
         id="circle67"
         style="fill:url(#radialGradient68);stroke:url(#linearGradient414);stroke-width:0.999961;stroke-linecap:round;stroke-linejoin:round"
         d="m 393.45796,192.38565 a 4.849411,4.849411 0 0 1 -4.84941,4.84941 4.849411,4.849411 0 0 1 -4.84941,-4.84941 4.849411,4.849411 0 0 1 4.84941,-4.84941 4.849411,4.849411 0 0 1 4.84941,4.84941 z" /><path
         d="m 390.5581,189.8536 -1.44434,2.79358 v 1.37896 h -1.01639 v -1.37896 l -1.44434,-2.79358 h 1.15309 l 0.80836,1.74747 0.80241,-1.74747 z"
         id="text68"
         style="font-weight:bold;font-size:5.94379px;font-family:Poppins;-inkscape-font-specification:'Poppins Bold';text-align:center;letter-spacing:0.131671px;text-anchor:middle;fill:#feb21b;stroke-width:1.99061;stroke-linecap:round;stroke-linejoin:round;stroke-dasharray:3.98122, 1.99061"
         aria-label="Y" /></g><g
       id="g864"
       transform="translate(12.70006,-50.799999)"><path
         id="rect862"
         style="display:inline;fill:url(#linearGradient862);stroke:url(#linearGradient408);stroke-width:1.05833;stroke-linecap:round;stroke-linejoin:round;stroke-miterlimit:0;paint-order:fill markers stroke"
         transform="translate(-0.47466726,-0.47471761)"
         d="m 77.83422,229.60388 h 8.028304 c 0.349234,0 0.630385,0.28115 0.630385,0.63039 v 6.12903 c 0,0.34923 -0.281151,0.63038 -0.630385,0.63038 H 77.83422 c -0.349234,0 -0.630385,-0.28115 -0.630385,-0.63038 v -6.12903 c 0,-0.34924 0.281151,-0.63039 0.630385,-0.63039 z" /><path
         style="fill:none;fill-opacity:1;stroke:url(#linearGradient707);stroke-width:0.79375;stroke-linecap:round;stroke-linejoin:round;stroke-miterlimit:0;stroke-dasharray:none;paint-order:fill markers stroke"
         d="m 79.752936,233.22094 v 0.70201 h 3.241537 v -0.70201"
         id="path862" /><path
         style="fill:none;fill-opacity:1;stroke:url(#linearGradient709);stroke-width:0.79375;stroke-linecap:round;stroke-linejoin:round;stroke-miterlimit:0;stroke-dasharray:none;paint-order:fill markers stroke"
         d="m 81.373704,232.68469 v -0.83748"
         id="path863" /><path
         id="path864"
         style="fill:url(#linearGradient711);stroke:url(#linearGradient708);stroke-width:0.79375;stroke-linecap:round;stroke-linejoin:round;stroke-miterlimit:0;stroke-dasharray:none;paint-order:fill markers stroke"
         d="m 81.373704,230.86841 1.620769,1.18764 h -3.241537 z" /></g></g></svg>
