<?xml version="1.0" encoding="UTF-8" standalone="no"?>
<!-- Created with Inkscape (http://www.inkscape.org/) -->

<svg
   width="37.76495"
   height="40.764969"
   viewBox="0 0 9.9919763 10.785731"
   version="1.1"
   id="svg1"
   xml:space="preserve"
   xmlns:xlink="http://www.w3.org/1999/xlink"
   xmlns="http://www.w3.org/2000/svg"
   xmlns:svg="http://www.w3.org/2000/svg"><defs
     id="defs1"><linearGradient
       id="linearGradient89"><stop
         style="stop-color:#434a5f;stop-opacity:1;"
         offset="1"
         id="stop89" /><stop
         style="stop-color:#434a5f;stop-opacity:1;"
         offset="1"
         id="stop90" /></linearGradient><linearGradient
       id="linearGradient1-1"><stop
         style="stop-color:#434a5f;stop-opacity:1;"
         offset="1"
         id="stop3" /><stop
         style="stop-color:#434a5f;stop-opacity:1;"
         offset="1"
         id="stop4" /></linearGradient><linearGradient
       id="linearGradient568"><stop
         style="stop-color:#6d7592;stop-opacity:1;"
         offset="0.18130387"
         id="stop565" /><stop
         style="stop-color:#a7adbe;stop-opacity:1;"
         offset="0.18130387"
         id="stop566" /><stop
         style="stop-color:#a8acbd;stop-opacity:1;"
         offset="0.2008221"
         id="stop567" /><stop
         style="stop-color:#8a90a8;stop-opacity:1;"
         offset="0.2008221"
         id="stop568" /></linearGradient><radialGradient
       xlink:href="#linearGradient568"
       id="radialGradient526"
       gradientUnits="userSpaceOnUse"
       gradientTransform="matrix(7.5298137,0,0,1.8808423,-2892.3294,-173.49759)"
       cx="452.62515"
       cy="196.25169"
       fx="452.62515"
       fy="196.25169"
       r="4.2087579" /><linearGradient
       xlink:href="#linearGradient1-1"
       id="linearGradient294"
       x1="511.64505"
       y1="191.57932"
       x2="520.06256"
       y2="191.57932"
       gradientUnits="userSpaceOnUse" /><linearGradient
       xlink:href="#linearGradient89"
       id="linearGradient981"
       x1="473.5661"
       y1="207.48062"
       x2="474.96667"
       y2="207.48062"
       gradientUnits="userSpaceOnUse" /></defs><g
     id="g456"
     transform="translate(-292.10011,-38.099953)"
     style="display:inline"><g
       id="g408"
       style="display:inline;paint-order:fill markers stroke"
       transform="matrix(1.1870466,0,0,1.1870466,-315.2464,-183.92075)"><path
         id="rect408"
         style="opacity:1;fill:url(#radialGradient526);stroke:url(#linearGradient294);stroke-width:1.00301;stroke-linecap:round;stroke-linejoin:round;stroke-miterlimit:0"
         d="m 513.26101,187.53772 h 5.18558 c 0.61741,0 1.11446,0.49705 1.11446,1.11446 v 5.85426 c 0,0.61741 -0.49705,1.11446 -1.11446,1.11446 h -5.18558 c -0.61742,0 -1.11446,-0.49705 -1.11446,-1.11446 v -5.85426 c 0,-0.61741 0.49704,-1.11446 1.11446,-1.11446 z" /><path
         d="m 474.96668,207.76115 q -0.20365,0.008 -0.29924,0.0956 -0.0956,0.0831 -0.0956,0.22442 0,0.11221 0.0416,0.44469 0.004,0.0333 0.0249,0.21611 0.0208,0.17871 0.0208,0.32417 0,0.35742 -0.21611,0.55275 -0.21611,0.19949 -0.57768,0.19949 h -0.29923 v -0.58184 h 0.16208 q 0.13299,0 0.19118,-0.0623 0.0582,-0.0582 0.0582,-0.17871 0,-0.0956 -0.0333,-0.41144 -0.0374,-0.40313 -0.0374,-0.52781 0,-0.23274 0.10805,-0.3782 0.11222,-0.14961 0.33664,-0.19533 v -0.008 q -0.22442,-0.0416 -0.33664,-0.19118 -0.10805,-0.14961 -0.10805,-0.37819 0,-0.12468 0.0374,-0.52781 0.0333,-0.32417 0.0333,-0.4156 0,-0.12053 -0.0582,-0.17871 -0.0582,-0.0582 -0.19118,-0.0582 h -0.16208 v -0.58184 h 0.29923 q 0.36157,0 0.57768,0.19948 0.21611,0.19534 0.21611,0.5486 0,0.14545 -0.0208,0.32832 -0.0208,0.17871 -0.0249,0.21195 -0.0416,0.33248 -0.0416,0.44469 0,0.14962 0.0956,0.23274 0.0956,0.079 0.29924,0.0873 z"
         id="text408"
         style="font-weight:bold;font-size:4.15599px;font-family:Poppins;-inkscape-font-specification:'Poppins Bold';text-align:center;letter-spacing:0.0920667px;text-anchor:middle;fill:url(#linearGradient981);stroke-width:1.99061;stroke-linecap:round;stroke-linejoin:round;stroke-dasharray:3.98122, 1.99061"
         transform="scale(1.0875925,0.91946202)"
         aria-label="}" /></g></g></svg>
