<?xml version="1.0" encoding="UTF-8" standalone="no"?>
<!-- Created with Inkscape (http://www.inkscape.org/) -->

<svg
   width="37.764996"
   height="40.764969"
   viewBox="0 0 9.9919884 10.785731"
   version="1.1"
   id="svg1"
   xml:space="preserve"
   xmlns:xlink="http://www.w3.org/1999/xlink"
   xmlns="http://www.w3.org/2000/svg"
   xmlns:svg="http://www.w3.org/2000/svg"><defs
     id="defs1"><linearGradient
       id="linearGradient1"><stop
         style="stop-color:#434a5f;stop-opacity:1;"
         offset="1"
         id="stop111" /><stop
         style="stop-color:#434a5f;stop-opacity:1;"
         offset="1"
         id="stop112" /></linearGradient><linearGradient
       id="linearGradient103"><stop
         style="stop-color:#434a5f;stop-opacity:1;"
         offset="1"
         id="stop103" /><stop
         style="stop-color:#434a5f;stop-opacity:1;"
         offset="1"
         id="stop104" /></linearGradient><linearGradient
       id="linearGradient7"><stop
         style="stop-color:#b8b8b8;stop-opacity:1;"
         offset="0.16548869"
         id="stop14" /><stop
         style="stop-color:#ffffff;stop-opacity:1;"
         offset="0.16548869"
         id="stop16" /><stop
         style="stop-color:#ffffff;stop-opacity:1;"
         offset="0.2089889"
         id="stop15" /><stop
         style="stop-color:#e5e5e5;stop-opacity:1;"
         offset="0.2089889"
         id="stop7" /></linearGradient><radialGradient
       xlink:href="#linearGradient7"
       id="radialGradient187"
       gradientUnits="userSpaceOnUse"
       gradientTransform="matrix(7.5298137,0,0,1.8808423,-2817.4376,-184.1964)"
       cx="452.62515"
       cy="196.25169"
       fx="452.62515"
       fy="196.25169"
       r="4.2087579" /><linearGradient
       xlink:href="#linearGradient1"
       id="linearGradient219"
       x1="586.53674"
       y1="180.88049"
       x2="594.95428"
       y2="180.88049"
       gradientUnits="userSpaceOnUse" /><linearGradient
       xlink:href="#linearGradient103"
       id="linearGradient798"
       x1="589.43469"
       y1="180.20235"
       x2="592.06079"
       y2="180.20235"
       gradientUnits="userSpaceOnUse" /></defs><g
     id="layer2"
     transform="translate(-127.00007,4.4832906e-5)"
     style="display:inline"><g
       id="g221"
       style="display:inline;paint-order:fill markers stroke"
       transform="matrix(1.1870466,0,0,1.1870466,-569.2464,-209.32075)"><path
         id="rect181"
         style="opacity:1;fill:url(#radialGradient187);stroke:url(#linearGradient219);stroke-width:1.00301;stroke-linecap:round;stroke-linejoin:round;stroke-miterlimit:0"
         d="m 588.15273,176.8389 h 5.18558 c 0.61742,0 1.11447,0.49705 1.11447,1.11446 v 5.85426 c 0,0.61741 -0.49705,1.11446 -1.11447,1.11446 h -5.18558 c -0.61741,0 -1.11446,-0.49705 -1.11446,-1.11446 v -5.85426 c 0,-0.61741 0.49705,-1.11446 1.11446,-1.11446 z" /><path
         d="m 589.43468,180.69277 q 0.0814,-0.50172 0.31188,-0.74128 0.23504,-0.23956 0.5876,-0.23956 0.14464,0 0.25764,0.0452 0.11752,0.0407 0.26668,0.12656 0.10849,0.0633 0.18533,0.0949 0.0768,0.0316 0.1582,0.0316 0.24408,0 0.28476,-0.29832 h 0.57404 q -0.0814,0.50172 -0.3164,0.74128 -0.23504,0.23956 -0.5876,0.23956 -0.14464,0 -0.26217,-0.0452 -0.113,-0.0452 -0.26216,-0.12656 -0.113,-0.0633 -0.18984,-0.0949 -0.0723,-0.0316 -0.15368,-0.0316 -0.24408,0 -0.28928,0.29832 z"
         id="text181"
         style="font-weight:bold;font-size:4.52002px;font-family:Poppins;-inkscape-font-specification:'Poppins Bold';text-align:center;letter-spacing:0.100131px;text-anchor:middle;fill:url(#linearGradient798);stroke-width:1.99061;stroke-linecap:round;stroke-linejoin:round;stroke-dasharray:3.98122, 1.99061"
         aria-label="~" /></g></g></svg>
